M48
; DRILL file {KiCad (7.0.0)} date Thu Apr 20 14:35:27 2023
; FORMAT={-:-/ absolute / metric / decimal}
; #@! TF.CreationDate,2023-04-20T14:35:27+01:00
; #@! TF.GenerationSoftware,Kicad,Pcbnew,(7.0.0)
; #@! TF.FileFunction,Plated,1,2,PTH
FMAT,2
METRIC
; #@! TA.AperFunction,Plated,PTH,ViaDrill
T1C0.500
; #@! TA.AperFunction,Plated,PTH,ComponentDrill
T2C0.800
; #@! TA.AperFunction,Plated,PTH,ComponentDrill
T3C1.000
; #@! TA.AperFunction,Plated,PTH,ComponentDrill
T4C1.020
; #@! TA.AperFunction,Plated,PTH,ComponentDrill
T5C1.400
%
G90
G05
T1
X144.78Y-104.14
X149.86Y-109.22
X182.88Y-96.52
T2
X175.26Y-71.12
X175.26Y-81.28
T3
X107.95Y-83.82
X107.95Y-86.36
X107.95Y-88.9
X107.95Y-121.92
X107.95Y-124.46
X107.95Y-127.0
X107.95Y-129.54
X107.95Y-132.08
X137.16Y-147.32
X139.7Y-147.32
X142.24Y-147.32
X144.78Y-147.32
X147.32Y-147.32
X149.86Y-147.32
X190.5Y-73.66
X190.5Y-76.2
X190.5Y-78.74
X190.5Y-91.44
X190.5Y-93.98
X190.5Y-96.52
X190.5Y-111.76
X190.5Y-114.3
T4
X134.62Y-73.66
X134.62Y-76.2
X134.62Y-78.74
X134.62Y-81.28
X134.62Y-83.82
X134.62Y-86.36
X134.62Y-88.9
X134.62Y-91.44
X134.62Y-93.98
X134.62Y-96.52
X134.62Y-99.06
X134.62Y-101.6
X134.62Y-104.14
X134.62Y-106.68
X134.62Y-109.22
X134.62Y-111.76
X134.62Y-114.3
X134.62Y-116.84
X134.62Y-119.38
X134.62Y-121.92
X134.62Y-124.46
X161.29Y-73.66
X161.29Y-76.2
X161.29Y-78.74
X161.29Y-81.28
X161.29Y-83.82
X161.29Y-86.36
X161.29Y-88.9
X161.29Y-91.44
X161.29Y-93.98
X161.29Y-96.52
X161.29Y-99.06
X161.29Y-101.6
X161.29Y-104.14
X161.29Y-106.68
X161.29Y-109.22
X161.29Y-111.76
X161.29Y-114.3
X161.29Y-116.84
X161.29Y-119.38
X161.29Y-121.92
X161.29Y-124.46
T5
X172.68Y-121.92
X172.68Y-147.52
X182.88Y-121.92
X182.88Y-147.52
T0
M30
