%TF.GenerationSoftware,KiCad,Pcbnew,(7.0.0)*%
%TF.CreationDate,2023-04-20T14:35:36+01:00*%
%TF.ProjectId,Board V1.0,426f6172-6420-4563-912e-302e6b696361,rev?*%
%TF.SameCoordinates,Original*%
%TF.FileFunction,Copper,L1,Top*%
%TF.FilePolarity,Positive*%
%FSLAX46Y46*%
G04 Gerber Fmt 4.6, Leading zero omitted, Abs format (unit mm)*
G04 Created by KiCad (PCBNEW (7.0.0)) date 2023-04-20 14:35:36*
%MOMM*%
%LPD*%
G01*
G04 APERTURE LIST*
G04 Aperture macros list*
%AMRoundRect*
0 Rectangle with rounded corners*
0 $1 Rounding radius*
0 $2 $3 $4 $5 $6 $7 $8 $9 X,Y pos of 4 corners*
0 Add a 4 corners polygon primitive as box body*
4,1,4,$2,$3,$4,$5,$6,$7,$8,$9,$2,$3,0*
0 Add four circle primitives for the rounded corners*
1,1,$1+$1,$2,$3*
1,1,$1+$1,$4,$5*
1,1,$1+$1,$6,$7*
1,1,$1+$1,$8,$9*
0 Add four rect primitives between the rounded corners*
20,1,$1+$1,$2,$3,$4,$5,0*
20,1,$1+$1,$4,$5,$6,$7,0*
20,1,$1+$1,$6,$7,$8,$9,0*
20,1,$1+$1,$8,$9,$2,$3,0*%
G04 Aperture macros list end*
%TA.AperFunction,ComponentPad*%
%ADD10C,1.800000*%
%TD*%
%TA.AperFunction,ComponentPad*%
%ADD11R,1.700000X1.700000*%
%TD*%
%TA.AperFunction,ComponentPad*%
%ADD12O,1.700000X1.700000*%
%TD*%
%TA.AperFunction,ComponentPad*%
%ADD13C,1.600000*%
%TD*%
%TA.AperFunction,ComponentPad*%
%ADD14O,1.600000X1.600000*%
%TD*%
%TA.AperFunction,ComponentPad*%
%ADD15RoundRect,0.750000X-0.750000X1.750000X-0.750000X-1.750000X0.750000X-1.750000X0.750000X1.750000X0*%
%TD*%
%TA.AperFunction,ViaPad*%
%ADD16C,1.000000*%
%TD*%
%TA.AperFunction,Conductor*%
%ADD17C,1.000000*%
%TD*%
G04 APERTURE END LIST*
D10*
%TO.P,U1,1,3V3*%
%TO.N,+3.3V*%
X161290000Y-124460000D03*
%TO.P,U1,2,NC*%
%TO.N,unconnected-(U1-NC-Pad2)*%
X161290000Y-121920000D03*
%TO.P,U1,3,GPIO36*%
%TO.N,unconnected-(U1-GPIO36-Pad3)*%
X161290000Y-119380000D03*
%TO.P,U1,4,GPIO39*%
%TO.N,unconnected-(U1-GPIO39-Pad4)*%
X161290000Y-116840000D03*
%TO.P,U1,5,GPIO34*%
%TO.N,unconnected-(U1-GPIO34-Pad5)*%
X161290000Y-114300000D03*
%TO.P,U1,6,GPIO35*%
%TO.N,unconnected-(U1-GPIO35-Pad6)*%
X161290000Y-111760000D03*
%TO.P,U1,7,GPIO32*%
%TO.N,Level Sensor*%
X161290000Y-109220000D03*
%TO.P,U1,8,GPIO33*%
%TO.N,pH Analog*%
X161290000Y-106680000D03*
%TO.P,U1,9,GPIO25*%
%TO.N,unconnected-(U1-GPIO25-Pad9)*%
X161290000Y-104140000D03*
%TO.P,U1,10,GPIO26*%
%TO.N,unconnected-(U1-GPIO26-Pad10)*%
X161290000Y-101600000D03*
%TO.P,U1,11,GPIO27*%
%TO.N,unconnected-(U1-GPIO27-Pad11)*%
X161290000Y-99060000D03*
%TO.P,U1,12,GPIO14*%
%TO.N,unconnected-(U1-GPIO14-Pad12)*%
X161290000Y-96520000D03*
%TO.P,U1,13,GPIO12*%
%TO.N,unconnected-(U1-GPIO12-Pad13)*%
X161290000Y-93980000D03*
%TO.P,U1,14,GND*%
%TO.N,unconnected-(U1-GND-Pad14)*%
X161290000Y-91440000D03*
%TO.P,U1,15,GPIO13*%
%TO.N,unconnected-(U1-GPIO13-Pad15)*%
X161290000Y-88900000D03*
%TO.P,U1,16,SD2*%
%TO.N,unconnected-(U1-SD2-Pad16)*%
X161290000Y-86360000D03*
%TO.P,U1,17,SD3*%
%TO.N,unconnected-(U1-SD3-Pad17)*%
X161290000Y-83820000D03*
%TO.P,U1,18,CMD*%
%TO.N,unconnected-(U1-CMD-Pad18)*%
X161290000Y-81280000D03*
%TO.P,U1,19,5V*%
%TO.N,+5V*%
X161290000Y-78740000D03*
%TO.P,U1,20,SPK+*%
%TO.N,unconnected-(U1-SPK+-Pad20)*%
X161290000Y-76200000D03*
%TO.P,U1,21,SPK-*%
%TO.N,unconnected-(U1-SPK--Pad21)*%
X161290000Y-73660000D03*
%TO.P,U1,22,GND*%
%TO.N,GND*%
X134620000Y-124460000D03*
%TO.P,U1,23,GPIO23*%
%TO.N,MOSI*%
X134620000Y-121920000D03*
%TO.P,U1,24,GPIO22*%
%TO.N,RX*%
X134620000Y-119380000D03*
%TO.P,U1,25,TX*%
%TO.N,unconnected-(U1-TX-Pad25)*%
X134620000Y-116840000D03*
%TO.P,U1,26,RX*%
%TO.N,unconnected-(U1-RX-Pad26)*%
X134620000Y-114300000D03*
%TO.P,U1,27,GPIO21*%
%TO.N,TX*%
X134620000Y-111760000D03*
%TO.P,U1,28,GND*%
%TO.N,unconnected-(U1-GND-Pad28)*%
X134620000Y-109220000D03*
%TO.P,U1,29,GPIO19*%
%TO.N,MISO*%
X134620000Y-106680000D03*
%TO.P,U1,30,GPIO18*%
%TO.N,SCK*%
X134620000Y-104140000D03*
%TO.P,U1,31,GPIO5*%
%TO.N,SS*%
X134620000Y-101600000D03*
%TO.P,U1,32,NC*%
%TO.N,unconnected-(U1-NC-Pad32)*%
X134620000Y-99060000D03*
%TO.P,U1,33,NC*%
%TO.N,unconnected-(U1-NC-Pad33)*%
X134620000Y-96520000D03*
%TO.P,U1,34,GPIO4*%
%TO.N,Temperature Data*%
X134620000Y-93980000D03*
%TO.P,U1,35,GPIO0*%
%TO.N,unconnected-(U1-GPIO0-Pad35)*%
X134620000Y-91440000D03*
%TO.P,U1,36,GPIO2*%
%TO.N,unconnected-(U1-GPIO2-Pad36)*%
X134620000Y-88900000D03*
%TO.P,U1,37,GPIO15*%
%TO.N,unconnected-(U1-GPIO15-Pad37)*%
X134620000Y-86360000D03*
%TO.P,U1,38,SD1*%
%TO.N,unconnected-(U1-SD1-Pad38)*%
X134620000Y-83820000D03*
%TO.P,U1,39,SD0*%
%TO.N,unconnected-(U1-SD0-Pad39)*%
X134620000Y-81280000D03*
%TO.P,U1,40,CLK*%
%TO.N,unconnected-(U1-CLK-Pad40)*%
X134620000Y-78740000D03*
%TO.P,U1,41,MIC-*%
%TO.N,unconnected-(U1-MIC--Pad41)*%
X134620000Y-76200000D03*
%TO.P,U1,42,MIC+*%
%TO.N,unconnected-(U1-MIC+-Pad42)*%
X134620000Y-73660000D03*
%TD*%
D11*
%TO.P,J4,1,Pin_1*%
%TO.N,GND*%
X190499999Y-73659999D03*
D12*
%TO.P,J4,2,Pin_2*%
%TO.N,Temperature Data*%
X190499999Y-76199999D03*
%TO.P,J4,3,Pin_3*%
%TO.N,+3.3V*%
X190499999Y-78739999D03*
%TD*%
D13*
%TO.P,R1,1*%
%TO.N,+3.3V*%
X175260000Y-81280000D03*
D14*
%TO.P,R1,2*%
%TO.N,Temperature Data*%
X175259999Y-71119999D03*
%TD*%
D11*
%TO.P,J1,1,Pin_1*%
%TO.N,MISO*%
X149859999Y-147319999D03*
D12*
%TO.P,J1,2,Pin_2*%
%TO.N,SCK*%
X147319999Y-147319999D03*
%TO.P,J1,3,Pin_3*%
%TO.N,SS*%
X144779999Y-147319999D03*
%TO.P,J1,4,Pin_4*%
%TO.N,MOSI*%
X142239999Y-147319999D03*
%TO.P,J1,5,Pin_5*%
%TO.N,GND*%
X139699999Y-147319999D03*
%TO.P,J1,6,Pin_6*%
%TO.N,+5V*%
X137159999Y-147319999D03*
%TD*%
D11*
%TO.P,J6,1,Pin_1*%
%TO.N,Net-(J6-Pin_1)*%
X190499999Y-111759999D03*
D12*
%TO.P,J6,2,Pin_2*%
%TO.N,Net-(J6-Pin_2)*%
X190499999Y-114299999D03*
%TD*%
D11*
%TO.P,J5,1,Pin_1*%
%TO.N,GND*%
X190499999Y-91439999D03*
D12*
%TO.P,J5,2,Pin_2*%
%TO.N,+3.3V*%
X190499999Y-93979999D03*
%TO.P,J5,3,Pin_3*%
%TO.N,Level Sensor*%
X190499999Y-96519999D03*
%TD*%
D11*
%TO.P,J2,1,Pin_1*%
%TO.N,GND*%
X107949999Y-83819999D03*
D12*
%TO.P,J2,2,Pin_2*%
%TO.N,+3.3V*%
X107949999Y-86359999D03*
%TO.P,J2,3,Pin_3*%
%TO.N,pH Analog*%
X107949999Y-88899999D03*
%TD*%
D11*
%TO.P,J3,1,Pin_1*%
%TO.N,+3.3V*%
X107949999Y-121919999D03*
D12*
%TO.P,J3,2,Pin_2*%
%TO.N,GND*%
X107949999Y-124459999D03*
%TO.P,J3,3,Pin_3*%
%TO.N,unconnected-(J3-Pin_3-Pad3)*%
X107949999Y-126999999D03*
%TO.P,J3,4,Pin_4*%
%TO.N,TX*%
X107949999Y-129539999D03*
%TO.P,J3,5,Pin_5*%
%TO.N,RX*%
X107949999Y-132079999D03*
%TD*%
D15*
%TO.P,MT3608 Module,1,VIN+*%
%TO.N,+5V*%
X182880000Y-147520000D03*
%TO.P,MT3608 Module,2,VIN-*%
%TO.N,GND*%
X172680000Y-147520000D03*
%TO.P,MT3608 Module,3,VOUT+*%
%TO.N,Net-(J6-Pin_2)*%
X182880000Y-121920000D03*
%TO.P,MT3608 Module,4,VOUT-*%
%TO.N,Net-(J6-Pin_1)*%
X172680000Y-121920000D03*
%TD*%
D16*
%TO.N,Level Sensor*%
X182880000Y-96520000D03*
%TO.N,MISO*%
X149860000Y-109220000D03*
%TO.N,SCK*%
X144780000Y-104140000D03*
%TD*%
D17*
%TO.N,+3.3V*%
X180340000Y-78740000D02*
X177800000Y-81280000D01*
X177800000Y-81280000D02*
X175260000Y-81280000D01*
X190500000Y-78740000D02*
X180340000Y-78740000D01*
X104140000Y-119380000D02*
X106680000Y-121920000D01*
X106680000Y-121920000D02*
X107950000Y-121920000D01*
X190500000Y-78740000D02*
X185420000Y-83820000D01*
X185420000Y-83820000D02*
X185420000Y-90102081D01*
X107950000Y-86360000D02*
X104140000Y-90170000D01*
X104140000Y-90170000D02*
X104140000Y-119380000D01*
X189297919Y-93980000D02*
X190500000Y-93980000D01*
X185420000Y-90102081D02*
X189297919Y-93980000D01*
%TO.N,Level Sensor*%
X182880000Y-96520000D02*
X190500000Y-96520000D01*
%TO.N,+5V*%
X167640000Y-139700000D02*
X167640000Y-85090000D01*
X182880000Y-147520000D02*
X177600000Y-142240000D01*
X167640000Y-85090000D02*
X161290000Y-78740000D01*
X177600000Y-142240000D02*
X170180000Y-142240000D01*
X170180000Y-142240000D02*
X167640000Y-139700000D01*
%TO.N,GND*%
X107950000Y-83820000D02*
X106680000Y-83820000D01*
X139700000Y-147320000D02*
X139700000Y-149860000D01*
X187960000Y-149860000D02*
X185420000Y-152400000D01*
X190500000Y-91440000D02*
X193040000Y-91440000D01*
X167800000Y-152400000D02*
X172680000Y-147520000D01*
X139700000Y-127000000D02*
X139700000Y-147320000D01*
X187960000Y-144780000D02*
X187960000Y-149860000D01*
X195580000Y-78740000D02*
X195580000Y-86360000D01*
X190500000Y-73660000D02*
X195580000Y-78740000D01*
X101600000Y-88900000D02*
X101600000Y-119380000D01*
X106680000Y-83820000D02*
X101600000Y-88900000D01*
X142240000Y-152400000D02*
X167800000Y-152400000D01*
X195580000Y-86360000D02*
X190500000Y-91440000D01*
X185420000Y-152400000D02*
X177560000Y-152400000D01*
X193040000Y-91440000D02*
X195580000Y-93980000D01*
X139700000Y-149860000D02*
X142240000Y-152400000D01*
X177560000Y-152400000D02*
X172680000Y-147520000D01*
X106680000Y-124460000D02*
X107950000Y-124460000D01*
X137160000Y-124460000D02*
X134620000Y-124460000D01*
X101600000Y-119380000D02*
X106680000Y-124460000D01*
X195580000Y-93980000D02*
X195580000Y-137160000D01*
X139700000Y-127000000D02*
X137160000Y-124460000D01*
X195580000Y-137160000D02*
X187960000Y-144780000D01*
%TO.N,MOSI*%
X142240000Y-127000000D02*
X137160000Y-121920000D01*
X142240000Y-127000000D02*
X142240000Y-147320000D01*
X137160000Y-121920000D02*
X134620000Y-121920000D01*
%TO.N,RX*%
X121920000Y-119380000D02*
X134620000Y-119380000D01*
X107950000Y-132080000D02*
X109220000Y-132080000D01*
X109220000Y-132080000D02*
X121920000Y-119380000D01*
%TO.N,TX*%
X125730000Y-111760000D02*
X134620000Y-111760000D01*
X107950000Y-129540000D02*
X125730000Y-111760000D01*
%TO.N,MISO*%
X149860000Y-109220000D02*
X149860000Y-147320000D01*
%TO.N,SCK*%
X147320000Y-106680000D02*
X147320000Y-147320000D01*
X147320000Y-106680000D02*
X144780000Y-104140000D01*
%TO.N,SS*%
X144780000Y-106680000D02*
X139700000Y-101600000D01*
X139700000Y-101600000D02*
X134620000Y-101600000D01*
X144780000Y-106680000D02*
X144780000Y-147320000D01*
%TO.N,Temperature Data*%
X160020000Y-71120000D02*
X152400000Y-78740000D01*
X190500000Y-76200000D02*
X180340000Y-76200000D01*
X180340000Y-76200000D02*
X175260000Y-71120000D01*
X149860000Y-93980000D02*
X134620000Y-93980000D01*
X152400000Y-91440000D02*
X149860000Y-93980000D01*
X152400000Y-78740000D02*
X152400000Y-91440000D01*
X175260000Y-71120000D02*
X160020000Y-71120000D01*
%TO.N,Net-(J6-Pin_1)*%
X177800000Y-111760000D02*
X172680000Y-116880000D01*
X190500000Y-111760000D02*
X177800000Y-111760000D01*
X172680000Y-116880000D02*
X172680000Y-121920000D01*
%TO.N,Net-(J6-Pin_2)*%
X190500000Y-114300000D02*
X187960000Y-114300000D01*
X182880000Y-119380000D02*
X182880000Y-121920000D01*
X187960000Y-114300000D02*
X182880000Y-119380000D01*
%TD*%
%TA.AperFunction,Conductor*%
%TO.N,GND*%
G36*
X193042562Y-55880605D02*
G01*
X193257373Y-55889490D01*
X193460249Y-55898348D01*
X193470120Y-55899177D01*
X193685510Y-55926026D01*
X193685963Y-55926084D01*
X193888504Y-55952749D01*
X193897718Y-55954319D01*
X194109797Y-55998787D01*
X194110827Y-55999009D01*
X194310566Y-56043290D01*
X194319092Y-56045502D01*
X194456957Y-56086546D01*
X194526503Y-56107251D01*
X194528407Y-56107835D01*
X194579925Y-56124078D01*
X194723404Y-56169316D01*
X194731119Y-56172034D01*
X194932754Y-56250712D01*
X194935027Y-56251626D01*
X195123987Y-56329896D01*
X195130965Y-56333043D01*
X195325405Y-56428098D01*
X195328080Y-56429449D01*
X195418300Y-56476415D01*
X195509482Y-56523882D01*
X195515698Y-56527348D01*
X195701533Y-56638081D01*
X195704685Y-56640024D01*
X195877116Y-56749875D01*
X195882545Y-56753538D01*
X196058570Y-56879218D01*
X196062002Y-56881759D01*
X196224219Y-57006232D01*
X196228874Y-57009985D01*
X196393920Y-57149771D01*
X196397552Y-57152972D01*
X196548327Y-57291132D01*
X196552235Y-57294873D01*
X196705125Y-57447763D01*
X196708866Y-57451671D01*
X196847026Y-57602446D01*
X196850227Y-57606078D01*
X196990013Y-57771124D01*
X196993766Y-57775779D01*
X197118239Y-57937996D01*
X197120780Y-57941428D01*
X197246460Y-58117453D01*
X197250123Y-58122882D01*
X197359974Y-58295313D01*
X197361917Y-58298465D01*
X197472650Y-58484300D01*
X197476116Y-58490516D01*
X197570534Y-58671889D01*
X197571946Y-58674686D01*
X197666942Y-58869004D01*
X197670102Y-58876011D01*
X197748351Y-59064920D01*
X197749307Y-59067298D01*
X197801305Y-59200556D01*
X197810932Y-59225229D01*
X197827949Y-59268838D01*
X197830693Y-59276627D01*
X197892163Y-59471591D01*
X197892747Y-59473495D01*
X197954494Y-59680898D01*
X197956710Y-59689441D01*
X198000949Y-59888987D01*
X198001249Y-59890380D01*
X198045675Y-60102260D01*
X198047253Y-60111521D01*
X198073887Y-60313829D01*
X198073996Y-60314676D01*
X198100818Y-60529849D01*
X198101652Y-60539778D01*
X198110512Y-60742701D01*
X198110524Y-60742986D01*
X198119394Y-60957438D01*
X198119500Y-60962562D01*
X198119500Y-149857438D01*
X198119394Y-149862562D01*
X198110524Y-150077013D01*
X198110512Y-150077298D01*
X198101652Y-150280220D01*
X198100818Y-150290149D01*
X198073996Y-150505322D01*
X198073887Y-150506169D01*
X198047253Y-150708477D01*
X198045675Y-150717738D01*
X198001249Y-150929618D01*
X198000949Y-150931011D01*
X197956710Y-151130557D01*
X197954494Y-151139100D01*
X197892747Y-151346503D01*
X197892163Y-151348407D01*
X197830693Y-151543371D01*
X197827949Y-151551160D01*
X197749307Y-151752700D01*
X197748351Y-151755078D01*
X197670102Y-151943987D01*
X197666942Y-151950994D01*
X197571946Y-152145312D01*
X197570534Y-152148109D01*
X197476116Y-152329482D01*
X197472650Y-152335698D01*
X197361917Y-152521533D01*
X197359974Y-152524685D01*
X197250123Y-152697116D01*
X197246460Y-152702545D01*
X197120780Y-152878570D01*
X197118239Y-152882002D01*
X196993766Y-153044219D01*
X196990013Y-153048874D01*
X196850227Y-153213920D01*
X196847026Y-153217552D01*
X196708866Y-153368327D01*
X196705125Y-153372235D01*
X196552235Y-153525125D01*
X196548327Y-153528866D01*
X196397552Y-153667026D01*
X196393920Y-153670227D01*
X196228874Y-153810013D01*
X196224219Y-153813766D01*
X196062002Y-153938239D01*
X196058570Y-153940780D01*
X195882545Y-154066460D01*
X195877116Y-154070123D01*
X195704685Y-154179974D01*
X195701533Y-154181917D01*
X195515698Y-154292650D01*
X195509482Y-154296116D01*
X195328109Y-154390534D01*
X195325312Y-154391946D01*
X195130994Y-154486942D01*
X195123987Y-154490102D01*
X194935078Y-154568351D01*
X194932700Y-154569307D01*
X194731160Y-154647949D01*
X194723371Y-154650693D01*
X194528407Y-154712163D01*
X194526503Y-154712747D01*
X194319100Y-154774494D01*
X194310557Y-154776710D01*
X194111011Y-154820949D01*
X194109618Y-154821249D01*
X193897738Y-154865675D01*
X193888477Y-154867253D01*
X193686169Y-154893887D01*
X193685322Y-154893996D01*
X193470149Y-154920818D01*
X193460220Y-154921652D01*
X193257408Y-154930507D01*
X193257124Y-154930519D01*
X193042563Y-154939394D01*
X193037438Y-154939500D01*
X104142562Y-154939500D01*
X104137437Y-154939394D01*
X103922874Y-154930519D01*
X103922590Y-154930507D01*
X103719778Y-154921652D01*
X103709849Y-154920818D01*
X103494676Y-154893996D01*
X103493829Y-154893887D01*
X103291521Y-154867253D01*
X103282260Y-154865675D01*
X103070380Y-154821249D01*
X103068987Y-154820949D01*
X102869441Y-154776710D01*
X102860898Y-154774494D01*
X102653495Y-154712747D01*
X102651591Y-154712163D01*
X102456627Y-154650693D01*
X102448845Y-154647951D01*
X102318255Y-154596995D01*
X102247298Y-154569307D01*
X102244920Y-154568351D01*
X102056011Y-154490102D01*
X102049004Y-154486942D01*
X101854657Y-154391931D01*
X101851889Y-154390534D01*
X101670516Y-154296116D01*
X101664300Y-154292650D01*
X101478465Y-154181917D01*
X101475313Y-154179974D01*
X101302882Y-154070123D01*
X101297453Y-154066460D01*
X101121428Y-153940780D01*
X101117996Y-153938239D01*
X100955779Y-153813766D01*
X100951124Y-153810013D01*
X100786078Y-153670227D01*
X100782446Y-153667026D01*
X100631671Y-153528866D01*
X100627763Y-153525125D01*
X100474873Y-153372235D01*
X100471132Y-153368327D01*
X100332972Y-153217552D01*
X100329771Y-153213920D01*
X100189985Y-153048874D01*
X100186232Y-153044219D01*
X100061759Y-152882002D01*
X100059218Y-152878570D01*
X99933538Y-152702545D01*
X99929875Y-152697116D01*
X99820024Y-152524685D01*
X99818081Y-152521533D01*
X99707348Y-152335698D01*
X99703882Y-152329482D01*
X99609464Y-152148109D01*
X99608098Y-152145404D01*
X99513043Y-151950965D01*
X99509896Y-151943987D01*
X99431626Y-151755027D01*
X99430712Y-151752754D01*
X99352034Y-151551119D01*
X99349316Y-151543404D01*
X99287835Y-151348407D01*
X99287251Y-151346503D01*
X99225504Y-151139100D01*
X99223288Y-151130557D01*
X99179009Y-150930827D01*
X99178787Y-150929797D01*
X99134319Y-150717718D01*
X99132749Y-150708504D01*
X99106084Y-150505963D01*
X99106025Y-150505502D01*
X99079177Y-150290120D01*
X99078348Y-150280249D01*
X99069487Y-150077298D01*
X99065925Y-149991182D01*
X102389500Y-149991182D01*
X102390189Y-149995754D01*
X102390190Y-149995765D01*
X102427912Y-150246028D01*
X102427913Y-150246035D01*
X102428604Y-150250615D01*
X102429969Y-150255043D01*
X102429971Y-150255048D01*
X102504569Y-150496891D01*
X102504573Y-150496901D01*
X102505937Y-150501323D01*
X102507946Y-150505496D01*
X102507949Y-150505502D01*
X102515172Y-150520500D01*
X102619772Y-150737704D01*
X102767567Y-150954479D01*
X102946019Y-151146805D01*
X103151143Y-151310386D01*
X103378357Y-151441568D01*
X103622584Y-151537420D01*
X103878370Y-151595802D01*
X104074506Y-151610500D01*
X104203177Y-151610500D01*
X104205494Y-151610500D01*
X104401630Y-151595802D01*
X104657416Y-151537420D01*
X104901643Y-151441568D01*
X105128857Y-151310386D01*
X105333981Y-151146805D01*
X105512433Y-150954479D01*
X105660228Y-150737704D01*
X105774063Y-150501323D01*
X105851396Y-150250615D01*
X105890500Y-149991182D01*
X105890500Y-149728818D01*
X105851396Y-149469385D01*
X105808939Y-149331744D01*
X170680001Y-149331744D01*
X170680192Y-149336625D01*
X170689990Y-149461129D01*
X170691674Y-149471392D01*
X170744017Y-149679120D01*
X170747679Y-149689585D01*
X170836126Y-149884306D01*
X170841603Y-149893958D01*
X170963390Y-150069749D01*
X170970508Y-150078274D01*
X171121725Y-150229491D01*
X171130250Y-150236609D01*
X171306041Y-150358396D01*
X171315693Y-150363873D01*
X171510414Y-150452320D01*
X171520879Y-150455982D01*
X171728608Y-150508325D01*
X171738869Y-150510009D01*
X171863374Y-150519808D01*
X171868254Y-150520000D01*
X172413674Y-150520000D01*
X172426549Y-150516549D01*
X172430000Y-150503674D01*
X172430000Y-150503673D01*
X172930000Y-150503673D01*
X172933450Y-150516548D01*
X172946326Y-150519999D01*
X173491744Y-150519999D01*
X173496625Y-150519807D01*
X173621129Y-150510009D01*
X173631392Y-150508325D01*
X173839120Y-150455982D01*
X173849585Y-150452320D01*
X174044306Y-150363873D01*
X174053958Y-150358396D01*
X174229749Y-150236609D01*
X174238274Y-150229491D01*
X174389491Y-150078274D01*
X174396609Y-150069749D01*
X174518396Y-149893958D01*
X174523873Y-149884306D01*
X174612320Y-149689585D01*
X174615982Y-149679120D01*
X174668325Y-149471391D01*
X174670009Y-149461130D01*
X174679808Y-149336625D01*
X174680000Y-149331746D01*
X174680000Y-147786326D01*
X174676549Y-147773450D01*
X174663674Y-147770000D01*
X172946326Y-147770000D01*
X172933450Y-147773450D01*
X172930000Y-147786326D01*
X172930000Y-150503673D01*
X172430000Y-150503673D01*
X172430000Y-147786326D01*
X172426549Y-147773450D01*
X172413674Y-147770000D01*
X170696327Y-147770000D01*
X170683451Y-147773450D01*
X170680001Y-147786326D01*
X170680001Y-149331744D01*
X105808939Y-149331744D01*
X105774063Y-149218677D01*
X105660228Y-148982296D01*
X105512433Y-148765521D01*
X105333981Y-148573195D01*
X105128857Y-148409614D01*
X104912590Y-148284752D01*
X104905664Y-148280753D01*
X104905658Y-148280750D01*
X104901643Y-148278432D01*
X104897324Y-148276737D01*
X104897318Y-148276734D01*
X104661738Y-148184276D01*
X104661734Y-148184275D01*
X104657416Y-148182580D01*
X104652893Y-148181547D01*
X104652891Y-148181547D01*
X104406149Y-148125229D01*
X104406143Y-148125228D01*
X104401630Y-148124198D01*
X104397008Y-148123851D01*
X104397004Y-148123851D01*
X104207808Y-148109673D01*
X104207797Y-148109672D01*
X104205494Y-148109500D01*
X104074506Y-148109500D01*
X104072203Y-148109672D01*
X104072191Y-148109673D01*
X103882995Y-148123851D01*
X103882989Y-148123851D01*
X103878370Y-148124198D01*
X103873858Y-148125227D01*
X103873850Y-148125229D01*
X103627108Y-148181547D01*
X103627102Y-148181548D01*
X103622584Y-148182580D01*
X103618268Y-148184273D01*
X103618261Y-148184276D01*
X103382681Y-148276734D01*
X103382670Y-148276739D01*
X103378357Y-148278432D01*
X103374346Y-148280747D01*
X103374335Y-148280753D01*
X103160830Y-148404021D01*
X103151143Y-148409614D01*
X103147519Y-148412503D01*
X103147516Y-148412506D01*
X102949646Y-148570302D01*
X102949641Y-148570306D01*
X102946019Y-148573195D01*
X102942865Y-148576593D01*
X102942863Y-148576596D01*
X102770719Y-148762123D01*
X102770713Y-148762129D01*
X102767567Y-148765521D01*
X102619772Y-148982296D01*
X102617759Y-148986474D01*
X102617756Y-148986481D01*
X102507949Y-149214497D01*
X102507944Y-149214508D01*
X102505937Y-149218677D01*
X102504574Y-149223093D01*
X102504569Y-149223108D01*
X102429971Y-149464951D01*
X102429968Y-149464959D01*
X102428604Y-149469385D01*
X102427914Y-149473961D01*
X102427912Y-149473971D01*
X102390190Y-149724234D01*
X102390189Y-149724246D01*
X102389500Y-149728818D01*
X102389500Y-149991182D01*
X99065925Y-149991182D01*
X99060605Y-149862562D01*
X99060500Y-149857439D01*
X99060500Y-147320000D01*
X135804341Y-147320000D01*
X135824937Y-147555408D01*
X135826336Y-147560630D01*
X135826337Y-147560634D01*
X135884694Y-147778430D01*
X135884697Y-147778438D01*
X135886097Y-147783663D01*
X135888385Y-147788570D01*
X135888386Y-147788572D01*
X135983678Y-147992927D01*
X135983681Y-147992933D01*
X135985965Y-147997830D01*
X135989064Y-148002257D01*
X135989066Y-148002259D01*
X136118399Y-148186966D01*
X136118402Y-148186970D01*
X136121505Y-148191401D01*
X136288599Y-148358495D01*
X136293031Y-148361598D01*
X136293033Y-148361600D01*
X136437260Y-148462589D01*
X136482170Y-148494035D01*
X136696337Y-148593903D01*
X136924592Y-148655063D01*
X137160000Y-148675659D01*
X137395408Y-148655063D01*
X137623663Y-148593903D01*
X137837830Y-148494035D01*
X138031401Y-148358495D01*
X138198495Y-148191401D01*
X138328730Y-148005405D01*
X138373048Y-147966540D01*
X138430305Y-147952529D01*
X138487562Y-147966540D01*
X138531880Y-148005405D01*
X138658784Y-148186643D01*
X138665721Y-148194909D01*
X138825090Y-148354278D01*
X138833356Y-148361215D01*
X139017991Y-148490498D01*
X139027323Y-148495886D01*
X139231602Y-148591143D01*
X139241736Y-148594831D01*
X139436219Y-148646943D01*
X139447448Y-148647311D01*
X139450000Y-148636369D01*
X139450000Y-146003631D01*
X139447448Y-145992688D01*
X139436219Y-145993056D01*
X139241736Y-146045168D01*
X139231602Y-146048856D01*
X139027332Y-146144110D01*
X139017982Y-146149508D01*
X138833357Y-146278784D01*
X138825092Y-146285719D01*
X138665719Y-146445092D01*
X138658788Y-146453352D01*
X138531880Y-146634596D01*
X138487562Y-146673461D01*
X138430305Y-146687472D01*
X138373048Y-146673461D01*
X138328730Y-146634595D01*
X138328425Y-146634159D01*
X138198495Y-146448599D01*
X138031401Y-146281505D01*
X138026970Y-146278402D01*
X138026966Y-146278399D01*
X137842259Y-146149066D01*
X137842257Y-146149064D01*
X137837830Y-146145965D01*
X137832933Y-146143681D01*
X137832927Y-146143678D01*
X137628572Y-146048386D01*
X137628570Y-146048385D01*
X137623663Y-146046097D01*
X137618438Y-146044697D01*
X137618430Y-146044694D01*
X137400634Y-145986337D01*
X137400630Y-145986336D01*
X137395408Y-145984937D01*
X137390020Y-145984465D01*
X137390017Y-145984465D01*
X137165395Y-145964813D01*
X137160000Y-145964341D01*
X137154605Y-145964813D01*
X136929982Y-145984465D01*
X136929977Y-145984465D01*
X136924592Y-145984937D01*
X136919371Y-145986335D01*
X136919365Y-145986337D01*
X136701569Y-146044694D01*
X136701557Y-146044698D01*
X136696337Y-146046097D01*
X136691432Y-146048383D01*
X136691427Y-146048386D01*
X136487081Y-146143675D01*
X136487077Y-146143677D01*
X136482171Y-146145965D01*
X136477738Y-146149068D01*
X136477731Y-146149073D01*
X136293034Y-146278399D01*
X136293029Y-146278402D01*
X136288599Y-146281505D01*
X136284775Y-146285328D01*
X136284769Y-146285334D01*
X136125334Y-146444769D01*
X136125328Y-146444775D01*
X136121505Y-146448599D01*
X136118402Y-146453029D01*
X136118399Y-146453034D01*
X135989073Y-146637731D01*
X135989068Y-146637738D01*
X135985965Y-146642171D01*
X135983677Y-146647077D01*
X135983675Y-146647081D01*
X135888386Y-146851427D01*
X135888383Y-146851432D01*
X135886097Y-146856337D01*
X135884698Y-146861557D01*
X135884694Y-146861569D01*
X135826337Y-147079365D01*
X135826335Y-147079371D01*
X135824937Y-147084592D01*
X135824465Y-147089977D01*
X135824465Y-147089982D01*
X135804813Y-147314605D01*
X135804341Y-147320000D01*
X99060500Y-147320000D01*
X99060500Y-139577182D01*
X107723500Y-139577182D01*
X107724189Y-139581754D01*
X107724190Y-139581765D01*
X107761912Y-139832028D01*
X107761913Y-139832035D01*
X107762604Y-139836615D01*
X107763969Y-139841043D01*
X107763971Y-139841048D01*
X107838569Y-140082891D01*
X107838573Y-140082901D01*
X107839937Y-140087323D01*
X107841946Y-140091496D01*
X107841949Y-140091502D01*
X107932376Y-140279275D01*
X107953772Y-140323704D01*
X108101567Y-140540479D01*
X108280019Y-140732805D01*
X108485143Y-140896386D01*
X108712357Y-141027568D01*
X108956584Y-141123420D01*
X109212370Y-141181802D01*
X109408506Y-141196500D01*
X109537177Y-141196500D01*
X109539494Y-141196500D01*
X109735630Y-141181802D01*
X109991416Y-141123420D01*
X110235643Y-141027568D01*
X110462857Y-140896386D01*
X110667981Y-140732805D01*
X110846433Y-140540479D01*
X110994228Y-140323704D01*
X111108063Y-140087323D01*
X111185396Y-139836615D01*
X111224500Y-139577182D01*
X111224500Y-139314818D01*
X111185396Y-139055385D01*
X111108063Y-138804677D01*
X110994228Y-138568296D01*
X110846433Y-138351521D01*
X110667981Y-138159195D01*
X110462857Y-137995614D01*
X110368216Y-137940973D01*
X110239664Y-137866753D01*
X110239658Y-137866750D01*
X110235643Y-137864432D01*
X110231324Y-137862737D01*
X110231318Y-137862734D01*
X109995738Y-137770276D01*
X109995734Y-137770275D01*
X109991416Y-137768580D01*
X109986893Y-137767547D01*
X109986891Y-137767547D01*
X109740149Y-137711229D01*
X109740143Y-137711228D01*
X109735630Y-137710198D01*
X109731008Y-137709851D01*
X109731004Y-137709851D01*
X109541808Y-137695673D01*
X109541797Y-137695672D01*
X109539494Y-137695500D01*
X109408506Y-137695500D01*
X109406203Y-137695672D01*
X109406191Y-137695673D01*
X109216995Y-137709851D01*
X109216989Y-137709851D01*
X109212370Y-137710198D01*
X109207858Y-137711227D01*
X109207850Y-137711229D01*
X108961108Y-137767547D01*
X108961102Y-137767548D01*
X108956584Y-137768580D01*
X108952268Y-137770273D01*
X108952261Y-137770276D01*
X108716681Y-137862734D01*
X108716670Y-137862739D01*
X108712357Y-137864432D01*
X108708346Y-137866747D01*
X108708335Y-137866753D01*
X108489161Y-137993294D01*
X108485143Y-137995614D01*
X108481519Y-137998503D01*
X108481516Y-137998506D01*
X108283646Y-138156302D01*
X108283641Y-138156306D01*
X108280019Y-138159195D01*
X108276865Y-138162593D01*
X108276863Y-138162596D01*
X108104719Y-138348123D01*
X108104713Y-138348129D01*
X108101567Y-138351521D01*
X107953772Y-138568296D01*
X107951759Y-138572474D01*
X107951756Y-138572481D01*
X107841949Y-138800497D01*
X107841944Y-138800508D01*
X107839937Y-138804677D01*
X107838574Y-138809093D01*
X107838569Y-138809108D01*
X107763971Y-139050951D01*
X107763968Y-139050959D01*
X107762604Y-139055385D01*
X107761914Y-139059961D01*
X107761912Y-139059971D01*
X107724190Y-139310234D01*
X107724189Y-139310246D01*
X107723500Y-139314818D01*
X107723500Y-139577182D01*
X99060500Y-139577182D01*
X99060500Y-132080000D01*
X106594341Y-132080000D01*
X106614937Y-132315408D01*
X106616336Y-132320630D01*
X106616337Y-132320634D01*
X106674694Y-132538430D01*
X106674697Y-132538438D01*
X106676097Y-132543663D01*
X106678385Y-132548570D01*
X106678386Y-132548572D01*
X106773678Y-132752927D01*
X106773681Y-132752933D01*
X106775965Y-132757830D01*
X106779064Y-132762257D01*
X106779066Y-132762259D01*
X106908399Y-132946966D01*
X106908402Y-132946970D01*
X106911505Y-132951401D01*
X107078599Y-133118495D01*
X107272170Y-133254035D01*
X107486337Y-133353903D01*
X107714592Y-133415063D01*
X107950000Y-133435659D01*
X108185408Y-133415063D01*
X108413663Y-133353903D01*
X108627830Y-133254035D01*
X108821401Y-133118495D01*
X108825233Y-133114662D01*
X108829373Y-133111189D01*
X108830138Y-133112100D01*
X108863305Y-133089939D01*
X108910758Y-133080500D01*
X109205722Y-133080500D01*
X109208862Y-133080539D01*
X109296363Y-133082757D01*
X109354458Y-133072344D01*
X109363739Y-133071042D01*
X109422438Y-133065074D01*
X109451464Y-133055966D01*
X109466713Y-133052224D01*
X109496653Y-133046858D01*
X109551423Y-133024980D01*
X109560303Y-133021818D01*
X109616588Y-133004159D01*
X109643194Y-132989390D01*
X109657362Y-132982662D01*
X109685617Y-132971377D01*
X109734891Y-132938902D01*
X109742910Y-132934043D01*
X109794502Y-132905409D01*
X109805961Y-132895570D01*
X109817583Y-132885594D01*
X109830125Y-132876137D01*
X109855519Y-132859402D01*
X109897238Y-132817681D01*
X109904122Y-132811301D01*
X109948895Y-132772866D01*
X109967524Y-132748798D01*
X109977884Y-132737035D01*
X117102928Y-125611991D01*
X133827006Y-125611991D01*
X133835113Y-125623181D01*
X133847602Y-125632901D01*
X133856151Y-125638487D01*
X134051194Y-125744039D01*
X134060547Y-125748141D01*
X134270290Y-125820146D01*
X134280199Y-125822655D01*
X134498929Y-125859155D01*
X134509127Y-125860000D01*
X134730873Y-125860000D01*
X134741070Y-125859155D01*
X134959800Y-125822655D01*
X134969709Y-125820146D01*
X135179452Y-125748141D01*
X135188805Y-125744039D01*
X135383845Y-125638488D01*
X135392397Y-125632901D01*
X135404888Y-125623179D01*
X135412992Y-125611992D01*
X135406331Y-125599884D01*
X134631542Y-124825095D01*
X134620000Y-124818431D01*
X134608457Y-124825095D01*
X133833666Y-125599885D01*
X133827006Y-125611991D01*
X117102928Y-125611991D01*
X118249802Y-124465117D01*
X133215626Y-124465117D01*
X133233937Y-124686102D01*
X133235621Y-124696196D01*
X133290059Y-124911166D01*
X133293378Y-124920833D01*
X133382456Y-125123913D01*
X133387322Y-125132903D01*
X133461245Y-125246051D01*
X133469212Y-125253776D01*
X133478592Y-125247853D01*
X134254904Y-124471542D01*
X134261568Y-124460000D01*
X134978431Y-124460000D01*
X134985095Y-124471542D01*
X135761405Y-125247852D01*
X135770786Y-125253776D01*
X135778754Y-125246051D01*
X135852675Y-125132906D01*
X135857543Y-125123911D01*
X135946621Y-124920833D01*
X135949940Y-124911166D01*
X136004378Y-124696196D01*
X136006062Y-124686102D01*
X136024374Y-124465117D01*
X136024374Y-124454883D01*
X136006062Y-124233897D01*
X136004378Y-124223803D01*
X135949940Y-124008833D01*
X135946621Y-123999166D01*
X135857543Y-123796086D01*
X135852678Y-123787096D01*
X135778753Y-123673947D01*
X135770786Y-123666222D01*
X135761405Y-123672146D01*
X134985095Y-124448457D01*
X134978431Y-124460000D01*
X134261568Y-124460000D01*
X134254904Y-124448457D01*
X133478592Y-123672145D01*
X133469212Y-123666222D01*
X133461245Y-123673946D01*
X133387322Y-123787096D01*
X133382456Y-123796086D01*
X133293378Y-123999166D01*
X133290059Y-124008833D01*
X133235621Y-124223803D01*
X133233937Y-124233897D01*
X133215626Y-124454883D01*
X133215626Y-124465117D01*
X118249802Y-124465117D01*
X122298101Y-120416818D01*
X122338329Y-120389939D01*
X122385782Y-120380500D01*
X133584160Y-120380500D01*
X133629235Y-120388983D01*
X133666925Y-120412510D01*
X133668216Y-120413913D01*
X133672261Y-120417061D01*
X133672264Y-120417064D01*
X133845818Y-120552147D01*
X133881056Y-120595540D01*
X133893656Y-120650000D01*
X133881056Y-120704460D01*
X133845818Y-120747853D01*
X133672270Y-120882930D01*
X133672258Y-120882940D01*
X133668216Y-120886087D01*
X133664746Y-120889855D01*
X133664742Y-120889860D01*
X133514491Y-121053077D01*
X133514488Y-121053080D01*
X133511021Y-121056847D01*
X133508226Y-121061124D01*
X133508219Y-121061134D01*
X133386878Y-121246862D01*
X133384076Y-121251151D01*
X133382021Y-121255835D01*
X133382016Y-121255845D01*
X133292903Y-121459003D01*
X133290843Y-121463700D01*
X133289585Y-121468665D01*
X133289584Y-121468670D01*
X133235125Y-121683720D01*
X133235123Y-121683729D01*
X133233866Y-121688695D01*
X133233442Y-121693802D01*
X133233441Y-121693813D01*
X133215200Y-121913955D01*
X133214700Y-121920000D01*
X133215124Y-121925117D01*
X133233441Y-122146186D01*
X133233442Y-122146195D01*
X133233866Y-122151305D01*
X133235123Y-122156272D01*
X133235125Y-122156279D01*
X133289584Y-122371329D01*
X133290843Y-122376300D01*
X133292903Y-122380996D01*
X133382016Y-122584154D01*
X133382019Y-122584159D01*
X133384076Y-122588849D01*
X133404180Y-122619620D01*
X133508219Y-122778865D01*
X133508222Y-122778869D01*
X133511021Y-122783153D01*
X133668216Y-122953913D01*
X133732592Y-123004019D01*
X133846225Y-123092462D01*
X133881463Y-123135856D01*
X133894063Y-123190316D01*
X133881463Y-123244777D01*
X133846224Y-123288170D01*
X133835114Y-123296816D01*
X133827007Y-123308006D01*
X133833667Y-123320114D01*
X134608457Y-124094904D01*
X134620000Y-124101568D01*
X134631542Y-124094904D01*
X135406332Y-123320113D01*
X135412992Y-123308007D01*
X135404885Y-123296817D01*
X135393776Y-123288171D01*
X135358536Y-123244778D01*
X135345936Y-123190317D01*
X135358535Y-123135856D01*
X135393771Y-123092465D01*
X135571784Y-122953913D01*
X135573074Y-122952510D01*
X135610765Y-122928983D01*
X135655840Y-122920500D01*
X136694217Y-122920500D01*
X136741670Y-122929939D01*
X136781898Y-122956819D01*
X141203181Y-127378101D01*
X141230061Y-127418329D01*
X141239500Y-127465782D01*
X141239500Y-146359242D01*
X141230061Y-146406695D01*
X141207901Y-146439858D01*
X141208813Y-146440624D01*
X141205335Y-146444769D01*
X141201505Y-146448599D01*
X141198403Y-146453028D01*
X141198403Y-146453029D01*
X141071269Y-146634596D01*
X141026951Y-146673461D01*
X140969694Y-146687472D01*
X140912437Y-146673461D01*
X140868119Y-146634595D01*
X140741215Y-146453357D01*
X140734280Y-146445092D01*
X140574909Y-146285721D01*
X140566643Y-146278784D01*
X140382008Y-146149501D01*
X140372676Y-146144113D01*
X140168397Y-146048856D01*
X140158263Y-146045168D01*
X139963780Y-145993056D01*
X139952551Y-145992688D01*
X139950000Y-146003631D01*
X139950000Y-148636369D01*
X139952551Y-148647311D01*
X139963780Y-148646943D01*
X140158263Y-148594831D01*
X140168397Y-148591143D01*
X140372676Y-148495886D01*
X140382008Y-148490498D01*
X140566643Y-148361215D01*
X140574909Y-148354278D01*
X140734278Y-148194909D01*
X140741219Y-148186638D01*
X140868119Y-148005406D01*
X140912437Y-147966540D01*
X140969694Y-147952529D01*
X141026951Y-147966540D01*
X141071269Y-148005405D01*
X141198399Y-148186966D01*
X141198402Y-148186970D01*
X141201505Y-148191401D01*
X141368599Y-148358495D01*
X141373031Y-148361598D01*
X141373033Y-148361600D01*
X141517260Y-148462589D01*
X141562170Y-148494035D01*
X141776337Y-148593903D01*
X142004592Y-148655063D01*
X142240000Y-148675659D01*
X142475408Y-148655063D01*
X142703663Y-148593903D01*
X142917830Y-148494035D01*
X143111401Y-148358495D01*
X143278495Y-148191401D01*
X143408424Y-148005842D01*
X143452743Y-147966976D01*
X143510000Y-147952965D01*
X143567257Y-147966976D01*
X143611575Y-148005842D01*
X143738395Y-148186961D01*
X143738401Y-148186968D01*
X143741505Y-148191401D01*
X143908599Y-148358495D01*
X143913031Y-148361598D01*
X143913033Y-148361600D01*
X144057260Y-148462589D01*
X144102170Y-148494035D01*
X144316337Y-148593903D01*
X144544592Y-148655063D01*
X144780000Y-148675659D01*
X145015408Y-148655063D01*
X145243663Y-148593903D01*
X145457830Y-148494035D01*
X145651401Y-148358495D01*
X145818495Y-148191401D01*
X145948424Y-148005842D01*
X145992743Y-147966976D01*
X146050000Y-147952965D01*
X146107257Y-147966976D01*
X146151575Y-148005842D01*
X146278395Y-148186961D01*
X146278401Y-148186968D01*
X146281505Y-148191401D01*
X146448599Y-148358495D01*
X146453031Y-148361598D01*
X146453033Y-148361600D01*
X146597260Y-148462589D01*
X146642170Y-148494035D01*
X146856337Y-148593903D01*
X147084592Y-148655063D01*
X147320000Y-148675659D01*
X147555408Y-148655063D01*
X147783663Y-148593903D01*
X147997830Y-148494035D01*
X148191401Y-148358495D01*
X148313329Y-148236566D01*
X148366072Y-148205273D01*
X148427365Y-148203084D01*
X148482210Y-148230537D01*
X148517189Y-148280916D01*
X148566204Y-148412331D01*
X148571518Y-148419430D01*
X148571519Y-148419431D01*
X148627367Y-148494035D01*
X148652454Y-148527546D01*
X148767669Y-148613796D01*
X148902517Y-148664091D01*
X148962127Y-148670500D01*
X150757872Y-148670499D01*
X150817483Y-148664091D01*
X150952331Y-148613796D01*
X151067546Y-148527546D01*
X151153796Y-148412331D01*
X151204091Y-148277483D01*
X151210500Y-148217873D01*
X151210499Y-147253674D01*
X170680000Y-147253674D01*
X170683450Y-147266549D01*
X170696326Y-147270000D01*
X172413674Y-147270000D01*
X172426549Y-147266549D01*
X172430000Y-147253674D01*
X172930000Y-147253674D01*
X172933450Y-147266549D01*
X172946326Y-147270000D01*
X174663673Y-147270000D01*
X174676548Y-147266549D01*
X174679999Y-147253674D01*
X174679999Y-145708256D01*
X174679807Y-145703374D01*
X174670009Y-145578870D01*
X174668325Y-145568607D01*
X174615982Y-145360879D01*
X174612320Y-145350414D01*
X174523873Y-145155693D01*
X174518396Y-145146041D01*
X174396609Y-144970250D01*
X174389491Y-144961725D01*
X174238274Y-144810508D01*
X174229749Y-144803390D01*
X174053958Y-144681603D01*
X174044306Y-144676126D01*
X173849585Y-144587679D01*
X173839120Y-144584017D01*
X173631391Y-144531674D01*
X173621130Y-144529990D01*
X173496625Y-144520191D01*
X173491746Y-144520000D01*
X172946326Y-144520000D01*
X172933450Y-144523450D01*
X172930000Y-144536326D01*
X172930000Y-147253674D01*
X172430000Y-147253674D01*
X172430000Y-144536327D01*
X172426549Y-144523451D01*
X172413674Y-144520001D01*
X171868256Y-144520001D01*
X171863374Y-144520192D01*
X171738870Y-144529990D01*
X171728607Y-144531674D01*
X171520879Y-144584017D01*
X171510414Y-144587679D01*
X171315693Y-144676126D01*
X171306041Y-144681603D01*
X171130250Y-144803390D01*
X171121725Y-144810508D01*
X170970508Y-144961725D01*
X170963390Y-144970250D01*
X170841603Y-145146041D01*
X170836126Y-145155693D01*
X170747679Y-145350414D01*
X170744017Y-145360879D01*
X170691674Y-145568608D01*
X170689990Y-145578869D01*
X170680191Y-145703374D01*
X170680000Y-145708254D01*
X170680000Y-147253674D01*
X151210499Y-147253674D01*
X151210499Y-146422128D01*
X151204091Y-146362517D01*
X151153796Y-146227669D01*
X151067546Y-146112454D01*
X150977030Y-146044694D01*
X150959431Y-146031519D01*
X150959430Y-146031518D01*
X150952331Y-146026204D01*
X150941164Y-146022039D01*
X150898930Y-145995601D01*
X150870512Y-145954670D01*
X150860500Y-145905858D01*
X150860500Y-109275244D01*
X150861097Y-109263090D01*
X150864744Y-109226061D01*
X150865341Y-109220000D01*
X150860623Y-109172106D01*
X150860500Y-109170441D01*
X150860500Y-109169258D01*
X150855525Y-109120336D01*
X150846024Y-109023868D01*
X150845559Y-109022336D01*
X150845074Y-109017562D01*
X150816189Y-108925501D01*
X150815870Y-108924467D01*
X150812440Y-108913160D01*
X150788814Y-108835273D01*
X150787151Y-108832163D01*
X150786767Y-108831105D01*
X150786042Y-108829416D01*
X150784159Y-108823412D01*
X150739082Y-108742197D01*
X150738160Y-108740505D01*
X150698785Y-108666841D01*
X150695910Y-108661462D01*
X150692226Y-108656974D01*
X150689418Y-108652370D01*
X150688455Y-108650987D01*
X150685409Y-108645498D01*
X150681317Y-108640731D01*
X150681314Y-108640727D01*
X150627221Y-108577717D01*
X150625453Y-108575611D01*
X150620929Y-108570099D01*
X150570883Y-108509117D01*
X150566175Y-108505253D01*
X150561868Y-108500946D01*
X150562175Y-108500638D01*
X150561621Y-108500097D01*
X150561518Y-108500207D01*
X150556961Y-108495875D01*
X150552866Y-108491105D01*
X150485057Y-108438616D01*
X150482294Y-108436413D01*
X150423250Y-108387957D01*
X150423249Y-108387956D01*
X150418538Y-108384090D01*
X150413161Y-108381216D01*
X150408101Y-108377835D01*
X150408153Y-108377757D01*
X150397614Y-108370930D01*
X150391958Y-108366552D01*
X150318190Y-108330367D01*
X150314345Y-108328397D01*
X150250101Y-108294058D01*
X150250094Y-108294055D01*
X150244727Y-108291186D01*
X150238904Y-108289419D01*
X150238898Y-108289417D01*
X150237522Y-108289000D01*
X150218907Y-108281666D01*
X150209271Y-108276940D01*
X150203188Y-108275365D01*
X150203183Y-108275363D01*
X150133188Y-108257240D01*
X150128276Y-108255860D01*
X150061961Y-108235744D01*
X150061959Y-108235743D01*
X150056132Y-108233976D01*
X150050075Y-108233379D01*
X150050064Y-108233377D01*
X150045057Y-108232884D01*
X150026146Y-108229525D01*
X150018377Y-108227514D01*
X150018375Y-108227513D01*
X150012285Y-108225937D01*
X150006007Y-108225618D01*
X150006004Y-108225618D01*
X149937345Y-108222135D01*
X149931477Y-108221697D01*
X149866065Y-108215256D01*
X149866062Y-108215256D01*
X149860000Y-108214659D01*
X149845362Y-108216100D01*
X149826946Y-108216537D01*
X149815348Y-108215949D01*
X149815342Y-108215949D01*
X149809064Y-108215631D01*
X149802852Y-108216582D01*
X149802842Y-108216583D01*
X149738433Y-108226450D01*
X149731814Y-108227283D01*
X149669928Y-108233379D01*
X149669927Y-108233379D01*
X149663868Y-108233976D01*
X149658043Y-108235742D01*
X149658037Y-108235744D01*
X149646370Y-108239283D01*
X149629160Y-108243190D01*
X149614148Y-108245490D01*
X149614137Y-108245492D01*
X149607929Y-108246444D01*
X149544241Y-108270031D01*
X149537190Y-108272403D01*
X149481102Y-108289417D01*
X149481095Y-108289419D01*
X149475273Y-108291186D01*
X149469909Y-108294052D01*
X149469904Y-108294055D01*
X149455999Y-108301488D01*
X149440619Y-108308407D01*
X149417113Y-108317114D01*
X149411778Y-108320438D01*
X149411770Y-108320443D01*
X149362499Y-108351153D01*
X149355365Y-108355277D01*
X149306835Y-108381217D01*
X149306827Y-108381221D01*
X149301462Y-108384090D01*
X149296757Y-108387950D01*
X149296751Y-108387955D01*
X149281805Y-108400221D01*
X149268739Y-108409595D01*
X149249761Y-108421424D01*
X149249758Y-108421425D01*
X149244429Y-108424748D01*
X149239876Y-108429075D01*
X149239872Y-108429079D01*
X149200369Y-108466629D01*
X149193607Y-108472604D01*
X149149117Y-108509117D01*
X149145257Y-108513819D01*
X149145248Y-108513829D01*
X149130711Y-108531542D01*
X149120298Y-108542742D01*
X149101506Y-108560606D01*
X149101501Y-108560611D01*
X149096947Y-108564941D01*
X149093357Y-108570099D01*
X149064267Y-108611892D01*
X149058349Y-108619714D01*
X149027958Y-108656747D01*
X149027952Y-108656755D01*
X149024090Y-108661462D01*
X149021220Y-108666830D01*
X149021218Y-108666834D01*
X149008731Y-108690195D01*
X149001151Y-108702573D01*
X148984298Y-108726787D01*
X148984293Y-108726795D01*
X148980705Y-108731951D01*
X148978227Y-108737724D01*
X148978222Y-108737734D01*
X148959549Y-108781245D01*
X148954960Y-108790792D01*
X148934057Y-108829901D01*
X148931186Y-108835273D01*
X148929419Y-108841094D01*
X148929419Y-108841097D01*
X148920693Y-108869863D01*
X148915985Y-108882763D01*
X148902940Y-108913160D01*
X148902936Y-108913170D01*
X148900460Y-108918942D01*
X148899195Y-108925095D01*
X148899193Y-108925103D01*
X148890379Y-108967991D01*
X148887580Y-108979017D01*
X148875743Y-109018040D01*
X148875741Y-109018047D01*
X148873976Y-109023868D01*
X148873379Y-109029927D01*
X148873379Y-109029928D01*
X148870081Y-109063408D01*
X148868140Y-109076210D01*
X148860766Y-109112095D01*
X148860765Y-109112101D01*
X148859500Y-109118259D01*
X148859500Y-109124548D01*
X148859500Y-109164756D01*
X148858903Y-109176909D01*
X148854659Y-109220000D01*
X148855256Y-109226061D01*
X148858903Y-109263090D01*
X148859500Y-109275244D01*
X148859500Y-145905858D01*
X148849488Y-145954670D01*
X148821070Y-145995601D01*
X148778835Y-146022039D01*
X148767669Y-146026204D01*
X148760572Y-146031516D01*
X148760568Y-146031519D01*
X148659550Y-146107141D01*
X148659546Y-146107144D01*
X148652454Y-146112454D01*
X148647144Y-146119546D01*
X148647141Y-146119550D01*
X148571519Y-146220568D01*
X148571516Y-146220572D01*
X148566204Y-146227669D01*
X148563104Y-146235978D01*
X148563105Y-146235978D01*
X148560682Y-146242475D01*
X148520220Y-146297337D01*
X148456874Y-146322522D01*
X148389789Y-146310418D01*
X148339238Y-146264684D01*
X148320500Y-146199141D01*
X148320500Y-106694237D01*
X148320540Y-106691096D01*
X148320951Y-106674883D01*
X148322756Y-106603636D01*
X148312345Y-106545554D01*
X148311042Y-106536260D01*
X148305074Y-106477562D01*
X148295966Y-106448536D01*
X148292223Y-106433284D01*
X148287967Y-106409533D01*
X148287965Y-106409529D01*
X148286858Y-106403347D01*
X148284526Y-106397508D01*
X148264976Y-106348565D01*
X148261816Y-106339689D01*
X148259532Y-106332412D01*
X148244159Y-106283412D01*
X148229396Y-106256814D01*
X148222660Y-106242631D01*
X148211377Y-106214383D01*
X148178917Y-106165131D01*
X148174036Y-106157073D01*
X148148463Y-106111000D01*
X148148462Y-106110999D01*
X148145409Y-106105498D01*
X148125591Y-106082413D01*
X148116140Y-106069879D01*
X148099402Y-106044481D01*
X148057692Y-106002770D01*
X148051287Y-105995860D01*
X148016960Y-105955874D01*
X148012866Y-105951105D01*
X148007896Y-105947258D01*
X148007891Y-105947253D01*
X147988805Y-105932479D01*
X147977026Y-105922105D01*
X145526524Y-103471604D01*
X145518352Y-103462588D01*
X145506070Y-103447622D01*
X145490883Y-103429117D01*
X145453703Y-103398603D01*
X145452412Y-103397492D01*
X145451580Y-103396660D01*
X145413422Y-103365546D01*
X145338538Y-103304090D01*
X145337128Y-103303336D01*
X145333407Y-103300302D01*
X145327840Y-103297394D01*
X145327837Y-103297392D01*
X145247853Y-103255612D01*
X145246812Y-103255061D01*
X145198751Y-103229372D01*
X145164727Y-103211186D01*
X145161349Y-103210161D01*
X145160305Y-103209673D01*
X145158613Y-103208997D01*
X145153049Y-103206091D01*
X145147018Y-103204365D01*
X145147005Y-103204360D01*
X145063727Y-103180531D01*
X145061845Y-103179977D01*
X144981951Y-103155741D01*
X144981949Y-103155740D01*
X144976132Y-103153976D01*
X144970357Y-103153406D01*
X144965117Y-103152138D01*
X144963456Y-103151840D01*
X144957418Y-103150113D01*
X144951156Y-103149636D01*
X144951150Y-103149635D01*
X144868378Y-103143332D01*
X144865641Y-103143093D01*
X144786062Y-103135256D01*
X144780000Y-103134659D01*
X144773936Y-103135256D01*
X144767850Y-103135256D01*
X144767850Y-103134833D01*
X144767072Y-103134840D01*
X144767076Y-103134981D01*
X144760789Y-103135139D01*
X144754524Y-103134663D01*
X144748298Y-103135455D01*
X144748291Y-103135456D01*
X144669481Y-103145493D01*
X144665971Y-103145889D01*
X144589931Y-103153378D01*
X144589922Y-103153379D01*
X144583868Y-103153976D01*
X144578037Y-103155744D01*
X144572072Y-103156931D01*
X144572054Y-103156840D01*
X144559789Y-103159462D01*
X144558918Y-103159573D01*
X144558906Y-103159575D01*
X144552672Y-103160370D01*
X144474925Y-103186944D01*
X144470819Y-103188268D01*
X144401097Y-103209419D01*
X144401094Y-103209419D01*
X144395273Y-103211186D01*
X144389912Y-103214050D01*
X144389900Y-103214056D01*
X144388618Y-103214742D01*
X144370292Y-103222709D01*
X144366077Y-103224149D01*
X144366066Y-103224153D01*
X144360128Y-103226184D01*
X144354713Y-103229371D01*
X144354712Y-103229372D01*
X144292398Y-103266053D01*
X144287951Y-103268549D01*
X144226832Y-103301219D01*
X144226827Y-103301221D01*
X144221462Y-103304090D01*
X144216759Y-103307949D01*
X144216746Y-103307958D01*
X144212853Y-103311153D01*
X144197121Y-103322140D01*
X144190198Y-103326215D01*
X144190189Y-103326221D01*
X144184773Y-103329410D01*
X144180106Y-103333625D01*
X144180101Y-103333630D01*
X144129097Y-103379710D01*
X144124638Y-103383551D01*
X144073825Y-103425253D01*
X144069117Y-103429117D01*
X144065257Y-103433819D01*
X144065246Y-103433831D01*
X144059785Y-103440485D01*
X144047078Y-103453810D01*
X144038454Y-103461602D01*
X144038443Y-103461613D01*
X144033787Y-103465821D01*
X144030074Y-103470876D01*
X144030066Y-103470886D01*
X143991483Y-103523428D01*
X143987392Y-103528695D01*
X143947954Y-103576751D01*
X143947944Y-103576765D01*
X143944090Y-103581462D01*
X143941226Y-103586818D01*
X143941217Y-103586833D01*
X143935466Y-103597593D01*
X143926064Y-103612518D01*
X143917075Y-103624760D01*
X143917071Y-103624766D01*
X143913351Y-103629833D01*
X143910726Y-103635544D01*
X143910721Y-103635554D01*
X143884995Y-103691542D01*
X143881680Y-103698220D01*
X143851186Y-103755273D01*
X143849419Y-103761095D01*
X143849414Y-103761109D01*
X143844838Y-103776193D01*
X143838858Y-103791955D01*
X143831022Y-103809010D01*
X143831016Y-103809026D01*
X143828395Y-103814732D01*
X143826974Y-103820851D01*
X143826974Y-103820854D01*
X143813849Y-103877409D01*
X143811720Y-103885368D01*
X143795744Y-103938035D01*
X143795741Y-103938048D01*
X143793976Y-103943868D01*
X143793379Y-103949921D01*
X143793377Y-103949935D01*
X143791481Y-103969179D01*
X143788871Y-103985041D01*
X143784958Y-104001907D01*
X143754043Y-104059312D01*
X143698281Y-104093098D01*
X143633087Y-104093925D01*
X143576485Y-104061564D01*
X140417567Y-100902647D01*
X140415374Y-100900398D01*
X140359390Y-100841503D01*
X140359389Y-100841502D01*
X140355059Y-100836947D01*
X140349897Y-100833354D01*
X140306642Y-100803247D01*
X140299119Y-100797575D01*
X140258280Y-100764275D01*
X140258277Y-100764273D01*
X140253407Y-100760302D01*
X140226437Y-100746213D01*
X140213024Y-100738087D01*
X140188049Y-100720705D01*
X140133817Y-100697432D01*
X140125351Y-100693411D01*
X140073049Y-100666091D01*
X140043802Y-100657722D01*
X140029021Y-100652459D01*
X140006841Y-100642941D01*
X140006835Y-100642939D01*
X140001058Y-100640460D01*
X139994905Y-100639195D01*
X139994891Y-100639191D01*
X139943273Y-100628583D01*
X139934126Y-100626338D01*
X139883465Y-100611842D01*
X139883453Y-100611839D01*
X139877418Y-100610113D01*
X139871154Y-100609635D01*
X139871149Y-100609635D01*
X139847075Y-100607802D01*
X139831533Y-100605622D01*
X139807902Y-100600766D01*
X139807901Y-100600765D01*
X139801741Y-100599500D01*
X139795452Y-100599500D01*
X139742759Y-100599500D01*
X139733344Y-100599142D01*
X139680794Y-100595140D01*
X139680789Y-100595140D01*
X139674524Y-100594663D01*
X139668290Y-100595456D01*
X139668284Y-100595457D01*
X139644349Y-100598506D01*
X139628683Y-100599500D01*
X135655840Y-100599500D01*
X135610765Y-100591017D01*
X135573074Y-100567489D01*
X135571784Y-100566087D01*
X135567748Y-100562946D01*
X135567743Y-100562941D01*
X135394181Y-100427854D01*
X135358943Y-100384461D01*
X135346343Y-100330000D01*
X135358943Y-100275539D01*
X135394181Y-100232146D01*
X135571784Y-100093913D01*
X135728979Y-99923153D01*
X135855924Y-99728849D01*
X135949157Y-99516300D01*
X136006134Y-99291305D01*
X136025300Y-99060000D01*
X136006134Y-98828695D01*
X135949157Y-98603700D01*
X135855924Y-98391151D01*
X135728979Y-98196847D01*
X135571784Y-98026087D01*
X135394180Y-97887852D01*
X135358943Y-97844461D01*
X135346343Y-97790000D01*
X135358943Y-97735539D01*
X135394181Y-97692146D01*
X135571784Y-97553913D01*
X135728979Y-97383153D01*
X135855924Y-97188849D01*
X135949157Y-96976300D01*
X136006134Y-96751305D01*
X136025300Y-96520000D01*
X136006134Y-96288695D01*
X135949157Y-96063700D01*
X135855924Y-95851151D01*
X135728979Y-95656847D01*
X135571784Y-95486087D01*
X135561901Y-95478395D01*
X135394181Y-95347854D01*
X135358943Y-95304461D01*
X135346343Y-95250000D01*
X135358943Y-95195539D01*
X135394181Y-95152146D01*
X135394183Y-95152145D01*
X135571784Y-95013913D01*
X135573074Y-95012510D01*
X135610765Y-94988983D01*
X135655840Y-94980500D01*
X149845722Y-94980500D01*
X149848862Y-94980539D01*
X149936363Y-94982757D01*
X149994458Y-94972344D01*
X150003739Y-94971042D01*
X150062438Y-94965074D01*
X150091464Y-94955966D01*
X150106713Y-94952224D01*
X150136653Y-94946858D01*
X150191423Y-94924980D01*
X150200303Y-94921818D01*
X150256588Y-94904159D01*
X150283194Y-94889390D01*
X150297362Y-94882662D01*
X150325617Y-94871377D01*
X150374891Y-94838902D01*
X150382910Y-94834043D01*
X150434502Y-94805409D01*
X150445961Y-94795570D01*
X150457583Y-94785594D01*
X150470125Y-94776137D01*
X150495519Y-94759402D01*
X150537238Y-94717681D01*
X150544122Y-94711301D01*
X150588895Y-94672866D01*
X150607520Y-94648802D01*
X150617879Y-94637040D01*
X153097409Y-92157510D01*
X153099579Y-92155394D01*
X153163053Y-92095059D01*
X153196763Y-92046624D01*
X153202405Y-92039141D01*
X153239697Y-91993408D01*
X153253781Y-91966443D01*
X153261909Y-91953025D01*
X153279295Y-91928049D01*
X153302568Y-91873815D01*
X153306595Y-91865336D01*
X153333909Y-91813049D01*
X153342275Y-91783808D01*
X153347539Y-91769019D01*
X153359540Y-91741058D01*
X153371421Y-91683238D01*
X153373650Y-91674155D01*
X153389886Y-91617418D01*
X153392195Y-91587082D01*
X153394376Y-91571539D01*
X153399234Y-91547901D01*
X153399233Y-91547901D01*
X153400500Y-91541741D01*
X153400500Y-91482756D01*
X153400858Y-91473340D01*
X153403397Y-91440000D01*
X153405337Y-91414524D01*
X153401493Y-91384348D01*
X153400500Y-91368683D01*
X153400500Y-79205783D01*
X153409939Y-79158330D01*
X153436819Y-79118102D01*
X160398102Y-72156819D01*
X160438330Y-72129939D01*
X160485783Y-72120500D01*
X160718100Y-72120500D01*
X160784196Y-72139584D01*
X160829947Y-72190962D01*
X160841270Y-72258820D01*
X160814681Y-72322270D01*
X160758363Y-72361781D01*
X160730345Y-72371399D01*
X160730337Y-72371402D01*
X160725497Y-72373064D01*
X160721001Y-72375496D01*
X160720992Y-72375501D01*
X160525882Y-72481090D01*
X160525878Y-72481092D01*
X160521374Y-72483530D01*
X160517334Y-72486674D01*
X160517327Y-72486679D01*
X160342263Y-72622936D01*
X160342255Y-72622943D01*
X160338216Y-72626087D01*
X160334746Y-72629855D01*
X160334742Y-72629860D01*
X160184491Y-72793077D01*
X160184488Y-72793080D01*
X160181021Y-72796847D01*
X160178226Y-72801124D01*
X160178219Y-72801134D01*
X160056878Y-72986862D01*
X160054076Y-72991151D01*
X160052021Y-72995835D01*
X160052016Y-72995845D01*
X159962903Y-73199003D01*
X159960843Y-73203700D01*
X159959585Y-73208665D01*
X159959584Y-73208670D01*
X159905125Y-73423720D01*
X159905123Y-73423729D01*
X159903866Y-73428695D01*
X159903442Y-73433802D01*
X159903441Y-73433813D01*
X159895747Y-73526677D01*
X159884700Y-73660000D01*
X159885124Y-73665117D01*
X159903441Y-73886186D01*
X159903442Y-73886195D01*
X159903866Y-73891305D01*
X159905123Y-73896272D01*
X159905125Y-73896279D01*
X159939554Y-74032234D01*
X159960843Y-74116300D01*
X159962903Y-74120996D01*
X160052016Y-74324154D01*
X160052019Y-74324159D01*
X160054076Y-74328849D01*
X160117548Y-74426000D01*
X160178219Y-74518865D01*
X160178222Y-74518869D01*
X160181021Y-74523153D01*
X160338216Y-74693913D01*
X160515819Y-74832146D01*
X160551056Y-74875538D01*
X160563656Y-74929999D01*
X160551057Y-74984459D01*
X160515819Y-75027852D01*
X160342265Y-75162934D01*
X160342254Y-75162944D01*
X160338216Y-75166087D01*
X160334746Y-75169855D01*
X160334742Y-75169860D01*
X160184491Y-75333077D01*
X160184488Y-75333080D01*
X160181021Y-75336847D01*
X160178226Y-75341124D01*
X160178219Y-75341134D01*
X160062844Y-75517731D01*
X160054076Y-75531151D01*
X160052021Y-75535835D01*
X160052016Y-75535845D01*
X159962903Y-75739003D01*
X159960843Y-75743700D01*
X159959585Y-75748665D01*
X159959584Y-75748670D01*
X159905125Y-75963720D01*
X159905123Y-75963729D01*
X159903866Y-75968695D01*
X159903442Y-75973802D01*
X159903441Y-75973813D01*
X159885200Y-76193955D01*
X159884700Y-76200000D01*
X159885124Y-76205117D01*
X159903441Y-76426186D01*
X159903442Y-76426195D01*
X159903866Y-76431305D01*
X159905123Y-76436272D01*
X159905125Y-76436279D01*
X159906228Y-76440634D01*
X159960843Y-76656300D01*
X159962903Y-76660996D01*
X160052016Y-76864154D01*
X160052019Y-76864159D01*
X160054076Y-76868849D01*
X160074167Y-76899600D01*
X160178219Y-77058865D01*
X160178222Y-77058869D01*
X160181021Y-77063153D01*
X160338216Y-77233913D01*
X160342263Y-77237063D01*
X160342270Y-77237069D01*
X160515818Y-77372147D01*
X160551056Y-77415540D01*
X160563656Y-77470000D01*
X160551056Y-77524460D01*
X160515818Y-77567853D01*
X160342270Y-77702930D01*
X160342258Y-77702940D01*
X160338216Y-77706087D01*
X160334746Y-77709855D01*
X160334742Y-77709860D01*
X160184491Y-77873077D01*
X160184488Y-77873080D01*
X160181021Y-77876847D01*
X160178226Y-77881124D01*
X160178219Y-77881134D01*
X160072442Y-78043040D01*
X160054076Y-78071151D01*
X160052021Y-78075835D01*
X160052016Y-78075845D01*
X159962903Y-78279003D01*
X159960843Y-78283700D01*
X159959585Y-78288665D01*
X159959584Y-78288670D01*
X159905125Y-78503720D01*
X159905123Y-78503729D01*
X159903866Y-78508695D01*
X159903442Y-78513802D01*
X159903441Y-78513813D01*
X159893130Y-78638259D01*
X159884700Y-78740000D01*
X159885124Y-78745117D01*
X159903441Y-78966186D01*
X159903442Y-78966195D01*
X159903866Y-78971305D01*
X159905123Y-78976272D01*
X159905125Y-78976279D01*
X159959584Y-79191329D01*
X159960843Y-79196300D01*
X159962903Y-79200996D01*
X160052016Y-79404154D01*
X160052019Y-79404159D01*
X160054076Y-79408849D01*
X160117548Y-79506000D01*
X160178219Y-79598865D01*
X160178222Y-79598869D01*
X160181021Y-79603153D01*
X160338216Y-79773913D01*
X160342263Y-79777063D01*
X160342270Y-79777069D01*
X160515818Y-79912147D01*
X160551056Y-79955540D01*
X160563656Y-80010000D01*
X160551056Y-80064460D01*
X160515818Y-80107853D01*
X160342270Y-80242930D01*
X160342258Y-80242940D01*
X160338216Y-80246087D01*
X160334746Y-80249855D01*
X160334742Y-80249860D01*
X160184491Y-80413077D01*
X160184488Y-80413080D01*
X160181021Y-80416847D01*
X160178226Y-80421124D01*
X160178219Y-80421134D01*
X160056878Y-80606862D01*
X160054076Y-80611151D01*
X160052021Y-80615835D01*
X160052016Y-80615845D01*
X159962903Y-80819003D01*
X159960843Y-80823700D01*
X159959585Y-80828665D01*
X159959584Y-80828670D01*
X159905125Y-81043720D01*
X159905123Y-81043729D01*
X159903866Y-81048695D01*
X159903442Y-81053802D01*
X159903441Y-81053813D01*
X159885200Y-81273955D01*
X159884700Y-81280000D01*
X159885124Y-81285117D01*
X159903441Y-81506186D01*
X159903442Y-81506195D01*
X159903866Y-81511305D01*
X159905123Y-81516272D01*
X159905125Y-81516279D01*
X159909877Y-81535043D01*
X159960843Y-81736300D01*
X159962903Y-81740996D01*
X160052016Y-81944154D01*
X160052019Y-81944159D01*
X160054076Y-81948849D01*
X160099055Y-82017695D01*
X160178219Y-82138865D01*
X160178222Y-82138869D01*
X160181021Y-82143153D01*
X160338216Y-82313913D01*
X160515819Y-82452146D01*
X160551056Y-82495538D01*
X160563656Y-82549999D01*
X160551057Y-82604459D01*
X160515819Y-82647852D01*
X160342265Y-82782934D01*
X160342254Y-82782944D01*
X160338216Y-82786087D01*
X160334746Y-82789855D01*
X160334742Y-82789860D01*
X160184491Y-82953077D01*
X160184488Y-82953080D01*
X160181021Y-82956847D01*
X160178226Y-82961124D01*
X160178219Y-82961134D01*
X160056878Y-83146862D01*
X160054076Y-83151151D01*
X160052021Y-83155835D01*
X160052016Y-83155845D01*
X159977036Y-83326784D01*
X159960843Y-83363700D01*
X159959585Y-83368665D01*
X159959584Y-83368670D01*
X159905125Y-83583720D01*
X159905123Y-83583729D01*
X159903866Y-83588695D01*
X159903442Y-83593802D01*
X159903441Y-83593813D01*
X159893130Y-83718259D01*
X159884700Y-83820000D01*
X159885124Y-83825117D01*
X159903441Y-84046186D01*
X159903442Y-84046195D01*
X159903866Y-84051305D01*
X159905123Y-84056272D01*
X159905125Y-84056279D01*
X159959584Y-84271329D01*
X159960843Y-84276300D01*
X159962903Y-84280996D01*
X160052016Y-84484154D01*
X160052019Y-84484159D01*
X160054076Y-84488849D01*
X160105182Y-84567073D01*
X160178219Y-84678865D01*
X160178222Y-84678869D01*
X160181021Y-84683153D01*
X160338216Y-84853913D01*
X160342263Y-84857063D01*
X160342270Y-84857069D01*
X160515818Y-84992147D01*
X160551056Y-85035540D01*
X160563656Y-85090000D01*
X160551056Y-85144460D01*
X160515818Y-85187853D01*
X160342270Y-85322930D01*
X160342258Y-85322940D01*
X160338216Y-85326087D01*
X160334746Y-85329855D01*
X160334742Y-85329860D01*
X160184491Y-85493077D01*
X160184488Y-85493080D01*
X160181021Y-85496847D01*
X160178226Y-85501124D01*
X160178219Y-85501134D01*
X160062844Y-85677731D01*
X160054076Y-85691151D01*
X160052021Y-85695835D01*
X160052016Y-85695845D01*
X159962903Y-85899003D01*
X159960843Y-85903700D01*
X159959585Y-85908665D01*
X159959584Y-85908670D01*
X159905125Y-86123720D01*
X159905123Y-86123729D01*
X159903866Y-86128695D01*
X159903442Y-86133802D01*
X159903441Y-86133813D01*
X159890360Y-86291694D01*
X159884700Y-86360000D01*
X159885124Y-86365117D01*
X159903441Y-86586186D01*
X159903442Y-86586195D01*
X159903866Y-86591305D01*
X159905123Y-86596272D01*
X159905125Y-86596279D01*
X159906228Y-86600634D01*
X159960843Y-86816300D01*
X159962903Y-86820996D01*
X160052016Y-87024154D01*
X160052019Y-87024159D01*
X160054076Y-87028849D01*
X160117548Y-87126000D01*
X160178219Y-87218865D01*
X160178222Y-87218869D01*
X160181021Y-87223153D01*
X160338216Y-87393913D01*
X160342263Y-87397063D01*
X160342270Y-87397069D01*
X160515818Y-87532147D01*
X160551056Y-87575540D01*
X160563656Y-87630000D01*
X160551056Y-87684460D01*
X160515818Y-87727853D01*
X160342270Y-87862930D01*
X160342258Y-87862940D01*
X160338216Y-87866087D01*
X160334746Y-87869855D01*
X160334742Y-87869860D01*
X160184491Y-88033077D01*
X160184488Y-88033080D01*
X160181021Y-88036847D01*
X160178226Y-88041124D01*
X160178219Y-88041134D01*
X160062844Y-88217731D01*
X160054076Y-88231151D01*
X160052021Y-88235835D01*
X160052016Y-88235845D01*
X159962903Y-88439003D01*
X159960843Y-88443700D01*
X159959585Y-88448665D01*
X159959584Y-88448670D01*
X159905125Y-88663720D01*
X159905123Y-88663729D01*
X159903866Y-88668695D01*
X159903442Y-88673802D01*
X159903441Y-88673813D01*
X159885200Y-88893955D01*
X159884700Y-88900000D01*
X159885124Y-88905117D01*
X159903441Y-89126186D01*
X159903442Y-89126195D01*
X159903866Y-89131305D01*
X159905123Y-89136272D01*
X159905125Y-89136279D01*
X159952362Y-89322811D01*
X159960843Y-89356300D01*
X159962903Y-89360996D01*
X160052016Y-89564154D01*
X160052019Y-89564159D01*
X160054076Y-89568849D01*
X160111656Y-89656982D01*
X160178219Y-89758865D01*
X160178222Y-89758869D01*
X160181021Y-89763153D01*
X160338216Y-89933913D01*
X160342263Y-89937063D01*
X160342270Y-89937069D01*
X160515818Y-90072147D01*
X160551056Y-90115540D01*
X160563656Y-90170000D01*
X160551056Y-90224460D01*
X160515818Y-90267853D01*
X160342270Y-90402930D01*
X160342258Y-90402940D01*
X160338216Y-90406087D01*
X160334746Y-90409855D01*
X160334742Y-90409860D01*
X160184491Y-90573077D01*
X160184488Y-90573080D01*
X160181021Y-90576847D01*
X160178226Y-90581124D01*
X160178219Y-90581134D01*
X160056878Y-90766862D01*
X160054076Y-90771151D01*
X160052021Y-90775835D01*
X160052016Y-90775845D01*
X159962903Y-90979003D01*
X159960843Y-90983700D01*
X159959585Y-90988665D01*
X159959584Y-90988670D01*
X159905125Y-91203720D01*
X159905123Y-91203729D01*
X159903866Y-91208695D01*
X159903442Y-91213802D01*
X159903441Y-91213813D01*
X159890609Y-91368683D01*
X159884700Y-91440000D01*
X159885124Y-91445117D01*
X159903441Y-91666186D01*
X159903442Y-91666195D01*
X159903866Y-91671305D01*
X159905123Y-91676272D01*
X159905125Y-91676279D01*
X159959584Y-91891329D01*
X159960843Y-91896300D01*
X159962903Y-91900996D01*
X160052016Y-92104154D01*
X160052019Y-92104159D01*
X160054076Y-92108849D01*
X160084461Y-92155356D01*
X160178219Y-92298865D01*
X160178222Y-92298869D01*
X160181021Y-92303153D01*
X160338216Y-92473913D01*
X160342263Y-92477063D01*
X160342270Y-92477069D01*
X160515818Y-92612147D01*
X160551056Y-92655540D01*
X160563656Y-92710000D01*
X160551056Y-92764460D01*
X160515818Y-92807853D01*
X160342270Y-92942930D01*
X160342258Y-92942940D01*
X160338216Y-92946087D01*
X160334746Y-92949855D01*
X160334742Y-92949860D01*
X160184491Y-93113077D01*
X160184488Y-93113080D01*
X160181021Y-93116847D01*
X160178226Y-93121124D01*
X160178219Y-93121134D01*
X160062844Y-93297731D01*
X160054076Y-93311151D01*
X160052021Y-93315835D01*
X160052016Y-93315845D01*
X159962903Y-93519003D01*
X159960843Y-93523700D01*
X159959585Y-93528665D01*
X159959584Y-93528670D01*
X159905125Y-93743720D01*
X159905123Y-93743729D01*
X159903866Y-93748695D01*
X159903442Y-93753802D01*
X159903441Y-93753813D01*
X159885200Y-93973955D01*
X159884700Y-93980000D01*
X159885124Y-93985117D01*
X159903441Y-94206186D01*
X159903442Y-94206195D01*
X159903866Y-94211305D01*
X159905123Y-94216272D01*
X159905125Y-94216279D01*
X159906228Y-94220634D01*
X159960843Y-94436300D01*
X159962903Y-94440996D01*
X160052016Y-94644154D01*
X160052019Y-94644159D01*
X160054076Y-94648849D01*
X160099055Y-94717695D01*
X160178219Y-94838865D01*
X160178222Y-94838869D01*
X160181021Y-94843153D01*
X160338216Y-95013913D01*
X160342263Y-95017063D01*
X160342270Y-95017069D01*
X160515818Y-95152147D01*
X160551056Y-95195540D01*
X160563656Y-95250000D01*
X160551056Y-95304460D01*
X160515818Y-95347853D01*
X160342270Y-95482930D01*
X160342258Y-95482940D01*
X160338216Y-95486087D01*
X160334746Y-95489855D01*
X160334742Y-95489860D01*
X160184491Y-95653077D01*
X160184488Y-95653080D01*
X160181021Y-95656847D01*
X160178226Y-95661124D01*
X160178219Y-95661134D01*
X160062844Y-95837731D01*
X160054076Y-95851151D01*
X160052021Y-95855835D01*
X160052016Y-95855845D01*
X159962903Y-96059003D01*
X159960843Y-96063700D01*
X159959585Y-96068665D01*
X159959584Y-96068670D01*
X159905125Y-96283720D01*
X159905123Y-96283729D01*
X159903866Y-96288695D01*
X159903442Y-96293802D01*
X159903441Y-96293813D01*
X159885203Y-96513935D01*
X159884700Y-96520000D01*
X159885124Y-96525117D01*
X159903441Y-96746186D01*
X159903442Y-96746195D01*
X159903866Y-96751305D01*
X159905123Y-96756272D01*
X159905125Y-96756279D01*
X159935513Y-96876276D01*
X159960843Y-96976300D01*
X159962903Y-96980996D01*
X160052016Y-97184154D01*
X160052019Y-97184159D01*
X160054076Y-97188849D01*
X160096736Y-97254145D01*
X160178219Y-97378865D01*
X160178222Y-97378869D01*
X160181021Y-97383153D01*
X160338216Y-97553913D01*
X160342263Y-97557063D01*
X160342270Y-97557069D01*
X160515818Y-97692147D01*
X160551056Y-97735540D01*
X160563656Y-97790000D01*
X160551056Y-97844460D01*
X160515818Y-97887853D01*
X160342270Y-98022930D01*
X160342258Y-98022940D01*
X160338216Y-98026087D01*
X160334746Y-98029855D01*
X160334742Y-98029860D01*
X160184491Y-98193077D01*
X160184488Y-98193080D01*
X160181021Y-98196847D01*
X160178226Y-98201124D01*
X160178219Y-98201134D01*
X160056878Y-98386862D01*
X160054076Y-98391151D01*
X160052021Y-98395835D01*
X160052016Y-98395845D01*
X159962903Y-98599003D01*
X159960843Y-98603700D01*
X159959585Y-98608665D01*
X159959584Y-98608670D01*
X159905125Y-98823720D01*
X159905123Y-98823729D01*
X159903866Y-98828695D01*
X159903442Y-98833802D01*
X159903441Y-98833813D01*
X159894059Y-98947048D01*
X159884700Y-99060000D01*
X159885124Y-99065117D01*
X159903441Y-99286186D01*
X159903442Y-99286195D01*
X159903866Y-99291305D01*
X159905123Y-99296272D01*
X159905125Y-99296279D01*
X159939885Y-99433539D01*
X159960843Y-99516300D01*
X159962903Y-99520996D01*
X160052016Y-99724154D01*
X160052019Y-99724159D01*
X160054076Y-99728849D01*
X160117548Y-99826000D01*
X160178219Y-99918865D01*
X160178222Y-99918869D01*
X160181021Y-99923153D01*
X160338216Y-100093913D01*
X160342263Y-100097063D01*
X160342270Y-100097069D01*
X160515818Y-100232147D01*
X160551056Y-100275540D01*
X160563656Y-100330000D01*
X160551056Y-100384460D01*
X160515818Y-100427853D01*
X160342270Y-100562930D01*
X160342258Y-100562940D01*
X160338216Y-100566087D01*
X160334746Y-100569855D01*
X160334742Y-100569860D01*
X160184491Y-100733077D01*
X160184488Y-100733080D01*
X160181021Y-100736847D01*
X160178226Y-100741124D01*
X160178219Y-100741134D01*
X160056878Y-100926862D01*
X160054076Y-100931151D01*
X160052021Y-100935835D01*
X160052016Y-100935845D01*
X159962903Y-101139003D01*
X159960843Y-101143700D01*
X159959585Y-101148665D01*
X159959584Y-101148670D01*
X159905125Y-101363720D01*
X159905123Y-101363729D01*
X159903866Y-101368695D01*
X159903442Y-101373802D01*
X159903441Y-101373813D01*
X159885200Y-101593955D01*
X159884700Y-101600000D01*
X159885124Y-101605117D01*
X159903441Y-101826186D01*
X159903442Y-101826195D01*
X159903866Y-101831305D01*
X159905123Y-101836272D01*
X159905125Y-101836279D01*
X159959584Y-102051329D01*
X159960843Y-102056300D01*
X159962903Y-102060996D01*
X160052016Y-102264154D01*
X160052019Y-102264159D01*
X160054076Y-102268849D01*
X160117548Y-102366001D01*
X160178219Y-102458865D01*
X160178222Y-102458869D01*
X160181021Y-102463153D01*
X160338216Y-102633913D01*
X160342263Y-102637063D01*
X160342270Y-102637069D01*
X160515818Y-102772147D01*
X160551056Y-102815540D01*
X160563656Y-102870000D01*
X160551056Y-102924460D01*
X160515818Y-102967853D01*
X160342270Y-103102930D01*
X160342258Y-103102940D01*
X160338216Y-103106087D01*
X160334746Y-103109855D01*
X160334742Y-103109860D01*
X160184491Y-103273077D01*
X160184488Y-103273080D01*
X160181021Y-103276847D01*
X160178226Y-103281124D01*
X160178219Y-103281134D01*
X160059670Y-103462588D01*
X160054076Y-103471151D01*
X160052021Y-103475835D01*
X160052016Y-103475845D01*
X159962903Y-103679003D01*
X159960843Y-103683700D01*
X159959585Y-103688665D01*
X159959584Y-103688670D01*
X159905125Y-103903720D01*
X159905123Y-103903729D01*
X159903866Y-103908695D01*
X159903442Y-103913802D01*
X159903441Y-103913813D01*
X159888586Y-104093098D01*
X159884700Y-104140000D01*
X159885124Y-104145117D01*
X159903441Y-104366186D01*
X159903442Y-104366195D01*
X159903866Y-104371305D01*
X159905123Y-104376272D01*
X159905125Y-104376279D01*
X159959584Y-104591329D01*
X159960843Y-104596300D01*
X159962903Y-104600996D01*
X160052016Y-104804154D01*
X160052019Y-104804159D01*
X160054076Y-104808849D01*
X160117548Y-104906001D01*
X160178219Y-104998865D01*
X160178222Y-104998869D01*
X160181021Y-105003153D01*
X160338216Y-105173913D01*
X160515819Y-105312146D01*
X160551056Y-105355538D01*
X160563656Y-105409999D01*
X160551057Y-105464459D01*
X160515819Y-105507852D01*
X160342265Y-105642934D01*
X160342254Y-105642944D01*
X160338216Y-105646087D01*
X160334746Y-105649855D01*
X160334742Y-105649860D01*
X160184491Y-105813077D01*
X160184488Y-105813080D01*
X160181021Y-105816847D01*
X160178226Y-105821124D01*
X160178219Y-105821134D01*
X160093306Y-105951105D01*
X160054076Y-106011151D01*
X160052021Y-106015835D01*
X160052016Y-106015845D01*
X159964930Y-106214383D01*
X159960843Y-106223700D01*
X159959585Y-106228665D01*
X159959584Y-106228670D01*
X159905125Y-106443720D01*
X159905123Y-106443729D01*
X159903866Y-106448695D01*
X159903442Y-106453802D01*
X159903441Y-106453813D01*
X159885200Y-106673955D01*
X159884700Y-106680000D01*
X159885124Y-106685117D01*
X159903441Y-106906186D01*
X159903442Y-106906195D01*
X159903866Y-106911305D01*
X159905123Y-106916272D01*
X159905125Y-106916279D01*
X159959584Y-107131329D01*
X159960843Y-107136300D01*
X159962903Y-107140996D01*
X160052016Y-107344154D01*
X160052019Y-107344159D01*
X160054076Y-107348849D01*
X160117548Y-107446001D01*
X160178219Y-107538865D01*
X160178222Y-107538869D01*
X160181021Y-107543153D01*
X160338216Y-107713913D01*
X160515819Y-107852146D01*
X160551056Y-107895538D01*
X160563656Y-107949999D01*
X160551057Y-108004459D01*
X160515819Y-108047852D01*
X160342265Y-108182934D01*
X160342254Y-108182944D01*
X160338216Y-108186087D01*
X160334746Y-108189855D01*
X160334742Y-108189860D01*
X160184491Y-108353077D01*
X160184488Y-108353080D01*
X160181021Y-108356847D01*
X160178226Y-108361124D01*
X160178219Y-108361134D01*
X160066887Y-108531542D01*
X160054076Y-108551151D01*
X160014784Y-108640727D01*
X159977035Y-108726787D01*
X159960843Y-108763700D01*
X159959585Y-108768665D01*
X159959584Y-108768670D01*
X159905125Y-108983720D01*
X159905123Y-108983729D01*
X159903866Y-108988695D01*
X159903442Y-108993802D01*
X159903441Y-108993813D01*
X159889164Y-109166124D01*
X159884700Y-109220000D01*
X159885124Y-109225117D01*
X159903441Y-109446186D01*
X159903442Y-109446195D01*
X159903866Y-109451305D01*
X159905123Y-109456272D01*
X159905125Y-109456279D01*
X159959584Y-109671329D01*
X159960843Y-109676300D01*
X159962903Y-109680996D01*
X160052016Y-109884154D01*
X160052019Y-109884159D01*
X160054076Y-109888849D01*
X160117548Y-109986000D01*
X160178219Y-110078865D01*
X160178222Y-110078869D01*
X160181021Y-110083153D01*
X160338216Y-110253913D01*
X160342263Y-110257063D01*
X160342270Y-110257069D01*
X160515818Y-110392147D01*
X160551056Y-110435540D01*
X160563656Y-110490000D01*
X160551056Y-110544460D01*
X160515818Y-110587853D01*
X160342270Y-110722930D01*
X160342258Y-110722940D01*
X160338216Y-110726087D01*
X160334746Y-110729855D01*
X160334742Y-110729860D01*
X160184491Y-110893077D01*
X160184488Y-110893080D01*
X160181021Y-110896847D01*
X160178226Y-110901124D01*
X160178219Y-110901134D01*
X160072442Y-111063040D01*
X160054076Y-111091151D01*
X160052021Y-111095835D01*
X160052016Y-111095845D01*
X159962903Y-111299003D01*
X159960843Y-111303700D01*
X159959585Y-111308665D01*
X159959584Y-111308670D01*
X159905125Y-111523720D01*
X159905123Y-111523729D01*
X159903866Y-111528695D01*
X159903442Y-111533802D01*
X159903441Y-111533813D01*
X159885200Y-111753955D01*
X159884700Y-111760000D01*
X159885124Y-111765117D01*
X159903441Y-111986186D01*
X159903442Y-111986195D01*
X159903866Y-111991305D01*
X159905123Y-111996272D01*
X159905125Y-111996279D01*
X159959584Y-112211329D01*
X159960843Y-112216300D01*
X159962903Y-112220996D01*
X160052016Y-112424154D01*
X160052019Y-112424159D01*
X160054076Y-112428849D01*
X160117548Y-112526001D01*
X160178219Y-112618865D01*
X160178222Y-112618869D01*
X160181021Y-112623153D01*
X160338216Y-112793913D01*
X160342265Y-112797064D01*
X160342270Y-112797069D01*
X160515818Y-112932147D01*
X160551056Y-112975540D01*
X160563656Y-113030000D01*
X160551056Y-113084460D01*
X160515818Y-113127853D01*
X160342270Y-113262930D01*
X160342258Y-113262940D01*
X160338216Y-113266087D01*
X160334746Y-113269855D01*
X160334742Y-113269860D01*
X160184491Y-113433077D01*
X160184488Y-113433080D01*
X160181021Y-113436847D01*
X160178226Y-113441124D01*
X160178219Y-113441134D01*
X160072442Y-113603040D01*
X160054076Y-113631151D01*
X160052021Y-113635835D01*
X160052016Y-113635845D01*
X159962903Y-113839003D01*
X159960843Y-113843700D01*
X159959585Y-113848665D01*
X159959584Y-113848670D01*
X159905125Y-114063720D01*
X159905123Y-114063729D01*
X159903866Y-114068695D01*
X159903442Y-114073802D01*
X159903441Y-114073813D01*
X159885200Y-114293955D01*
X159884700Y-114300000D01*
X159885124Y-114305117D01*
X159903441Y-114526186D01*
X159903442Y-114526195D01*
X159903866Y-114531305D01*
X159905123Y-114536272D01*
X159905125Y-114536279D01*
X159940173Y-114674677D01*
X159960843Y-114756300D01*
X159962903Y-114760996D01*
X160052016Y-114964154D01*
X160052019Y-114964159D01*
X160054076Y-114968849D01*
X160117548Y-115066001D01*
X160178219Y-115158865D01*
X160178222Y-115158869D01*
X160181021Y-115163153D01*
X160338216Y-115333913D01*
X160342263Y-115337063D01*
X160342270Y-115337069D01*
X160515818Y-115472147D01*
X160551056Y-115515540D01*
X160563656Y-115570000D01*
X160551056Y-115624460D01*
X160515818Y-115667853D01*
X160342270Y-115802930D01*
X160342258Y-115802940D01*
X160338216Y-115806087D01*
X160334746Y-115809855D01*
X160334742Y-115809860D01*
X160184491Y-115973077D01*
X160184488Y-115973080D01*
X160181021Y-115976847D01*
X160178226Y-115981124D01*
X160178219Y-115981134D01*
X160059772Y-116162432D01*
X160054076Y-116171151D01*
X160052021Y-116175835D01*
X160052016Y-116175845D01*
X159983447Y-116332168D01*
X159960843Y-116383700D01*
X159959585Y-116388665D01*
X159959584Y-116388670D01*
X159905125Y-116603720D01*
X159905123Y-116603729D01*
X159903866Y-116608695D01*
X159903442Y-116613802D01*
X159903441Y-116613813D01*
X159885200Y-116833955D01*
X159884700Y-116840000D01*
X159885124Y-116845117D01*
X159903441Y-117066186D01*
X159903442Y-117066195D01*
X159903866Y-117071305D01*
X159905123Y-117076272D01*
X159905125Y-117076279D01*
X159951170Y-117258102D01*
X159960843Y-117296300D01*
X159962903Y-117300996D01*
X160052016Y-117504154D01*
X160052019Y-117504159D01*
X160054076Y-117508849D01*
X160117548Y-117606000D01*
X160178219Y-117698865D01*
X160178222Y-117698869D01*
X160181021Y-117703153D01*
X160338216Y-117873913D01*
X160515819Y-118012146D01*
X160551056Y-118055538D01*
X160563656Y-118109999D01*
X160551057Y-118164459D01*
X160515819Y-118207852D01*
X160342265Y-118342934D01*
X160342254Y-118342944D01*
X160338216Y-118346087D01*
X160334746Y-118349855D01*
X160334742Y-118349860D01*
X160184491Y-118513077D01*
X160184488Y-118513080D01*
X160181021Y-118516847D01*
X160178226Y-118521124D01*
X160178219Y-118521134D01*
X160072442Y-118683040D01*
X160054076Y-118711151D01*
X160052021Y-118715835D01*
X160052016Y-118715845D01*
X159980086Y-118879830D01*
X159960843Y-118923700D01*
X159959585Y-118928665D01*
X159959584Y-118928670D01*
X159905125Y-119143720D01*
X159905123Y-119143729D01*
X159903866Y-119148695D01*
X159903442Y-119153802D01*
X159903441Y-119153813D01*
X159895031Y-119255317D01*
X159884700Y-119380000D01*
X159885124Y-119385117D01*
X159903441Y-119606186D01*
X159903442Y-119606195D01*
X159903866Y-119611305D01*
X159905123Y-119616272D01*
X159905125Y-119616279D01*
X159947113Y-119782083D01*
X159960843Y-119836300D01*
X159979907Y-119879763D01*
X160052016Y-120044154D01*
X160052019Y-120044159D01*
X160054076Y-120048849D01*
X160112249Y-120137889D01*
X160178219Y-120238865D01*
X160178222Y-120238869D01*
X160181021Y-120243153D01*
X160338216Y-120413913D01*
X160342265Y-120417064D01*
X160342270Y-120417069D01*
X160515818Y-120552147D01*
X160551056Y-120595540D01*
X160563656Y-120650000D01*
X160551056Y-120704460D01*
X160515818Y-120747853D01*
X160342270Y-120882930D01*
X160342258Y-120882940D01*
X160338216Y-120886087D01*
X160334746Y-120889855D01*
X160334742Y-120889860D01*
X160184491Y-121053077D01*
X160184488Y-121053080D01*
X160181021Y-121056847D01*
X160178226Y-121061124D01*
X160178219Y-121061134D01*
X160056878Y-121246862D01*
X160054076Y-121251151D01*
X160052021Y-121255835D01*
X160052016Y-121255845D01*
X159962903Y-121459003D01*
X159960843Y-121463700D01*
X159959585Y-121468665D01*
X159959584Y-121468670D01*
X159905125Y-121683720D01*
X159905123Y-121683729D01*
X159903866Y-121688695D01*
X159903442Y-121693802D01*
X159903441Y-121693813D01*
X159885200Y-121913955D01*
X159884700Y-121920000D01*
X159885124Y-121925117D01*
X159903441Y-122146186D01*
X159903442Y-122146195D01*
X159903866Y-122151305D01*
X159905123Y-122156272D01*
X159905125Y-122156279D01*
X159959584Y-122371329D01*
X159960843Y-122376300D01*
X159962903Y-122380996D01*
X160052016Y-122584154D01*
X160052019Y-122584159D01*
X160054076Y-122588849D01*
X160074180Y-122619620D01*
X160178219Y-122778865D01*
X160178222Y-122778869D01*
X160181021Y-122783153D01*
X160338216Y-122953913D01*
X160342263Y-122957063D01*
X160342270Y-122957069D01*
X160515818Y-123092147D01*
X160551056Y-123135540D01*
X160563656Y-123190000D01*
X160551056Y-123244460D01*
X160515818Y-123287853D01*
X160342270Y-123422930D01*
X160342258Y-123422940D01*
X160338216Y-123426087D01*
X160334746Y-123429855D01*
X160334742Y-123429860D01*
X160184491Y-123593077D01*
X160184488Y-123593080D01*
X160181021Y-123596847D01*
X160178226Y-123601124D01*
X160178219Y-123601134D01*
X160062680Y-123777982D01*
X160054076Y-123791151D01*
X160052021Y-123795835D01*
X160052016Y-123795845D01*
X159962903Y-123999003D01*
X159960843Y-124003700D01*
X159959585Y-124008665D01*
X159959584Y-124008670D01*
X159905125Y-124223720D01*
X159905123Y-124223729D01*
X159903866Y-124228695D01*
X159903442Y-124233802D01*
X159903441Y-124233813D01*
X159885656Y-124448457D01*
X159884700Y-124460000D01*
X159885124Y-124465117D01*
X159903441Y-124686186D01*
X159903442Y-124686195D01*
X159903866Y-124691305D01*
X159905123Y-124696272D01*
X159905125Y-124696279D01*
X159959272Y-124910096D01*
X159960843Y-124916300D01*
X159962903Y-124920996D01*
X160052016Y-125124154D01*
X160052019Y-125124159D01*
X160054076Y-125128849D01*
X160117548Y-125226001D01*
X160178219Y-125318865D01*
X160178222Y-125318869D01*
X160181021Y-125323153D01*
X160338216Y-125493913D01*
X160521374Y-125636470D01*
X160725497Y-125746936D01*
X160945019Y-125822298D01*
X161173951Y-125860500D01*
X161400916Y-125860500D01*
X161406049Y-125860500D01*
X161634981Y-125822298D01*
X161854503Y-125746936D01*
X162058626Y-125636470D01*
X162241784Y-125493913D01*
X162398979Y-125323153D01*
X162525924Y-125128849D01*
X162619157Y-124916300D01*
X162676134Y-124691305D01*
X162695300Y-124460000D01*
X162676134Y-124228695D01*
X162619157Y-124003700D01*
X162525924Y-123791151D01*
X162398979Y-123596847D01*
X162241784Y-123426087D01*
X162226407Y-123414119D01*
X162090073Y-123308006D01*
X162064180Y-123287852D01*
X162028943Y-123244461D01*
X162016343Y-123190000D01*
X162028943Y-123135539D01*
X162064181Y-123092146D01*
X162241784Y-122953913D01*
X162398979Y-122783153D01*
X162525924Y-122588849D01*
X162619157Y-122376300D01*
X162676134Y-122151305D01*
X162695300Y-121920000D01*
X162676134Y-121688695D01*
X162619157Y-121463700D01*
X162525924Y-121251151D01*
X162412401Y-121077391D01*
X162401780Y-121061134D01*
X162401778Y-121061132D01*
X162398979Y-121056847D01*
X162241784Y-120886087D01*
X162064180Y-120747852D01*
X162028943Y-120704461D01*
X162016343Y-120650000D01*
X162028943Y-120595539D01*
X162064181Y-120552146D01*
X162241784Y-120413913D01*
X162398979Y-120243153D01*
X162525924Y-120048849D01*
X162619157Y-119836300D01*
X162676134Y-119611305D01*
X162695300Y-119380000D01*
X162676134Y-119148695D01*
X162619157Y-118923700D01*
X162525924Y-118711151D01*
X162398979Y-118516847D01*
X162241784Y-118346087D01*
X162237733Y-118342934D01*
X162237729Y-118342930D01*
X162064181Y-118207852D01*
X162028942Y-118164459D01*
X162016343Y-118109999D01*
X162028943Y-118055538D01*
X162064177Y-118012148D01*
X162241784Y-117873913D01*
X162398979Y-117703153D01*
X162525924Y-117508849D01*
X162619157Y-117296300D01*
X162676134Y-117071305D01*
X162695300Y-116840000D01*
X162676134Y-116608695D01*
X162619157Y-116383700D01*
X162525924Y-116171151D01*
X162398979Y-115976847D01*
X162241784Y-115806087D01*
X162064180Y-115667852D01*
X162028943Y-115624461D01*
X162016343Y-115570000D01*
X162028943Y-115515539D01*
X162064181Y-115472146D01*
X162241784Y-115333913D01*
X162398979Y-115163153D01*
X162525924Y-114968849D01*
X162619157Y-114756300D01*
X162676134Y-114531305D01*
X162695300Y-114300000D01*
X162676134Y-114068695D01*
X162619157Y-113843700D01*
X162525924Y-113631151D01*
X162398979Y-113436847D01*
X162241784Y-113266087D01*
X162195690Y-113230211D01*
X162064181Y-113127854D01*
X162028943Y-113084461D01*
X162016343Y-113030000D01*
X162028943Y-112975539D01*
X162064181Y-112932146D01*
X162241784Y-112793913D01*
X162398979Y-112623153D01*
X162525924Y-112428849D01*
X162619157Y-112216300D01*
X162676134Y-111991305D01*
X162695300Y-111760000D01*
X162676134Y-111528695D01*
X162619157Y-111303700D01*
X162525924Y-111091151D01*
X162398979Y-110896847D01*
X162241784Y-110726087D01*
X162237734Y-110722935D01*
X162064181Y-110587854D01*
X162028943Y-110544461D01*
X162016343Y-110490000D01*
X162028943Y-110435539D01*
X162064181Y-110392146D01*
X162241784Y-110253913D01*
X162398979Y-110083153D01*
X162525924Y-109888849D01*
X162619157Y-109676300D01*
X162676134Y-109451305D01*
X162695300Y-109220000D01*
X162676134Y-108988695D01*
X162619157Y-108763700D01*
X162525924Y-108551151D01*
X162398979Y-108356847D01*
X162241784Y-108186087D01*
X162064180Y-108047852D01*
X162028943Y-108004461D01*
X162016343Y-107950000D01*
X162028943Y-107895539D01*
X162064181Y-107852146D01*
X162241784Y-107713913D01*
X162398979Y-107543153D01*
X162525924Y-107348849D01*
X162619157Y-107136300D01*
X162676134Y-106911305D01*
X162695300Y-106680000D01*
X162676134Y-106448695D01*
X162619157Y-106223700D01*
X162525924Y-106011151D01*
X162398979Y-105816847D01*
X162241784Y-105646087D01*
X162064180Y-105507852D01*
X162028943Y-105464461D01*
X162016343Y-105410000D01*
X162028943Y-105355539D01*
X162064181Y-105312146D01*
X162241784Y-105173913D01*
X162398979Y-105003153D01*
X162525924Y-104808849D01*
X162619157Y-104596300D01*
X162676134Y-104371305D01*
X162695300Y-104140000D01*
X162676134Y-103908695D01*
X162619157Y-103683700D01*
X162525924Y-103471151D01*
X162398979Y-103276847D01*
X162241784Y-103106087D01*
X162064180Y-102967852D01*
X162028943Y-102924461D01*
X162016343Y-102870000D01*
X162028943Y-102815539D01*
X162064181Y-102772146D01*
X162241784Y-102633913D01*
X162398979Y-102463153D01*
X162525924Y-102268849D01*
X162619157Y-102056300D01*
X162676134Y-101831305D01*
X162695300Y-101600000D01*
X162676134Y-101368695D01*
X162619157Y-101143700D01*
X162525924Y-100931151D01*
X162412401Y-100757391D01*
X162401780Y-100741134D01*
X162401778Y-100741132D01*
X162398979Y-100736847D01*
X162241784Y-100566087D01*
X162064180Y-100427852D01*
X162028943Y-100384461D01*
X162016343Y-100330000D01*
X162028943Y-100275539D01*
X162064181Y-100232146D01*
X162241784Y-100093913D01*
X162398979Y-99923153D01*
X162525924Y-99728849D01*
X162619157Y-99516300D01*
X162676134Y-99291305D01*
X162695300Y-99060000D01*
X162676134Y-98828695D01*
X162619157Y-98603700D01*
X162525924Y-98391151D01*
X162398979Y-98196847D01*
X162241784Y-98026087D01*
X162064180Y-97887852D01*
X162028943Y-97844461D01*
X162016343Y-97790000D01*
X162028943Y-97735539D01*
X162064181Y-97692146D01*
X162241784Y-97553913D01*
X162398979Y-97383153D01*
X162525924Y-97188849D01*
X162619157Y-96976300D01*
X162676134Y-96751305D01*
X162695300Y-96520000D01*
X162676134Y-96288695D01*
X162619157Y-96063700D01*
X162525924Y-95851151D01*
X162398979Y-95656847D01*
X162241784Y-95486087D01*
X162231901Y-95478395D01*
X162064181Y-95347854D01*
X162028943Y-95304461D01*
X162016343Y-95250000D01*
X162028943Y-95195539D01*
X162064181Y-95152146D01*
X162241784Y-95013913D01*
X162398979Y-94843153D01*
X162525924Y-94648849D01*
X162619157Y-94436300D01*
X162676134Y-94211305D01*
X162695300Y-93980000D01*
X162676134Y-93748695D01*
X162619157Y-93523700D01*
X162525924Y-93311151D01*
X162398979Y-93116847D01*
X162241784Y-92946087D01*
X162237735Y-92942935D01*
X162237729Y-92942930D01*
X162064181Y-92807852D01*
X162028942Y-92764459D01*
X162016343Y-92709999D01*
X162028943Y-92655538D01*
X162064177Y-92612148D01*
X162241784Y-92473913D01*
X162398979Y-92303153D01*
X162525924Y-92108849D01*
X162619157Y-91896300D01*
X162676134Y-91671305D01*
X162695300Y-91440000D01*
X162676134Y-91208695D01*
X162619157Y-90983700D01*
X162525924Y-90771151D01*
X162398979Y-90576847D01*
X162241784Y-90406087D01*
X162064180Y-90267852D01*
X162028943Y-90224461D01*
X162016343Y-90170000D01*
X162028943Y-90115539D01*
X162064181Y-90072146D01*
X162241784Y-89933913D01*
X162398979Y-89763153D01*
X162525924Y-89568849D01*
X162619157Y-89356300D01*
X162676134Y-89131305D01*
X162695300Y-88900000D01*
X162676134Y-88668695D01*
X162619157Y-88443700D01*
X162525924Y-88231151D01*
X162398979Y-88036847D01*
X162241784Y-87866087D01*
X162231906Y-87858399D01*
X162064181Y-87727854D01*
X162028943Y-87684461D01*
X162016343Y-87630000D01*
X162028943Y-87575539D01*
X162064181Y-87532146D01*
X162241784Y-87393913D01*
X162398979Y-87223153D01*
X162525924Y-87028849D01*
X162619157Y-86816300D01*
X162676134Y-86591305D01*
X162695300Y-86360000D01*
X162676134Y-86128695D01*
X162619157Y-85903700D01*
X162525924Y-85691151D01*
X162398979Y-85496847D01*
X162241784Y-85326087D01*
X162225662Y-85313539D01*
X162146913Y-85252246D01*
X162064180Y-85187852D01*
X162028943Y-85144461D01*
X162016343Y-85090000D01*
X162028943Y-85035539D01*
X162064181Y-84992146D01*
X162123159Y-84946242D01*
X162241784Y-84853913D01*
X162398979Y-84683153D01*
X162525924Y-84488849D01*
X162619157Y-84276300D01*
X162676134Y-84051305D01*
X162695300Y-83820000D01*
X162676134Y-83588695D01*
X162619157Y-83363700D01*
X162525924Y-83151151D01*
X162398979Y-82956847D01*
X162241784Y-82786087D01*
X162064180Y-82647852D01*
X162028943Y-82604461D01*
X162016343Y-82550000D01*
X162028943Y-82495539D01*
X162064181Y-82452146D01*
X162241784Y-82313913D01*
X162398979Y-82143153D01*
X162525924Y-81948849D01*
X162619157Y-81736300D01*
X162619477Y-81735035D01*
X162653024Y-81684258D01*
X162708111Y-81655539D01*
X162770214Y-81657142D01*
X162823745Y-81688666D01*
X166603181Y-85468101D01*
X166630061Y-85508329D01*
X166639500Y-85555782D01*
X166639500Y-139685722D01*
X166639460Y-139688862D01*
X166637243Y-139776363D01*
X166638351Y-139782548D01*
X166638352Y-139782554D01*
X166647648Y-139834420D01*
X166648957Y-139843748D01*
X166654289Y-139896180D01*
X166654290Y-139896185D01*
X166654926Y-139902438D01*
X166656807Y-139908435D01*
X166656810Y-139908447D01*
X166664032Y-139931466D01*
X166667772Y-139946702D01*
X166672031Y-139970464D01*
X166672035Y-139970478D01*
X166673142Y-139976653D01*
X166675471Y-139982483D01*
X166695020Y-140031425D01*
X166698179Y-140040298D01*
X166715841Y-140096588D01*
X166718891Y-140102083D01*
X166730603Y-140123184D01*
X166737337Y-140137363D01*
X166746290Y-140159778D01*
X166746292Y-140159783D01*
X166748623Y-140165617D01*
X166752082Y-140170866D01*
X166752085Y-140170871D01*
X166781080Y-140214867D01*
X166785961Y-140222923D01*
X166811536Y-140268999D01*
X166811538Y-140269002D01*
X166814591Y-140274502D01*
X166818689Y-140279275D01*
X166834404Y-140297581D01*
X166843855Y-140310116D01*
X166857133Y-140330263D01*
X166857138Y-140330269D01*
X166860598Y-140335519D01*
X166865044Y-140339965D01*
X166865045Y-140339966D01*
X166902300Y-140377221D01*
X166908705Y-140384131D01*
X166947134Y-140428895D01*
X166971198Y-140447522D01*
X166982968Y-140457889D01*
X169462450Y-142937371D01*
X169464643Y-142939620D01*
X169524941Y-143003053D01*
X169530102Y-143006645D01*
X169573361Y-143036755D01*
X169580874Y-143042419D01*
X169626592Y-143079697D01*
X169632166Y-143082608D01*
X169632173Y-143082613D01*
X169653557Y-143093783D01*
X169666985Y-143101918D01*
X169691951Y-143119295D01*
X169697728Y-143121774D01*
X169746165Y-143142560D01*
X169754675Y-143146602D01*
X169806951Y-143173909D01*
X169836195Y-143182276D01*
X169850979Y-143187539D01*
X169878942Y-143199540D01*
X169936727Y-143211414D01*
X169945869Y-143213657D01*
X170002582Y-143229886D01*
X170008857Y-143230363D01*
X170008858Y-143230364D01*
X170012331Y-143230628D01*
X170032915Y-143232195D01*
X170048459Y-143234376D01*
X170072096Y-143239234D01*
X170072100Y-143239234D01*
X170078259Y-143240500D01*
X170137244Y-143240500D01*
X170146660Y-143240858D01*
X170205476Y-143245337D01*
X170235651Y-143241493D01*
X170251317Y-143240500D01*
X177134217Y-143240500D01*
X177181670Y-143249939D01*
X177221898Y-143276819D01*
X180843181Y-146898102D01*
X180870061Y-146938330D01*
X180879500Y-146985783D01*
X180879500Y-149331770D01*
X180879500Y-149331795D01*
X180879501Y-149334216D01*
X180879691Y-149336625D01*
X180879692Y-149336651D01*
X180889488Y-149461129D01*
X180889904Y-149466412D01*
X180891179Y-149471473D01*
X180891180Y-149471477D01*
X180943502Y-149679120D01*
X180944904Y-149684683D01*
X181037993Y-149889626D01*
X181041165Y-149894205D01*
X181041166Y-149894206D01*
X181163005Y-150070071D01*
X181163010Y-150070077D01*
X181166181Y-150074654D01*
X181325346Y-150233819D01*
X181329923Y-150236990D01*
X181329928Y-150236994D01*
X181406653Y-150290149D01*
X181510374Y-150362007D01*
X181715317Y-150455096D01*
X181933588Y-150510096D01*
X182065783Y-150520500D01*
X183694216Y-150520499D01*
X183826412Y-150510096D01*
X184044683Y-150455096D01*
X184249626Y-150362007D01*
X184434654Y-150233819D01*
X184593819Y-150074654D01*
X184651649Y-149991182D01*
X191289500Y-149991182D01*
X191290189Y-149995754D01*
X191290190Y-149995765D01*
X191327912Y-150246028D01*
X191327913Y-150246035D01*
X191328604Y-150250615D01*
X191329969Y-150255043D01*
X191329971Y-150255048D01*
X191404569Y-150496891D01*
X191404573Y-150496901D01*
X191405937Y-150501323D01*
X191407946Y-150505496D01*
X191407949Y-150505502D01*
X191415172Y-150520500D01*
X191519772Y-150737704D01*
X191667567Y-150954479D01*
X191846019Y-151146805D01*
X192051143Y-151310386D01*
X192278357Y-151441568D01*
X192522584Y-151537420D01*
X192778370Y-151595802D01*
X192974506Y-151610500D01*
X193103177Y-151610500D01*
X193105494Y-151610500D01*
X193301630Y-151595802D01*
X193557416Y-151537420D01*
X193801643Y-151441568D01*
X194028857Y-151310386D01*
X194233981Y-151146805D01*
X194412433Y-150954479D01*
X194560228Y-150737704D01*
X194674063Y-150501323D01*
X194751396Y-150250615D01*
X194790500Y-149991182D01*
X194790500Y-149728818D01*
X194751396Y-149469385D01*
X194674063Y-149218677D01*
X194560228Y-148982296D01*
X194412433Y-148765521D01*
X194233981Y-148573195D01*
X194028857Y-148409614D01*
X193812590Y-148284752D01*
X193805664Y-148280753D01*
X193805658Y-148280750D01*
X193801643Y-148278432D01*
X193797324Y-148276737D01*
X193797318Y-148276734D01*
X193561738Y-148184276D01*
X193561734Y-148184275D01*
X193557416Y-148182580D01*
X193552893Y-148181547D01*
X193552891Y-148181547D01*
X193306149Y-148125229D01*
X193306143Y-148125228D01*
X193301630Y-148124198D01*
X193297008Y-148123851D01*
X193297004Y-148123851D01*
X193107808Y-148109673D01*
X193107797Y-148109672D01*
X193105494Y-148109500D01*
X192974506Y-148109500D01*
X192972203Y-148109672D01*
X192972191Y-148109673D01*
X192782995Y-148123851D01*
X192782989Y-148123851D01*
X192778370Y-148124198D01*
X192773858Y-148125227D01*
X192773850Y-148125229D01*
X192527108Y-148181547D01*
X192527102Y-148181548D01*
X192522584Y-148182580D01*
X192518268Y-148184273D01*
X192518261Y-148184276D01*
X192282681Y-148276734D01*
X192282670Y-148276739D01*
X192278357Y-148278432D01*
X192274346Y-148280747D01*
X192274335Y-148280753D01*
X192060830Y-148404021D01*
X192051143Y-148409614D01*
X192047519Y-148412503D01*
X192047516Y-148412506D01*
X191849646Y-148570302D01*
X191849641Y-148570306D01*
X191846019Y-148573195D01*
X191842865Y-148576593D01*
X191842863Y-148576596D01*
X191670719Y-148762123D01*
X191670713Y-148762129D01*
X191667567Y-148765521D01*
X191519772Y-148982296D01*
X191517759Y-148986474D01*
X191517756Y-148986481D01*
X191407949Y-149214497D01*
X191407944Y-149214508D01*
X191405937Y-149218677D01*
X191404574Y-149223093D01*
X191404569Y-149223108D01*
X191329971Y-149464951D01*
X191329968Y-149464959D01*
X191328604Y-149469385D01*
X191327914Y-149473961D01*
X191327912Y-149473971D01*
X191290190Y-149724234D01*
X191290189Y-149724246D01*
X191289500Y-149728818D01*
X191289500Y-149991182D01*
X184651649Y-149991182D01*
X184722007Y-149889626D01*
X184815096Y-149684683D01*
X184870096Y-149466412D01*
X184880500Y-149334217D01*
X184880499Y-145705784D01*
X184870096Y-145573588D01*
X184815096Y-145355317D01*
X184722007Y-145150374D01*
X184597217Y-144970250D01*
X184596994Y-144969928D01*
X184596990Y-144969923D01*
X184593819Y-144965346D01*
X184434654Y-144806181D01*
X184430077Y-144803010D01*
X184430071Y-144803005D01*
X184254206Y-144681166D01*
X184254205Y-144681165D01*
X184249626Y-144677993D01*
X184155403Y-144635195D01*
X184049756Y-144587208D01*
X184049753Y-144587207D01*
X184044683Y-144584904D01*
X184039278Y-144583542D01*
X183831479Y-144531180D01*
X183831470Y-144531178D01*
X183826412Y-144529904D01*
X183821211Y-144529494D01*
X183821207Y-144529494D01*
X183696651Y-144519691D01*
X183696636Y-144519690D01*
X183694217Y-144519500D01*
X183691771Y-144519500D01*
X182068229Y-144519500D01*
X182068203Y-144519500D01*
X182065784Y-144519501D01*
X182063365Y-144519691D01*
X182063348Y-144519692D01*
X181938791Y-144529494D01*
X181938784Y-144529495D01*
X181933588Y-144529904D01*
X181928528Y-144531179D01*
X181928522Y-144531180D01*
X181720721Y-144583542D01*
X181720717Y-144583543D01*
X181715317Y-144584904D01*
X181710249Y-144587205D01*
X181710243Y-144587208D01*
X181549077Y-144660413D01*
X181500578Y-144671483D01*
X181451631Y-144662600D01*
X181410115Y-144635195D01*
X178317567Y-141542647D01*
X178315374Y-141540398D01*
X178259390Y-141481503D01*
X178259389Y-141481502D01*
X178255059Y-141476947D01*
X178249897Y-141473354D01*
X178206642Y-141443247D01*
X178199119Y-141437575D01*
X178158280Y-141404275D01*
X178158277Y-141404273D01*
X178153407Y-141400302D01*
X178126437Y-141386213D01*
X178113024Y-141378087D01*
X178088049Y-141360705D01*
X178033817Y-141337432D01*
X178025351Y-141333411D01*
X177973049Y-141306091D01*
X177943802Y-141297722D01*
X177929021Y-141292459D01*
X177906841Y-141282941D01*
X177906835Y-141282939D01*
X177901058Y-141280460D01*
X177894905Y-141279195D01*
X177894891Y-141279191D01*
X177843273Y-141268583D01*
X177834126Y-141266338D01*
X177783465Y-141251842D01*
X177783453Y-141251839D01*
X177777418Y-141250113D01*
X177771154Y-141249635D01*
X177771149Y-141249635D01*
X177747075Y-141247802D01*
X177731533Y-141245622D01*
X177707902Y-141240766D01*
X177707901Y-141240765D01*
X177701741Y-141239500D01*
X177695452Y-141239500D01*
X177642759Y-141239500D01*
X177633344Y-141239142D01*
X177580794Y-141235140D01*
X177580789Y-141235140D01*
X177574524Y-141234663D01*
X177568290Y-141235456D01*
X177568284Y-141235457D01*
X177544349Y-141238506D01*
X177528683Y-141239500D01*
X170645783Y-141239500D01*
X170598330Y-141230061D01*
X170558102Y-141203181D01*
X168676819Y-139321899D01*
X168649939Y-139281671D01*
X168640500Y-139234218D01*
X168640500Y-123731795D01*
X170679500Y-123731795D01*
X170679501Y-123734216D01*
X170679691Y-123736635D01*
X170679692Y-123736651D01*
X170689494Y-123861207D01*
X170689904Y-123866412D01*
X170744904Y-124084683D01*
X170747207Y-124089753D01*
X170747208Y-124089756D01*
X170752573Y-124101568D01*
X170837993Y-124289626D01*
X170841165Y-124294205D01*
X170841166Y-124294206D01*
X170963005Y-124470071D01*
X170963010Y-124470077D01*
X170966181Y-124474654D01*
X171125346Y-124633819D01*
X171129923Y-124636990D01*
X171129928Y-124636994D01*
X171238989Y-124712551D01*
X171310374Y-124762007D01*
X171515317Y-124855096D01*
X171733588Y-124910096D01*
X171865783Y-124920500D01*
X173494216Y-124920499D01*
X173626412Y-124910096D01*
X173844683Y-124855096D01*
X174049626Y-124762007D01*
X174234654Y-124633819D01*
X174393819Y-124474654D01*
X174522007Y-124289626D01*
X174615096Y-124084683D01*
X174670096Y-123866412D01*
X174680500Y-123734217D01*
X174680499Y-120105784D01*
X174670096Y-119973588D01*
X174615096Y-119755317D01*
X174522007Y-119550374D01*
X174452520Y-119450075D01*
X174396994Y-119369928D01*
X174396990Y-119369923D01*
X174393819Y-119365346D01*
X174234654Y-119206181D01*
X174230077Y-119203010D01*
X174230071Y-119203005D01*
X174054206Y-119081166D01*
X174054205Y-119081165D01*
X174049626Y-119077993D01*
X173991942Y-119051792D01*
X173849752Y-118987206D01*
X173849747Y-118987204D01*
X173844683Y-118984904D01*
X173839289Y-118983544D01*
X173839281Y-118983542D01*
X173774202Y-118967144D01*
X173725746Y-118942683D01*
X173692381Y-118899867D01*
X173680500Y-118846903D01*
X173680500Y-117345783D01*
X173689939Y-117298330D01*
X173716819Y-117258102D01*
X178178102Y-112796819D01*
X178218330Y-112769939D01*
X178265783Y-112760500D01*
X189085858Y-112760500D01*
X189134670Y-112770512D01*
X189175601Y-112798930D01*
X189202039Y-112841164D01*
X189206204Y-112852331D01*
X189211518Y-112859430D01*
X189211519Y-112859431D01*
X189265953Y-112932146D01*
X189292454Y-112967546D01*
X189407669Y-113053796D01*
X189422475Y-113059318D01*
X189477337Y-113099780D01*
X189502522Y-113163126D01*
X189490418Y-113230211D01*
X189444684Y-113280762D01*
X189379141Y-113299500D01*
X187974278Y-113299500D01*
X187971137Y-113299460D01*
X187889924Y-113297402D01*
X187889921Y-113297402D01*
X187883637Y-113297243D01*
X187871267Y-113299460D01*
X187825578Y-113307648D01*
X187816254Y-113308955D01*
X187763821Y-113314288D01*
X187763807Y-113314290D01*
X187757562Y-113314926D01*
X187751568Y-113316806D01*
X187751565Y-113316807D01*
X187728526Y-113324035D01*
X187713292Y-113327774D01*
X187689539Y-113332032D01*
X187683347Y-113333142D01*
X187677514Y-113335471D01*
X187677496Y-113335477D01*
X187628567Y-113355021D01*
X187619697Y-113358179D01*
X187569411Y-113373957D01*
X187569396Y-113373963D01*
X187563412Y-113375841D01*
X187557922Y-113378887D01*
X187557915Y-113378891D01*
X187536809Y-113390605D01*
X187522640Y-113397334D01*
X187500223Y-113406289D01*
X187500213Y-113406293D01*
X187494383Y-113408623D01*
X187489140Y-113412078D01*
X187489131Y-113412083D01*
X187445123Y-113441086D01*
X187437073Y-113445963D01*
X187385498Y-113474591D01*
X187380729Y-113478684D01*
X187380726Y-113478687D01*
X187362414Y-113494407D01*
X187349887Y-113503852D01*
X187329731Y-113517136D01*
X187329719Y-113517145D01*
X187324481Y-113520598D01*
X187320039Y-113525039D01*
X187320035Y-113525043D01*
X187282774Y-113562303D01*
X187275868Y-113568704D01*
X187235873Y-113603040D01*
X187235869Y-113603043D01*
X187231105Y-113607134D01*
X187227260Y-113612100D01*
X187227260Y-113612101D01*
X187212480Y-113631194D01*
X187202108Y-113642969D01*
X182182646Y-118662432D01*
X182180398Y-118664624D01*
X182116947Y-118724941D01*
X182113359Y-118730095D01*
X182113352Y-118730104D01*
X182083244Y-118773361D01*
X182077574Y-118780881D01*
X182044274Y-118821721D01*
X182044271Y-118821724D01*
X182040302Y-118826593D01*
X182037396Y-118832155D01*
X182037388Y-118832168D01*
X182026210Y-118853566D01*
X182018079Y-118866987D01*
X182009140Y-118879830D01*
X181973531Y-118913864D01*
X181933387Y-118929107D01*
X181933588Y-118929904D01*
X181720721Y-118983542D01*
X181720717Y-118983543D01*
X181715317Y-118984904D01*
X181710249Y-118987205D01*
X181710243Y-118987208D01*
X181515448Y-119075688D01*
X181515445Y-119075689D01*
X181510374Y-119077993D01*
X181505798Y-119081162D01*
X181505793Y-119081166D01*
X181329928Y-119203005D01*
X181329916Y-119203014D01*
X181325346Y-119206181D01*
X181321409Y-119210117D01*
X181321403Y-119210123D01*
X181170123Y-119361403D01*
X181170117Y-119361409D01*
X181166181Y-119365346D01*
X181163014Y-119369916D01*
X181163005Y-119369928D01*
X181041166Y-119545793D01*
X181041162Y-119545798D01*
X181037993Y-119550374D01*
X181035689Y-119555445D01*
X181035688Y-119555448D01*
X180947208Y-119750243D01*
X180947205Y-119750249D01*
X180944904Y-119755317D01*
X180943543Y-119760717D01*
X180943542Y-119760721D01*
X180891180Y-119968520D01*
X180891178Y-119968531D01*
X180889904Y-119973588D01*
X180889494Y-119978786D01*
X180889494Y-119978792D01*
X180879691Y-120103348D01*
X180879690Y-120103364D01*
X180879500Y-120105783D01*
X180879500Y-120108227D01*
X180879500Y-120108228D01*
X180879500Y-123731770D01*
X180879500Y-123731795D01*
X180879501Y-123734216D01*
X180879691Y-123736635D01*
X180879692Y-123736651D01*
X180889494Y-123861207D01*
X180889904Y-123866412D01*
X180944904Y-124084683D01*
X180947207Y-124089753D01*
X180947208Y-124089756D01*
X180952573Y-124101568D01*
X181037993Y-124289626D01*
X181041165Y-124294205D01*
X181041166Y-124294206D01*
X181163005Y-124470071D01*
X181163010Y-124470077D01*
X181166181Y-124474654D01*
X181325346Y-124633819D01*
X181329923Y-124636990D01*
X181329928Y-124636994D01*
X181438989Y-124712551D01*
X181510374Y-124762007D01*
X181715317Y-124855096D01*
X181933588Y-124910096D01*
X182065783Y-124920500D01*
X183694216Y-124920499D01*
X183826412Y-124910096D01*
X184044683Y-124855096D01*
X184249626Y-124762007D01*
X184434654Y-124633819D01*
X184593819Y-124474654D01*
X184722007Y-124289626D01*
X184815096Y-124084683D01*
X184870096Y-123866412D01*
X184880500Y-123734217D01*
X184880499Y-120105784D01*
X184870096Y-119973588D01*
X184815096Y-119755317D01*
X184722007Y-119550374D01*
X184652520Y-119450075D01*
X184596994Y-119369928D01*
X184596990Y-119369923D01*
X184593819Y-119365346D01*
X184539377Y-119310903D01*
X184507283Y-119255317D01*
X184507283Y-119191129D01*
X184539377Y-119135542D01*
X186416818Y-117258102D01*
X188338100Y-115336819D01*
X188378329Y-115309939D01*
X188425782Y-115300500D01*
X189539242Y-115300500D01*
X189586695Y-115309939D01*
X189619861Y-115332100D01*
X189620627Y-115331189D01*
X189624767Y-115334663D01*
X189628599Y-115338495D01*
X189822170Y-115474035D01*
X190036337Y-115573903D01*
X190264592Y-115635063D01*
X190500000Y-115655659D01*
X190735408Y-115635063D01*
X190963663Y-115573903D01*
X191177830Y-115474035D01*
X191371401Y-115338495D01*
X191538495Y-115171401D01*
X191674035Y-114977830D01*
X191773903Y-114763663D01*
X191835063Y-114535408D01*
X191855659Y-114300000D01*
X191835063Y-114064592D01*
X191773903Y-113836337D01*
X191674035Y-113622171D01*
X191538495Y-113428599D01*
X191416569Y-113306673D01*
X191385273Y-113253927D01*
X191383084Y-113192634D01*
X191410537Y-113137789D01*
X191460916Y-113102810D01*
X191592331Y-113053796D01*
X191707546Y-112967546D01*
X191793796Y-112852331D01*
X191844091Y-112717483D01*
X191850500Y-112657873D01*
X191850499Y-110862128D01*
X191844091Y-110802517D01*
X191793796Y-110667669D01*
X191707546Y-110552454D01*
X191696867Y-110544460D01*
X191599431Y-110471519D01*
X191599430Y-110471518D01*
X191592331Y-110466204D01*
X191521965Y-110439959D01*
X191464752Y-110418620D01*
X191464750Y-110418619D01*
X191457483Y-110415909D01*
X191449770Y-110415079D01*
X191449767Y-110415079D01*
X191401180Y-110409855D01*
X191401169Y-110409854D01*
X191397873Y-110409500D01*
X191394550Y-110409500D01*
X189605439Y-110409500D01*
X189605420Y-110409500D01*
X189602128Y-110409501D01*
X189598850Y-110409853D01*
X189598838Y-110409854D01*
X189550231Y-110415079D01*
X189550225Y-110415080D01*
X189542517Y-110415909D01*
X189535252Y-110418618D01*
X189535246Y-110418620D01*
X189415980Y-110463104D01*
X189415978Y-110463104D01*
X189407669Y-110466204D01*
X189400572Y-110471516D01*
X189400568Y-110471519D01*
X189299550Y-110547141D01*
X189299546Y-110547144D01*
X189292454Y-110552454D01*
X189287144Y-110559546D01*
X189287141Y-110559550D01*
X189211519Y-110660568D01*
X189211516Y-110660572D01*
X189206204Y-110667669D01*
X189203104Y-110675978D01*
X189203105Y-110675978D01*
X189202040Y-110678834D01*
X189175601Y-110721070D01*
X189134670Y-110749488D01*
X189085858Y-110759500D01*
X177814237Y-110759500D01*
X177811096Y-110759460D01*
X177729923Y-110757403D01*
X177729920Y-110757403D01*
X177723636Y-110757244D01*
X177717453Y-110758352D01*
X177717441Y-110758353D01*
X177665581Y-110767648D01*
X177656254Y-110768957D01*
X177603815Y-110774290D01*
X177603813Y-110774290D01*
X177597562Y-110774926D01*
X177591573Y-110776804D01*
X177591563Y-110776807D01*
X177568526Y-110784035D01*
X177553289Y-110787774D01*
X177529538Y-110792031D01*
X177529525Y-110792034D01*
X177523347Y-110793142D01*
X177517520Y-110795469D01*
X177517504Y-110795474D01*
X177468567Y-110815021D01*
X177459697Y-110818179D01*
X177409411Y-110833957D01*
X177409396Y-110833963D01*
X177403412Y-110835841D01*
X177397922Y-110838887D01*
X177397915Y-110838891D01*
X177376809Y-110850605D01*
X177362640Y-110857334D01*
X177340223Y-110866289D01*
X177340213Y-110866293D01*
X177334383Y-110868623D01*
X177329140Y-110872078D01*
X177329131Y-110872083D01*
X177285123Y-110901086D01*
X177277073Y-110905963D01*
X177225498Y-110934591D01*
X177220729Y-110938684D01*
X177220726Y-110938687D01*
X177202414Y-110954407D01*
X177189887Y-110963852D01*
X177169731Y-110977136D01*
X177169719Y-110977145D01*
X177164481Y-110980598D01*
X177160039Y-110985039D01*
X177160035Y-110985043D01*
X177122774Y-111022303D01*
X177115868Y-111028704D01*
X177075873Y-111063040D01*
X177075869Y-111063043D01*
X177071105Y-111067134D01*
X177067260Y-111072100D01*
X177067260Y-111072101D01*
X177052480Y-111091194D01*
X177042108Y-111102969D01*
X171982646Y-116162432D01*
X171980398Y-116164624D01*
X171916947Y-116224941D01*
X171913359Y-116230095D01*
X171913352Y-116230104D01*
X171883244Y-116273361D01*
X171877574Y-116280881D01*
X171844274Y-116321721D01*
X171844271Y-116321724D01*
X171840302Y-116326593D01*
X171837396Y-116332155D01*
X171837388Y-116332168D01*
X171826210Y-116353566D01*
X171818082Y-116366982D01*
X171804300Y-116386784D01*
X171804295Y-116386792D01*
X171800705Y-116391951D01*
X171798228Y-116397721D01*
X171798225Y-116397728D01*
X171777439Y-116446165D01*
X171773399Y-116454671D01*
X171746091Y-116506951D01*
X171744363Y-116512989D01*
X171744360Y-116512997D01*
X171737720Y-116536201D01*
X171732459Y-116550978D01*
X171722942Y-116573157D01*
X171720460Y-116578942D01*
X171719194Y-116585097D01*
X171719192Y-116585107D01*
X171708587Y-116636712D01*
X171706342Y-116645859D01*
X171691842Y-116696534D01*
X171691839Y-116696547D01*
X171690113Y-116702582D01*
X171689636Y-116708842D01*
X171689635Y-116708849D01*
X171687801Y-116732929D01*
X171685622Y-116748463D01*
X171681463Y-116768705D01*
X171679500Y-116778259D01*
X171679500Y-116784550D01*
X171679500Y-116837241D01*
X171679142Y-116846656D01*
X171675140Y-116899205D01*
X171675140Y-116899210D01*
X171674663Y-116905476D01*
X171675456Y-116911709D01*
X171675457Y-116911715D01*
X171678506Y-116935651D01*
X171679500Y-116951317D01*
X171679500Y-118846903D01*
X171667619Y-118899867D01*
X171634254Y-118942683D01*
X171585798Y-118967144D01*
X171520718Y-118983542D01*
X171520707Y-118983545D01*
X171515317Y-118984904D01*
X171510255Y-118987203D01*
X171510247Y-118987206D01*
X171315448Y-119075688D01*
X171315445Y-119075689D01*
X171310374Y-119077993D01*
X171305798Y-119081162D01*
X171305793Y-119081166D01*
X171129928Y-119203005D01*
X171129916Y-119203014D01*
X171125346Y-119206181D01*
X171121409Y-119210117D01*
X171121403Y-119210123D01*
X170970123Y-119361403D01*
X170970117Y-119361409D01*
X170966181Y-119365346D01*
X170963014Y-119369916D01*
X170963005Y-119369928D01*
X170841166Y-119545793D01*
X170841162Y-119545798D01*
X170837993Y-119550374D01*
X170835689Y-119555445D01*
X170835688Y-119555448D01*
X170747208Y-119750243D01*
X170747205Y-119750249D01*
X170744904Y-119755317D01*
X170743543Y-119760717D01*
X170743542Y-119760721D01*
X170691180Y-119968520D01*
X170691178Y-119968531D01*
X170689904Y-119973588D01*
X170689494Y-119978786D01*
X170689494Y-119978792D01*
X170679691Y-120103348D01*
X170679690Y-120103364D01*
X170679500Y-120105783D01*
X170679500Y-120108227D01*
X170679500Y-120108228D01*
X170679500Y-123731770D01*
X170679500Y-123731795D01*
X168640500Y-123731795D01*
X168640500Y-85104262D01*
X168640540Y-85101121D01*
X168640921Y-85086097D01*
X168642757Y-85013637D01*
X168632349Y-84955573D01*
X168631041Y-84946242D01*
X168628290Y-84919189D01*
X168625074Y-84887562D01*
X168615964Y-84858528D01*
X168612227Y-84843305D01*
X168606858Y-84813347D01*
X168604524Y-84807503D01*
X168584976Y-84758565D01*
X168581816Y-84749689D01*
X168570781Y-84714518D01*
X168564159Y-84693412D01*
X168549396Y-84666814D01*
X168542660Y-84652631D01*
X168533708Y-84630220D01*
X168531377Y-84624383D01*
X168498917Y-84575131D01*
X168494036Y-84567073D01*
X168468463Y-84521000D01*
X168468462Y-84520999D01*
X168465409Y-84515498D01*
X168450360Y-84497968D01*
X168445591Y-84492413D01*
X168436140Y-84479879D01*
X168419402Y-84454481D01*
X168377691Y-84412770D01*
X168371287Y-84405860D01*
X168336960Y-84365874D01*
X168332866Y-84361105D01*
X168327896Y-84357258D01*
X168327891Y-84357253D01*
X168308805Y-84342479D01*
X168297026Y-84332105D01*
X165620460Y-81655539D01*
X162726571Y-78761651D01*
X162701751Y-78726117D01*
X162690676Y-78684213D01*
X162676134Y-78508695D01*
X162619157Y-78283700D01*
X162525924Y-78071151D01*
X162398979Y-77876847D01*
X162241784Y-77706087D01*
X162231901Y-77698395D01*
X162064181Y-77567854D01*
X162028943Y-77524461D01*
X162016343Y-77470000D01*
X162028943Y-77415539D01*
X162064181Y-77372146D01*
X162068962Y-77368425D01*
X162241784Y-77233913D01*
X162398979Y-77063153D01*
X162525924Y-76868849D01*
X162619157Y-76656300D01*
X162676134Y-76431305D01*
X162695300Y-76200000D01*
X162676134Y-75968695D01*
X162619157Y-75743700D01*
X162525924Y-75531151D01*
X162398979Y-75336847D01*
X162241784Y-75166087D01*
X162225662Y-75153539D01*
X162109498Y-75063125D01*
X162064180Y-75027852D01*
X162028943Y-74984461D01*
X162016343Y-74930000D01*
X162028943Y-74875539D01*
X162064181Y-74832146D01*
X162241784Y-74693913D01*
X162398979Y-74523153D01*
X162525924Y-74328849D01*
X162619157Y-74116300D01*
X162676134Y-73891305D01*
X162695300Y-73660000D01*
X162676134Y-73428695D01*
X162619157Y-73203700D01*
X162525924Y-72991151D01*
X162398979Y-72796847D01*
X162241784Y-72626087D01*
X162188653Y-72584734D01*
X162062672Y-72486679D01*
X162062671Y-72486678D01*
X162058626Y-72483530D01*
X161936933Y-72417673D01*
X161859007Y-72375501D01*
X161859002Y-72375499D01*
X161854503Y-72373064D01*
X161849657Y-72371400D01*
X161849654Y-72371399D01*
X161821637Y-72361781D01*
X161765319Y-72322270D01*
X161738730Y-72258820D01*
X161750053Y-72190962D01*
X161795804Y-72139584D01*
X161861900Y-72120500D01*
X174382412Y-72120500D01*
X174419699Y-72126239D01*
X174453533Y-72142924D01*
X174607266Y-72250568D01*
X174813504Y-72346739D01*
X175033308Y-72405635D01*
X175095093Y-72411039D01*
X175136688Y-72422184D01*
X175171966Y-72446886D01*
X179622431Y-76897351D01*
X179624624Y-76899600D01*
X179684941Y-76963053D01*
X179690100Y-76966644D01*
X179690104Y-76966647D01*
X179733362Y-76996755D01*
X179740871Y-77002416D01*
X179786593Y-77039698D01*
X179792171Y-77042611D01*
X179792170Y-77042611D01*
X179813556Y-77053782D01*
X179826980Y-77061915D01*
X179851951Y-77079295D01*
X179906163Y-77102559D01*
X179914673Y-77106601D01*
X179966951Y-77133909D01*
X179996199Y-77142277D01*
X180010975Y-77147538D01*
X180038942Y-77159540D01*
X180096718Y-77171413D01*
X180105866Y-77173658D01*
X180162582Y-77189887D01*
X180192916Y-77192196D01*
X180208463Y-77194377D01*
X180232095Y-77199234D01*
X180232102Y-77199234D01*
X180238259Y-77200500D01*
X180297241Y-77200500D01*
X180306656Y-77200858D01*
X180365476Y-77205337D01*
X180395651Y-77201493D01*
X180411317Y-77200500D01*
X189539242Y-77200500D01*
X189586695Y-77209939D01*
X189619861Y-77232100D01*
X189620627Y-77231189D01*
X189624767Y-77234663D01*
X189628599Y-77238495D01*
X189633032Y-77241599D01*
X189633038Y-77241604D01*
X189814158Y-77368425D01*
X189853024Y-77412743D01*
X189867035Y-77470000D01*
X189853024Y-77527257D01*
X189814159Y-77571575D01*
X189633041Y-77698395D01*
X189628599Y-77701505D01*
X189624771Y-77705332D01*
X189620624Y-77708813D01*
X189619858Y-77707901D01*
X189586695Y-77730061D01*
X189539242Y-77739500D01*
X180354237Y-77739500D01*
X180351096Y-77739460D01*
X180269923Y-77737403D01*
X180269920Y-77737403D01*
X180263636Y-77737244D01*
X180257453Y-77738352D01*
X180257441Y-77738353D01*
X180205581Y-77747648D01*
X180196254Y-77748957D01*
X180143815Y-77754290D01*
X180143813Y-77754290D01*
X180137562Y-77754926D01*
X180131573Y-77756804D01*
X180131563Y-77756807D01*
X180108526Y-77764035D01*
X180093289Y-77767774D01*
X180069538Y-77772031D01*
X180069525Y-77772034D01*
X180063347Y-77773142D01*
X180057520Y-77775469D01*
X180057504Y-77775474D01*
X180008567Y-77795021D01*
X179999697Y-77798179D01*
X179949411Y-77813957D01*
X179949396Y-77813963D01*
X179943412Y-77815841D01*
X179937922Y-77818887D01*
X179937915Y-77818891D01*
X179916809Y-77830605D01*
X179902640Y-77837334D01*
X179880223Y-77846289D01*
X179880213Y-77846293D01*
X179874383Y-77848623D01*
X179869140Y-77852078D01*
X179869131Y-77852083D01*
X179825123Y-77881086D01*
X179817073Y-77885963D01*
X179765498Y-77914591D01*
X179760729Y-77918684D01*
X179760726Y-77918687D01*
X179742414Y-77934407D01*
X179729887Y-77943852D01*
X179709731Y-77957136D01*
X179709719Y-77957145D01*
X179704481Y-77960598D01*
X179700039Y-77965039D01*
X179700035Y-77965043D01*
X179662774Y-78002303D01*
X179655868Y-78008704D01*
X179615873Y-78043040D01*
X179615869Y-78043043D01*
X179611105Y-78047134D01*
X179607260Y-78052100D01*
X179607260Y-78052101D01*
X179592480Y-78071194D01*
X179582108Y-78082969D01*
X177421899Y-80243181D01*
X177381671Y-80270061D01*
X177334218Y-80279500D01*
X176137588Y-80279500D01*
X176100301Y-80273761D01*
X176066465Y-80257075D01*
X176050772Y-80246087D01*
X175912734Y-80149432D01*
X175823568Y-80107853D01*
X175711405Y-80055550D01*
X175711403Y-80055549D01*
X175706496Y-80053261D01*
X175701271Y-80051861D01*
X175701263Y-80051858D01*
X175491916Y-79995764D01*
X175491907Y-79995762D01*
X175486692Y-79994365D01*
X175481304Y-79993893D01*
X175481301Y-79993893D01*
X175265395Y-79975004D01*
X175260000Y-79974532D01*
X175254605Y-79975004D01*
X175038698Y-79993893D01*
X175038693Y-79993893D01*
X175033308Y-79994365D01*
X175028094Y-79995762D01*
X175028083Y-79995764D01*
X174818736Y-80051858D01*
X174818724Y-80051862D01*
X174813504Y-80053261D01*
X174808599Y-80055547D01*
X174808594Y-80055550D01*
X174612176Y-80147142D01*
X174612172Y-80147144D01*
X174607266Y-80149432D01*
X174602833Y-80152535D01*
X174602826Y-80152540D01*
X174425296Y-80276847D01*
X174425291Y-80276850D01*
X174420861Y-80279953D01*
X174417037Y-80283776D01*
X174417031Y-80283782D01*
X174263782Y-80437031D01*
X174263776Y-80437037D01*
X174259953Y-80440861D01*
X174256850Y-80445291D01*
X174256847Y-80445296D01*
X174132540Y-80622826D01*
X174132535Y-80622833D01*
X174129432Y-80627266D01*
X174127144Y-80632172D01*
X174127142Y-80632176D01*
X174035550Y-80828594D01*
X174035547Y-80828599D01*
X174033261Y-80833504D01*
X174031862Y-80838724D01*
X174031858Y-80838736D01*
X173975764Y-81048083D01*
X173975762Y-81048094D01*
X173974365Y-81053308D01*
X173954532Y-81280000D01*
X173974365Y-81506692D01*
X173975762Y-81511907D01*
X173975764Y-81511916D01*
X174031858Y-81721263D01*
X174031861Y-81721271D01*
X174033261Y-81726496D01*
X174035549Y-81731403D01*
X174035550Y-81731405D01*
X174040026Y-81741003D01*
X174129432Y-81932734D01*
X174132539Y-81937171D01*
X174132540Y-81937173D01*
X174188922Y-82017695D01*
X174259953Y-82119139D01*
X174420861Y-82280047D01*
X174607266Y-82410568D01*
X174813504Y-82506739D01*
X174818734Y-82508140D01*
X174818736Y-82508141D01*
X174907638Y-82531962D01*
X175033308Y-82565635D01*
X175260000Y-82585468D01*
X175486692Y-82565635D01*
X175706496Y-82506739D01*
X175912734Y-82410568D01*
X176066466Y-82302924D01*
X176100301Y-82286239D01*
X176137588Y-82280500D01*
X177785722Y-82280500D01*
X177788862Y-82280539D01*
X177876363Y-82282757D01*
X177934458Y-82272344D01*
X177943739Y-82271042D01*
X178002438Y-82265074D01*
X178031464Y-82255966D01*
X178046713Y-82252224D01*
X178076653Y-82246858D01*
X178131423Y-82224980D01*
X178140303Y-82221818D01*
X178196588Y-82204159D01*
X178223194Y-82189390D01*
X178237362Y-82182662D01*
X178265617Y-82171377D01*
X178314891Y-82138902D01*
X178322910Y-82134043D01*
X178374502Y-82105409D01*
X178385961Y-82095570D01*
X178397583Y-82085594D01*
X178410125Y-82076137D01*
X178435519Y-82059402D01*
X178477238Y-82017681D01*
X178484122Y-82011301D01*
X178528895Y-81972866D01*
X178547520Y-81948802D01*
X178557879Y-81937040D01*
X180718101Y-79776819D01*
X180758330Y-79749939D01*
X180805783Y-79740500D01*
X187785217Y-79740500D01*
X187841512Y-79754015D01*
X187885535Y-79791615D01*
X187907690Y-79845102D01*
X187903148Y-79902818D01*
X187872898Y-79952181D01*
X184722646Y-83102432D01*
X184720398Y-83104624D01*
X184656947Y-83164941D01*
X184653359Y-83170095D01*
X184653352Y-83170104D01*
X184623244Y-83213361D01*
X184617574Y-83220881D01*
X184584274Y-83261721D01*
X184584271Y-83261724D01*
X184580302Y-83266593D01*
X184577396Y-83272155D01*
X184577388Y-83272168D01*
X184566210Y-83293566D01*
X184558082Y-83306982D01*
X184544300Y-83326784D01*
X184544295Y-83326792D01*
X184540705Y-83331951D01*
X184538228Y-83337721D01*
X184538225Y-83337728D01*
X184517439Y-83386165D01*
X184513399Y-83394671D01*
X184486091Y-83446951D01*
X184484363Y-83452989D01*
X184484360Y-83452997D01*
X184477720Y-83476201D01*
X184472459Y-83490978D01*
X184462942Y-83513157D01*
X184460460Y-83518942D01*
X184459194Y-83525097D01*
X184459192Y-83525107D01*
X184448587Y-83576712D01*
X184446342Y-83585859D01*
X184431842Y-83636534D01*
X184431839Y-83636547D01*
X184430113Y-83642582D01*
X184429636Y-83648842D01*
X184429635Y-83648849D01*
X184427801Y-83672929D01*
X184425622Y-83688463D01*
X184420766Y-83712097D01*
X184419500Y-83718259D01*
X184419500Y-83724550D01*
X184419500Y-83777241D01*
X184419142Y-83786656D01*
X184415140Y-83839205D01*
X184415140Y-83839210D01*
X184414663Y-83845476D01*
X184415456Y-83851709D01*
X184415457Y-83851715D01*
X184418506Y-83875651D01*
X184419500Y-83891317D01*
X184419500Y-90087803D01*
X184419460Y-90090943D01*
X184417243Y-90178444D01*
X184418351Y-90184629D01*
X184418352Y-90184635D01*
X184427648Y-90236501D01*
X184428957Y-90245829D01*
X184434289Y-90298261D01*
X184434290Y-90298266D01*
X184434926Y-90304519D01*
X184436807Y-90310516D01*
X184436810Y-90310528D01*
X184444032Y-90333547D01*
X184447772Y-90348783D01*
X184452031Y-90372545D01*
X184452035Y-90372559D01*
X184453142Y-90378734D01*
X184455471Y-90384564D01*
X184475020Y-90433506D01*
X184478179Y-90442379D01*
X184495841Y-90498669D01*
X184498891Y-90504164D01*
X184510603Y-90525265D01*
X184517337Y-90539444D01*
X184526290Y-90561859D01*
X184526292Y-90561864D01*
X184528623Y-90567698D01*
X184532082Y-90572947D01*
X184532085Y-90572952D01*
X184561080Y-90616948D01*
X184565961Y-90625004D01*
X184591536Y-90671080D01*
X184591538Y-90671083D01*
X184594591Y-90676583D01*
X184598689Y-90681356D01*
X184614404Y-90699662D01*
X184623855Y-90712197D01*
X184637133Y-90732344D01*
X184637138Y-90732350D01*
X184640598Y-90737600D01*
X184645045Y-90742047D01*
X184682300Y-90779302D01*
X184688705Y-90786212D01*
X184727134Y-90830976D01*
X184751198Y-90849603D01*
X184762968Y-90859970D01*
X188580369Y-94677371D01*
X188582562Y-94679620D01*
X188638522Y-94738490D01*
X188638524Y-94738492D01*
X188642860Y-94743053D01*
X188648024Y-94746647D01*
X188648026Y-94746649D01*
X188691267Y-94776746D01*
X188698788Y-94782417D01*
X188739634Y-94815722D01*
X188739643Y-94815727D01*
X188744512Y-94819698D01*
X188771475Y-94833782D01*
X188784899Y-94841915D01*
X188809870Y-94859295D01*
X188864082Y-94882559D01*
X188872594Y-94886602D01*
X188909805Y-94906040D01*
X188924870Y-94913909D01*
X188954118Y-94922277D01*
X188968894Y-94927538D01*
X188996861Y-94939540D01*
X189054637Y-94951413D01*
X189063785Y-94953658D01*
X189120501Y-94969887D01*
X189150835Y-94972196D01*
X189166382Y-94974377D01*
X189190014Y-94979234D01*
X189190021Y-94979234D01*
X189196178Y-94980500D01*
X189255161Y-94980500D01*
X189264576Y-94980858D01*
X189323396Y-94985337D01*
X189353571Y-94981493D01*
X189369237Y-94980500D01*
X189539242Y-94980500D01*
X189586695Y-94989939D01*
X189619861Y-95012100D01*
X189620627Y-95011189D01*
X189624767Y-95014663D01*
X189628599Y-95018495D01*
X189633032Y-95021599D01*
X189633038Y-95021604D01*
X189814158Y-95148425D01*
X189853024Y-95192743D01*
X189867035Y-95250000D01*
X189853024Y-95307257D01*
X189814159Y-95351575D01*
X189633041Y-95478395D01*
X189628599Y-95481505D01*
X189624771Y-95485332D01*
X189620624Y-95488813D01*
X189619858Y-95487901D01*
X189586695Y-95510061D01*
X189539242Y-95519500D01*
X182935244Y-95519500D01*
X182923090Y-95518903D01*
X182880000Y-95514659D01*
X182873938Y-95515256D01*
X182873936Y-95515256D01*
X182832129Y-95519373D01*
X182830429Y-95519500D01*
X182829258Y-95519500D01*
X182826148Y-95519816D01*
X182826131Y-95519817D01*
X182780579Y-95524448D01*
X182780195Y-95524487D01*
X182687277Y-95533640D01*
X182687272Y-95533640D01*
X182683868Y-95533976D01*
X182682336Y-95534440D01*
X182677562Y-95534926D01*
X182671559Y-95536809D01*
X182671556Y-95536810D01*
X182585558Y-95563792D01*
X182584433Y-95564139D01*
X182495273Y-95591186D01*
X182492160Y-95592849D01*
X182491082Y-95593241D01*
X182489407Y-95593959D01*
X182483412Y-95595841D01*
X182477919Y-95598889D01*
X182477909Y-95598894D01*
X182402183Y-95640924D01*
X182400463Y-95641861D01*
X182326834Y-95681218D01*
X182326830Y-95681220D01*
X182321462Y-95684090D01*
X182316974Y-95687771D01*
X182312373Y-95690579D01*
X182310985Y-95691544D01*
X182305498Y-95694591D01*
X182300731Y-95698682D01*
X182300727Y-95698686D01*
X182237733Y-95752764D01*
X182235631Y-95754529D01*
X182169117Y-95809117D01*
X182165258Y-95813817D01*
X182160945Y-95818131D01*
X182160650Y-95817836D01*
X182160107Y-95818391D01*
X182160205Y-95818484D01*
X182155875Y-95823038D01*
X182151105Y-95827134D01*
X182147261Y-95832099D01*
X182147258Y-95832103D01*
X182098636Y-95894917D01*
X182096435Y-95897678D01*
X182047953Y-95956754D01*
X182047949Y-95956758D01*
X182044090Y-95961462D01*
X182041219Y-95966832D01*
X182037836Y-95971896D01*
X182037759Y-95971845D01*
X182030940Y-95982372D01*
X182030401Y-95983068D01*
X182030396Y-95983074D01*
X182026552Y-95988042D01*
X182023788Y-95993675D01*
X182023784Y-95993683D01*
X181990356Y-96061832D01*
X181988386Y-96065676D01*
X181954059Y-96129896D01*
X181954055Y-96129904D01*
X181951186Y-96135273D01*
X181949419Y-96141096D01*
X181949412Y-96141114D01*
X181948994Y-96142494D01*
X181941675Y-96161072D01*
X181939712Y-96165074D01*
X181939706Y-96165087D01*
X181936940Y-96170729D01*
X181935365Y-96176811D01*
X181935363Y-96176817D01*
X181917240Y-96246811D01*
X181915860Y-96251721D01*
X181895745Y-96318034D01*
X181895743Y-96318040D01*
X181893976Y-96323868D01*
X181893379Y-96329922D01*
X181893377Y-96329935D01*
X181892884Y-96334942D01*
X181889526Y-96353845D01*
X181887512Y-96361624D01*
X181887509Y-96361641D01*
X181885937Y-96367715D01*
X181885619Y-96373978D01*
X181885618Y-96373987D01*
X181882135Y-96442653D01*
X181881697Y-96448521D01*
X181875256Y-96513935D01*
X181874659Y-96520000D01*
X181876100Y-96534637D01*
X181876537Y-96553053D01*
X181875949Y-96564651D01*
X181875949Y-96564656D01*
X181875631Y-96570936D01*
X181876582Y-96577148D01*
X181876583Y-96577155D01*
X181886450Y-96641564D01*
X181887283Y-96648184D01*
X181893976Y-96716132D01*
X181895743Y-96721956D01*
X181899282Y-96733623D01*
X181903189Y-96750834D01*
X181905490Y-96765853D01*
X181905493Y-96765865D01*
X181906444Y-96772071D01*
X181908625Y-96777961D01*
X181908626Y-96777963D01*
X181930022Y-96835733D01*
X181932400Y-96842798D01*
X181951186Y-96904727D01*
X181954055Y-96910095D01*
X181954057Y-96910099D01*
X181961487Y-96923999D01*
X181968409Y-96939382D01*
X181977114Y-96962887D01*
X181980440Y-96968224D01*
X181980441Y-96968225D01*
X182011147Y-97017489D01*
X182015271Y-97024624D01*
X182041216Y-97073163D01*
X182041220Y-97073170D01*
X182044090Y-97078538D01*
X182047954Y-97083246D01*
X182060221Y-97098194D01*
X182069599Y-97111267D01*
X182081419Y-97130231D01*
X182081421Y-97130234D01*
X182084748Y-97135571D01*
X182126639Y-97179640D01*
X182132604Y-97186392D01*
X182169117Y-97230883D01*
X182191540Y-97249285D01*
X182202730Y-97259688D01*
X182224941Y-97283053D01*
X182230097Y-97286642D01*
X182230101Y-97286645D01*
X182271893Y-97315733D01*
X182279719Y-97321653D01*
X182321462Y-97355910D01*
X182350201Y-97371271D01*
X182362577Y-97378850D01*
X182391951Y-97399295D01*
X182397727Y-97401773D01*
X182397733Y-97401777D01*
X182441248Y-97420451D01*
X182450789Y-97425036D01*
X182495273Y-97448814D01*
X182529877Y-97459310D01*
X182542773Y-97464018D01*
X182578942Y-97479540D01*
X182585103Y-97480806D01*
X182585106Y-97480807D01*
X182601093Y-97484092D01*
X182627994Y-97489620D01*
X182639013Y-97492417D01*
X182683868Y-97506024D01*
X182723405Y-97509917D01*
X182736207Y-97511858D01*
X182772095Y-97519234D01*
X182772102Y-97519234D01*
X182778259Y-97520500D01*
X182824756Y-97520500D01*
X182836909Y-97521096D01*
X182880000Y-97525341D01*
X182923090Y-97521096D01*
X182935244Y-97520500D01*
X189539242Y-97520500D01*
X189586695Y-97529939D01*
X189619861Y-97552100D01*
X189620627Y-97551189D01*
X189624767Y-97554663D01*
X189628599Y-97558495D01*
X189822170Y-97694035D01*
X190036337Y-97793903D01*
X190264592Y-97855063D01*
X190500000Y-97875659D01*
X190735408Y-97855063D01*
X190963663Y-97793903D01*
X191177830Y-97694035D01*
X191371401Y-97558495D01*
X191538495Y-97391401D01*
X191674035Y-97197830D01*
X191773903Y-96983663D01*
X191835063Y-96755408D01*
X191855659Y-96520000D01*
X191835063Y-96284592D01*
X191773903Y-96056337D01*
X191674035Y-95842171D01*
X191538495Y-95648599D01*
X191371401Y-95481505D01*
X191366968Y-95478401D01*
X191366961Y-95478395D01*
X191185842Y-95351575D01*
X191146976Y-95307257D01*
X191132965Y-95250000D01*
X191146976Y-95192743D01*
X191185842Y-95148425D01*
X191366961Y-95021604D01*
X191366961Y-95021603D01*
X191371401Y-95018495D01*
X191538495Y-94851401D01*
X191674035Y-94657830D01*
X191773903Y-94443663D01*
X191835063Y-94215408D01*
X191855659Y-93980000D01*
X191835063Y-93744592D01*
X191773903Y-93516337D01*
X191674035Y-93302171D01*
X191538495Y-93108599D01*
X191416181Y-92986285D01*
X191384885Y-92933539D01*
X191382696Y-92872246D01*
X191410149Y-92817401D01*
X191460529Y-92782422D01*
X191583777Y-92736452D01*
X191599189Y-92728037D01*
X191700092Y-92652501D01*
X191712501Y-92640092D01*
X191788037Y-92539189D01*
X191796452Y-92523777D01*
X191840888Y-92404641D01*
X191844426Y-92389667D01*
X191849646Y-92341114D01*
X191850000Y-92334518D01*
X191850000Y-91706326D01*
X191846549Y-91693450D01*
X191833674Y-91690000D01*
X189166326Y-91690000D01*
X189153450Y-91693450D01*
X189150000Y-91706326D01*
X189150000Y-92117799D01*
X189136485Y-92174094D01*
X189098885Y-92218117D01*
X189045398Y-92240272D01*
X188987682Y-92235730D01*
X188938319Y-92205480D01*
X187906513Y-91173674D01*
X189150000Y-91173674D01*
X189153450Y-91186549D01*
X189166326Y-91190000D01*
X190233674Y-91190000D01*
X190246549Y-91186549D01*
X190250000Y-91173674D01*
X190750000Y-91173674D01*
X190753450Y-91186549D01*
X190766326Y-91190000D01*
X191833674Y-91190000D01*
X191846549Y-91186549D01*
X191850000Y-91173674D01*
X191850000Y-90545482D01*
X191849646Y-90538885D01*
X191844426Y-90490332D01*
X191840888Y-90475358D01*
X191796452Y-90356222D01*
X191788037Y-90340810D01*
X191712501Y-90239907D01*
X191700092Y-90227498D01*
X191599189Y-90151962D01*
X191583777Y-90143547D01*
X191464641Y-90099111D01*
X191449667Y-90095573D01*
X191401114Y-90090353D01*
X191394518Y-90090000D01*
X190766326Y-90090000D01*
X190753450Y-90093450D01*
X190750000Y-90106326D01*
X190750000Y-91173674D01*
X190250000Y-91173674D01*
X190250000Y-90106326D01*
X190246549Y-90093450D01*
X190233674Y-90090000D01*
X189605482Y-90090000D01*
X189598885Y-90090353D01*
X189550332Y-90095573D01*
X189535358Y-90099111D01*
X189416222Y-90143547D01*
X189400810Y-90151962D01*
X189299907Y-90227498D01*
X189287498Y-90239907D01*
X189211962Y-90340810D01*
X189203547Y-90356222D01*
X189159111Y-90475358D01*
X189155573Y-90490332D01*
X189150353Y-90538885D01*
X189150000Y-90545482D01*
X189150000Y-91173674D01*
X187906513Y-91173674D01*
X186456819Y-89723980D01*
X186429939Y-89683752D01*
X186420500Y-89636299D01*
X186420500Y-84285783D01*
X186429939Y-84238330D01*
X186456819Y-84198102D01*
X187441560Y-83213361D01*
X190533032Y-80121887D01*
X190568305Y-80097189D01*
X190609900Y-80086043D01*
X190735408Y-80075063D01*
X190963663Y-80013903D01*
X191177830Y-79914035D01*
X191371401Y-79778495D01*
X191538495Y-79611401D01*
X191674035Y-79417830D01*
X191773903Y-79203663D01*
X191835063Y-78975408D01*
X191855659Y-78740000D01*
X191835063Y-78504592D01*
X191773903Y-78276337D01*
X191674035Y-78062171D01*
X191538495Y-77868599D01*
X191371401Y-77701505D01*
X191366968Y-77698401D01*
X191366961Y-77698395D01*
X191185842Y-77571575D01*
X191146976Y-77527257D01*
X191132965Y-77470000D01*
X191146976Y-77412743D01*
X191185842Y-77368425D01*
X191366961Y-77241604D01*
X191366961Y-77241603D01*
X191371401Y-77238495D01*
X191538495Y-77071401D01*
X191674035Y-76877830D01*
X191773903Y-76663663D01*
X191835063Y-76435408D01*
X191855659Y-76200000D01*
X191835063Y-75964592D01*
X191773903Y-75736337D01*
X191674035Y-75522171D01*
X191538495Y-75328599D01*
X191416181Y-75206285D01*
X191384885Y-75153539D01*
X191382696Y-75092246D01*
X191410149Y-75037401D01*
X191460529Y-75002422D01*
X191583777Y-74956452D01*
X191599189Y-74948037D01*
X191700092Y-74872501D01*
X191712501Y-74860092D01*
X191788037Y-74759189D01*
X191796452Y-74743777D01*
X191840888Y-74624641D01*
X191844426Y-74609667D01*
X191849646Y-74561114D01*
X191850000Y-74554518D01*
X191850000Y-73926326D01*
X191846549Y-73913450D01*
X191833674Y-73910000D01*
X189166326Y-73910000D01*
X189153450Y-73913450D01*
X189150000Y-73926326D01*
X189150000Y-74554518D01*
X189150353Y-74561114D01*
X189155573Y-74609667D01*
X189159111Y-74624641D01*
X189203547Y-74743777D01*
X189211962Y-74759189D01*
X189287498Y-74860092D01*
X189299907Y-74872501D01*
X189400810Y-74948037D01*
X189416222Y-74956452D01*
X189423904Y-74959318D01*
X189478767Y-74999779D01*
X189503952Y-75063125D01*
X189491849Y-75130211D01*
X189446114Y-75180762D01*
X189380571Y-75199500D01*
X180805783Y-75199500D01*
X180758330Y-75190061D01*
X180718102Y-75163181D01*
X178948595Y-73393674D01*
X189150000Y-73393674D01*
X189153450Y-73406549D01*
X189166326Y-73410000D01*
X190233674Y-73410000D01*
X190246549Y-73406549D01*
X190250000Y-73393674D01*
X190750000Y-73393674D01*
X190753450Y-73406549D01*
X190766326Y-73410000D01*
X191833674Y-73410000D01*
X191846549Y-73406549D01*
X191850000Y-73393674D01*
X191850000Y-72765482D01*
X191849646Y-72758885D01*
X191844426Y-72710332D01*
X191840888Y-72695358D01*
X191796452Y-72576222D01*
X191788037Y-72560810D01*
X191712501Y-72459907D01*
X191700092Y-72447498D01*
X191599189Y-72371962D01*
X191583777Y-72363547D01*
X191464641Y-72319111D01*
X191449667Y-72315573D01*
X191401114Y-72310353D01*
X191394518Y-72310000D01*
X190766326Y-72310000D01*
X190753450Y-72313450D01*
X190750000Y-72326326D01*
X190750000Y-73393674D01*
X190250000Y-73393674D01*
X190250000Y-72326326D01*
X190246549Y-72313450D01*
X190233674Y-72310000D01*
X189605482Y-72310000D01*
X189598885Y-72310353D01*
X189550332Y-72315573D01*
X189535358Y-72319111D01*
X189416222Y-72363547D01*
X189400810Y-72371962D01*
X189299907Y-72447498D01*
X189287498Y-72459907D01*
X189211962Y-72560810D01*
X189203547Y-72576222D01*
X189159111Y-72695358D01*
X189155573Y-72710332D01*
X189150353Y-72758885D01*
X189150000Y-72765482D01*
X189150000Y-73393674D01*
X178948595Y-73393674D01*
X176586887Y-71031966D01*
X176562186Y-70996689D01*
X176551040Y-70955092D01*
X176546106Y-70898697D01*
X176545635Y-70893308D01*
X176486739Y-70673504D01*
X176390568Y-70467266D01*
X176260047Y-70280861D01*
X176099139Y-70119953D01*
X175912734Y-69989432D01*
X175706496Y-69893261D01*
X175701271Y-69891861D01*
X175701263Y-69891858D01*
X175491916Y-69835764D01*
X175491907Y-69835762D01*
X175486692Y-69834365D01*
X175481304Y-69833893D01*
X175481301Y-69833893D01*
X175265395Y-69815004D01*
X175260000Y-69814532D01*
X175254605Y-69815004D01*
X175038698Y-69833893D01*
X175038693Y-69833893D01*
X175033308Y-69834365D01*
X175028094Y-69835762D01*
X175028083Y-69835764D01*
X174818736Y-69891858D01*
X174818724Y-69891862D01*
X174813504Y-69893261D01*
X174808599Y-69895547D01*
X174808594Y-69895550D01*
X174612176Y-69987142D01*
X174612172Y-69987144D01*
X174607266Y-69989432D01*
X174602833Y-69992535D01*
X174602826Y-69992540D01*
X174453535Y-70097075D01*
X174419699Y-70113761D01*
X174382412Y-70119500D01*
X160034237Y-70119500D01*
X160031096Y-70119460D01*
X159949923Y-70117403D01*
X159949920Y-70117403D01*
X159943636Y-70117244D01*
X159937453Y-70118352D01*
X159937441Y-70118353D01*
X159885581Y-70127648D01*
X159876254Y-70128957D01*
X159823815Y-70134290D01*
X159823813Y-70134290D01*
X159817562Y-70134926D01*
X159811573Y-70136804D01*
X159811563Y-70136807D01*
X159788526Y-70144035D01*
X159773289Y-70147774D01*
X159749538Y-70152031D01*
X159749525Y-70152034D01*
X159743347Y-70153142D01*
X159737520Y-70155469D01*
X159737504Y-70155474D01*
X159688567Y-70175021D01*
X159679697Y-70178179D01*
X159629411Y-70193957D01*
X159629396Y-70193963D01*
X159623412Y-70195841D01*
X159617922Y-70198887D01*
X159617915Y-70198891D01*
X159596809Y-70210605D01*
X159582640Y-70217334D01*
X159560223Y-70226289D01*
X159560213Y-70226293D01*
X159554383Y-70228623D01*
X159549140Y-70232078D01*
X159549131Y-70232083D01*
X159505123Y-70261086D01*
X159497073Y-70265963D01*
X159445498Y-70294591D01*
X159440729Y-70298684D01*
X159440726Y-70298687D01*
X159422414Y-70314407D01*
X159409887Y-70323852D01*
X159389731Y-70337136D01*
X159389719Y-70337145D01*
X159384481Y-70340598D01*
X159380039Y-70345039D01*
X159380035Y-70345043D01*
X159342774Y-70382303D01*
X159335868Y-70388704D01*
X159295873Y-70423040D01*
X159295869Y-70423043D01*
X159291105Y-70427134D01*
X159287260Y-70432100D01*
X159287260Y-70432101D01*
X159272480Y-70451194D01*
X159262108Y-70462969D01*
X151702646Y-78022432D01*
X151700398Y-78024624D01*
X151636947Y-78084941D01*
X151633359Y-78090095D01*
X151633352Y-78090104D01*
X151603244Y-78133361D01*
X151597574Y-78140881D01*
X151564274Y-78181721D01*
X151564271Y-78181724D01*
X151560302Y-78186593D01*
X151557396Y-78192155D01*
X151557388Y-78192168D01*
X151546210Y-78213566D01*
X151538082Y-78226982D01*
X151524300Y-78246784D01*
X151524295Y-78246792D01*
X151520705Y-78251951D01*
X151518228Y-78257721D01*
X151518225Y-78257728D01*
X151497439Y-78306165D01*
X151493399Y-78314671D01*
X151466091Y-78366951D01*
X151464363Y-78372989D01*
X151464360Y-78372997D01*
X151457720Y-78396201D01*
X151452459Y-78410978D01*
X151442942Y-78433157D01*
X151440460Y-78438942D01*
X151439194Y-78445097D01*
X151439192Y-78445107D01*
X151428587Y-78496712D01*
X151426342Y-78505859D01*
X151411842Y-78556534D01*
X151411839Y-78556547D01*
X151410113Y-78562582D01*
X151409636Y-78568842D01*
X151409635Y-78568849D01*
X151407801Y-78592929D01*
X151405622Y-78608463D01*
X151400766Y-78632097D01*
X151399500Y-78638259D01*
X151399500Y-78644550D01*
X151399500Y-78697241D01*
X151399142Y-78706656D01*
X151395140Y-78759205D01*
X151395140Y-78759210D01*
X151394663Y-78765476D01*
X151395456Y-78771709D01*
X151395457Y-78771715D01*
X151398506Y-78795651D01*
X151399500Y-78811317D01*
X151399500Y-90974217D01*
X151390061Y-91021670D01*
X151363181Y-91061898D01*
X149481899Y-92943181D01*
X149441671Y-92970061D01*
X149394218Y-92979500D01*
X135655840Y-92979500D01*
X135610765Y-92971017D01*
X135573074Y-92947489D01*
X135571784Y-92946087D01*
X135567748Y-92942946D01*
X135567743Y-92942941D01*
X135452003Y-92852858D01*
X135394180Y-92807852D01*
X135358943Y-92764461D01*
X135346343Y-92710000D01*
X135358943Y-92655539D01*
X135394181Y-92612146D01*
X135571784Y-92473913D01*
X135728979Y-92303153D01*
X135855924Y-92108849D01*
X135949157Y-91896300D01*
X136006134Y-91671305D01*
X136025300Y-91440000D01*
X136006134Y-91208695D01*
X135949157Y-90983700D01*
X135855924Y-90771151D01*
X135728979Y-90576847D01*
X135571784Y-90406087D01*
X135394180Y-90267852D01*
X135358943Y-90224461D01*
X135346343Y-90170000D01*
X135358943Y-90115539D01*
X135394181Y-90072146D01*
X135571784Y-89933913D01*
X135728979Y-89763153D01*
X135855924Y-89568849D01*
X135949157Y-89356300D01*
X136006134Y-89131305D01*
X136025300Y-88900000D01*
X136006134Y-88668695D01*
X135949157Y-88443700D01*
X135855924Y-88231151D01*
X135728979Y-88036847D01*
X135571784Y-87866087D01*
X135561906Y-87858399D01*
X135394181Y-87727854D01*
X135358943Y-87684461D01*
X135346343Y-87630000D01*
X135358943Y-87575539D01*
X135394181Y-87532146D01*
X135571784Y-87393913D01*
X135728979Y-87223153D01*
X135855924Y-87028849D01*
X135949157Y-86816300D01*
X136006134Y-86591305D01*
X136025300Y-86360000D01*
X136006134Y-86128695D01*
X135949157Y-85903700D01*
X135855924Y-85691151D01*
X135728979Y-85496847D01*
X135571784Y-85326087D01*
X135555662Y-85313539D01*
X135476913Y-85252246D01*
X135394180Y-85187852D01*
X135358943Y-85144461D01*
X135346343Y-85090000D01*
X135358943Y-85035539D01*
X135394181Y-84992146D01*
X135453159Y-84946242D01*
X135571784Y-84853913D01*
X135728979Y-84683153D01*
X135855924Y-84488849D01*
X135949157Y-84276300D01*
X136006134Y-84051305D01*
X136025300Y-83820000D01*
X136006134Y-83588695D01*
X135949157Y-83363700D01*
X135855924Y-83151151D01*
X135728979Y-82956847D01*
X135571784Y-82786087D01*
X135394180Y-82647852D01*
X135358943Y-82604461D01*
X135346343Y-82550000D01*
X135358943Y-82495539D01*
X135394181Y-82452146D01*
X135571784Y-82313913D01*
X135728979Y-82143153D01*
X135855924Y-81948849D01*
X135949157Y-81736300D01*
X136006134Y-81511305D01*
X136025300Y-81280000D01*
X136006134Y-81048695D01*
X135949157Y-80823700D01*
X135855924Y-80611151D01*
X135728979Y-80416847D01*
X135571784Y-80246087D01*
X135394180Y-80107852D01*
X135358943Y-80064461D01*
X135346343Y-80010000D01*
X135358943Y-79955539D01*
X135394181Y-79912146D01*
X135571784Y-79773913D01*
X135728979Y-79603153D01*
X135855924Y-79408849D01*
X135949157Y-79196300D01*
X136006134Y-78971305D01*
X136025300Y-78740000D01*
X136006134Y-78508695D01*
X135949157Y-78283700D01*
X135855924Y-78071151D01*
X135728979Y-77876847D01*
X135571784Y-77706087D01*
X135561901Y-77698395D01*
X135394181Y-77567854D01*
X135358943Y-77524461D01*
X135346343Y-77470000D01*
X135358943Y-77415539D01*
X135394181Y-77372146D01*
X135398962Y-77368425D01*
X135571784Y-77233913D01*
X135728979Y-77063153D01*
X135855924Y-76868849D01*
X135949157Y-76656300D01*
X136006134Y-76431305D01*
X136025300Y-76200000D01*
X136006134Y-75968695D01*
X135949157Y-75743700D01*
X135855924Y-75531151D01*
X135728979Y-75336847D01*
X135571784Y-75166087D01*
X135555662Y-75153539D01*
X135439498Y-75063125D01*
X135394180Y-75027852D01*
X135358943Y-74984461D01*
X135346343Y-74930000D01*
X135358943Y-74875539D01*
X135394181Y-74832146D01*
X135571784Y-74693913D01*
X135728979Y-74523153D01*
X135855924Y-74328849D01*
X135949157Y-74116300D01*
X136006134Y-73891305D01*
X136025300Y-73660000D01*
X136006134Y-73428695D01*
X135949157Y-73203700D01*
X135855924Y-72991151D01*
X135728979Y-72796847D01*
X135571784Y-72626087D01*
X135518653Y-72584734D01*
X135392672Y-72486679D01*
X135392671Y-72486678D01*
X135388626Y-72483530D01*
X135266933Y-72417673D01*
X135189007Y-72375501D01*
X135189002Y-72375499D01*
X135184503Y-72373064D01*
X135179657Y-72371400D01*
X135179654Y-72371399D01*
X134969834Y-72299368D01*
X134969833Y-72299367D01*
X134964981Y-72297702D01*
X134959931Y-72296859D01*
X134959922Y-72296857D01*
X134741111Y-72260344D01*
X134741102Y-72260343D01*
X134736049Y-72259500D01*
X134503951Y-72259500D01*
X134498898Y-72260343D01*
X134498888Y-72260344D01*
X134280077Y-72296857D01*
X134280065Y-72296859D01*
X134275019Y-72297702D01*
X134270169Y-72299366D01*
X134270165Y-72299368D01*
X134060345Y-72371399D01*
X134060337Y-72371402D01*
X134055497Y-72373064D01*
X134051001Y-72375496D01*
X134050992Y-72375501D01*
X133855882Y-72481090D01*
X133855878Y-72481092D01*
X133851374Y-72483530D01*
X133847334Y-72486674D01*
X133847327Y-72486679D01*
X133672263Y-72622936D01*
X133672255Y-72622943D01*
X133668216Y-72626087D01*
X133664746Y-72629855D01*
X133664742Y-72629860D01*
X133514491Y-72793077D01*
X133514488Y-72793080D01*
X133511021Y-72796847D01*
X133508226Y-72801124D01*
X133508219Y-72801134D01*
X133386878Y-72986862D01*
X133384076Y-72991151D01*
X133382021Y-72995835D01*
X133382016Y-72995845D01*
X133292903Y-73199003D01*
X133290843Y-73203700D01*
X133289585Y-73208665D01*
X133289584Y-73208670D01*
X133235125Y-73423720D01*
X133235123Y-73423729D01*
X133233866Y-73428695D01*
X133233442Y-73433802D01*
X133233441Y-73433813D01*
X133225747Y-73526677D01*
X133214700Y-73660000D01*
X133215124Y-73665117D01*
X133233441Y-73886186D01*
X133233442Y-73886195D01*
X133233866Y-73891305D01*
X133235123Y-73896272D01*
X133235125Y-73896279D01*
X133269554Y-74032234D01*
X133290843Y-74116300D01*
X133292903Y-74120996D01*
X133382016Y-74324154D01*
X133382019Y-74324159D01*
X133384076Y-74328849D01*
X133447548Y-74426000D01*
X133508219Y-74518865D01*
X133508222Y-74518869D01*
X133511021Y-74523153D01*
X133668216Y-74693913D01*
X133845819Y-74832146D01*
X133881056Y-74875538D01*
X133893656Y-74929999D01*
X133881057Y-74984459D01*
X133845819Y-75027852D01*
X133672265Y-75162934D01*
X133672254Y-75162944D01*
X133668216Y-75166087D01*
X133664746Y-75169855D01*
X133664742Y-75169860D01*
X133514491Y-75333077D01*
X133514488Y-75333080D01*
X133511021Y-75336847D01*
X133508226Y-75341124D01*
X133508219Y-75341134D01*
X133392844Y-75517731D01*
X133384076Y-75531151D01*
X133382021Y-75535835D01*
X133382016Y-75535845D01*
X133292903Y-75739003D01*
X133290843Y-75743700D01*
X133289585Y-75748665D01*
X133289584Y-75748670D01*
X133235125Y-75963720D01*
X133235123Y-75963729D01*
X133233866Y-75968695D01*
X133233442Y-75973802D01*
X133233441Y-75973813D01*
X133215200Y-76193955D01*
X133214700Y-76200000D01*
X133215124Y-76205117D01*
X133233441Y-76426186D01*
X133233442Y-76426195D01*
X133233866Y-76431305D01*
X133235123Y-76436272D01*
X133235125Y-76436279D01*
X133236228Y-76440634D01*
X133290843Y-76656300D01*
X133292903Y-76660996D01*
X133382016Y-76864154D01*
X133382019Y-76864159D01*
X133384076Y-76868849D01*
X133404167Y-76899600D01*
X133508219Y-77058865D01*
X133508222Y-77058869D01*
X133511021Y-77063153D01*
X133668216Y-77233913D01*
X133672263Y-77237063D01*
X133672270Y-77237069D01*
X133845818Y-77372147D01*
X133881056Y-77415540D01*
X133893656Y-77470000D01*
X133881056Y-77524460D01*
X133845818Y-77567853D01*
X133672270Y-77702930D01*
X133672258Y-77702940D01*
X133668216Y-77706087D01*
X133664746Y-77709855D01*
X133664742Y-77709860D01*
X133514491Y-77873077D01*
X133514488Y-77873080D01*
X133511021Y-77876847D01*
X133508226Y-77881124D01*
X133508219Y-77881134D01*
X133402442Y-78043040D01*
X133384076Y-78071151D01*
X133382021Y-78075835D01*
X133382016Y-78075845D01*
X133292903Y-78279003D01*
X133290843Y-78283700D01*
X133289585Y-78288665D01*
X133289584Y-78288670D01*
X133235125Y-78503720D01*
X133235123Y-78503729D01*
X133233866Y-78508695D01*
X133233442Y-78513802D01*
X133233441Y-78513813D01*
X133223130Y-78638259D01*
X133214700Y-78740000D01*
X133215124Y-78745117D01*
X133233441Y-78966186D01*
X133233442Y-78966195D01*
X133233866Y-78971305D01*
X133235123Y-78976272D01*
X133235125Y-78976279D01*
X133289584Y-79191329D01*
X133290843Y-79196300D01*
X133292903Y-79200996D01*
X133382016Y-79404154D01*
X133382019Y-79404159D01*
X133384076Y-79408849D01*
X133447548Y-79506000D01*
X133508219Y-79598865D01*
X133508222Y-79598869D01*
X133511021Y-79603153D01*
X133668216Y-79773913D01*
X133672263Y-79777063D01*
X133672270Y-79777069D01*
X133845818Y-79912147D01*
X133881056Y-79955540D01*
X133893656Y-80010000D01*
X133881056Y-80064460D01*
X133845818Y-80107853D01*
X133672270Y-80242930D01*
X133672258Y-80242940D01*
X133668216Y-80246087D01*
X133664746Y-80249855D01*
X133664742Y-80249860D01*
X133514491Y-80413077D01*
X133514488Y-80413080D01*
X133511021Y-80416847D01*
X133508226Y-80421124D01*
X133508219Y-80421134D01*
X133386878Y-80606862D01*
X133384076Y-80611151D01*
X133382021Y-80615835D01*
X133382016Y-80615845D01*
X133292903Y-80819003D01*
X133290843Y-80823700D01*
X133289585Y-80828665D01*
X133289584Y-80828670D01*
X133235125Y-81043720D01*
X133235123Y-81043729D01*
X133233866Y-81048695D01*
X133233442Y-81053802D01*
X133233441Y-81053813D01*
X133215200Y-81273955D01*
X133214700Y-81280000D01*
X133215124Y-81285117D01*
X133233441Y-81506186D01*
X133233442Y-81506195D01*
X133233866Y-81511305D01*
X133235123Y-81516272D01*
X133235125Y-81516279D01*
X133239877Y-81535043D01*
X133290843Y-81736300D01*
X133292903Y-81740996D01*
X133382016Y-81944154D01*
X133382019Y-81944159D01*
X133384076Y-81948849D01*
X133429055Y-82017695D01*
X133508219Y-82138865D01*
X133508222Y-82138869D01*
X133511021Y-82143153D01*
X133668216Y-82313913D01*
X133845819Y-82452146D01*
X133881056Y-82495538D01*
X133893656Y-82549999D01*
X133881057Y-82604459D01*
X133845819Y-82647852D01*
X133672265Y-82782934D01*
X133672254Y-82782944D01*
X133668216Y-82786087D01*
X133664746Y-82789855D01*
X133664742Y-82789860D01*
X133514491Y-82953077D01*
X133514488Y-82953080D01*
X133511021Y-82956847D01*
X133508226Y-82961124D01*
X133508219Y-82961134D01*
X133386878Y-83146862D01*
X133384076Y-83151151D01*
X133382021Y-83155835D01*
X133382016Y-83155845D01*
X133307036Y-83326784D01*
X133290843Y-83363700D01*
X133289585Y-83368665D01*
X133289584Y-83368670D01*
X133235125Y-83583720D01*
X133235123Y-83583729D01*
X133233866Y-83588695D01*
X133233442Y-83593802D01*
X133233441Y-83593813D01*
X133223130Y-83718259D01*
X133214700Y-83820000D01*
X133215124Y-83825117D01*
X133233441Y-84046186D01*
X133233442Y-84046195D01*
X133233866Y-84051305D01*
X133235123Y-84056272D01*
X133235125Y-84056279D01*
X133289584Y-84271329D01*
X133290843Y-84276300D01*
X133292903Y-84280996D01*
X133382016Y-84484154D01*
X133382019Y-84484159D01*
X133384076Y-84488849D01*
X133435182Y-84567073D01*
X133508219Y-84678865D01*
X133508222Y-84678869D01*
X133511021Y-84683153D01*
X133668216Y-84853913D01*
X133672263Y-84857063D01*
X133672270Y-84857069D01*
X133845818Y-84992147D01*
X133881056Y-85035540D01*
X133893656Y-85090000D01*
X133881056Y-85144460D01*
X133845818Y-85187853D01*
X133672270Y-85322930D01*
X133672258Y-85322940D01*
X133668216Y-85326087D01*
X133664746Y-85329855D01*
X133664742Y-85329860D01*
X133514491Y-85493077D01*
X133514488Y-85493080D01*
X133511021Y-85496847D01*
X133508226Y-85501124D01*
X133508219Y-85501134D01*
X133392844Y-85677731D01*
X133384076Y-85691151D01*
X133382021Y-85695835D01*
X133382016Y-85695845D01*
X133292903Y-85899003D01*
X133290843Y-85903700D01*
X133289585Y-85908665D01*
X133289584Y-85908670D01*
X133235125Y-86123720D01*
X133235123Y-86123729D01*
X133233866Y-86128695D01*
X133233442Y-86133802D01*
X133233441Y-86133813D01*
X133220360Y-86291694D01*
X133214700Y-86360000D01*
X133215124Y-86365117D01*
X133233441Y-86586186D01*
X133233442Y-86586195D01*
X133233866Y-86591305D01*
X133235123Y-86596272D01*
X133235125Y-86596279D01*
X133236228Y-86600634D01*
X133290843Y-86816300D01*
X133292903Y-86820996D01*
X133382016Y-87024154D01*
X133382019Y-87024159D01*
X133384076Y-87028849D01*
X133447548Y-87126000D01*
X133508219Y-87218865D01*
X133508222Y-87218869D01*
X133511021Y-87223153D01*
X133668216Y-87393913D01*
X133672263Y-87397063D01*
X133672270Y-87397069D01*
X133845818Y-87532147D01*
X133881056Y-87575540D01*
X133893656Y-87630000D01*
X133881056Y-87684460D01*
X133845818Y-87727853D01*
X133672270Y-87862930D01*
X133672258Y-87862940D01*
X133668216Y-87866087D01*
X133664746Y-87869855D01*
X133664742Y-87869860D01*
X133514491Y-88033077D01*
X133514488Y-88033080D01*
X133511021Y-88036847D01*
X133508226Y-88041124D01*
X133508219Y-88041134D01*
X133392844Y-88217731D01*
X133384076Y-88231151D01*
X133382021Y-88235835D01*
X133382016Y-88235845D01*
X133292903Y-88439003D01*
X133290843Y-88443700D01*
X133289585Y-88448665D01*
X133289584Y-88448670D01*
X133235125Y-88663720D01*
X133235123Y-88663729D01*
X133233866Y-88668695D01*
X133233442Y-88673802D01*
X133233441Y-88673813D01*
X133215200Y-88893955D01*
X133214700Y-88900000D01*
X133215124Y-88905117D01*
X133233441Y-89126186D01*
X133233442Y-89126195D01*
X133233866Y-89131305D01*
X133235123Y-89136272D01*
X133235125Y-89136279D01*
X133282362Y-89322811D01*
X133290843Y-89356300D01*
X133292903Y-89360996D01*
X133382016Y-89564154D01*
X133382019Y-89564159D01*
X133384076Y-89568849D01*
X133441656Y-89656982D01*
X133508219Y-89758865D01*
X133508222Y-89758869D01*
X133511021Y-89763153D01*
X133668216Y-89933913D01*
X133672263Y-89937063D01*
X133672270Y-89937069D01*
X133845818Y-90072147D01*
X133881056Y-90115540D01*
X133893656Y-90170000D01*
X133881056Y-90224460D01*
X133845818Y-90267853D01*
X133672270Y-90402930D01*
X133672258Y-90402940D01*
X133668216Y-90406087D01*
X133664746Y-90409855D01*
X133664742Y-90409860D01*
X133514491Y-90573077D01*
X133514488Y-90573080D01*
X133511021Y-90576847D01*
X133508226Y-90581124D01*
X133508219Y-90581134D01*
X133386878Y-90766862D01*
X133384076Y-90771151D01*
X133382021Y-90775835D01*
X133382016Y-90775845D01*
X133292903Y-90979003D01*
X133290843Y-90983700D01*
X133289585Y-90988665D01*
X133289584Y-90988670D01*
X133235125Y-91203720D01*
X133235123Y-91203729D01*
X133233866Y-91208695D01*
X133233442Y-91213802D01*
X133233441Y-91213813D01*
X133220609Y-91368683D01*
X133214700Y-91440000D01*
X133215124Y-91445117D01*
X133233441Y-91666186D01*
X133233442Y-91666195D01*
X133233866Y-91671305D01*
X133235123Y-91676272D01*
X133235125Y-91676279D01*
X133289584Y-91891329D01*
X133290843Y-91896300D01*
X133292903Y-91900996D01*
X133382016Y-92104154D01*
X133382019Y-92104159D01*
X133384076Y-92108849D01*
X133414461Y-92155356D01*
X133508219Y-92298865D01*
X133508222Y-92298869D01*
X133511021Y-92303153D01*
X133668216Y-92473913D01*
X133672263Y-92477063D01*
X133672270Y-92477069D01*
X133845818Y-92612147D01*
X133881056Y-92655540D01*
X133893656Y-92710000D01*
X133881056Y-92764460D01*
X133845818Y-92807853D01*
X133672270Y-92942930D01*
X133672258Y-92942940D01*
X133668216Y-92946087D01*
X133664746Y-92949855D01*
X133664742Y-92949860D01*
X133514491Y-93113077D01*
X133514488Y-93113080D01*
X133511021Y-93116847D01*
X133508226Y-93121124D01*
X133508219Y-93121134D01*
X133392844Y-93297731D01*
X133384076Y-93311151D01*
X133382021Y-93315835D01*
X133382016Y-93315845D01*
X133292903Y-93519003D01*
X133290843Y-93523700D01*
X133289585Y-93528665D01*
X133289584Y-93528670D01*
X133235125Y-93743720D01*
X133235123Y-93743729D01*
X133233866Y-93748695D01*
X133233442Y-93753802D01*
X133233441Y-93753813D01*
X133215200Y-93973955D01*
X133214700Y-93980000D01*
X133215124Y-93985117D01*
X133233441Y-94206186D01*
X133233442Y-94206195D01*
X133233866Y-94211305D01*
X133235123Y-94216272D01*
X133235125Y-94216279D01*
X133236228Y-94220634D01*
X133290843Y-94436300D01*
X133292903Y-94440996D01*
X133382016Y-94644154D01*
X133382019Y-94644159D01*
X133384076Y-94648849D01*
X133429055Y-94717695D01*
X133508219Y-94838865D01*
X133508222Y-94838869D01*
X133511021Y-94843153D01*
X133668216Y-95013913D01*
X133845819Y-95152146D01*
X133881056Y-95195538D01*
X133893656Y-95249999D01*
X133881057Y-95304459D01*
X133845819Y-95347852D01*
X133672265Y-95482934D01*
X133672254Y-95482944D01*
X133668216Y-95486087D01*
X133664746Y-95489855D01*
X133664742Y-95489860D01*
X133514491Y-95653077D01*
X133514488Y-95653080D01*
X133511021Y-95656847D01*
X133508226Y-95661124D01*
X133508219Y-95661134D01*
X133392844Y-95837731D01*
X133384076Y-95851151D01*
X133382021Y-95855835D01*
X133382016Y-95855845D01*
X133292903Y-96059003D01*
X133290843Y-96063700D01*
X133289585Y-96068665D01*
X133289584Y-96068670D01*
X133235125Y-96283720D01*
X133235123Y-96283729D01*
X133233866Y-96288695D01*
X133233442Y-96293802D01*
X133233441Y-96293813D01*
X133215203Y-96513935D01*
X133214700Y-96520000D01*
X133215124Y-96525117D01*
X133233441Y-96746186D01*
X133233442Y-96746195D01*
X133233866Y-96751305D01*
X133235123Y-96756272D01*
X133235125Y-96756279D01*
X133265513Y-96876276D01*
X133290843Y-96976300D01*
X133292903Y-96980996D01*
X133382016Y-97184154D01*
X133382019Y-97184159D01*
X133384076Y-97188849D01*
X133426736Y-97254145D01*
X133508219Y-97378865D01*
X133508222Y-97378869D01*
X133511021Y-97383153D01*
X133668216Y-97553913D01*
X133672263Y-97557063D01*
X133672270Y-97557069D01*
X133845818Y-97692147D01*
X133881056Y-97735540D01*
X133893656Y-97790000D01*
X133881056Y-97844460D01*
X133845818Y-97887853D01*
X133672270Y-98022930D01*
X133672258Y-98022940D01*
X133668216Y-98026087D01*
X133664746Y-98029855D01*
X133664742Y-98029860D01*
X133514491Y-98193077D01*
X133514488Y-98193080D01*
X133511021Y-98196847D01*
X133508226Y-98201124D01*
X133508219Y-98201134D01*
X133386878Y-98386862D01*
X133384076Y-98391151D01*
X133382021Y-98395835D01*
X133382016Y-98395845D01*
X133292903Y-98599003D01*
X133290843Y-98603700D01*
X133289585Y-98608665D01*
X133289584Y-98608670D01*
X133235125Y-98823720D01*
X133235123Y-98823729D01*
X133233866Y-98828695D01*
X133233442Y-98833802D01*
X133233441Y-98833813D01*
X133224059Y-98947048D01*
X133214700Y-99060000D01*
X133215124Y-99065117D01*
X133233441Y-99286186D01*
X133233442Y-99286195D01*
X133233866Y-99291305D01*
X133235123Y-99296272D01*
X133235125Y-99296279D01*
X133269885Y-99433539D01*
X133290843Y-99516300D01*
X133292903Y-99520996D01*
X133382016Y-99724154D01*
X133382019Y-99724159D01*
X133384076Y-99728849D01*
X133447548Y-99826000D01*
X133508219Y-99918865D01*
X133508222Y-99918869D01*
X133511021Y-99923153D01*
X133668216Y-100093913D01*
X133672263Y-100097063D01*
X133672270Y-100097069D01*
X133845818Y-100232147D01*
X133881056Y-100275540D01*
X133893656Y-100330000D01*
X133881056Y-100384460D01*
X133845818Y-100427853D01*
X133672270Y-100562930D01*
X133672258Y-100562940D01*
X133668216Y-100566087D01*
X133664746Y-100569855D01*
X133664742Y-100569860D01*
X133514491Y-100733077D01*
X133514488Y-100733080D01*
X133511021Y-100736847D01*
X133508226Y-100741124D01*
X133508219Y-100741134D01*
X133386878Y-100926862D01*
X133384076Y-100931151D01*
X133382021Y-100935835D01*
X133382016Y-100935845D01*
X133292903Y-101139003D01*
X133290843Y-101143700D01*
X133289585Y-101148665D01*
X133289584Y-101148670D01*
X133235125Y-101363720D01*
X133235123Y-101363729D01*
X133233866Y-101368695D01*
X133233442Y-101373802D01*
X133233441Y-101373813D01*
X133215200Y-101593955D01*
X133214700Y-101600000D01*
X133215124Y-101605117D01*
X133233441Y-101826186D01*
X133233442Y-101826195D01*
X133233866Y-101831305D01*
X133235123Y-101836272D01*
X133235125Y-101836279D01*
X133289584Y-102051329D01*
X133290843Y-102056300D01*
X133292903Y-102060996D01*
X133382016Y-102264154D01*
X133382019Y-102264159D01*
X133384076Y-102268849D01*
X133447548Y-102366001D01*
X133508219Y-102458865D01*
X133508222Y-102458869D01*
X133511021Y-102463153D01*
X133668216Y-102633913D01*
X133672263Y-102637063D01*
X133672270Y-102637069D01*
X133845818Y-102772147D01*
X133881056Y-102815540D01*
X133893656Y-102870000D01*
X133881056Y-102924460D01*
X133845818Y-102967853D01*
X133672270Y-103102930D01*
X133672258Y-103102940D01*
X133668216Y-103106087D01*
X133664746Y-103109855D01*
X133664742Y-103109860D01*
X133514491Y-103273077D01*
X133514488Y-103273080D01*
X133511021Y-103276847D01*
X133508226Y-103281124D01*
X133508219Y-103281134D01*
X133389670Y-103462588D01*
X133384076Y-103471151D01*
X133382021Y-103475835D01*
X133382016Y-103475845D01*
X133292903Y-103679003D01*
X133290843Y-103683700D01*
X133289585Y-103688665D01*
X133289584Y-103688670D01*
X133235125Y-103903720D01*
X133235123Y-103903729D01*
X133233866Y-103908695D01*
X133233442Y-103913802D01*
X133233441Y-103913813D01*
X133218586Y-104093098D01*
X133214700Y-104140000D01*
X133215124Y-104145117D01*
X133233441Y-104366186D01*
X133233442Y-104366195D01*
X133233866Y-104371305D01*
X133235123Y-104376272D01*
X133235125Y-104376279D01*
X133289584Y-104591329D01*
X133290843Y-104596300D01*
X133292903Y-104600996D01*
X133382016Y-104804154D01*
X133382019Y-104804159D01*
X133384076Y-104808849D01*
X133447548Y-104906001D01*
X133508219Y-104998865D01*
X133508222Y-104998869D01*
X133511021Y-105003153D01*
X133668216Y-105173913D01*
X133845819Y-105312146D01*
X133881056Y-105355538D01*
X133893656Y-105409999D01*
X133881057Y-105464459D01*
X133845819Y-105507852D01*
X133672265Y-105642934D01*
X133672254Y-105642944D01*
X133668216Y-105646087D01*
X133664746Y-105649855D01*
X133664742Y-105649860D01*
X133514491Y-105813077D01*
X133514488Y-105813080D01*
X133511021Y-105816847D01*
X133508226Y-105821124D01*
X133508219Y-105821134D01*
X133423306Y-105951105D01*
X133384076Y-106011151D01*
X133382021Y-106015835D01*
X133382016Y-106015845D01*
X133294930Y-106214383D01*
X133290843Y-106223700D01*
X133289585Y-106228665D01*
X133289584Y-106228670D01*
X133235125Y-106443720D01*
X133235123Y-106443729D01*
X133233866Y-106448695D01*
X133233442Y-106453802D01*
X133233441Y-106453813D01*
X133215200Y-106673955D01*
X133214700Y-106680000D01*
X133215124Y-106685117D01*
X133233441Y-106906186D01*
X133233442Y-106906195D01*
X133233866Y-106911305D01*
X133235123Y-106916272D01*
X133235125Y-106916279D01*
X133289584Y-107131329D01*
X133290843Y-107136300D01*
X133292903Y-107140996D01*
X133382016Y-107344154D01*
X133382019Y-107344159D01*
X133384076Y-107348849D01*
X133447548Y-107446001D01*
X133508219Y-107538865D01*
X133508222Y-107538869D01*
X133511021Y-107543153D01*
X133668216Y-107713913D01*
X133845819Y-107852146D01*
X133881056Y-107895538D01*
X133893656Y-107949999D01*
X133881057Y-108004459D01*
X133845819Y-108047852D01*
X133672265Y-108182934D01*
X133672254Y-108182944D01*
X133668216Y-108186087D01*
X133664746Y-108189855D01*
X133664742Y-108189860D01*
X133514491Y-108353077D01*
X133514488Y-108353080D01*
X133511021Y-108356847D01*
X133508226Y-108361124D01*
X133508219Y-108361134D01*
X133396887Y-108531542D01*
X133384076Y-108551151D01*
X133344784Y-108640727D01*
X133307035Y-108726787D01*
X133290843Y-108763700D01*
X133289585Y-108768665D01*
X133289584Y-108768670D01*
X133235125Y-108983720D01*
X133235123Y-108983729D01*
X133233866Y-108988695D01*
X133233442Y-108993802D01*
X133233441Y-108993813D01*
X133219164Y-109166124D01*
X133214700Y-109220000D01*
X133215124Y-109225117D01*
X133233441Y-109446186D01*
X133233442Y-109446195D01*
X133233866Y-109451305D01*
X133235123Y-109456272D01*
X133235125Y-109456279D01*
X133289584Y-109671329D01*
X133290843Y-109676300D01*
X133292903Y-109680996D01*
X133382016Y-109884154D01*
X133382019Y-109884159D01*
X133384076Y-109888849D01*
X133447548Y-109986000D01*
X133508219Y-110078865D01*
X133508222Y-110078869D01*
X133511021Y-110083153D01*
X133668216Y-110253913D01*
X133672263Y-110257063D01*
X133672270Y-110257069D01*
X133845818Y-110392147D01*
X133881056Y-110435540D01*
X133893656Y-110490000D01*
X133881056Y-110544460D01*
X133845818Y-110587853D01*
X133672264Y-110722935D01*
X133672254Y-110722943D01*
X133668216Y-110726087D01*
X133666925Y-110727489D01*
X133629235Y-110751017D01*
X133584160Y-110759500D01*
X125744262Y-110759500D01*
X125741121Y-110759460D01*
X125659924Y-110757402D01*
X125659920Y-110757402D01*
X125653637Y-110757243D01*
X125647444Y-110758353D01*
X125595578Y-110767648D01*
X125586254Y-110768955D01*
X125533821Y-110774288D01*
X125533807Y-110774290D01*
X125527562Y-110774926D01*
X125521568Y-110776806D01*
X125521565Y-110776807D01*
X125498526Y-110784035D01*
X125483292Y-110787774D01*
X125459545Y-110792031D01*
X125453347Y-110793142D01*
X125447514Y-110795471D01*
X125447496Y-110795477D01*
X125398567Y-110815021D01*
X125389697Y-110818179D01*
X125339411Y-110833957D01*
X125339396Y-110833963D01*
X125333412Y-110835841D01*
X125327922Y-110838887D01*
X125327915Y-110838891D01*
X125306809Y-110850605D01*
X125292640Y-110857334D01*
X125270223Y-110866289D01*
X125270213Y-110866293D01*
X125264383Y-110868623D01*
X125259140Y-110872078D01*
X125259131Y-110872083D01*
X125215123Y-110901086D01*
X125207073Y-110905963D01*
X125155498Y-110934591D01*
X125150729Y-110938684D01*
X125150726Y-110938687D01*
X125132414Y-110954407D01*
X125119887Y-110963852D01*
X125099731Y-110977136D01*
X125099719Y-110977145D01*
X125094481Y-110980598D01*
X125090039Y-110985039D01*
X125090035Y-110985043D01*
X125052774Y-111022303D01*
X125045868Y-111028704D01*
X125005873Y-111063040D01*
X125005869Y-111063043D01*
X125001105Y-111067134D01*
X124997260Y-111072100D01*
X124997260Y-111072101D01*
X124982480Y-111091194D01*
X124972108Y-111102969D01*
X109442304Y-126632774D01*
X109386716Y-126664868D01*
X109322529Y-126664868D01*
X109266941Y-126632774D01*
X109234848Y-126577185D01*
X109225305Y-126541571D01*
X109223903Y-126536337D01*
X109124035Y-126322171D01*
X108988495Y-126128599D01*
X108821401Y-125961505D01*
X108816970Y-125958402D01*
X108816966Y-125958399D01*
X108635405Y-125831269D01*
X108596540Y-125786951D01*
X108582529Y-125729694D01*
X108596540Y-125672437D01*
X108635406Y-125628119D01*
X108816638Y-125501219D01*
X108824909Y-125494278D01*
X108984278Y-125334909D01*
X108991215Y-125326643D01*
X109120498Y-125142008D01*
X109125886Y-125132676D01*
X109221143Y-124928397D01*
X109224831Y-124918263D01*
X109276943Y-124723780D01*
X109277311Y-124712551D01*
X109266369Y-124710000D01*
X106633631Y-124710000D01*
X106622688Y-124712551D01*
X106623056Y-124723780D01*
X106675168Y-124918263D01*
X106678856Y-124928397D01*
X106774113Y-125132676D01*
X106779501Y-125142008D01*
X106908784Y-125326643D01*
X106915721Y-125334909D01*
X107075090Y-125494278D01*
X107083356Y-125501215D01*
X107264595Y-125628120D01*
X107303460Y-125672438D01*
X107317471Y-125729695D01*
X107303460Y-125786952D01*
X107264594Y-125831270D01*
X107083034Y-125958399D01*
X107083029Y-125958402D01*
X107078599Y-125961505D01*
X107074775Y-125965328D01*
X107074769Y-125965334D01*
X106915334Y-126124769D01*
X106915328Y-126124775D01*
X106911505Y-126128599D01*
X106908402Y-126133029D01*
X106908399Y-126133034D01*
X106779073Y-126317731D01*
X106779068Y-126317738D01*
X106775965Y-126322171D01*
X106773677Y-126327077D01*
X106773675Y-126327081D01*
X106678386Y-126531427D01*
X106678383Y-126531432D01*
X106676097Y-126536337D01*
X106674698Y-126541557D01*
X106674694Y-126541569D01*
X106616337Y-126759365D01*
X106616335Y-126759371D01*
X106614937Y-126764592D01*
X106614465Y-126769977D01*
X106614465Y-126769982D01*
X106601022Y-126923637D01*
X106594341Y-127000000D01*
X106614937Y-127235408D01*
X106616336Y-127240630D01*
X106616337Y-127240634D01*
X106674694Y-127458430D01*
X106674697Y-127458438D01*
X106676097Y-127463663D01*
X106678385Y-127468570D01*
X106678386Y-127468572D01*
X106773678Y-127672927D01*
X106773681Y-127672933D01*
X106775965Y-127677830D01*
X106779064Y-127682257D01*
X106779066Y-127682259D01*
X106908399Y-127866966D01*
X106908402Y-127866970D01*
X106911505Y-127871401D01*
X107078599Y-128038495D01*
X107083032Y-128041599D01*
X107083038Y-128041604D01*
X107264158Y-128168425D01*
X107303024Y-128212743D01*
X107317035Y-128270000D01*
X107303024Y-128327257D01*
X107264158Y-128371575D01*
X107078599Y-128501505D01*
X107074775Y-128505328D01*
X107074769Y-128505334D01*
X106915334Y-128664769D01*
X106915328Y-128664775D01*
X106911505Y-128668599D01*
X106908402Y-128673029D01*
X106908399Y-128673034D01*
X106779073Y-128857731D01*
X106779068Y-128857738D01*
X106775965Y-128862171D01*
X106773677Y-128867077D01*
X106773675Y-128867081D01*
X106678386Y-129071427D01*
X106678383Y-129071432D01*
X106676097Y-129076337D01*
X106674698Y-129081557D01*
X106674694Y-129081569D01*
X106616337Y-129299365D01*
X106616335Y-129299371D01*
X106614937Y-129304592D01*
X106594341Y-129540000D01*
X106614937Y-129775408D01*
X106616336Y-129780630D01*
X106616337Y-129780634D01*
X106674694Y-129998430D01*
X106674697Y-129998438D01*
X106676097Y-130003663D01*
X106678385Y-130008570D01*
X106678386Y-130008572D01*
X106773678Y-130212927D01*
X106773681Y-130212933D01*
X106775965Y-130217830D01*
X106779064Y-130222257D01*
X106779066Y-130222259D01*
X106908399Y-130406966D01*
X106908402Y-130406970D01*
X106911505Y-130411401D01*
X107078599Y-130578495D01*
X107083032Y-130581599D01*
X107083038Y-130581604D01*
X107264158Y-130708425D01*
X107303024Y-130752743D01*
X107317035Y-130810000D01*
X107303024Y-130867257D01*
X107264159Y-130911575D01*
X107170634Y-130977062D01*
X107078599Y-131041505D01*
X107074775Y-131045328D01*
X107074769Y-131045334D01*
X106915334Y-131204769D01*
X106915328Y-131204775D01*
X106911505Y-131208599D01*
X106908402Y-131213029D01*
X106908399Y-131213034D01*
X106779073Y-131397731D01*
X106779068Y-131397738D01*
X106775965Y-131402171D01*
X106773677Y-131407077D01*
X106773675Y-131407081D01*
X106678386Y-131611427D01*
X106678383Y-131611432D01*
X106676097Y-131616337D01*
X106674698Y-131621557D01*
X106674694Y-131621569D01*
X106616337Y-131839365D01*
X106616335Y-131839371D01*
X106614937Y-131844592D01*
X106594341Y-132080000D01*
X99060500Y-132080000D01*
X99060500Y-90195476D01*
X103134663Y-90195476D01*
X103135456Y-90201709D01*
X103135457Y-90201715D01*
X103138506Y-90225651D01*
X103139500Y-90241317D01*
X103139500Y-119365722D01*
X103139460Y-119368862D01*
X103137243Y-119456363D01*
X103138351Y-119462548D01*
X103138352Y-119462554D01*
X103147648Y-119514420D01*
X103148957Y-119523748D01*
X103154289Y-119576180D01*
X103154290Y-119576185D01*
X103154926Y-119582438D01*
X103156807Y-119588435D01*
X103156810Y-119588447D01*
X103164032Y-119611466D01*
X103167772Y-119626702D01*
X103172031Y-119650464D01*
X103172035Y-119650478D01*
X103173142Y-119656653D01*
X103175471Y-119662483D01*
X103195020Y-119711425D01*
X103198179Y-119720298D01*
X103213960Y-119770593D01*
X103215841Y-119776588D01*
X103218891Y-119782083D01*
X103230603Y-119803184D01*
X103237337Y-119817363D01*
X103246290Y-119839778D01*
X103246292Y-119839783D01*
X103248623Y-119845617D01*
X103252082Y-119850866D01*
X103252085Y-119850871D01*
X103281080Y-119894867D01*
X103285961Y-119902923D01*
X103311536Y-119948999D01*
X103311538Y-119949002D01*
X103314591Y-119954502D01*
X103318689Y-119959275D01*
X103334404Y-119977581D01*
X103343855Y-119990116D01*
X103357133Y-120010263D01*
X103357138Y-120010269D01*
X103360598Y-120015519D01*
X103365044Y-120019965D01*
X103365045Y-120019966D01*
X103402300Y-120057221D01*
X103408705Y-120064131D01*
X103447134Y-120108895D01*
X103471198Y-120127522D01*
X103482968Y-120137889D01*
X105962450Y-122617371D01*
X105964643Y-122619620D01*
X106024941Y-122683053D01*
X106030102Y-122686645D01*
X106073361Y-122716755D01*
X106080874Y-122722419D01*
X106126592Y-122759697D01*
X106132166Y-122762608D01*
X106132173Y-122762613D01*
X106153557Y-122773783D01*
X106166985Y-122781918D01*
X106183827Y-122793640D01*
X106191951Y-122799295D01*
X106227499Y-122814550D01*
X106246165Y-122822560D01*
X106254675Y-122826602D01*
X106306951Y-122853909D01*
X106336195Y-122862276D01*
X106350979Y-122867539D01*
X106378942Y-122879540D01*
X106436727Y-122891414D01*
X106445869Y-122893657D01*
X106502582Y-122909886D01*
X106508857Y-122910363D01*
X106508858Y-122910364D01*
X106512331Y-122910628D01*
X106532915Y-122912195D01*
X106548454Y-122914375D01*
X106558343Y-122916407D01*
X106614046Y-122943689D01*
X106649567Y-122994537D01*
X106656204Y-123012331D01*
X106661518Y-123019430D01*
X106661519Y-123019431D01*
X106715953Y-123092146D01*
X106742454Y-123127546D01*
X106857669Y-123213796D01*
X106989598Y-123263002D01*
X107039977Y-123297981D01*
X107067431Y-123352825D01*
X107065242Y-123414118D01*
X107033947Y-123466865D01*
X106915714Y-123585098D01*
X106908784Y-123593357D01*
X106779508Y-123777982D01*
X106774110Y-123787332D01*
X106678856Y-123991602D01*
X106675168Y-124001736D01*
X106623056Y-124196219D01*
X106622688Y-124207448D01*
X106633631Y-124210000D01*
X109266369Y-124210000D01*
X109277311Y-124207448D01*
X109276943Y-124196219D01*
X109224831Y-124001736D01*
X109221143Y-123991602D01*
X109125889Y-123787332D01*
X109120491Y-123777982D01*
X108991215Y-123593357D01*
X108984280Y-123585092D01*
X108866053Y-123466865D01*
X108834757Y-123414119D01*
X108832568Y-123352825D01*
X108860022Y-123297981D01*
X108910398Y-123263003D01*
X109042331Y-123213796D01*
X109157546Y-123127546D01*
X109243796Y-123012331D01*
X109294091Y-122877483D01*
X109300500Y-122817873D01*
X109300499Y-121022128D01*
X109294091Y-120962517D01*
X109243796Y-120827669D01*
X109157546Y-120712454D01*
X109146867Y-120704460D01*
X109049431Y-120631519D01*
X109049430Y-120631518D01*
X109042331Y-120626204D01*
X108971965Y-120599959D01*
X108914752Y-120578620D01*
X108914750Y-120578619D01*
X108907483Y-120575909D01*
X108899770Y-120575079D01*
X108899767Y-120575079D01*
X108851180Y-120569855D01*
X108851169Y-120569854D01*
X108847873Y-120569500D01*
X108844550Y-120569500D01*
X107055439Y-120569500D01*
X107055420Y-120569500D01*
X107052128Y-120569501D01*
X107048850Y-120569853D01*
X107048838Y-120569854D01*
X107000231Y-120575079D01*
X107000225Y-120575080D01*
X106992517Y-120575909D01*
X106985252Y-120578618D01*
X106985246Y-120578620D01*
X106891150Y-120613716D01*
X106821458Y-120618700D01*
X106760136Y-120585215D01*
X105176819Y-119001899D01*
X105149939Y-118961671D01*
X105140500Y-118914218D01*
X105140500Y-115447182D01*
X107723500Y-115447182D01*
X107724189Y-115451754D01*
X107724190Y-115451765D01*
X107761912Y-115702028D01*
X107761913Y-115702035D01*
X107762604Y-115706615D01*
X107763969Y-115711043D01*
X107763971Y-115711048D01*
X107838569Y-115952891D01*
X107838573Y-115952901D01*
X107839937Y-115957323D01*
X107841946Y-115961496D01*
X107841949Y-115961502D01*
X107951756Y-116189518D01*
X107953772Y-116193704D01*
X108101567Y-116410479D01*
X108280019Y-116602805D01*
X108485143Y-116766386D01*
X108712357Y-116897568D01*
X108956584Y-116993420D01*
X109212370Y-117051802D01*
X109408506Y-117066500D01*
X109537177Y-117066500D01*
X109539494Y-117066500D01*
X109735630Y-117051802D01*
X109991416Y-116993420D01*
X110235643Y-116897568D01*
X110462857Y-116766386D01*
X110667981Y-116602805D01*
X110846433Y-116410479D01*
X110994228Y-116193704D01*
X111108063Y-115957323D01*
X111185396Y-115706615D01*
X111224500Y-115447182D01*
X111224500Y-115184818D01*
X111185396Y-114925385D01*
X111137026Y-114768572D01*
X111109430Y-114679108D01*
X111109428Y-114679105D01*
X111108063Y-114674677D01*
X110994228Y-114438296D01*
X110846433Y-114221521D01*
X110667981Y-114029195D01*
X110462857Y-113865614D01*
X110368216Y-113810973D01*
X110239664Y-113736753D01*
X110239658Y-113736750D01*
X110235643Y-113734432D01*
X110231324Y-113732737D01*
X110231318Y-113732734D01*
X109995738Y-113640276D01*
X109995734Y-113640275D01*
X109991416Y-113638580D01*
X109986893Y-113637547D01*
X109986891Y-113637547D01*
X109740149Y-113581229D01*
X109740143Y-113581228D01*
X109735630Y-113580198D01*
X109731008Y-113579851D01*
X109731004Y-113579851D01*
X109541808Y-113565673D01*
X109541797Y-113565672D01*
X109539494Y-113565500D01*
X109408506Y-113565500D01*
X109406203Y-113565672D01*
X109406191Y-113565673D01*
X109216995Y-113579851D01*
X109216989Y-113579851D01*
X109212370Y-113580198D01*
X109207858Y-113581227D01*
X109207850Y-113581229D01*
X108961108Y-113637547D01*
X108961102Y-113637548D01*
X108956584Y-113638580D01*
X108952268Y-113640273D01*
X108952261Y-113640276D01*
X108716681Y-113732734D01*
X108716670Y-113732739D01*
X108712357Y-113734432D01*
X108708346Y-113736747D01*
X108708335Y-113736753D01*
X108489161Y-113863294D01*
X108485143Y-113865614D01*
X108481519Y-113868503D01*
X108481516Y-113868506D01*
X108283646Y-114026302D01*
X108283641Y-114026306D01*
X108280019Y-114029195D01*
X108276865Y-114032593D01*
X108276863Y-114032596D01*
X108104719Y-114218123D01*
X108104713Y-114218129D01*
X108101567Y-114221521D01*
X108098957Y-114225348D01*
X108098957Y-114225349D01*
X108044383Y-114305395D01*
X107953772Y-114438296D01*
X107951759Y-114442474D01*
X107951756Y-114442481D01*
X107841949Y-114670497D01*
X107841944Y-114670508D01*
X107839937Y-114674677D01*
X107838574Y-114679093D01*
X107838569Y-114679108D01*
X107763971Y-114920951D01*
X107763968Y-114920959D01*
X107762604Y-114925385D01*
X107761914Y-114929961D01*
X107761912Y-114929971D01*
X107724190Y-115180234D01*
X107724189Y-115180246D01*
X107723500Y-115184818D01*
X107723500Y-115447182D01*
X105140500Y-115447182D01*
X105140500Y-98683182D01*
X108485500Y-98683182D01*
X108486189Y-98687754D01*
X108486190Y-98687765D01*
X108523912Y-98938028D01*
X108523913Y-98938035D01*
X108524604Y-98942615D01*
X108525969Y-98947043D01*
X108525971Y-98947048D01*
X108600569Y-99188891D01*
X108600573Y-99188901D01*
X108601937Y-99193323D01*
X108603946Y-99197496D01*
X108603949Y-99197502D01*
X108651518Y-99296279D01*
X108715772Y-99429704D01*
X108863567Y-99646479D01*
X109042019Y-99838805D01*
X109247143Y-100002386D01*
X109474357Y-100133568D01*
X109718584Y-100229420D01*
X109974370Y-100287802D01*
X110170506Y-100302500D01*
X110299177Y-100302500D01*
X110301494Y-100302500D01*
X110497630Y-100287802D01*
X110753416Y-100229420D01*
X110997643Y-100133568D01*
X111224857Y-100002386D01*
X111429981Y-99838805D01*
X111608433Y-99646479D01*
X111756228Y-99429704D01*
X111870063Y-99193323D01*
X111947396Y-98942615D01*
X111986500Y-98683182D01*
X111986500Y-98420818D01*
X111947396Y-98161385D01*
X111870063Y-97910677D01*
X111756228Y-97674296D01*
X111608433Y-97457521D01*
X111429981Y-97265195D01*
X111224857Y-97101614D01*
X111130216Y-97046973D01*
X111001664Y-96972753D01*
X111001658Y-96972750D01*
X110997643Y-96970432D01*
X110993324Y-96968737D01*
X110993318Y-96968734D01*
X110757738Y-96876276D01*
X110757734Y-96876275D01*
X110753416Y-96874580D01*
X110748893Y-96873547D01*
X110748891Y-96873547D01*
X110502149Y-96817229D01*
X110502143Y-96817228D01*
X110497630Y-96816198D01*
X110493008Y-96815851D01*
X110493004Y-96815851D01*
X110303808Y-96801673D01*
X110303797Y-96801672D01*
X110301494Y-96801500D01*
X110170506Y-96801500D01*
X110168203Y-96801672D01*
X110168191Y-96801673D01*
X109978995Y-96815851D01*
X109978989Y-96815851D01*
X109974370Y-96816198D01*
X109969858Y-96817227D01*
X109969850Y-96817229D01*
X109723108Y-96873547D01*
X109723102Y-96873548D01*
X109718584Y-96874580D01*
X109714268Y-96876273D01*
X109714261Y-96876276D01*
X109478681Y-96968734D01*
X109478670Y-96968739D01*
X109474357Y-96970432D01*
X109470346Y-96972747D01*
X109470335Y-96972753D01*
X109251161Y-97099294D01*
X109247143Y-97101614D01*
X109243519Y-97104503D01*
X109243516Y-97104506D01*
X109045646Y-97262302D01*
X109045641Y-97262306D01*
X109042019Y-97265195D01*
X109038865Y-97268593D01*
X109038863Y-97268596D01*
X108866719Y-97454123D01*
X108866713Y-97454129D01*
X108863567Y-97457521D01*
X108860957Y-97461348D01*
X108860957Y-97461349D01*
X108797337Y-97554663D01*
X108715772Y-97674296D01*
X108713759Y-97678474D01*
X108713756Y-97678481D01*
X108603949Y-97906497D01*
X108603944Y-97906508D01*
X108601937Y-97910677D01*
X108600574Y-97915093D01*
X108600569Y-97915108D01*
X108525971Y-98156951D01*
X108525968Y-98156959D01*
X108524604Y-98161385D01*
X108523914Y-98165961D01*
X108523912Y-98165971D01*
X108486190Y-98416234D01*
X108486189Y-98416246D01*
X108485500Y-98420818D01*
X108485500Y-98683182D01*
X105140500Y-98683182D01*
X105140500Y-90635783D01*
X105149939Y-90588330D01*
X105176819Y-90548102D01*
X105491465Y-90233456D01*
X106457697Y-89267222D01*
X106513282Y-89235130D01*
X106577470Y-89235130D01*
X106633057Y-89267224D01*
X106665151Y-89322811D01*
X106674695Y-89358433D01*
X106674697Y-89358439D01*
X106676097Y-89363663D01*
X106678385Y-89368570D01*
X106678386Y-89368572D01*
X106773678Y-89572927D01*
X106773681Y-89572933D01*
X106775965Y-89577830D01*
X106779064Y-89582257D01*
X106779066Y-89582259D01*
X106908399Y-89766966D01*
X106908402Y-89766970D01*
X106911505Y-89771401D01*
X107078599Y-89938495D01*
X107272170Y-90074035D01*
X107277070Y-90076320D01*
X107277072Y-90076321D01*
X107331443Y-90101674D01*
X107486337Y-90173903D01*
X107714592Y-90235063D01*
X107950000Y-90255659D01*
X108185408Y-90235063D01*
X108413663Y-90173903D01*
X108627830Y-90074035D01*
X108821401Y-89938495D01*
X108988495Y-89771401D01*
X109124035Y-89577830D01*
X109223903Y-89363663D01*
X109285063Y-89135408D01*
X109305659Y-88900000D01*
X109285063Y-88664592D01*
X109223903Y-88436337D01*
X109124035Y-88222171D01*
X108988495Y-88028599D01*
X108821401Y-87861505D01*
X108816970Y-87858402D01*
X108816966Y-87858399D01*
X108635841Y-87731574D01*
X108596976Y-87687256D01*
X108582965Y-87629999D01*
X108596976Y-87572742D01*
X108635839Y-87528426D01*
X108821401Y-87398495D01*
X108988495Y-87231401D01*
X109124035Y-87037830D01*
X109223903Y-86823663D01*
X109285063Y-86595408D01*
X109305659Y-86360000D01*
X109285063Y-86124592D01*
X109223903Y-85896337D01*
X109124035Y-85682171D01*
X108988495Y-85488599D01*
X108866181Y-85366285D01*
X108834885Y-85313539D01*
X108832696Y-85252246D01*
X108860149Y-85197401D01*
X108910529Y-85162422D01*
X109033777Y-85116452D01*
X109049189Y-85108037D01*
X109150092Y-85032501D01*
X109162501Y-85020092D01*
X109238037Y-84919189D01*
X109246452Y-84903777D01*
X109290888Y-84784641D01*
X109294426Y-84769667D01*
X109299646Y-84721114D01*
X109300000Y-84714518D01*
X109300000Y-84086326D01*
X109296549Y-84073450D01*
X109283674Y-84070000D01*
X106616326Y-84070000D01*
X106603450Y-84073450D01*
X106600000Y-84086326D01*
X106600000Y-84714518D01*
X106600353Y-84721114D01*
X106605573Y-84769667D01*
X106609111Y-84784641D01*
X106653547Y-84903777D01*
X106661962Y-84919189D01*
X106737498Y-85020092D01*
X106749907Y-85032501D01*
X106850810Y-85108037D01*
X106866220Y-85116451D01*
X106989471Y-85162422D01*
X107039850Y-85197401D01*
X107067303Y-85252246D01*
X107065114Y-85313538D01*
X107033818Y-85366285D01*
X106911505Y-85488599D01*
X106908402Y-85493029D01*
X106908399Y-85493034D01*
X106779073Y-85677731D01*
X106779068Y-85677738D01*
X106775965Y-85682171D01*
X106773677Y-85687077D01*
X106773675Y-85687081D01*
X106678386Y-85891427D01*
X106678383Y-85891432D01*
X106676097Y-85896337D01*
X106674698Y-85901557D01*
X106674694Y-85901569D01*
X106616337Y-86119365D01*
X106616335Y-86119371D01*
X106614937Y-86124592D01*
X106614465Y-86129977D01*
X106614465Y-86129982D01*
X106603955Y-86250098D01*
X106592809Y-86291694D01*
X106568108Y-86326970D01*
X103442646Y-89452432D01*
X103440398Y-89454624D01*
X103376947Y-89514941D01*
X103373359Y-89520095D01*
X103373352Y-89520104D01*
X103343244Y-89563361D01*
X103337574Y-89570881D01*
X103304274Y-89611721D01*
X103304271Y-89611724D01*
X103300302Y-89616593D01*
X103297396Y-89622155D01*
X103297388Y-89622168D01*
X103286210Y-89643566D01*
X103278082Y-89656982D01*
X103264300Y-89676784D01*
X103264295Y-89676792D01*
X103260705Y-89681951D01*
X103258228Y-89687721D01*
X103258225Y-89687728D01*
X103237439Y-89736165D01*
X103233399Y-89744671D01*
X103217436Y-89775232D01*
X103206091Y-89796951D01*
X103204363Y-89802989D01*
X103204360Y-89802997D01*
X103197720Y-89826201D01*
X103192459Y-89840978D01*
X103182942Y-89863157D01*
X103180460Y-89868942D01*
X103179194Y-89875097D01*
X103179192Y-89875107D01*
X103168587Y-89926712D01*
X103166342Y-89935859D01*
X103151842Y-89986534D01*
X103151839Y-89986547D01*
X103150113Y-89992582D01*
X103149636Y-89998842D01*
X103149635Y-89998849D01*
X103147801Y-90022929D01*
X103145622Y-90038463D01*
X103140766Y-90062097D01*
X103139500Y-90068259D01*
X103139500Y-90074550D01*
X103139500Y-90127241D01*
X103139142Y-90136656D01*
X103135140Y-90189205D01*
X103135140Y-90189210D01*
X103134663Y-90195476D01*
X99060500Y-90195476D01*
X99060500Y-83553674D01*
X106600000Y-83553674D01*
X106603450Y-83566549D01*
X106616326Y-83570000D01*
X107683674Y-83570000D01*
X107696549Y-83566549D01*
X107700000Y-83553674D01*
X108200000Y-83553674D01*
X108203450Y-83566549D01*
X108216326Y-83570000D01*
X109283674Y-83570000D01*
X109296549Y-83566549D01*
X109300000Y-83553674D01*
X109300000Y-82925482D01*
X109299646Y-82918885D01*
X109294426Y-82870332D01*
X109290888Y-82855358D01*
X109246452Y-82736222D01*
X109238037Y-82720810D01*
X109162501Y-82619907D01*
X109150092Y-82607498D01*
X109049189Y-82531962D01*
X109033777Y-82523547D01*
X108914641Y-82479111D01*
X108899667Y-82475573D01*
X108851114Y-82470353D01*
X108844518Y-82470000D01*
X108216326Y-82470000D01*
X108203450Y-82473450D01*
X108200000Y-82486326D01*
X108200000Y-83553674D01*
X107700000Y-83553674D01*
X107700000Y-82486326D01*
X107696549Y-82473450D01*
X107683674Y-82470000D01*
X107055482Y-82470000D01*
X107048885Y-82470353D01*
X107000332Y-82475573D01*
X106985358Y-82479111D01*
X106866222Y-82523547D01*
X106850810Y-82531962D01*
X106749907Y-82607498D01*
X106737498Y-82619907D01*
X106661962Y-82720810D01*
X106653547Y-82736222D01*
X106609111Y-82855358D01*
X106605573Y-82870332D01*
X106600353Y-82918885D01*
X106600000Y-82925482D01*
X106600000Y-83553674D01*
X99060500Y-83553674D01*
X99060500Y-74299182D01*
X108231500Y-74299182D01*
X108232189Y-74303754D01*
X108232190Y-74303765D01*
X108269912Y-74554028D01*
X108269913Y-74554035D01*
X108270604Y-74558615D01*
X108271969Y-74563043D01*
X108271971Y-74563048D01*
X108346569Y-74804891D01*
X108346573Y-74804901D01*
X108347937Y-74809323D01*
X108349946Y-74813496D01*
X108349949Y-74813502D01*
X108452266Y-75025965D01*
X108461772Y-75045704D01*
X108609567Y-75262479D01*
X108788019Y-75454805D01*
X108993143Y-75618386D01*
X109220357Y-75749568D01*
X109464584Y-75845420D01*
X109720370Y-75903802D01*
X109916506Y-75918500D01*
X110045177Y-75918500D01*
X110047494Y-75918500D01*
X110243630Y-75903802D01*
X110499416Y-75845420D01*
X110743643Y-75749568D01*
X110970857Y-75618386D01*
X111175981Y-75454805D01*
X111354433Y-75262479D01*
X111502228Y-75045704D01*
X111616063Y-74809323D01*
X111693396Y-74558615D01*
X111732500Y-74299182D01*
X111732500Y-74036818D01*
X111693396Y-73777385D01*
X111616063Y-73526677D01*
X111502228Y-73290296D01*
X111354433Y-73073521D01*
X111175981Y-72881195D01*
X110970857Y-72717614D01*
X110806870Y-72622936D01*
X110747664Y-72588753D01*
X110747658Y-72588750D01*
X110743643Y-72586432D01*
X110739324Y-72584737D01*
X110739318Y-72584734D01*
X110503738Y-72492276D01*
X110503734Y-72492275D01*
X110499416Y-72490580D01*
X110494893Y-72489547D01*
X110494891Y-72489547D01*
X110248149Y-72433229D01*
X110248143Y-72433228D01*
X110243630Y-72432198D01*
X110239008Y-72431851D01*
X110239004Y-72431851D01*
X110049808Y-72417673D01*
X110049797Y-72417672D01*
X110047494Y-72417500D01*
X109916506Y-72417500D01*
X109914203Y-72417672D01*
X109914191Y-72417673D01*
X109724995Y-72431851D01*
X109724989Y-72431851D01*
X109720370Y-72432198D01*
X109715858Y-72433227D01*
X109715850Y-72433229D01*
X109469108Y-72489547D01*
X109469102Y-72489548D01*
X109464584Y-72490580D01*
X109460268Y-72492273D01*
X109460261Y-72492276D01*
X109224681Y-72584734D01*
X109224670Y-72584739D01*
X109220357Y-72586432D01*
X109216346Y-72588747D01*
X109216335Y-72588753D01*
X108997161Y-72715294D01*
X108993143Y-72717614D01*
X108989519Y-72720503D01*
X108989516Y-72720506D01*
X108791646Y-72878302D01*
X108791641Y-72878306D01*
X108788019Y-72881195D01*
X108784865Y-72884593D01*
X108784863Y-72884596D01*
X108612719Y-73070123D01*
X108612713Y-73070129D01*
X108609567Y-73073521D01*
X108606957Y-73077348D01*
X108606957Y-73077349D01*
X108524015Y-73199003D01*
X108461772Y-73290296D01*
X108459759Y-73294474D01*
X108459756Y-73294481D01*
X108349949Y-73522497D01*
X108349944Y-73522508D01*
X108347937Y-73526677D01*
X108346574Y-73531093D01*
X108346569Y-73531108D01*
X108271971Y-73772951D01*
X108271968Y-73772959D01*
X108270604Y-73777385D01*
X108269914Y-73781961D01*
X108269912Y-73781971D01*
X108232190Y-74032234D01*
X108232189Y-74032246D01*
X108231500Y-74036818D01*
X108231500Y-74299182D01*
X99060500Y-74299182D01*
X99060500Y-61091182D01*
X102389500Y-61091182D01*
X102390189Y-61095754D01*
X102390190Y-61095765D01*
X102427912Y-61346028D01*
X102427913Y-61346035D01*
X102428604Y-61350615D01*
X102429969Y-61355043D01*
X102429971Y-61355048D01*
X102504569Y-61596891D01*
X102504573Y-61596901D01*
X102505937Y-61601323D01*
X102619772Y-61837704D01*
X102767567Y-62054479D01*
X102946019Y-62246805D01*
X103151143Y-62410386D01*
X103378357Y-62541568D01*
X103622584Y-62637420D01*
X103878370Y-62695802D01*
X104074506Y-62710500D01*
X104203177Y-62710500D01*
X104205494Y-62710500D01*
X104401630Y-62695802D01*
X104657416Y-62637420D01*
X104901643Y-62541568D01*
X105128857Y-62410386D01*
X105333981Y-62246805D01*
X105512433Y-62054479D01*
X105660228Y-61837704D01*
X105774063Y-61601323D01*
X105851396Y-61350615D01*
X105890500Y-61091182D01*
X191289500Y-61091182D01*
X191290189Y-61095754D01*
X191290190Y-61095765D01*
X191327912Y-61346028D01*
X191327913Y-61346035D01*
X191328604Y-61350615D01*
X191329969Y-61355043D01*
X191329971Y-61355048D01*
X191404569Y-61596891D01*
X191404573Y-61596901D01*
X191405937Y-61601323D01*
X191519772Y-61837704D01*
X191667567Y-62054479D01*
X191846019Y-62246805D01*
X192051143Y-62410386D01*
X192278357Y-62541568D01*
X192522584Y-62637420D01*
X192778370Y-62695802D01*
X192974506Y-62710500D01*
X193103177Y-62710500D01*
X193105494Y-62710500D01*
X193301630Y-62695802D01*
X193557416Y-62637420D01*
X193801643Y-62541568D01*
X194028857Y-62410386D01*
X194233981Y-62246805D01*
X194412433Y-62054479D01*
X194560228Y-61837704D01*
X194674063Y-61601323D01*
X194751396Y-61350615D01*
X194790500Y-61091182D01*
X194790500Y-60828818D01*
X194751396Y-60569385D01*
X194674063Y-60318677D01*
X194560228Y-60082296D01*
X194412433Y-59865521D01*
X194233981Y-59673195D01*
X194028857Y-59509614D01*
X193934216Y-59454973D01*
X193805664Y-59380753D01*
X193805658Y-59380750D01*
X193801643Y-59378432D01*
X193797324Y-59376737D01*
X193797318Y-59376734D01*
X193561738Y-59284276D01*
X193561734Y-59284275D01*
X193557416Y-59282580D01*
X193552893Y-59281547D01*
X193552891Y-59281547D01*
X193306149Y-59225229D01*
X193306143Y-59225228D01*
X193301630Y-59224198D01*
X193297008Y-59223851D01*
X193297004Y-59223851D01*
X193107808Y-59209673D01*
X193107797Y-59209672D01*
X193105494Y-59209500D01*
X192974506Y-59209500D01*
X192972203Y-59209672D01*
X192972191Y-59209673D01*
X192782995Y-59223851D01*
X192782989Y-59223851D01*
X192778370Y-59224198D01*
X192773858Y-59225227D01*
X192773850Y-59225229D01*
X192527108Y-59281547D01*
X192527102Y-59281548D01*
X192522584Y-59282580D01*
X192518268Y-59284273D01*
X192518261Y-59284276D01*
X192282681Y-59376734D01*
X192282670Y-59376739D01*
X192278357Y-59378432D01*
X192274346Y-59380747D01*
X192274335Y-59380753D01*
X192055161Y-59507294D01*
X192051143Y-59509614D01*
X192047519Y-59512503D01*
X192047516Y-59512506D01*
X191849646Y-59670302D01*
X191849641Y-59670306D01*
X191846019Y-59673195D01*
X191842865Y-59676593D01*
X191842863Y-59676596D01*
X191670719Y-59862123D01*
X191670713Y-59862129D01*
X191667567Y-59865521D01*
X191664957Y-59869348D01*
X191664957Y-59869349D01*
X191651396Y-59889240D01*
X191519772Y-60082296D01*
X191517759Y-60086474D01*
X191517756Y-60086481D01*
X191407949Y-60314497D01*
X191407944Y-60314508D01*
X191405937Y-60318677D01*
X191404574Y-60323093D01*
X191404569Y-60323108D01*
X191329971Y-60564951D01*
X191329968Y-60564959D01*
X191328604Y-60569385D01*
X191327914Y-60573961D01*
X191327912Y-60573971D01*
X191290190Y-60824234D01*
X191290189Y-60824246D01*
X191289500Y-60828818D01*
X191289500Y-61091182D01*
X105890500Y-61091182D01*
X105890500Y-60828818D01*
X105851396Y-60569385D01*
X105774063Y-60318677D01*
X105660228Y-60082296D01*
X105512433Y-59865521D01*
X105333981Y-59673195D01*
X105128857Y-59509614D01*
X105034216Y-59454973D01*
X104905664Y-59380753D01*
X104905658Y-59380750D01*
X104901643Y-59378432D01*
X104897324Y-59376737D01*
X104897318Y-59376734D01*
X104661738Y-59284276D01*
X104661734Y-59284275D01*
X104657416Y-59282580D01*
X104652893Y-59281547D01*
X104652891Y-59281547D01*
X104406149Y-59225229D01*
X104406143Y-59225228D01*
X104401630Y-59224198D01*
X104397008Y-59223851D01*
X104397004Y-59223851D01*
X104207808Y-59209673D01*
X104207797Y-59209672D01*
X104205494Y-59209500D01*
X104074506Y-59209500D01*
X104072203Y-59209672D01*
X104072191Y-59209673D01*
X103882995Y-59223851D01*
X103882989Y-59223851D01*
X103878370Y-59224198D01*
X103873858Y-59225227D01*
X103873850Y-59225229D01*
X103627108Y-59281547D01*
X103627102Y-59281548D01*
X103622584Y-59282580D01*
X103618268Y-59284273D01*
X103618261Y-59284276D01*
X103382681Y-59376734D01*
X103382670Y-59376739D01*
X103378357Y-59378432D01*
X103374346Y-59380747D01*
X103374335Y-59380753D01*
X103155161Y-59507294D01*
X103151143Y-59509614D01*
X103147519Y-59512503D01*
X103147516Y-59512506D01*
X102949646Y-59670302D01*
X102949641Y-59670306D01*
X102946019Y-59673195D01*
X102942865Y-59676593D01*
X102942863Y-59676596D01*
X102770719Y-59862123D01*
X102770713Y-59862129D01*
X102767567Y-59865521D01*
X102764957Y-59869348D01*
X102764957Y-59869349D01*
X102751396Y-59889240D01*
X102619772Y-60082296D01*
X102617759Y-60086474D01*
X102617756Y-60086481D01*
X102507949Y-60314497D01*
X102507944Y-60314508D01*
X102505937Y-60318677D01*
X102504574Y-60323093D01*
X102504569Y-60323108D01*
X102429971Y-60564951D01*
X102429968Y-60564959D01*
X102428604Y-60569385D01*
X102427914Y-60573961D01*
X102427912Y-60573971D01*
X102390190Y-60824234D01*
X102390189Y-60824246D01*
X102389500Y-60828818D01*
X102389500Y-61091182D01*
X99060500Y-61091182D01*
X99060500Y-60962561D01*
X99060606Y-60957437D01*
X99065734Y-60833453D01*
X99069495Y-60742496D01*
X99078348Y-60539746D01*
X99079177Y-60529883D01*
X99106031Y-60314444D01*
X99106073Y-60314123D01*
X99132750Y-60111486D01*
X99134317Y-60102290D01*
X99178805Y-59890115D01*
X99178994Y-59889240D01*
X99223293Y-59689419D01*
X99225498Y-59680920D01*
X99287267Y-59473440D01*
X99287835Y-59471591D01*
X99349322Y-59276576D01*
X99352027Y-59268898D01*
X99430739Y-59067176D01*
X99431599Y-59065038D01*
X99509908Y-58875983D01*
X99513031Y-58869058D01*
X99608130Y-58674530D01*
X99609416Y-58671983D01*
X99703890Y-58490500D01*
X99707348Y-58484300D01*
X99818108Y-58298420D01*
X99819977Y-58295388D01*
X99929901Y-58122843D01*
X99933511Y-58117491D01*
X100059249Y-57941385D01*
X100061727Y-57938038D01*
X100186258Y-57775746D01*
X100189958Y-57771157D01*
X100329810Y-57606032D01*
X100332931Y-57602492D01*
X100471176Y-57451624D01*
X100474827Y-57447810D01*
X100627810Y-57294827D01*
X100631624Y-57291176D01*
X100782492Y-57152931D01*
X100786032Y-57149810D01*
X100951157Y-57009958D01*
X100955746Y-57006258D01*
X101118038Y-56881727D01*
X101121385Y-56879249D01*
X101297491Y-56753511D01*
X101302843Y-56749901D01*
X101475388Y-56639977D01*
X101478420Y-56638108D01*
X101664301Y-56527347D01*
X101670500Y-56523890D01*
X101851983Y-56429416D01*
X101854530Y-56428130D01*
X102049058Y-56333031D01*
X102055983Y-56329908D01*
X102245038Y-56251599D01*
X102247176Y-56250739D01*
X102448898Y-56172027D01*
X102456576Y-56169322D01*
X102651612Y-56107828D01*
X102653438Y-56107268D01*
X102860920Y-56045498D01*
X102869419Y-56043293D01*
X103069240Y-55998994D01*
X103070115Y-55998805D01*
X103282290Y-55954317D01*
X103291486Y-55952750D01*
X103494123Y-55926073D01*
X103494444Y-55926031D01*
X103709883Y-55899177D01*
X103719746Y-55898348D01*
X103922421Y-55889499D01*
X104137437Y-55880605D01*
X104142561Y-55880500D01*
X193037439Y-55880500D01*
X193042562Y-55880605D01*
G37*
%TD.AperFunction*%
%TD*%
M02*
