%TF.GenerationSoftware,KiCad,Pcbnew,(7.0.0)*%
%TF.CreationDate,2023-02-28T15:26:02+00:00*%
%TF.ProjectId,Board V1.0,426f6172-6420-4563-912e-302e6b696361,rev?*%
%TF.SameCoordinates,Original*%
%TF.FileFunction,Soldermask,Bot*%
%TF.FilePolarity,Negative*%
%FSLAX46Y46*%
G04 Gerber Fmt 4.6, Leading zero omitted, Abs format (unit mm)*
G04 Created by KiCad (PCBNEW (7.0.0)) date 2023-02-28 15:26:02*
%MOMM*%
%LPD*%
G01*
G04 APERTURE LIST*
G04 Aperture macros list*
%AMRoundRect*
0 Rectangle with rounded corners*
0 $1 Rounding radius*
0 $2 $3 $4 $5 $6 $7 $8 $9 X,Y pos of 4 corners*
0 Add a 4 corners polygon primitive as box body*
4,1,4,$2,$3,$4,$5,$6,$7,$8,$9,$2,$3,0*
0 Add four circle primitives for the rounded corners*
1,1,$1+$1,$2,$3*
1,1,$1+$1,$4,$5*
1,1,$1+$1,$6,$7*
1,1,$1+$1,$8,$9*
0 Add four rect primitives between the rounded corners*
20,1,$1+$1,$2,$3,$4,$5,0*
20,1,$1+$1,$4,$5,$6,$7,0*
20,1,$1+$1,$6,$7,$8,$9,0*
20,1,$1+$1,$8,$9,$2,$3,0*%
G04 Aperture macros list end*
%ADD10C,1.800000*%
%ADD11C,3.000000*%
%ADD12O,1.700000X1.700000*%
%ADD13R,1.700000X1.700000*%
%ADD14RoundRect,0.750000X-0.750000X1.750000X-0.750000X-1.750000X0.750000X-1.750000X0.750000X1.750000X0*%
%ADD15C,1.600000*%
%ADD16O,1.600000X1.600000*%
G04 APERTURE END LIST*
D10*
%TO.C,U1*%
X134620000Y-73660000D03*
X134620000Y-76200000D03*
X134620000Y-78740000D03*
X134620000Y-81280000D03*
X134620000Y-83820000D03*
X134620000Y-86360000D03*
X134620000Y-88900000D03*
X134620000Y-91440000D03*
X134620000Y-93980000D03*
X134620000Y-96520000D03*
X134620000Y-99060000D03*
X134620000Y-101600000D03*
X134620000Y-104140000D03*
X134620000Y-106680000D03*
X134620000Y-109220000D03*
X134620000Y-111760000D03*
X134620000Y-114300000D03*
X134620000Y-116840000D03*
X134620000Y-119380000D03*
X134620000Y-121920000D03*
X134620000Y-124460000D03*
X161290000Y-73660000D03*
X161290000Y-76200000D03*
X161290000Y-78740000D03*
X161290000Y-81280000D03*
X161290000Y-83820000D03*
X161290000Y-86360000D03*
X161290000Y-88900000D03*
X161290000Y-91440000D03*
X161290000Y-93980000D03*
X161290000Y-96520000D03*
X161290000Y-99060000D03*
X161290000Y-101600000D03*
X161290000Y-104140000D03*
X161290000Y-106680000D03*
X161290000Y-109220000D03*
X161290000Y-111760000D03*
X161290000Y-114300000D03*
X161290000Y-116840000D03*
X161290000Y-119380000D03*
X161290000Y-121920000D03*
X161290000Y-124460000D03*
%TD*%
D11*
%TO.C,H8*%
X109474000Y-139446000D03*
%TD*%
%TO.C,H7*%
X109474000Y-115316000D03*
%TD*%
%TO.C,H6*%
X110236000Y-98552000D03*
%TD*%
%TO.C,H5*%
X109982000Y-74168000D03*
%TD*%
%TO.C,H4*%
X193040000Y-149860000D03*
%TD*%
%TO.C,H3*%
X104140000Y-149860000D03*
%TD*%
%TO.C,H2*%
X193040000Y-60960000D03*
%TD*%
%TO.C,H1*%
X104140000Y-60960000D03*
%TD*%
D12*
%TO.C,J6*%
X190499999Y-114299999D03*
D13*
X190499999Y-111759999D03*
%TD*%
%TO.C,J5*%
X190499999Y-91439999D03*
D12*
X190499999Y-93979999D03*
X190499999Y-96519999D03*
%TD*%
D13*
%TO.C,J4*%
X190499999Y-73659999D03*
D12*
X190499999Y-76199999D03*
X190499999Y-78739999D03*
%TD*%
D13*
%TO.C,J2*%
X107949999Y-83819999D03*
D12*
X107949999Y-86359999D03*
X107949999Y-88899999D03*
%TD*%
D13*
%TO.C,J3*%
X107949999Y-121919999D03*
D12*
X107949999Y-124459999D03*
X107949999Y-126999999D03*
X107949999Y-129539999D03*
X107949999Y-132079999D03*
%TD*%
D13*
%TO.C,J1*%
X149859999Y-147319999D03*
D12*
X147319999Y-147319999D03*
X144779999Y-147319999D03*
X142239999Y-147319999D03*
X139699999Y-147319999D03*
X137159999Y-147319999D03*
%TD*%
D14*
%TO.C,MT3608 Module*%
X182880000Y-147520000D03*
X172680000Y-147520000D03*
X182880000Y-121920000D03*
X172680000Y-121920000D03*
%TD*%
D15*
%TO.C,R1*%
X175260000Y-81280000D03*
D16*
X175259999Y-71119999D03*
%TD*%
M02*
