%TF.GenerationSoftware,KiCad,Pcbnew,(7.0.0)*%
%TF.CreationDate,2023-02-28T15:26:02+00:00*%
%TF.ProjectId,Board V1.0,426f6172-6420-4563-912e-302e6b696361,rev?*%
%TF.SameCoordinates,Original*%
%TF.FileFunction,Copper,L2,Bot*%
%TF.FilePolarity,Positive*%
%FSLAX46Y46*%
G04 Gerber Fmt 4.6, Leading zero omitted, Abs format (unit mm)*
G04 Created by KiCad (PCBNEW (7.0.0)) date 2023-02-28 15:26:02*
%MOMM*%
%LPD*%
G01*
G04 APERTURE LIST*
G04 Aperture macros list*
%AMRoundRect*
0 Rectangle with rounded corners*
0 $1 Rounding radius*
0 $2 $3 $4 $5 $6 $7 $8 $9 X,Y pos of 4 corners*
0 Add a 4 corners polygon primitive as box body*
4,1,4,$2,$3,$4,$5,$6,$7,$8,$9,$2,$3,0*
0 Add four circle primitives for the rounded corners*
1,1,$1+$1,$2,$3*
1,1,$1+$1,$4,$5*
1,1,$1+$1,$6,$7*
1,1,$1+$1,$8,$9*
0 Add four rect primitives between the rounded corners*
20,1,$1+$1,$2,$3,$4,$5,0*
20,1,$1+$1,$4,$5,$6,$7,0*
20,1,$1+$1,$6,$7,$8,$9,0*
20,1,$1+$1,$8,$9,$2,$3,0*%
G04 Aperture macros list end*
%TA.AperFunction,ComponentPad*%
%ADD10C,1.800000*%
%TD*%
%TA.AperFunction,ComponentPad*%
%ADD11O,1.700000X1.700000*%
%TD*%
%TA.AperFunction,ComponentPad*%
%ADD12R,1.700000X1.700000*%
%TD*%
%TA.AperFunction,ComponentPad*%
%ADD13RoundRect,0.750000X-0.750000X1.750000X-0.750000X-1.750000X0.750000X-1.750000X0.750000X1.750000X0*%
%TD*%
%TA.AperFunction,ComponentPad*%
%ADD14C,1.600000*%
%TD*%
%TA.AperFunction,ComponentPad*%
%ADD15O,1.600000X1.600000*%
%TD*%
%TA.AperFunction,ViaPad*%
%ADD16C,1.000000*%
%TD*%
%TA.AperFunction,Conductor*%
%ADD17C,1.000000*%
%TD*%
G04 APERTURE END LIST*
D10*
%TO.P,U1,42,MIC+*%
%TO.N,unconnected-(U1-MIC+-Pad42)*%
X134620000Y-73660000D03*
%TO.P,U1,41,MIC-*%
%TO.N,unconnected-(U1-MIC--Pad41)*%
X134620000Y-76200000D03*
%TO.P,U1,40,CLK*%
%TO.N,unconnected-(U1-CLK-Pad40)*%
X134620000Y-78740000D03*
%TO.P,U1,39,SD0*%
%TO.N,unconnected-(U1-SD0-Pad39)*%
X134620000Y-81280000D03*
%TO.P,U1,38,SD1*%
%TO.N,unconnected-(U1-SD1-Pad38)*%
X134620000Y-83820000D03*
%TO.P,U1,37,GPIO15*%
%TO.N,unconnected-(U1-GPIO15-Pad37)*%
X134620000Y-86360000D03*
%TO.P,U1,36,GPIO2*%
%TO.N,unconnected-(U1-GPIO2-Pad36)*%
X134620000Y-88900000D03*
%TO.P,U1,35,GPIO0*%
%TO.N,unconnected-(U1-GPIO0-Pad35)*%
X134620000Y-91440000D03*
%TO.P,U1,34,GPIO4*%
%TO.N,Temperature Data*%
X134620000Y-93980000D03*
%TO.P,U1,33,NC*%
%TO.N,unconnected-(U1-NC-Pad33)*%
X134620000Y-96520000D03*
%TO.P,U1,32,NC*%
%TO.N,unconnected-(U1-NC-Pad32)*%
X134620000Y-99060000D03*
%TO.P,U1,31,GPIO5*%
%TO.N,SS*%
X134620000Y-101600000D03*
%TO.P,U1,30,GPIO18*%
%TO.N,SCK*%
X134620000Y-104140000D03*
%TO.P,U1,29,GPIO19*%
%TO.N,MISO*%
X134620000Y-106680000D03*
%TO.P,U1,28,GND*%
%TO.N,unconnected-(U1-GND-Pad28)*%
X134620000Y-109220000D03*
%TO.P,U1,27,GPIO21*%
%TO.N,TX*%
X134620000Y-111760000D03*
%TO.P,U1,26,RX*%
%TO.N,unconnected-(U1-RX-Pad26)*%
X134620000Y-114300000D03*
%TO.P,U1,25,TX*%
%TO.N,unconnected-(U1-TX-Pad25)*%
X134620000Y-116840000D03*
%TO.P,U1,24,GPIO22*%
%TO.N,RX*%
X134620000Y-119380000D03*
%TO.P,U1,23,GPIO23*%
%TO.N,MOSI*%
X134620000Y-121920000D03*
%TO.P,U1,22,GND*%
%TO.N,GND*%
X134620000Y-124460000D03*
%TO.P,U1,21,SPK-*%
%TO.N,unconnected-(U1-SPK--Pad21)*%
X161290000Y-73660000D03*
%TO.P,U1,20,SPK+*%
%TO.N,unconnected-(U1-SPK+-Pad20)*%
X161290000Y-76200000D03*
%TO.P,U1,19,5V*%
%TO.N,+5V*%
X161290000Y-78740000D03*
%TO.P,U1,18,CMD*%
%TO.N,unconnected-(U1-CMD-Pad18)*%
X161290000Y-81280000D03*
%TO.P,U1,17,SD3*%
%TO.N,unconnected-(U1-SD3-Pad17)*%
X161290000Y-83820000D03*
%TO.P,U1,16,SD2*%
%TO.N,unconnected-(U1-SD2-Pad16)*%
X161290000Y-86360000D03*
%TO.P,U1,15,GPIO13*%
%TO.N,unconnected-(U1-GPIO13-Pad15)*%
X161290000Y-88900000D03*
%TO.P,U1,14,GND*%
%TO.N,unconnected-(U1-GND-Pad14)*%
X161290000Y-91440000D03*
%TO.P,U1,13,GPIO12*%
%TO.N,unconnected-(U1-GPIO12-Pad13)*%
X161290000Y-93980000D03*
%TO.P,U1,12,GPIO14*%
%TO.N,unconnected-(U1-GPIO14-Pad12)*%
X161290000Y-96520000D03*
%TO.P,U1,11,GPIO27*%
%TO.N,unconnected-(U1-GPIO27-Pad11)*%
X161290000Y-99060000D03*
%TO.P,U1,10,GPIO26*%
%TO.N,unconnected-(U1-GPIO26-Pad10)*%
X161290000Y-101600000D03*
%TO.P,U1,9,GPIO25*%
%TO.N,unconnected-(U1-GPIO25-Pad9)*%
X161290000Y-104140000D03*
%TO.P,U1,8,GPIO33*%
%TO.N,pH Analog*%
X161290000Y-106680000D03*
%TO.P,U1,7,GPIO32*%
%TO.N,Level Sensor*%
X161290000Y-109220000D03*
%TO.P,U1,6,GPIO35*%
%TO.N,unconnected-(U1-GPIO35-Pad6)*%
X161290000Y-111760000D03*
%TO.P,U1,5,GPIO34*%
%TO.N,unconnected-(U1-GPIO34-Pad5)*%
X161290000Y-114300000D03*
%TO.P,U1,4,GPIO39*%
%TO.N,unconnected-(U1-GPIO39-Pad4)*%
X161290000Y-116840000D03*
%TO.P,U1,3,GPIO36*%
%TO.N,unconnected-(U1-GPIO36-Pad3)*%
X161290000Y-119380000D03*
%TO.P,U1,2,NC*%
%TO.N,unconnected-(U1-NC-Pad2)*%
X161290000Y-121920000D03*
%TO.P,U1,1,3V3*%
%TO.N,+3.3V*%
X161290000Y-124460000D03*
%TD*%
D11*
%TO.P,J6,2,Pin_2*%
%TO.N,Net-(J6-Pin_2)*%
X190499999Y-114299999D03*
D12*
%TO.P,J6,1,Pin_1*%
%TO.N,Net-(J6-Pin_1)*%
X190499999Y-111759999D03*
%TD*%
%TO.P,J5,1,Pin_1*%
%TO.N,GND*%
X190499999Y-91439999D03*
D11*
%TO.P,J5,2,Pin_2*%
%TO.N,+3.3V*%
X190499999Y-93979999D03*
%TO.P,J5,3,Pin_3*%
%TO.N,Level Sensor*%
X190499999Y-96519999D03*
%TD*%
D12*
%TO.P,J4,1,Pin_1*%
%TO.N,GND*%
X190499999Y-73659999D03*
D11*
%TO.P,J4,2,Pin_2*%
%TO.N,Temperature Data*%
X190499999Y-76199999D03*
%TO.P,J4,3,Pin_3*%
%TO.N,+3.3V*%
X190499999Y-78739999D03*
%TD*%
D12*
%TO.P,J2,1,Pin_1*%
%TO.N,GND*%
X107949999Y-83819999D03*
D11*
%TO.P,J2,2,Pin_2*%
%TO.N,+3.3V*%
X107949999Y-86359999D03*
%TO.P,J2,3,Pin_3*%
%TO.N,pH Analog*%
X107949999Y-88899999D03*
%TD*%
D12*
%TO.P,J3,1,Pin_1*%
%TO.N,+3.3V*%
X107949999Y-121919999D03*
D11*
%TO.P,J3,2,Pin_2*%
%TO.N,GND*%
X107949999Y-124459999D03*
%TO.P,J3,3,Pin_3*%
%TO.N,unconnected-(J3-Pin_3-Pad3)*%
X107949999Y-126999999D03*
%TO.P,J3,4,Pin_4*%
%TO.N,TX*%
X107949999Y-129539999D03*
%TO.P,J3,5,Pin_5*%
%TO.N,RX*%
X107949999Y-132079999D03*
%TD*%
D12*
%TO.P,J1,1,Pin_1*%
%TO.N,MISO*%
X149859999Y-147319999D03*
D11*
%TO.P,J1,2,Pin_2*%
%TO.N,SCK*%
X147319999Y-147319999D03*
%TO.P,J1,3,Pin_3*%
%TO.N,SS*%
X144779999Y-147319999D03*
%TO.P,J1,4,Pin_4*%
%TO.N,MOSI*%
X142239999Y-147319999D03*
%TO.P,J1,5,Pin_5*%
%TO.N,GND*%
X139699999Y-147319999D03*
%TO.P,J1,6,Pin_6*%
%TO.N,+5V*%
X137159999Y-147319999D03*
%TD*%
D13*
%TO.P,MT3608 Module,1,VIN+*%
%TO.N,+5V*%
X182880000Y-147520000D03*
%TO.P,MT3608 Module,2,VIN-*%
%TO.N,GND*%
X172680000Y-147520000D03*
%TO.P,MT3608 Module,3,VOUT+*%
%TO.N,Net-(J6-Pin_2)*%
X182880000Y-121920000D03*
%TO.P,MT3608 Module,4,VOUT-*%
%TO.N,Net-(J6-Pin_1)*%
X172680000Y-121920000D03*
%TD*%
D14*
%TO.P,R1,1*%
%TO.N,+3.3V*%
X175260000Y-81280000D03*
D15*
%TO.P,R1,2*%
%TO.N,Temperature Data*%
X175259999Y-71119999D03*
%TD*%
D16*
%TO.N,Level Sensor*%
X182880000Y-96520000D03*
%TO.N,MISO*%
X149860000Y-109220000D03*
%TO.N,SCK*%
X144780000Y-104140000D03*
%TD*%
D17*
%TO.N,+3.3V*%
X147320000Y-124460000D02*
X161290000Y-124460000D01*
X132080000Y-134620000D02*
X137160000Y-134620000D01*
X121920000Y-144780000D02*
X132080000Y-134620000D01*
X102870000Y-127000000D02*
X102870000Y-141732000D01*
X137160000Y-134620000D02*
X147320000Y-124460000D01*
X107950000Y-121920000D02*
X102870000Y-127000000D01*
X102870000Y-141732000D02*
X105918000Y-144780000D01*
X105918000Y-144780000D02*
X121920000Y-144780000D01*
X162560000Y-124460000D02*
X161290000Y-124460000D01*
X165100000Y-121920000D02*
X162560000Y-124460000D01*
X165100000Y-116840000D02*
X165100000Y-121920000D01*
X187960000Y-93980000D02*
X165100000Y-116840000D01*
X190500000Y-93980000D02*
X187960000Y-93980000D01*
%TO.N,Level Sensor*%
X180340000Y-96520000D02*
X182880000Y-96520000D01*
X167640000Y-109220000D02*
X180340000Y-96520000D01*
X161290000Y-109220000D02*
X167640000Y-109220000D01*
%TO.N,pH Analog*%
X111760000Y-88900000D02*
X107950000Y-88900000D01*
X119380000Y-73660000D02*
X119380000Y-81280000D01*
X119380000Y-81280000D02*
X111760000Y-88900000D01*
X142240000Y-73660000D02*
X137160000Y-68580000D01*
X137160000Y-68580000D02*
X124460000Y-68580000D01*
X124460000Y-68580000D02*
X119380000Y-73660000D01*
X142240000Y-99060000D02*
X142240000Y-73660000D01*
X149860000Y-106680000D02*
X142240000Y-99060000D01*
X161290000Y-106680000D02*
X149860000Y-106680000D01*
%TO.N,+5V*%
X178000000Y-152400000D02*
X182880000Y-147520000D01*
X142240000Y-152400000D02*
X178000000Y-152400000D01*
X137160000Y-147320000D02*
X142240000Y-152400000D01*
%TO.N,MISO*%
X147320000Y-106680000D02*
X134620000Y-106680000D01*
X149860000Y-109220000D02*
X147320000Y-106680000D01*
%TO.N,SCK*%
X144780000Y-104140000D02*
X134620000Y-104140000D01*
%TO.N,GND*%
X107950000Y-124460000D02*
X134620000Y-124460000D01*
%TD*%
%TA.AperFunction,Conductor*%
%TO.N,GND*%
G36*
X193042562Y-55880605D02*
G01*
X193257373Y-55889490D01*
X193460249Y-55898348D01*
X193470120Y-55899177D01*
X193685510Y-55926026D01*
X193685963Y-55926084D01*
X193888504Y-55952749D01*
X193897718Y-55954319D01*
X194109797Y-55998787D01*
X194110827Y-55999009D01*
X194310566Y-56043290D01*
X194319092Y-56045502D01*
X194456957Y-56086546D01*
X194526503Y-56107251D01*
X194528407Y-56107835D01*
X194579925Y-56124078D01*
X194723404Y-56169316D01*
X194731119Y-56172034D01*
X194932754Y-56250712D01*
X194935027Y-56251626D01*
X195123987Y-56329896D01*
X195130965Y-56333043D01*
X195325405Y-56428098D01*
X195328080Y-56429449D01*
X195418300Y-56476415D01*
X195509482Y-56523882D01*
X195515698Y-56527348D01*
X195701533Y-56638081D01*
X195704685Y-56640024D01*
X195877116Y-56749875D01*
X195882545Y-56753538D01*
X196058570Y-56879218D01*
X196062002Y-56881759D01*
X196224219Y-57006232D01*
X196228874Y-57009985D01*
X196393920Y-57149771D01*
X196397552Y-57152972D01*
X196548327Y-57291132D01*
X196552235Y-57294873D01*
X196705125Y-57447763D01*
X196708866Y-57451671D01*
X196847026Y-57602446D01*
X196850227Y-57606078D01*
X196990013Y-57771124D01*
X196993766Y-57775779D01*
X197118239Y-57937996D01*
X197120780Y-57941428D01*
X197246460Y-58117453D01*
X197250123Y-58122882D01*
X197359974Y-58295313D01*
X197361917Y-58298465D01*
X197472650Y-58484300D01*
X197476116Y-58490516D01*
X197570534Y-58671889D01*
X197571946Y-58674686D01*
X197666942Y-58869004D01*
X197670102Y-58876011D01*
X197748351Y-59064920D01*
X197749307Y-59067298D01*
X197801305Y-59200556D01*
X197810932Y-59225229D01*
X197827949Y-59268838D01*
X197830693Y-59276627D01*
X197892163Y-59471591D01*
X197892747Y-59473495D01*
X197954494Y-59680898D01*
X197956710Y-59689441D01*
X198000949Y-59888987D01*
X198001249Y-59890380D01*
X198045675Y-60102260D01*
X198047253Y-60111521D01*
X198073887Y-60313829D01*
X198073996Y-60314676D01*
X198100818Y-60529849D01*
X198101652Y-60539778D01*
X198110512Y-60742701D01*
X198110524Y-60742986D01*
X198119394Y-60957438D01*
X198119500Y-60962562D01*
X198119500Y-149857438D01*
X198119394Y-149862562D01*
X198110524Y-150077013D01*
X198110512Y-150077298D01*
X198101652Y-150280220D01*
X198100818Y-150290149D01*
X198073996Y-150505322D01*
X198073887Y-150506169D01*
X198047253Y-150708477D01*
X198045675Y-150717738D01*
X198001249Y-150929618D01*
X198000949Y-150931011D01*
X197956710Y-151130557D01*
X197954494Y-151139100D01*
X197892747Y-151346503D01*
X197892163Y-151348407D01*
X197830693Y-151543371D01*
X197827949Y-151551160D01*
X197749307Y-151752700D01*
X197748351Y-151755078D01*
X197670102Y-151943987D01*
X197666942Y-151950994D01*
X197571946Y-152145312D01*
X197570534Y-152148109D01*
X197476116Y-152329482D01*
X197472650Y-152335698D01*
X197361917Y-152521533D01*
X197359974Y-152524685D01*
X197250123Y-152697116D01*
X197246460Y-152702545D01*
X197120780Y-152878570D01*
X197118239Y-152882002D01*
X196993766Y-153044219D01*
X196990013Y-153048874D01*
X196850227Y-153213920D01*
X196847026Y-153217552D01*
X196708866Y-153368327D01*
X196705125Y-153372235D01*
X196552235Y-153525125D01*
X196548327Y-153528866D01*
X196397552Y-153667026D01*
X196393920Y-153670227D01*
X196228874Y-153810013D01*
X196224219Y-153813766D01*
X196062002Y-153938239D01*
X196058570Y-153940780D01*
X195882545Y-154066460D01*
X195877116Y-154070123D01*
X195704685Y-154179974D01*
X195701533Y-154181917D01*
X195515698Y-154292650D01*
X195509482Y-154296116D01*
X195328109Y-154390534D01*
X195325312Y-154391946D01*
X195130994Y-154486942D01*
X195123987Y-154490102D01*
X194935078Y-154568351D01*
X194932700Y-154569307D01*
X194731160Y-154647949D01*
X194723371Y-154650693D01*
X194528407Y-154712163D01*
X194526503Y-154712747D01*
X194319100Y-154774494D01*
X194310557Y-154776710D01*
X194111011Y-154820949D01*
X194109618Y-154821249D01*
X193897738Y-154865675D01*
X193888477Y-154867253D01*
X193686169Y-154893887D01*
X193685322Y-154893996D01*
X193470149Y-154920818D01*
X193460220Y-154921652D01*
X193257408Y-154930507D01*
X193257124Y-154930519D01*
X193042563Y-154939394D01*
X193037438Y-154939500D01*
X104142562Y-154939500D01*
X104137437Y-154939394D01*
X103922874Y-154930519D01*
X103922590Y-154930507D01*
X103719778Y-154921652D01*
X103709849Y-154920818D01*
X103494676Y-154893996D01*
X103493829Y-154893887D01*
X103291521Y-154867253D01*
X103282260Y-154865675D01*
X103070380Y-154821249D01*
X103068987Y-154820949D01*
X102869441Y-154776710D01*
X102860898Y-154774494D01*
X102653495Y-154712747D01*
X102651591Y-154712163D01*
X102456627Y-154650693D01*
X102448845Y-154647951D01*
X102318255Y-154596995D01*
X102247298Y-154569307D01*
X102244920Y-154568351D01*
X102056011Y-154490102D01*
X102049004Y-154486942D01*
X101854657Y-154391931D01*
X101851889Y-154390534D01*
X101670516Y-154296116D01*
X101664300Y-154292650D01*
X101478465Y-154181917D01*
X101475313Y-154179974D01*
X101302882Y-154070123D01*
X101297453Y-154066460D01*
X101121428Y-153940780D01*
X101117996Y-153938239D01*
X100955779Y-153813766D01*
X100951124Y-153810013D01*
X100786078Y-153670227D01*
X100782446Y-153667026D01*
X100631671Y-153528866D01*
X100627763Y-153525125D01*
X100474873Y-153372235D01*
X100471132Y-153368327D01*
X100332972Y-153217552D01*
X100329771Y-153213920D01*
X100189985Y-153048874D01*
X100186232Y-153044219D01*
X100061759Y-152882002D01*
X100059218Y-152878570D01*
X99933538Y-152702545D01*
X99929875Y-152697116D01*
X99820024Y-152524685D01*
X99818081Y-152521533D01*
X99707348Y-152335698D01*
X99703882Y-152329482D01*
X99609464Y-152148109D01*
X99608098Y-152145404D01*
X99513043Y-151950965D01*
X99509896Y-151943987D01*
X99431626Y-151755027D01*
X99430712Y-151752754D01*
X99352034Y-151551119D01*
X99349316Y-151543404D01*
X99287835Y-151348407D01*
X99287251Y-151346503D01*
X99225504Y-151139100D01*
X99223288Y-151130557D01*
X99179009Y-150930827D01*
X99178787Y-150929797D01*
X99134319Y-150717718D01*
X99132749Y-150708504D01*
X99106084Y-150505963D01*
X99106025Y-150505502D01*
X99079177Y-150290120D01*
X99078348Y-150280249D01*
X99069487Y-150077298D01*
X99065925Y-149991182D01*
X102389500Y-149991182D01*
X102390189Y-149995754D01*
X102390190Y-149995765D01*
X102427912Y-150246028D01*
X102427913Y-150246035D01*
X102428604Y-150250615D01*
X102429969Y-150255043D01*
X102429971Y-150255048D01*
X102504569Y-150496891D01*
X102504573Y-150496901D01*
X102505937Y-150501323D01*
X102507946Y-150505496D01*
X102507949Y-150505502D01*
X102515172Y-150520500D01*
X102619772Y-150737704D01*
X102767567Y-150954479D01*
X102946019Y-151146805D01*
X103151143Y-151310386D01*
X103378357Y-151441568D01*
X103622584Y-151537420D01*
X103878370Y-151595802D01*
X104074506Y-151610500D01*
X104203177Y-151610500D01*
X104205494Y-151610500D01*
X104401630Y-151595802D01*
X104657416Y-151537420D01*
X104901643Y-151441568D01*
X105128857Y-151310386D01*
X105333981Y-151146805D01*
X105512433Y-150954479D01*
X105660228Y-150737704D01*
X105774063Y-150501323D01*
X105851396Y-150250615D01*
X105890500Y-149991182D01*
X105890500Y-149728818D01*
X105851396Y-149469385D01*
X105774063Y-149218677D01*
X105660228Y-148982296D01*
X105512433Y-148765521D01*
X105333981Y-148573195D01*
X105128857Y-148409614D01*
X104912590Y-148284752D01*
X104905664Y-148280753D01*
X104905658Y-148280750D01*
X104901643Y-148278432D01*
X104897324Y-148276737D01*
X104897318Y-148276734D01*
X104661738Y-148184276D01*
X104661734Y-148184275D01*
X104657416Y-148182580D01*
X104652893Y-148181547D01*
X104652891Y-148181547D01*
X104406149Y-148125229D01*
X104406143Y-148125228D01*
X104401630Y-148124198D01*
X104397008Y-148123851D01*
X104397004Y-148123851D01*
X104207808Y-148109673D01*
X104207797Y-148109672D01*
X104205494Y-148109500D01*
X104074506Y-148109500D01*
X104072203Y-148109672D01*
X104072191Y-148109673D01*
X103882995Y-148123851D01*
X103882989Y-148123851D01*
X103878370Y-148124198D01*
X103873858Y-148125227D01*
X103873850Y-148125229D01*
X103627108Y-148181547D01*
X103627102Y-148181548D01*
X103622584Y-148182580D01*
X103618268Y-148184273D01*
X103618261Y-148184276D01*
X103382681Y-148276734D01*
X103382670Y-148276739D01*
X103378357Y-148278432D01*
X103374346Y-148280747D01*
X103374335Y-148280753D01*
X103160830Y-148404021D01*
X103151143Y-148409614D01*
X103147519Y-148412503D01*
X103147516Y-148412506D01*
X102949646Y-148570302D01*
X102949641Y-148570306D01*
X102946019Y-148573195D01*
X102942865Y-148576593D01*
X102942863Y-148576596D01*
X102770719Y-148762123D01*
X102770713Y-148762129D01*
X102767567Y-148765521D01*
X102619772Y-148982296D01*
X102617759Y-148986474D01*
X102617756Y-148986481D01*
X102507949Y-149214497D01*
X102507944Y-149214508D01*
X102505937Y-149218677D01*
X102504574Y-149223093D01*
X102504569Y-149223108D01*
X102429971Y-149464951D01*
X102429968Y-149464959D01*
X102428604Y-149469385D01*
X102427914Y-149473961D01*
X102427912Y-149473971D01*
X102390190Y-149724234D01*
X102390189Y-149724246D01*
X102389500Y-149728818D01*
X102389500Y-149991182D01*
X99065925Y-149991182D01*
X99060605Y-149862562D01*
X99060500Y-149857439D01*
X99060500Y-147320000D01*
X135804341Y-147320000D01*
X135824937Y-147555408D01*
X135826336Y-147560630D01*
X135826337Y-147560634D01*
X135884694Y-147778430D01*
X135884697Y-147778438D01*
X135886097Y-147783663D01*
X135888385Y-147788570D01*
X135888386Y-147788572D01*
X135983678Y-147992927D01*
X135983681Y-147992933D01*
X135985965Y-147997830D01*
X135989064Y-148002257D01*
X135989066Y-148002259D01*
X136118399Y-148186966D01*
X136118402Y-148186970D01*
X136121505Y-148191401D01*
X136288599Y-148358495D01*
X136293031Y-148361598D01*
X136293033Y-148361600D01*
X136437260Y-148462589D01*
X136482170Y-148494035D01*
X136696337Y-148593903D01*
X136924592Y-148655063D01*
X137050096Y-148666043D01*
X137091693Y-148677189D01*
X137126969Y-148701890D01*
X141522431Y-153097351D01*
X141524624Y-153099600D01*
X141584941Y-153163053D01*
X141590100Y-153166644D01*
X141590104Y-153166647D01*
X141633362Y-153196755D01*
X141640871Y-153202416D01*
X141686593Y-153239698D01*
X141692171Y-153242611D01*
X141692170Y-153242611D01*
X141713556Y-153253782D01*
X141726980Y-153261915D01*
X141751951Y-153279295D01*
X141800787Y-153300252D01*
X141806163Y-153302559D01*
X141814675Y-153306602D01*
X141851886Y-153326040D01*
X141866951Y-153333909D01*
X141896199Y-153342277D01*
X141910975Y-153347538D01*
X141938942Y-153359540D01*
X141996718Y-153371413D01*
X142005866Y-153373658D01*
X142062582Y-153389887D01*
X142092916Y-153392196D01*
X142108463Y-153394377D01*
X142132095Y-153399234D01*
X142132102Y-153399234D01*
X142138259Y-153400500D01*
X142197241Y-153400500D01*
X142206656Y-153400858D01*
X142265476Y-153405337D01*
X142295651Y-153401493D01*
X142311317Y-153400500D01*
X177985722Y-153400500D01*
X177988862Y-153400539D01*
X178076363Y-153402757D01*
X178134458Y-153392344D01*
X178143739Y-153391042D01*
X178202438Y-153385074D01*
X178231464Y-153375966D01*
X178246713Y-153372224D01*
X178276653Y-153366858D01*
X178331423Y-153344980D01*
X178340303Y-153341818D01*
X178396588Y-153324159D01*
X178423194Y-153309390D01*
X178437362Y-153302662D01*
X178465617Y-153291377D01*
X178514891Y-153258902D01*
X178522910Y-153254043D01*
X178574502Y-153225409D01*
X178587884Y-153213920D01*
X178597583Y-153205594D01*
X178610125Y-153196137D01*
X178635519Y-153179402D01*
X178677238Y-153137681D01*
X178684122Y-153131301D01*
X178728895Y-153092866D01*
X178747524Y-153068798D01*
X178757884Y-153057035D01*
X181410117Y-150404802D01*
X181451631Y-150377399D01*
X181500577Y-150368516D01*
X181549075Y-150379585D01*
X181715317Y-150455096D01*
X181933588Y-150510096D01*
X182065783Y-150520500D01*
X183694216Y-150520499D01*
X183826412Y-150510096D01*
X184044683Y-150455096D01*
X184249626Y-150362007D01*
X184434654Y-150233819D01*
X184593819Y-150074654D01*
X184651649Y-149991182D01*
X191289500Y-149991182D01*
X191290189Y-149995754D01*
X191290190Y-149995765D01*
X191327912Y-150246028D01*
X191327913Y-150246035D01*
X191328604Y-150250615D01*
X191329969Y-150255043D01*
X191329971Y-150255048D01*
X191404569Y-150496891D01*
X191404573Y-150496901D01*
X191405937Y-150501323D01*
X191407946Y-150505496D01*
X191407949Y-150505502D01*
X191415172Y-150520500D01*
X191519772Y-150737704D01*
X191667567Y-150954479D01*
X191846019Y-151146805D01*
X192051143Y-151310386D01*
X192278357Y-151441568D01*
X192522584Y-151537420D01*
X192778370Y-151595802D01*
X192974506Y-151610500D01*
X193103177Y-151610500D01*
X193105494Y-151610500D01*
X193301630Y-151595802D01*
X193557416Y-151537420D01*
X193801643Y-151441568D01*
X194028857Y-151310386D01*
X194233981Y-151146805D01*
X194412433Y-150954479D01*
X194560228Y-150737704D01*
X194674063Y-150501323D01*
X194751396Y-150250615D01*
X194790500Y-149991182D01*
X194790500Y-149728818D01*
X194751396Y-149469385D01*
X194674063Y-149218677D01*
X194560228Y-148982296D01*
X194412433Y-148765521D01*
X194233981Y-148573195D01*
X194028857Y-148409614D01*
X193812590Y-148284752D01*
X193805664Y-148280753D01*
X193805658Y-148280750D01*
X193801643Y-148278432D01*
X193797324Y-148276737D01*
X193797318Y-148276734D01*
X193561738Y-148184276D01*
X193561734Y-148184275D01*
X193557416Y-148182580D01*
X193552893Y-148181547D01*
X193552891Y-148181547D01*
X193306149Y-148125229D01*
X193306143Y-148125228D01*
X193301630Y-148124198D01*
X193297008Y-148123851D01*
X193297004Y-148123851D01*
X193107808Y-148109673D01*
X193107797Y-148109672D01*
X193105494Y-148109500D01*
X192974506Y-148109500D01*
X192972203Y-148109672D01*
X192972191Y-148109673D01*
X192782995Y-148123851D01*
X192782989Y-148123851D01*
X192778370Y-148124198D01*
X192773858Y-148125227D01*
X192773850Y-148125229D01*
X192527108Y-148181547D01*
X192527102Y-148181548D01*
X192522584Y-148182580D01*
X192518268Y-148184273D01*
X192518261Y-148184276D01*
X192282681Y-148276734D01*
X192282670Y-148276739D01*
X192278357Y-148278432D01*
X192274346Y-148280747D01*
X192274335Y-148280753D01*
X192060830Y-148404021D01*
X192051143Y-148409614D01*
X192047519Y-148412503D01*
X192047516Y-148412506D01*
X191849646Y-148570302D01*
X191849641Y-148570306D01*
X191846019Y-148573195D01*
X191842865Y-148576593D01*
X191842863Y-148576596D01*
X191670719Y-148762123D01*
X191670713Y-148762129D01*
X191667567Y-148765521D01*
X191519772Y-148982296D01*
X191517759Y-148986474D01*
X191517756Y-148986481D01*
X191407949Y-149214497D01*
X191407944Y-149214508D01*
X191405937Y-149218677D01*
X191404574Y-149223093D01*
X191404569Y-149223108D01*
X191329971Y-149464951D01*
X191329968Y-149464959D01*
X191328604Y-149469385D01*
X191327914Y-149473961D01*
X191327912Y-149473971D01*
X191290190Y-149724234D01*
X191290189Y-149724246D01*
X191289500Y-149728818D01*
X191289500Y-149991182D01*
X184651649Y-149991182D01*
X184722007Y-149889626D01*
X184815096Y-149684683D01*
X184870096Y-149466412D01*
X184880500Y-149334217D01*
X184880499Y-145705784D01*
X184870096Y-145573588D01*
X184815096Y-145355317D01*
X184722007Y-145150374D01*
X184597217Y-144970250D01*
X184596994Y-144969928D01*
X184596990Y-144969923D01*
X184593819Y-144965346D01*
X184434654Y-144806181D01*
X184430077Y-144803010D01*
X184430071Y-144803005D01*
X184254206Y-144681166D01*
X184254205Y-144681165D01*
X184249626Y-144677993D01*
X184168684Y-144641227D01*
X184049756Y-144587208D01*
X184049753Y-144587207D01*
X184044683Y-144584904D01*
X184039278Y-144583542D01*
X183831479Y-144531180D01*
X183831470Y-144531178D01*
X183826412Y-144529904D01*
X183821211Y-144529494D01*
X183821207Y-144529494D01*
X183696651Y-144519691D01*
X183696636Y-144519690D01*
X183694217Y-144519500D01*
X183691771Y-144519500D01*
X182068229Y-144519500D01*
X182068203Y-144519500D01*
X182065784Y-144519501D01*
X182063365Y-144519691D01*
X182063348Y-144519692D01*
X181938791Y-144529494D01*
X181938784Y-144529495D01*
X181933588Y-144529904D01*
X181928528Y-144531179D01*
X181928522Y-144531180D01*
X181720721Y-144583542D01*
X181720717Y-144583543D01*
X181715317Y-144584904D01*
X181710249Y-144587205D01*
X181710243Y-144587208D01*
X181515448Y-144675688D01*
X181515445Y-144675689D01*
X181510374Y-144677993D01*
X181505798Y-144681162D01*
X181505793Y-144681166D01*
X181329928Y-144803005D01*
X181329916Y-144803014D01*
X181325346Y-144806181D01*
X181321409Y-144810117D01*
X181321403Y-144810123D01*
X181170123Y-144961403D01*
X181170117Y-144961409D01*
X181166181Y-144965346D01*
X181163014Y-144969916D01*
X181163005Y-144969928D01*
X181041166Y-145145793D01*
X181041162Y-145145798D01*
X181037993Y-145150374D01*
X181035689Y-145155445D01*
X181035688Y-145155448D01*
X180947208Y-145350243D01*
X180947205Y-145350249D01*
X180944904Y-145355317D01*
X180943543Y-145360717D01*
X180943542Y-145360721D01*
X180891180Y-145568520D01*
X180891178Y-145568531D01*
X180889904Y-145573588D01*
X180889494Y-145578786D01*
X180889494Y-145578792D01*
X180879691Y-145703348D01*
X180879690Y-145703364D01*
X180879500Y-145705783D01*
X180879500Y-145708228D01*
X180879500Y-148054216D01*
X180870061Y-148101669D01*
X180843181Y-148141897D01*
X177621899Y-151363181D01*
X177581671Y-151390061D01*
X177534218Y-151399500D01*
X142705783Y-151399500D01*
X142658330Y-151390061D01*
X142618102Y-151363181D01*
X140586665Y-149331744D01*
X170680001Y-149331744D01*
X170680192Y-149336625D01*
X170689990Y-149461129D01*
X170691674Y-149471392D01*
X170744017Y-149679120D01*
X170747679Y-149689585D01*
X170836126Y-149884306D01*
X170841603Y-149893958D01*
X170963390Y-150069749D01*
X170970508Y-150078274D01*
X171121725Y-150229491D01*
X171130250Y-150236609D01*
X171306041Y-150358396D01*
X171315693Y-150363873D01*
X171510414Y-150452320D01*
X171520879Y-150455982D01*
X171728608Y-150508325D01*
X171738869Y-150510009D01*
X171863374Y-150519808D01*
X171868254Y-150520000D01*
X172413674Y-150520000D01*
X172426549Y-150516549D01*
X172430000Y-150503674D01*
X172430000Y-150503673D01*
X172930000Y-150503673D01*
X172933450Y-150516548D01*
X172946326Y-150519999D01*
X173491744Y-150519999D01*
X173496625Y-150519807D01*
X173621129Y-150510009D01*
X173631392Y-150508325D01*
X173839120Y-150455982D01*
X173849585Y-150452320D01*
X174044306Y-150363873D01*
X174053958Y-150358396D01*
X174229749Y-150236609D01*
X174238274Y-150229491D01*
X174389491Y-150078274D01*
X174396609Y-150069749D01*
X174518396Y-149893958D01*
X174523873Y-149884306D01*
X174612320Y-149689585D01*
X174615982Y-149679120D01*
X174668325Y-149471391D01*
X174670009Y-149461130D01*
X174679808Y-149336625D01*
X174680000Y-149331746D01*
X174680000Y-147786326D01*
X174676549Y-147773450D01*
X174663674Y-147770000D01*
X172946326Y-147770000D01*
X172933450Y-147773450D01*
X172930000Y-147786326D01*
X172930000Y-150503673D01*
X172430000Y-150503673D01*
X172430000Y-147786326D01*
X172426549Y-147773450D01*
X172413674Y-147770000D01*
X170696327Y-147770000D01*
X170683451Y-147773450D01*
X170680001Y-147786326D01*
X170680001Y-149331744D01*
X140586665Y-149331744D01*
X140066817Y-148811896D01*
X140034723Y-148756308D01*
X140034723Y-148692121D01*
X140066817Y-148636533D01*
X140122405Y-148604440D01*
X140158261Y-148594832D01*
X140168397Y-148591143D01*
X140372676Y-148495886D01*
X140382008Y-148490498D01*
X140566643Y-148361215D01*
X140574909Y-148354278D01*
X140734278Y-148194909D01*
X140741219Y-148186638D01*
X140868119Y-148005406D01*
X140912437Y-147966540D01*
X140969694Y-147952529D01*
X141026951Y-147966540D01*
X141071269Y-148005405D01*
X141198399Y-148186966D01*
X141198402Y-148186970D01*
X141201505Y-148191401D01*
X141368599Y-148358495D01*
X141373031Y-148361598D01*
X141373033Y-148361600D01*
X141517260Y-148462589D01*
X141562170Y-148494035D01*
X141776337Y-148593903D01*
X142004592Y-148655063D01*
X142240000Y-148675659D01*
X142475408Y-148655063D01*
X142703663Y-148593903D01*
X142917830Y-148494035D01*
X143111401Y-148358495D01*
X143278495Y-148191401D01*
X143408424Y-148005842D01*
X143452743Y-147966976D01*
X143510000Y-147952965D01*
X143567257Y-147966976D01*
X143611575Y-148005842D01*
X143738395Y-148186961D01*
X143738401Y-148186968D01*
X143741505Y-148191401D01*
X143908599Y-148358495D01*
X143913031Y-148361598D01*
X143913033Y-148361600D01*
X144057260Y-148462589D01*
X144102170Y-148494035D01*
X144316337Y-148593903D01*
X144544592Y-148655063D01*
X144780000Y-148675659D01*
X145015408Y-148655063D01*
X145243663Y-148593903D01*
X145457830Y-148494035D01*
X145651401Y-148358495D01*
X145818495Y-148191401D01*
X145948424Y-148005842D01*
X145992743Y-147966976D01*
X146050000Y-147952965D01*
X146107257Y-147966976D01*
X146151575Y-148005842D01*
X146278395Y-148186961D01*
X146278401Y-148186968D01*
X146281505Y-148191401D01*
X146448599Y-148358495D01*
X146453031Y-148361598D01*
X146453033Y-148361600D01*
X146597260Y-148462589D01*
X146642170Y-148494035D01*
X146856337Y-148593903D01*
X147084592Y-148655063D01*
X147320000Y-148675659D01*
X147555408Y-148655063D01*
X147783663Y-148593903D01*
X147997830Y-148494035D01*
X148191401Y-148358495D01*
X148313329Y-148236566D01*
X148366072Y-148205273D01*
X148427365Y-148203084D01*
X148482210Y-148230537D01*
X148517189Y-148280916D01*
X148566204Y-148412331D01*
X148571518Y-148419430D01*
X148571519Y-148419431D01*
X148627367Y-148494035D01*
X148652454Y-148527546D01*
X148767669Y-148613796D01*
X148902517Y-148664091D01*
X148962127Y-148670500D01*
X150757872Y-148670499D01*
X150817483Y-148664091D01*
X150952331Y-148613796D01*
X151067546Y-148527546D01*
X151153796Y-148412331D01*
X151204091Y-148277483D01*
X151210500Y-148217873D01*
X151210499Y-147253674D01*
X170680000Y-147253674D01*
X170683450Y-147266549D01*
X170696326Y-147270000D01*
X172413674Y-147270000D01*
X172426549Y-147266549D01*
X172430000Y-147253674D01*
X172930000Y-147253674D01*
X172933450Y-147266549D01*
X172946326Y-147270000D01*
X174663673Y-147270000D01*
X174676548Y-147266549D01*
X174679999Y-147253674D01*
X174679999Y-145708256D01*
X174679807Y-145703374D01*
X174670009Y-145578870D01*
X174668325Y-145568607D01*
X174615982Y-145360879D01*
X174612320Y-145350414D01*
X174523873Y-145155693D01*
X174518396Y-145146041D01*
X174396609Y-144970250D01*
X174389491Y-144961725D01*
X174238274Y-144810508D01*
X174229749Y-144803390D01*
X174053958Y-144681603D01*
X174044306Y-144676126D01*
X173849585Y-144587679D01*
X173839120Y-144584017D01*
X173631391Y-144531674D01*
X173621130Y-144529990D01*
X173496625Y-144520191D01*
X173491746Y-144520000D01*
X172946326Y-144520000D01*
X172933450Y-144523450D01*
X172930000Y-144536326D01*
X172930000Y-147253674D01*
X172430000Y-147253674D01*
X172430000Y-144536327D01*
X172426549Y-144523451D01*
X172413674Y-144520001D01*
X171868256Y-144520001D01*
X171863374Y-144520192D01*
X171738870Y-144529990D01*
X171728607Y-144531674D01*
X171520879Y-144584017D01*
X171510414Y-144587679D01*
X171315693Y-144676126D01*
X171306041Y-144681603D01*
X171130250Y-144803390D01*
X171121725Y-144810508D01*
X170970508Y-144961725D01*
X170963390Y-144970250D01*
X170841603Y-145146041D01*
X170836126Y-145155693D01*
X170747679Y-145350414D01*
X170744017Y-145360879D01*
X170691674Y-145568608D01*
X170689990Y-145578869D01*
X170680191Y-145703374D01*
X170680000Y-145708254D01*
X170680000Y-147253674D01*
X151210499Y-147253674D01*
X151210499Y-146422128D01*
X151204091Y-146362517D01*
X151153796Y-146227669D01*
X151067546Y-146112454D01*
X150977030Y-146044694D01*
X150959431Y-146031519D01*
X150959430Y-146031518D01*
X150952331Y-146026204D01*
X150845442Y-145986337D01*
X150824752Y-145978620D01*
X150824750Y-145978619D01*
X150817483Y-145975909D01*
X150809770Y-145975079D01*
X150809767Y-145975079D01*
X150761180Y-145969855D01*
X150761169Y-145969854D01*
X150757873Y-145969500D01*
X150754550Y-145969500D01*
X148965439Y-145969500D01*
X148965420Y-145969500D01*
X148962128Y-145969501D01*
X148958850Y-145969853D01*
X148958838Y-145969854D01*
X148910231Y-145975079D01*
X148910225Y-145975080D01*
X148902517Y-145975909D01*
X148895252Y-145978618D01*
X148895246Y-145978620D01*
X148775980Y-146023104D01*
X148775978Y-146023104D01*
X148767669Y-146026204D01*
X148760572Y-146031516D01*
X148760568Y-146031519D01*
X148659550Y-146107141D01*
X148659546Y-146107144D01*
X148652454Y-146112454D01*
X148647144Y-146119546D01*
X148647141Y-146119550D01*
X148571519Y-146220568D01*
X148571516Y-146220572D01*
X148566204Y-146227669D01*
X148563104Y-146235978D01*
X148563105Y-146235978D01*
X148517189Y-146359083D01*
X148482210Y-146409462D01*
X148427365Y-146436915D01*
X148366072Y-146434726D01*
X148313326Y-146403430D01*
X148195232Y-146285336D01*
X148195230Y-146285334D01*
X148191401Y-146281505D01*
X148186970Y-146278402D01*
X148186966Y-146278399D01*
X148002259Y-146149066D01*
X148002257Y-146149064D01*
X147997830Y-146145965D01*
X147992933Y-146143681D01*
X147992927Y-146143678D01*
X147788572Y-146048386D01*
X147788570Y-146048385D01*
X147783663Y-146046097D01*
X147778438Y-146044697D01*
X147778430Y-146044694D01*
X147560634Y-145986337D01*
X147560630Y-145986336D01*
X147555408Y-145984937D01*
X147550020Y-145984465D01*
X147550017Y-145984465D01*
X147325395Y-145964813D01*
X147320000Y-145964341D01*
X147314605Y-145964813D01*
X147089982Y-145984465D01*
X147089977Y-145984465D01*
X147084592Y-145984937D01*
X147079371Y-145986335D01*
X147079365Y-145986337D01*
X146861569Y-146044694D01*
X146861557Y-146044698D01*
X146856337Y-146046097D01*
X146851432Y-146048383D01*
X146851427Y-146048386D01*
X146647081Y-146143675D01*
X146647077Y-146143677D01*
X146642171Y-146145965D01*
X146637738Y-146149068D01*
X146637731Y-146149073D01*
X146453034Y-146278399D01*
X146453029Y-146278402D01*
X146448599Y-146281505D01*
X146444775Y-146285328D01*
X146444769Y-146285334D01*
X146285334Y-146444769D01*
X146285328Y-146444775D01*
X146281505Y-146448599D01*
X146278402Y-146453029D01*
X146278399Y-146453034D01*
X146151575Y-146634159D01*
X146107257Y-146673025D01*
X146050000Y-146687036D01*
X145992743Y-146673025D01*
X145948425Y-146634159D01*
X145937327Y-146618310D01*
X145818495Y-146448599D01*
X145651401Y-146281505D01*
X145646970Y-146278402D01*
X145646966Y-146278399D01*
X145462259Y-146149066D01*
X145462257Y-146149064D01*
X145457830Y-146145965D01*
X145452933Y-146143681D01*
X145452927Y-146143678D01*
X145248572Y-146048386D01*
X145248570Y-146048385D01*
X145243663Y-146046097D01*
X145238438Y-146044697D01*
X145238430Y-146044694D01*
X145020634Y-145986337D01*
X145020630Y-145986336D01*
X145015408Y-145984937D01*
X145010020Y-145984465D01*
X145010017Y-145984465D01*
X144785395Y-145964813D01*
X144780000Y-145964341D01*
X144774605Y-145964813D01*
X144549982Y-145984465D01*
X144549977Y-145984465D01*
X144544592Y-145984937D01*
X144539371Y-145986335D01*
X144539365Y-145986337D01*
X144321569Y-146044694D01*
X144321557Y-146044698D01*
X144316337Y-146046097D01*
X144311432Y-146048383D01*
X144311427Y-146048386D01*
X144107081Y-146143675D01*
X144107077Y-146143677D01*
X144102171Y-146145965D01*
X144097738Y-146149068D01*
X144097731Y-146149073D01*
X143913034Y-146278399D01*
X143913029Y-146278402D01*
X143908599Y-146281505D01*
X143904775Y-146285328D01*
X143904769Y-146285334D01*
X143745334Y-146444769D01*
X143745328Y-146444775D01*
X143741505Y-146448599D01*
X143738402Y-146453029D01*
X143738399Y-146453034D01*
X143611575Y-146634159D01*
X143567257Y-146673025D01*
X143510000Y-146687036D01*
X143452743Y-146673025D01*
X143408425Y-146634159D01*
X143397327Y-146618310D01*
X143278495Y-146448599D01*
X143111401Y-146281505D01*
X143106970Y-146278402D01*
X143106966Y-146278399D01*
X142922259Y-146149066D01*
X142922257Y-146149064D01*
X142917830Y-146145965D01*
X142912933Y-146143681D01*
X142912927Y-146143678D01*
X142708572Y-146048386D01*
X142708570Y-146048385D01*
X142703663Y-146046097D01*
X142698438Y-146044697D01*
X142698430Y-146044694D01*
X142480634Y-145986337D01*
X142480630Y-145986336D01*
X142475408Y-145984937D01*
X142470020Y-145984465D01*
X142470017Y-145984465D01*
X142245395Y-145964813D01*
X142240000Y-145964341D01*
X142234605Y-145964813D01*
X142009982Y-145984465D01*
X142009977Y-145984465D01*
X142004592Y-145984937D01*
X141999371Y-145986335D01*
X141999365Y-145986337D01*
X141781569Y-146044694D01*
X141781557Y-146044698D01*
X141776337Y-146046097D01*
X141771432Y-146048383D01*
X141771427Y-146048386D01*
X141567081Y-146143675D01*
X141567077Y-146143677D01*
X141562171Y-146145965D01*
X141557738Y-146149068D01*
X141557731Y-146149073D01*
X141373034Y-146278399D01*
X141373029Y-146278402D01*
X141368599Y-146281505D01*
X141364775Y-146285328D01*
X141364769Y-146285334D01*
X141205334Y-146444769D01*
X141205328Y-146444775D01*
X141201505Y-146448599D01*
X141198403Y-146453028D01*
X141198403Y-146453029D01*
X141071269Y-146634596D01*
X141026951Y-146673461D01*
X140969694Y-146687472D01*
X140912437Y-146673461D01*
X140868119Y-146634595D01*
X140741215Y-146453357D01*
X140734280Y-146445092D01*
X140574909Y-146285721D01*
X140566643Y-146278784D01*
X140382008Y-146149501D01*
X140372676Y-146144113D01*
X140168397Y-146048856D01*
X140158263Y-146045168D01*
X139963780Y-145993056D01*
X139952551Y-145992688D01*
X139950000Y-146003631D01*
X139950000Y-147446000D01*
X139933387Y-147508000D01*
X139888000Y-147553387D01*
X139826000Y-147570000D01*
X139574000Y-147570000D01*
X139512000Y-147553387D01*
X139466613Y-147508000D01*
X139450000Y-147446000D01*
X139450000Y-146003631D01*
X139447448Y-145992688D01*
X139436219Y-145993056D01*
X139241736Y-146045168D01*
X139231602Y-146048856D01*
X139027332Y-146144110D01*
X139017982Y-146149508D01*
X138833357Y-146278784D01*
X138825092Y-146285719D01*
X138665719Y-146445092D01*
X138658788Y-146453352D01*
X138531880Y-146634596D01*
X138487562Y-146673461D01*
X138430305Y-146687472D01*
X138373048Y-146673461D01*
X138328730Y-146634595D01*
X138328425Y-146634159D01*
X138198495Y-146448599D01*
X138031401Y-146281505D01*
X138026970Y-146278402D01*
X138026966Y-146278399D01*
X137842259Y-146149066D01*
X137842257Y-146149064D01*
X137837830Y-146145965D01*
X137832933Y-146143681D01*
X137832927Y-146143678D01*
X137628572Y-146048386D01*
X137628570Y-146048385D01*
X137623663Y-146046097D01*
X137618438Y-146044697D01*
X137618430Y-146044694D01*
X137400634Y-145986337D01*
X137400630Y-145986336D01*
X137395408Y-145984937D01*
X137390020Y-145984465D01*
X137390017Y-145984465D01*
X137165395Y-145964813D01*
X137160000Y-145964341D01*
X137154605Y-145964813D01*
X136929982Y-145984465D01*
X136929977Y-145984465D01*
X136924592Y-145984937D01*
X136919371Y-145986335D01*
X136919365Y-145986337D01*
X136701569Y-146044694D01*
X136701557Y-146044698D01*
X136696337Y-146046097D01*
X136691432Y-146048383D01*
X136691427Y-146048386D01*
X136487081Y-146143675D01*
X136487077Y-146143677D01*
X136482171Y-146145965D01*
X136477738Y-146149068D01*
X136477731Y-146149073D01*
X136293034Y-146278399D01*
X136293029Y-146278402D01*
X136288599Y-146281505D01*
X136284775Y-146285328D01*
X136284769Y-146285334D01*
X136125334Y-146444769D01*
X136125328Y-146444775D01*
X136121505Y-146448599D01*
X136118402Y-146453029D01*
X136118399Y-146453034D01*
X135989073Y-146637731D01*
X135989068Y-146637738D01*
X135985965Y-146642171D01*
X135983677Y-146647077D01*
X135983675Y-146647081D01*
X135888386Y-146851427D01*
X135888383Y-146851432D01*
X135886097Y-146856337D01*
X135884698Y-146861557D01*
X135884694Y-146861569D01*
X135826337Y-147079365D01*
X135826335Y-147079371D01*
X135824937Y-147084592D01*
X135824465Y-147089977D01*
X135824465Y-147089982D01*
X135804813Y-147314605D01*
X135804341Y-147320000D01*
X99060500Y-147320000D01*
X99060500Y-127025476D01*
X101864663Y-127025476D01*
X101865456Y-127031709D01*
X101865457Y-127031715D01*
X101868506Y-127055651D01*
X101869500Y-127071317D01*
X101869500Y-141717722D01*
X101869460Y-141720862D01*
X101867243Y-141808363D01*
X101868351Y-141814548D01*
X101868352Y-141814554D01*
X101877648Y-141866420D01*
X101878957Y-141875748D01*
X101884289Y-141928180D01*
X101884290Y-141928185D01*
X101884926Y-141934438D01*
X101886807Y-141940435D01*
X101886810Y-141940447D01*
X101894032Y-141963466D01*
X101897772Y-141978702D01*
X101902031Y-142002464D01*
X101902035Y-142002478D01*
X101903142Y-142008653D01*
X101905471Y-142014483D01*
X101925020Y-142063425D01*
X101928179Y-142072298D01*
X101945841Y-142128588D01*
X101948891Y-142134083D01*
X101960603Y-142155184D01*
X101967337Y-142169363D01*
X101976290Y-142191778D01*
X101976292Y-142191783D01*
X101978623Y-142197617D01*
X101982082Y-142202866D01*
X101982085Y-142202871D01*
X102011080Y-142246867D01*
X102015961Y-142254923D01*
X102041536Y-142300999D01*
X102041538Y-142301002D01*
X102044591Y-142306502D01*
X102048689Y-142311275D01*
X102064404Y-142329581D01*
X102073855Y-142342116D01*
X102087133Y-142362263D01*
X102087138Y-142362269D01*
X102090598Y-142367519D01*
X102095044Y-142371965D01*
X102095045Y-142371966D01*
X102132300Y-142409221D01*
X102138705Y-142416131D01*
X102173041Y-142456128D01*
X102173044Y-142456131D01*
X102177134Y-142460895D01*
X102182103Y-142464742D01*
X102182106Y-142464744D01*
X102201192Y-142479518D01*
X102212972Y-142489893D01*
X105200431Y-145477351D01*
X105202624Y-145479600D01*
X105262941Y-145543053D01*
X105268100Y-145546644D01*
X105268104Y-145546647D01*
X105311362Y-145576755D01*
X105318871Y-145582416D01*
X105364593Y-145619698D01*
X105370171Y-145622611D01*
X105370170Y-145622611D01*
X105391556Y-145633782D01*
X105404980Y-145641915D01*
X105429951Y-145659295D01*
X105484163Y-145682559D01*
X105492675Y-145686602D01*
X105529886Y-145706040D01*
X105544951Y-145713909D01*
X105574199Y-145722277D01*
X105588975Y-145727538D01*
X105616942Y-145739540D01*
X105674718Y-145751413D01*
X105683866Y-145753658D01*
X105740582Y-145769887D01*
X105770916Y-145772196D01*
X105786463Y-145774377D01*
X105810095Y-145779234D01*
X105810102Y-145779234D01*
X105816259Y-145780500D01*
X105875241Y-145780500D01*
X105884656Y-145780858D01*
X105943476Y-145785337D01*
X105973651Y-145781493D01*
X105989317Y-145780500D01*
X121905722Y-145780500D01*
X121908862Y-145780539D01*
X121996363Y-145782757D01*
X122054458Y-145772344D01*
X122063739Y-145771042D01*
X122122438Y-145765074D01*
X122151464Y-145755966D01*
X122166713Y-145752224D01*
X122196653Y-145746858D01*
X122251423Y-145724980D01*
X122260303Y-145721818D01*
X122316588Y-145704159D01*
X122343194Y-145689390D01*
X122357362Y-145682662D01*
X122385617Y-145671377D01*
X122434891Y-145638902D01*
X122442910Y-145634043D01*
X122494502Y-145605409D01*
X122505961Y-145595570D01*
X122517583Y-145585594D01*
X122530125Y-145576137D01*
X122533993Y-145573588D01*
X122555519Y-145559402D01*
X122597238Y-145517681D01*
X122604122Y-145511301D01*
X122648895Y-145472866D01*
X122667524Y-145448798D01*
X122677884Y-145437035D01*
X132458101Y-135656818D01*
X132498329Y-135629939D01*
X132545782Y-135620500D01*
X137145722Y-135620500D01*
X137148862Y-135620539D01*
X137236363Y-135622757D01*
X137294458Y-135612344D01*
X137303739Y-135611042D01*
X137362438Y-135605074D01*
X137391464Y-135595966D01*
X137406713Y-135592224D01*
X137436653Y-135586858D01*
X137491423Y-135564980D01*
X137500303Y-135561818D01*
X137556588Y-135544159D01*
X137583194Y-135529390D01*
X137597362Y-135522662D01*
X137625617Y-135511377D01*
X137674891Y-135478902D01*
X137682910Y-135474043D01*
X137734502Y-135445409D01*
X137745961Y-135435570D01*
X137757583Y-135425594D01*
X137770125Y-135416137D01*
X137795519Y-135399402D01*
X137837238Y-135357681D01*
X137844122Y-135351301D01*
X137888895Y-135312866D01*
X137907524Y-135288798D01*
X137917884Y-135277035D01*
X147698101Y-125496818D01*
X147738329Y-125469939D01*
X147785782Y-125460500D01*
X160254160Y-125460500D01*
X160299235Y-125468983D01*
X160336925Y-125492510D01*
X160338216Y-125493913D01*
X160342252Y-125497054D01*
X160342256Y-125497058D01*
X160474368Y-125599884D01*
X160521374Y-125636470D01*
X160725497Y-125746936D01*
X160945019Y-125822298D01*
X161173951Y-125860500D01*
X161400916Y-125860500D01*
X161406049Y-125860500D01*
X161634981Y-125822298D01*
X161854503Y-125746936D01*
X162058626Y-125636470D01*
X162241784Y-125493913D01*
X162243074Y-125492510D01*
X162280765Y-125468983D01*
X162325840Y-125460500D01*
X162545722Y-125460500D01*
X162548862Y-125460539D01*
X162636363Y-125462757D01*
X162694458Y-125452344D01*
X162703739Y-125451042D01*
X162762438Y-125445074D01*
X162791464Y-125435966D01*
X162806713Y-125432224D01*
X162836653Y-125426858D01*
X162891423Y-125404980D01*
X162900303Y-125401818D01*
X162956588Y-125384159D01*
X162983194Y-125369390D01*
X162997362Y-125362662D01*
X163025617Y-125351377D01*
X163074891Y-125318902D01*
X163082910Y-125314043D01*
X163134502Y-125285409D01*
X163145961Y-125275570D01*
X163157583Y-125265594D01*
X163170125Y-125256137D01*
X163182695Y-125247853D01*
X163195519Y-125239402D01*
X163237238Y-125197681D01*
X163244122Y-125191301D01*
X163288895Y-125152866D01*
X163307520Y-125128802D01*
X163317879Y-125117040D01*
X164703124Y-123731795D01*
X170679500Y-123731795D01*
X170679501Y-123734216D01*
X170679691Y-123736635D01*
X170679692Y-123736651D01*
X170689494Y-123861207D01*
X170689904Y-123866412D01*
X170744904Y-124084683D01*
X170747207Y-124089753D01*
X170747208Y-124089756D01*
X170752573Y-124101568D01*
X170837993Y-124289626D01*
X170841165Y-124294205D01*
X170841166Y-124294206D01*
X170963005Y-124470071D01*
X170963010Y-124470077D01*
X170966181Y-124474654D01*
X171125346Y-124633819D01*
X171129923Y-124636990D01*
X171129928Y-124636994D01*
X171238989Y-124712551D01*
X171310374Y-124762007D01*
X171515317Y-124855096D01*
X171733588Y-124910096D01*
X171865783Y-124920500D01*
X173494216Y-124920499D01*
X173626412Y-124910096D01*
X173844683Y-124855096D01*
X174049626Y-124762007D01*
X174234654Y-124633819D01*
X174393819Y-124474654D01*
X174522007Y-124289626D01*
X174615096Y-124084683D01*
X174670096Y-123866412D01*
X174680500Y-123734217D01*
X174680500Y-123731795D01*
X180879500Y-123731795D01*
X180879501Y-123734216D01*
X180879691Y-123736635D01*
X180879692Y-123736651D01*
X180889494Y-123861207D01*
X180889904Y-123866412D01*
X180944904Y-124084683D01*
X180947207Y-124089753D01*
X180947208Y-124089756D01*
X180952573Y-124101568D01*
X181037993Y-124289626D01*
X181041165Y-124294205D01*
X181041166Y-124294206D01*
X181163005Y-124470071D01*
X181163010Y-124470077D01*
X181166181Y-124474654D01*
X181325346Y-124633819D01*
X181329923Y-124636990D01*
X181329928Y-124636994D01*
X181438989Y-124712551D01*
X181510374Y-124762007D01*
X181715317Y-124855096D01*
X181933588Y-124910096D01*
X182065783Y-124920500D01*
X183694216Y-124920499D01*
X183826412Y-124910096D01*
X184044683Y-124855096D01*
X184249626Y-124762007D01*
X184434654Y-124633819D01*
X184593819Y-124474654D01*
X184722007Y-124289626D01*
X184815096Y-124084683D01*
X184870096Y-123866412D01*
X184880500Y-123734217D01*
X184880499Y-120105784D01*
X184870096Y-119973588D01*
X184815096Y-119755317D01*
X184722007Y-119550374D01*
X184680091Y-119489873D01*
X184596994Y-119369928D01*
X184596990Y-119369923D01*
X184593819Y-119365346D01*
X184434654Y-119206181D01*
X184430077Y-119203010D01*
X184430071Y-119203005D01*
X184254206Y-119081166D01*
X184254205Y-119081165D01*
X184249626Y-119077993D01*
X184168684Y-119041227D01*
X184049756Y-118987208D01*
X184049753Y-118987207D01*
X184044683Y-118984904D01*
X184039278Y-118983542D01*
X183831479Y-118931180D01*
X183831470Y-118931178D01*
X183826412Y-118929904D01*
X183821211Y-118929494D01*
X183821207Y-118929494D01*
X183696651Y-118919691D01*
X183696636Y-118919690D01*
X183694217Y-118919500D01*
X183691771Y-118919500D01*
X182068229Y-118919500D01*
X182068203Y-118919500D01*
X182065784Y-118919501D01*
X182063365Y-118919691D01*
X182063348Y-118919692D01*
X181938791Y-118929494D01*
X181938784Y-118929495D01*
X181933588Y-118929904D01*
X181928528Y-118931179D01*
X181928522Y-118931180D01*
X181720721Y-118983542D01*
X181720717Y-118983543D01*
X181715317Y-118984904D01*
X181710249Y-118987205D01*
X181710243Y-118987208D01*
X181515448Y-119075688D01*
X181515445Y-119075689D01*
X181510374Y-119077993D01*
X181505798Y-119081162D01*
X181505793Y-119081166D01*
X181329928Y-119203005D01*
X181329916Y-119203014D01*
X181325346Y-119206181D01*
X181321409Y-119210117D01*
X181321403Y-119210123D01*
X181170123Y-119361403D01*
X181170117Y-119361409D01*
X181166181Y-119365346D01*
X181163014Y-119369916D01*
X181163005Y-119369928D01*
X181041166Y-119545793D01*
X181041162Y-119545798D01*
X181037993Y-119550374D01*
X181035689Y-119555445D01*
X181035688Y-119555448D01*
X180947208Y-119750243D01*
X180947205Y-119750249D01*
X180944904Y-119755317D01*
X180943543Y-119760717D01*
X180943542Y-119760721D01*
X180891180Y-119968520D01*
X180891178Y-119968531D01*
X180889904Y-119973588D01*
X180889494Y-119978786D01*
X180889494Y-119978792D01*
X180879691Y-120103348D01*
X180879690Y-120103364D01*
X180879500Y-120105783D01*
X180879500Y-120108227D01*
X180879500Y-120108228D01*
X180879500Y-123731770D01*
X180879500Y-123731795D01*
X174680500Y-123731795D01*
X174680499Y-120105784D01*
X174670096Y-119973588D01*
X174615096Y-119755317D01*
X174522007Y-119550374D01*
X174480091Y-119489873D01*
X174396994Y-119369928D01*
X174396990Y-119369923D01*
X174393819Y-119365346D01*
X174234654Y-119206181D01*
X174230077Y-119203010D01*
X174230071Y-119203005D01*
X174054206Y-119081166D01*
X174054205Y-119081165D01*
X174049626Y-119077993D01*
X173968684Y-119041227D01*
X173849756Y-118987208D01*
X173849753Y-118987207D01*
X173844683Y-118984904D01*
X173839278Y-118983542D01*
X173631479Y-118931180D01*
X173631470Y-118931178D01*
X173626412Y-118929904D01*
X173621211Y-118929494D01*
X173621207Y-118929494D01*
X173496651Y-118919691D01*
X173496636Y-118919690D01*
X173494217Y-118919500D01*
X173491771Y-118919500D01*
X171868229Y-118919500D01*
X171868203Y-118919500D01*
X171865784Y-118919501D01*
X171863365Y-118919691D01*
X171863348Y-118919692D01*
X171738791Y-118929494D01*
X171738784Y-118929495D01*
X171733588Y-118929904D01*
X171728528Y-118931179D01*
X171728522Y-118931180D01*
X171520721Y-118983542D01*
X171520717Y-118983543D01*
X171515317Y-118984904D01*
X171510249Y-118987205D01*
X171510243Y-118987208D01*
X171315448Y-119075688D01*
X171315445Y-119075689D01*
X171310374Y-119077993D01*
X171305798Y-119081162D01*
X171305793Y-119081166D01*
X171129928Y-119203005D01*
X171129916Y-119203014D01*
X171125346Y-119206181D01*
X171121409Y-119210117D01*
X171121403Y-119210123D01*
X170970123Y-119361403D01*
X170970117Y-119361409D01*
X170966181Y-119365346D01*
X170963014Y-119369916D01*
X170963005Y-119369928D01*
X170841166Y-119545793D01*
X170841162Y-119545798D01*
X170837993Y-119550374D01*
X170835689Y-119555445D01*
X170835688Y-119555448D01*
X170747208Y-119750243D01*
X170747205Y-119750249D01*
X170744904Y-119755317D01*
X170743543Y-119760717D01*
X170743542Y-119760721D01*
X170691180Y-119968520D01*
X170691178Y-119968531D01*
X170689904Y-119973588D01*
X170689494Y-119978786D01*
X170689494Y-119978792D01*
X170679691Y-120103348D01*
X170679690Y-120103364D01*
X170679500Y-120105783D01*
X170679500Y-120108227D01*
X170679500Y-120108228D01*
X170679500Y-123731770D01*
X170679500Y-123731795D01*
X164703124Y-123731795D01*
X165797409Y-122637510D01*
X165799579Y-122635394D01*
X165863053Y-122575059D01*
X165896763Y-122526624D01*
X165902405Y-122519141D01*
X165939697Y-122473408D01*
X165953781Y-122446443D01*
X165961909Y-122433025D01*
X165979295Y-122408049D01*
X166002568Y-122353815D01*
X166006595Y-122345336D01*
X166033909Y-122293049D01*
X166042275Y-122263808D01*
X166047539Y-122249019D01*
X166059540Y-122221058D01*
X166071421Y-122163238D01*
X166073650Y-122154155D01*
X166089886Y-122097418D01*
X166092195Y-122067082D01*
X166094376Y-122051539D01*
X166099234Y-122027901D01*
X166099233Y-122027901D01*
X166100500Y-122021741D01*
X166100500Y-121962756D01*
X166100858Y-121953340D01*
X166103397Y-121920000D01*
X166105337Y-121894524D01*
X166101493Y-121864348D01*
X166100500Y-121848683D01*
X166100500Y-117305783D01*
X166109939Y-117258330D01*
X166136819Y-117218102D01*
X169054921Y-114300000D01*
X189144341Y-114300000D01*
X189144813Y-114305395D01*
X189156440Y-114438296D01*
X189164937Y-114535408D01*
X189166336Y-114540630D01*
X189166337Y-114540634D01*
X189224694Y-114758430D01*
X189224697Y-114758438D01*
X189226097Y-114763663D01*
X189228385Y-114768570D01*
X189228386Y-114768572D01*
X189323678Y-114972927D01*
X189323681Y-114972933D01*
X189325965Y-114977830D01*
X189329064Y-114982257D01*
X189329066Y-114982259D01*
X189458399Y-115166966D01*
X189458402Y-115166970D01*
X189461505Y-115171401D01*
X189628599Y-115338495D01*
X189822170Y-115474035D01*
X190036337Y-115573903D01*
X190264592Y-115635063D01*
X190500000Y-115655659D01*
X190735408Y-115635063D01*
X190963663Y-115573903D01*
X191177830Y-115474035D01*
X191371401Y-115338495D01*
X191538495Y-115171401D01*
X191674035Y-114977830D01*
X191773903Y-114763663D01*
X191835063Y-114535408D01*
X191855659Y-114300000D01*
X191835063Y-114064592D01*
X191773903Y-113836337D01*
X191674035Y-113622171D01*
X191538495Y-113428599D01*
X191416569Y-113306673D01*
X191385273Y-113253927D01*
X191383084Y-113192634D01*
X191410537Y-113137789D01*
X191460916Y-113102810D01*
X191592331Y-113053796D01*
X191707546Y-112967546D01*
X191793796Y-112852331D01*
X191844091Y-112717483D01*
X191850500Y-112657873D01*
X191850499Y-110862128D01*
X191844091Y-110802517D01*
X191793796Y-110667669D01*
X191707546Y-110552454D01*
X191696867Y-110544460D01*
X191599431Y-110471519D01*
X191599430Y-110471518D01*
X191592331Y-110466204D01*
X191521965Y-110439959D01*
X191464752Y-110418620D01*
X191464750Y-110418619D01*
X191457483Y-110415909D01*
X191449770Y-110415079D01*
X191449767Y-110415079D01*
X191401180Y-110409855D01*
X191401169Y-110409854D01*
X191397873Y-110409500D01*
X191394550Y-110409500D01*
X189605439Y-110409500D01*
X189605420Y-110409500D01*
X189602128Y-110409501D01*
X189598850Y-110409853D01*
X189598838Y-110409854D01*
X189550231Y-110415079D01*
X189550225Y-110415080D01*
X189542517Y-110415909D01*
X189535252Y-110418618D01*
X189535246Y-110418620D01*
X189415980Y-110463104D01*
X189415978Y-110463104D01*
X189407669Y-110466204D01*
X189400572Y-110471516D01*
X189400568Y-110471519D01*
X189299550Y-110547141D01*
X189299546Y-110547144D01*
X189292454Y-110552454D01*
X189287144Y-110559546D01*
X189287141Y-110559550D01*
X189211519Y-110660568D01*
X189211516Y-110660572D01*
X189206204Y-110667669D01*
X189203104Y-110675978D01*
X189203104Y-110675980D01*
X189158620Y-110795247D01*
X189158619Y-110795250D01*
X189155909Y-110802517D01*
X189155079Y-110810227D01*
X189155079Y-110810232D01*
X189149855Y-110858819D01*
X189149854Y-110858831D01*
X189149500Y-110862127D01*
X189149500Y-110865448D01*
X189149500Y-110865449D01*
X189149500Y-112654560D01*
X189149500Y-112654578D01*
X189149501Y-112657872D01*
X189149853Y-112661150D01*
X189149854Y-112661161D01*
X189155079Y-112709768D01*
X189155080Y-112709773D01*
X189155909Y-112717483D01*
X189158619Y-112724749D01*
X189158620Y-112724753D01*
X189185590Y-112797063D01*
X189206204Y-112852331D01*
X189211518Y-112859430D01*
X189211519Y-112859431D01*
X189265953Y-112932146D01*
X189292454Y-112967546D01*
X189407669Y-113053796D01*
X189517405Y-113094725D01*
X189539082Y-113102810D01*
X189589462Y-113137789D01*
X189616915Y-113192633D01*
X189614726Y-113253926D01*
X189583430Y-113306673D01*
X189461505Y-113428599D01*
X189458402Y-113433029D01*
X189458399Y-113433034D01*
X189329073Y-113617731D01*
X189329068Y-113617738D01*
X189325965Y-113622171D01*
X189323677Y-113627077D01*
X189323675Y-113627081D01*
X189228386Y-113831427D01*
X189228383Y-113831432D01*
X189226097Y-113836337D01*
X189224698Y-113841557D01*
X189224694Y-113841569D01*
X189166337Y-114059365D01*
X189166335Y-114059371D01*
X189164937Y-114064592D01*
X189144341Y-114300000D01*
X169054921Y-114300000D01*
X188338101Y-95016819D01*
X188378329Y-94989939D01*
X188425782Y-94980500D01*
X189539242Y-94980500D01*
X189586695Y-94989939D01*
X189619861Y-95012100D01*
X189620627Y-95011189D01*
X189624767Y-95014663D01*
X189628599Y-95018495D01*
X189633032Y-95021599D01*
X189633038Y-95021604D01*
X189814158Y-95148425D01*
X189853024Y-95192743D01*
X189867035Y-95250000D01*
X189853024Y-95307257D01*
X189814159Y-95351575D01*
X189633041Y-95478395D01*
X189628599Y-95481505D01*
X189624775Y-95485328D01*
X189624769Y-95485334D01*
X189465334Y-95644769D01*
X189465328Y-95644775D01*
X189461505Y-95648599D01*
X189458402Y-95653029D01*
X189458399Y-95653034D01*
X189329073Y-95837731D01*
X189329068Y-95837738D01*
X189325965Y-95842171D01*
X189323677Y-95847077D01*
X189323675Y-95847081D01*
X189228386Y-96051427D01*
X189228383Y-96051432D01*
X189226097Y-96056337D01*
X189224698Y-96061557D01*
X189224694Y-96061569D01*
X189166337Y-96279365D01*
X189166335Y-96279371D01*
X189164937Y-96284592D01*
X189164465Y-96289977D01*
X189164465Y-96289982D01*
X189160970Y-96329932D01*
X189144341Y-96520000D01*
X189164937Y-96755408D01*
X189166336Y-96760630D01*
X189166337Y-96760634D01*
X189224694Y-96978430D01*
X189224697Y-96978438D01*
X189226097Y-96983663D01*
X189228385Y-96988570D01*
X189228386Y-96988572D01*
X189323678Y-97192927D01*
X189323681Y-97192933D01*
X189325965Y-97197830D01*
X189329064Y-97202257D01*
X189329066Y-97202259D01*
X189458399Y-97386966D01*
X189458402Y-97386970D01*
X189461505Y-97391401D01*
X189628599Y-97558495D01*
X189633031Y-97561598D01*
X189633033Y-97561600D01*
X189777260Y-97662589D01*
X189822170Y-97694035D01*
X190036337Y-97793903D01*
X190264592Y-97855063D01*
X190500000Y-97875659D01*
X190735408Y-97855063D01*
X190963663Y-97793903D01*
X191177830Y-97694035D01*
X191371401Y-97558495D01*
X191538495Y-97391401D01*
X191674035Y-97197830D01*
X191773903Y-96983663D01*
X191835063Y-96755408D01*
X191855659Y-96520000D01*
X191835063Y-96284592D01*
X191773903Y-96056337D01*
X191674035Y-95842171D01*
X191538495Y-95648599D01*
X191371401Y-95481505D01*
X191366968Y-95478401D01*
X191366961Y-95478395D01*
X191185842Y-95351575D01*
X191146976Y-95307257D01*
X191132965Y-95250000D01*
X191146976Y-95192743D01*
X191185842Y-95148425D01*
X191366961Y-95021604D01*
X191366961Y-95021603D01*
X191371401Y-95018495D01*
X191538495Y-94851401D01*
X191674035Y-94657830D01*
X191773903Y-94443663D01*
X191835063Y-94215408D01*
X191855659Y-93980000D01*
X191835063Y-93744592D01*
X191773903Y-93516337D01*
X191674035Y-93302171D01*
X191538495Y-93108599D01*
X191416181Y-92986285D01*
X191384885Y-92933539D01*
X191382696Y-92872246D01*
X191410149Y-92817401D01*
X191460529Y-92782422D01*
X191583777Y-92736452D01*
X191599189Y-92728037D01*
X191700092Y-92652501D01*
X191712501Y-92640092D01*
X191788037Y-92539189D01*
X191796452Y-92523777D01*
X191840888Y-92404641D01*
X191844426Y-92389667D01*
X191849646Y-92341114D01*
X191850000Y-92334518D01*
X191850000Y-91706326D01*
X191846549Y-91693450D01*
X191833674Y-91690000D01*
X189166326Y-91690000D01*
X189153450Y-91693450D01*
X189150000Y-91706326D01*
X189150000Y-92334518D01*
X189150353Y-92341114D01*
X189155573Y-92389667D01*
X189159111Y-92404641D01*
X189203547Y-92523777D01*
X189211962Y-92539189D01*
X189287498Y-92640092D01*
X189299907Y-92652501D01*
X189400810Y-92728037D01*
X189416222Y-92736452D01*
X189423904Y-92739318D01*
X189478767Y-92779779D01*
X189503952Y-92843125D01*
X189491849Y-92910211D01*
X189446114Y-92960762D01*
X189380571Y-92979500D01*
X187974262Y-92979500D01*
X187971121Y-92979460D01*
X187889924Y-92977402D01*
X187889920Y-92977402D01*
X187883637Y-92977243D01*
X187871267Y-92979460D01*
X187825578Y-92987648D01*
X187816254Y-92988955D01*
X187763821Y-92994288D01*
X187763807Y-92994290D01*
X187757562Y-92994926D01*
X187751568Y-92996806D01*
X187751565Y-92996807D01*
X187728526Y-93004035D01*
X187713292Y-93007774D01*
X187689539Y-93012032D01*
X187683347Y-93013142D01*
X187677514Y-93015471D01*
X187677496Y-93015477D01*
X187628567Y-93035021D01*
X187619697Y-93038179D01*
X187569411Y-93053957D01*
X187569396Y-93053963D01*
X187563412Y-93055841D01*
X187557922Y-93058887D01*
X187557915Y-93058891D01*
X187536809Y-93070605D01*
X187522640Y-93077334D01*
X187500223Y-93086289D01*
X187500213Y-93086293D01*
X187494383Y-93088623D01*
X187489140Y-93092078D01*
X187489131Y-93092083D01*
X187445123Y-93121086D01*
X187437073Y-93125963D01*
X187385498Y-93154591D01*
X187380729Y-93158684D01*
X187380726Y-93158687D01*
X187362414Y-93174407D01*
X187349887Y-93183852D01*
X187329731Y-93197136D01*
X187329719Y-93197145D01*
X187324481Y-93200598D01*
X187320039Y-93205039D01*
X187320035Y-93205043D01*
X187282774Y-93242303D01*
X187275868Y-93248704D01*
X187235873Y-93283040D01*
X187235869Y-93283043D01*
X187231105Y-93287134D01*
X187227260Y-93292100D01*
X187227260Y-93292101D01*
X187212480Y-93311194D01*
X187202108Y-93322969D01*
X184081462Y-96443615D01*
X184020949Y-96476921D01*
X183952005Y-96472685D01*
X183896025Y-96432221D01*
X183870378Y-96368087D01*
X183866024Y-96323868D01*
X183860714Y-96306364D01*
X183856809Y-96289167D01*
X183853556Y-96267929D01*
X183829963Y-96204229D01*
X183827593Y-96197182D01*
X183810582Y-96141101D01*
X183810581Y-96141099D01*
X183808814Y-96135273D01*
X183798512Y-96116000D01*
X183791588Y-96100610D01*
X183785072Y-96083015D01*
X183785070Y-96083012D01*
X183782886Y-96077113D01*
X183777623Y-96068670D01*
X183748848Y-96022504D01*
X183744722Y-96015366D01*
X183715910Y-95961462D01*
X183712043Y-95956750D01*
X183712039Y-95956744D01*
X183699779Y-95941805D01*
X183690402Y-95928734D01*
X183678580Y-95909768D01*
X183678579Y-95909766D01*
X183675252Y-95904429D01*
X183633357Y-95860356D01*
X183627392Y-95853604D01*
X183590883Y-95809117D01*
X183586175Y-95805253D01*
X183586172Y-95805250D01*
X183568458Y-95790712D01*
X183557254Y-95780295D01*
X183539392Y-95761505D01*
X183539391Y-95761504D01*
X183535059Y-95756947D01*
X183488099Y-95724261D01*
X183480280Y-95718345D01*
X183443256Y-95687961D01*
X183443250Y-95687957D01*
X183438538Y-95684090D01*
X183409806Y-95668732D01*
X183397423Y-95661150D01*
X183385824Y-95653077D01*
X183368049Y-95640705D01*
X183362267Y-95638224D01*
X183362266Y-95638223D01*
X183318765Y-95619555D01*
X183309213Y-95614964D01*
X183270094Y-95594054D01*
X183270088Y-95594051D01*
X183264727Y-95591186D01*
X183258905Y-95589419D01*
X183258898Y-95589417D01*
X183230130Y-95580690D01*
X183217229Y-95575981D01*
X183186846Y-95562943D01*
X183186838Y-95562940D01*
X183181058Y-95560460D01*
X183174895Y-95559193D01*
X183174894Y-95559193D01*
X183132013Y-95550380D01*
X183120985Y-95547581D01*
X183081955Y-95535742D01*
X183081952Y-95535741D01*
X183076132Y-95533976D01*
X183070075Y-95533379D01*
X183070073Y-95533379D01*
X183036592Y-95530081D01*
X183023789Y-95528140D01*
X182987903Y-95520766D01*
X182987900Y-95520765D01*
X182981741Y-95519500D01*
X182975452Y-95519500D01*
X182935244Y-95519500D01*
X182923090Y-95518903D01*
X182917506Y-95518353D01*
X182880000Y-95514659D01*
X182842494Y-95518353D01*
X182836910Y-95518903D01*
X182824756Y-95519500D01*
X180354238Y-95519500D01*
X180351097Y-95519460D01*
X180269925Y-95517403D01*
X180269921Y-95517403D01*
X180263637Y-95517244D01*
X180257448Y-95518353D01*
X180257449Y-95518353D01*
X180205588Y-95527647D01*
X180196264Y-95528954D01*
X180143827Y-95534287D01*
X180143809Y-95534290D01*
X180137562Y-95534926D01*
X180131570Y-95536805D01*
X180131560Y-95536808D01*
X180108526Y-95544035D01*
X180093289Y-95547774D01*
X180069538Y-95552031D01*
X180069525Y-95552034D01*
X180063347Y-95553142D01*
X180057520Y-95555469D01*
X180057504Y-95555474D01*
X180008567Y-95575021D01*
X179999697Y-95578179D01*
X179949411Y-95593957D01*
X179949396Y-95593963D01*
X179943412Y-95595841D01*
X179937922Y-95598887D01*
X179937915Y-95598891D01*
X179916809Y-95610605D01*
X179902640Y-95617334D01*
X179880223Y-95626289D01*
X179880213Y-95626293D01*
X179874383Y-95628623D01*
X179869140Y-95632078D01*
X179869131Y-95632083D01*
X179825123Y-95661086D01*
X179817073Y-95665963D01*
X179765498Y-95694591D01*
X179760729Y-95698684D01*
X179760726Y-95698687D01*
X179742414Y-95714407D01*
X179729887Y-95723852D01*
X179709731Y-95737136D01*
X179709719Y-95737145D01*
X179704481Y-95740598D01*
X179700039Y-95745039D01*
X179700035Y-95745043D01*
X179662774Y-95782303D01*
X179655868Y-95788704D01*
X179615873Y-95823040D01*
X179615869Y-95823043D01*
X179611105Y-95827134D01*
X179607260Y-95832100D01*
X179607260Y-95832101D01*
X179592480Y-95851194D01*
X179582108Y-95862969D01*
X167261899Y-108183181D01*
X167221671Y-108210061D01*
X167174218Y-108219500D01*
X162325840Y-108219500D01*
X162280765Y-108211017D01*
X162243074Y-108187489D01*
X162241784Y-108186087D01*
X162237748Y-108182946D01*
X162237743Y-108182941D01*
X162064181Y-108047854D01*
X162028943Y-108004461D01*
X162016343Y-107950000D01*
X162028943Y-107895539D01*
X162064181Y-107852146D01*
X162241784Y-107713913D01*
X162398979Y-107543153D01*
X162525924Y-107348849D01*
X162619157Y-107136300D01*
X162676134Y-106911305D01*
X162695300Y-106680000D01*
X162676134Y-106448695D01*
X162619157Y-106223700D01*
X162525924Y-106011151D01*
X162398979Y-105816847D01*
X162241784Y-105646087D01*
X162219040Y-105628385D01*
X162064181Y-105507854D01*
X162028943Y-105464461D01*
X162016343Y-105410000D01*
X162028943Y-105355539D01*
X162064181Y-105312146D01*
X162241784Y-105173913D01*
X162398979Y-105003153D01*
X162525924Y-104808849D01*
X162619157Y-104596300D01*
X162676134Y-104371305D01*
X162695300Y-104140000D01*
X162676134Y-103908695D01*
X162619157Y-103683700D01*
X162525924Y-103471151D01*
X162398979Y-103276847D01*
X162241784Y-103106087D01*
X162219040Y-103088385D01*
X162064181Y-102967854D01*
X162028943Y-102924461D01*
X162016343Y-102870000D01*
X162028943Y-102815539D01*
X162064181Y-102772146D01*
X162241784Y-102633913D01*
X162398979Y-102463153D01*
X162525924Y-102268849D01*
X162619157Y-102056300D01*
X162676134Y-101831305D01*
X162695300Y-101600000D01*
X162676134Y-101368695D01*
X162619157Y-101143700D01*
X162525924Y-100931151D01*
X162398979Y-100736847D01*
X162241784Y-100566087D01*
X162064180Y-100427852D01*
X162028943Y-100384461D01*
X162016343Y-100330000D01*
X162028943Y-100275539D01*
X162064181Y-100232146D01*
X162241784Y-100093913D01*
X162398979Y-99923153D01*
X162525924Y-99728849D01*
X162619157Y-99516300D01*
X162676134Y-99291305D01*
X162695300Y-99060000D01*
X162676134Y-98828695D01*
X162619157Y-98603700D01*
X162525924Y-98391151D01*
X162398979Y-98196847D01*
X162241784Y-98026087D01*
X162064180Y-97887852D01*
X162028943Y-97844461D01*
X162016343Y-97790000D01*
X162028943Y-97735539D01*
X162064181Y-97692146D01*
X162241784Y-97553913D01*
X162398979Y-97383153D01*
X162525924Y-97188849D01*
X162619157Y-96976300D01*
X162676134Y-96751305D01*
X162695300Y-96520000D01*
X162676134Y-96288695D01*
X162619157Y-96063700D01*
X162525924Y-95851151D01*
X162398979Y-95656847D01*
X162241784Y-95486087D01*
X162231901Y-95478395D01*
X162064181Y-95347854D01*
X162028943Y-95304461D01*
X162016343Y-95250000D01*
X162028943Y-95195539D01*
X162064181Y-95152146D01*
X162241784Y-95013913D01*
X162398979Y-94843153D01*
X162525924Y-94648849D01*
X162619157Y-94436300D01*
X162676134Y-94211305D01*
X162695300Y-93980000D01*
X162676134Y-93748695D01*
X162619157Y-93523700D01*
X162525924Y-93311151D01*
X162398979Y-93116847D01*
X162241784Y-92946087D01*
X162237735Y-92942935D01*
X162237729Y-92942930D01*
X162064181Y-92807852D01*
X162028942Y-92764459D01*
X162016343Y-92709999D01*
X162028943Y-92655538D01*
X162064177Y-92612148D01*
X162241784Y-92473913D01*
X162398979Y-92303153D01*
X162525924Y-92108849D01*
X162619157Y-91896300D01*
X162676134Y-91671305D01*
X162695300Y-91440000D01*
X162676134Y-91208695D01*
X162667265Y-91173674D01*
X189150000Y-91173674D01*
X189153450Y-91186549D01*
X189166326Y-91190000D01*
X190233674Y-91190000D01*
X190246549Y-91186549D01*
X190250000Y-91173674D01*
X190750000Y-91173674D01*
X190753450Y-91186549D01*
X190766326Y-91190000D01*
X191833674Y-91190000D01*
X191846549Y-91186549D01*
X191850000Y-91173674D01*
X191850000Y-90545482D01*
X191849646Y-90538885D01*
X191844426Y-90490332D01*
X191840888Y-90475358D01*
X191796452Y-90356222D01*
X191788037Y-90340810D01*
X191712501Y-90239907D01*
X191700092Y-90227498D01*
X191599189Y-90151962D01*
X191583777Y-90143547D01*
X191464641Y-90099111D01*
X191449667Y-90095573D01*
X191401114Y-90090353D01*
X191394518Y-90090000D01*
X190766326Y-90090000D01*
X190753450Y-90093450D01*
X190750000Y-90106326D01*
X190750000Y-91173674D01*
X190250000Y-91173674D01*
X190250000Y-90106326D01*
X190246549Y-90093450D01*
X190233674Y-90090000D01*
X189605482Y-90090000D01*
X189598885Y-90090353D01*
X189550332Y-90095573D01*
X189535358Y-90099111D01*
X189416222Y-90143547D01*
X189400810Y-90151962D01*
X189299907Y-90227498D01*
X189287498Y-90239907D01*
X189211962Y-90340810D01*
X189203547Y-90356222D01*
X189159111Y-90475358D01*
X189155573Y-90490332D01*
X189150353Y-90538885D01*
X189150000Y-90545482D01*
X189150000Y-91173674D01*
X162667265Y-91173674D01*
X162619157Y-90983700D01*
X162525924Y-90771151D01*
X162398979Y-90576847D01*
X162241784Y-90406087D01*
X162064180Y-90267852D01*
X162028943Y-90224461D01*
X162016343Y-90170000D01*
X162028943Y-90115539D01*
X162064181Y-90072146D01*
X162241784Y-89933913D01*
X162398979Y-89763153D01*
X162525924Y-89568849D01*
X162619157Y-89356300D01*
X162676134Y-89131305D01*
X162695300Y-88900000D01*
X162676134Y-88668695D01*
X162619157Y-88443700D01*
X162525924Y-88231151D01*
X162398979Y-88036847D01*
X162241784Y-87866087D01*
X162231906Y-87858399D01*
X162064181Y-87727854D01*
X162028943Y-87684461D01*
X162016343Y-87630000D01*
X162028943Y-87575539D01*
X162064181Y-87532146D01*
X162068962Y-87528425D01*
X162241784Y-87393913D01*
X162398979Y-87223153D01*
X162525924Y-87028849D01*
X162619157Y-86816300D01*
X162676134Y-86591305D01*
X162695300Y-86360000D01*
X162676134Y-86128695D01*
X162619157Y-85903700D01*
X162525924Y-85691151D01*
X162398979Y-85496847D01*
X162241784Y-85326087D01*
X162225662Y-85313539D01*
X162146913Y-85252246D01*
X162064180Y-85187852D01*
X162028943Y-85144461D01*
X162016343Y-85090000D01*
X162028943Y-85035539D01*
X162064181Y-84992146D01*
X162241784Y-84853913D01*
X162398979Y-84683153D01*
X162525924Y-84488849D01*
X162619157Y-84276300D01*
X162676134Y-84051305D01*
X162695300Y-83820000D01*
X162676134Y-83588695D01*
X162619157Y-83363700D01*
X162525924Y-83151151D01*
X162398979Y-82956847D01*
X162241784Y-82786087D01*
X162064180Y-82647852D01*
X162028943Y-82604461D01*
X162016343Y-82550000D01*
X162028943Y-82495539D01*
X162064181Y-82452146D01*
X162241784Y-82313913D01*
X162398979Y-82143153D01*
X162525924Y-81948849D01*
X162619157Y-81736300D01*
X162676134Y-81511305D01*
X162695300Y-81280000D01*
X173954532Y-81280000D01*
X173955004Y-81285395D01*
X173970582Y-81463460D01*
X173974365Y-81506692D01*
X173975762Y-81511907D01*
X173975764Y-81511916D01*
X174031858Y-81721263D01*
X174031861Y-81721271D01*
X174033261Y-81726496D01*
X174035549Y-81731403D01*
X174035550Y-81731405D01*
X174049946Y-81762276D01*
X174129432Y-81932734D01*
X174259953Y-82119139D01*
X174420861Y-82280047D01*
X174607266Y-82410568D01*
X174813504Y-82506739D01*
X174818734Y-82508140D01*
X174818736Y-82508141D01*
X174907638Y-82531962D01*
X175033308Y-82565635D01*
X175260000Y-82585468D01*
X175486692Y-82565635D01*
X175706496Y-82506739D01*
X175912734Y-82410568D01*
X176099139Y-82280047D01*
X176260047Y-82119139D01*
X176390568Y-81932734D01*
X176486739Y-81726496D01*
X176545635Y-81506692D01*
X176565468Y-81280000D01*
X176545635Y-81053308D01*
X176505065Y-80901898D01*
X176488141Y-80838736D01*
X176488140Y-80838734D01*
X176486739Y-80833504D01*
X176390568Y-80627266D01*
X176260047Y-80440861D01*
X176099139Y-80279953D01*
X175912734Y-80149432D01*
X175823568Y-80107853D01*
X175711405Y-80055550D01*
X175711403Y-80055549D01*
X175706496Y-80053261D01*
X175701271Y-80051861D01*
X175701263Y-80051858D01*
X175491916Y-79995764D01*
X175491907Y-79995762D01*
X175486692Y-79994365D01*
X175481304Y-79993893D01*
X175481301Y-79993893D01*
X175265395Y-79975004D01*
X175260000Y-79974532D01*
X175254605Y-79975004D01*
X175038698Y-79993893D01*
X175038693Y-79993893D01*
X175033308Y-79994365D01*
X175028094Y-79995762D01*
X175028083Y-79995764D01*
X174818736Y-80051858D01*
X174818724Y-80051862D01*
X174813504Y-80053261D01*
X174808599Y-80055547D01*
X174808594Y-80055550D01*
X174612176Y-80147142D01*
X174612172Y-80147144D01*
X174607266Y-80149432D01*
X174602833Y-80152535D01*
X174602826Y-80152540D01*
X174425296Y-80276847D01*
X174425291Y-80276850D01*
X174420861Y-80279953D01*
X174417037Y-80283776D01*
X174417031Y-80283782D01*
X174263782Y-80437031D01*
X174263776Y-80437037D01*
X174259953Y-80440861D01*
X174256850Y-80445291D01*
X174256847Y-80445296D01*
X174132540Y-80622826D01*
X174132535Y-80622833D01*
X174129432Y-80627266D01*
X174127144Y-80632172D01*
X174127142Y-80632176D01*
X174035550Y-80828594D01*
X174035547Y-80828599D01*
X174033261Y-80833504D01*
X174031862Y-80838724D01*
X174031858Y-80838736D01*
X173975764Y-81048083D01*
X173975762Y-81048094D01*
X173974365Y-81053308D01*
X173954532Y-81280000D01*
X162695300Y-81280000D01*
X162676134Y-81048695D01*
X162619157Y-80823700D01*
X162525924Y-80611151D01*
X162398979Y-80416847D01*
X162241784Y-80246087D01*
X162064180Y-80107852D01*
X162028943Y-80064461D01*
X162016343Y-80010000D01*
X162028943Y-79955539D01*
X162064181Y-79912146D01*
X162241784Y-79773913D01*
X162398979Y-79603153D01*
X162525924Y-79408849D01*
X162619157Y-79196300D01*
X162676134Y-78971305D01*
X162695300Y-78740000D01*
X189144341Y-78740000D01*
X189164937Y-78975408D01*
X189166336Y-78980630D01*
X189166337Y-78980634D01*
X189224694Y-79198430D01*
X189224697Y-79198438D01*
X189226097Y-79203663D01*
X189228385Y-79208570D01*
X189228386Y-79208572D01*
X189323678Y-79412927D01*
X189323681Y-79412933D01*
X189325965Y-79417830D01*
X189329064Y-79422257D01*
X189329066Y-79422259D01*
X189458399Y-79606966D01*
X189458402Y-79606970D01*
X189461505Y-79611401D01*
X189628599Y-79778495D01*
X189822170Y-79914035D01*
X190036337Y-80013903D01*
X190264592Y-80075063D01*
X190500000Y-80095659D01*
X190735408Y-80075063D01*
X190963663Y-80013903D01*
X191177830Y-79914035D01*
X191371401Y-79778495D01*
X191538495Y-79611401D01*
X191674035Y-79417830D01*
X191773903Y-79203663D01*
X191835063Y-78975408D01*
X191855659Y-78740000D01*
X191835063Y-78504592D01*
X191773903Y-78276337D01*
X191674035Y-78062171D01*
X191538495Y-77868599D01*
X191371401Y-77701505D01*
X191366968Y-77698401D01*
X191366961Y-77698395D01*
X191185842Y-77571575D01*
X191146976Y-77527257D01*
X191132965Y-77470000D01*
X191146976Y-77412743D01*
X191185842Y-77368425D01*
X191366961Y-77241604D01*
X191366961Y-77241603D01*
X191371401Y-77238495D01*
X191538495Y-77071401D01*
X191674035Y-76877830D01*
X191773903Y-76663663D01*
X191835063Y-76435408D01*
X191855659Y-76200000D01*
X191835063Y-75964592D01*
X191773903Y-75736337D01*
X191674035Y-75522171D01*
X191538495Y-75328599D01*
X191416181Y-75206285D01*
X191384885Y-75153539D01*
X191382696Y-75092246D01*
X191410149Y-75037401D01*
X191460529Y-75002422D01*
X191583777Y-74956452D01*
X191599189Y-74948037D01*
X191700092Y-74872501D01*
X191712501Y-74860092D01*
X191788037Y-74759189D01*
X191796452Y-74743777D01*
X191840888Y-74624641D01*
X191844426Y-74609667D01*
X191849646Y-74561114D01*
X191850000Y-74554518D01*
X191850000Y-73926326D01*
X191846549Y-73913450D01*
X191833674Y-73910000D01*
X189166326Y-73910000D01*
X189153450Y-73913450D01*
X189150000Y-73926326D01*
X189150000Y-74554518D01*
X189150353Y-74561114D01*
X189155573Y-74609667D01*
X189159111Y-74624641D01*
X189203547Y-74743777D01*
X189211962Y-74759189D01*
X189287498Y-74860092D01*
X189299907Y-74872501D01*
X189400810Y-74948037D01*
X189416220Y-74956451D01*
X189539471Y-75002422D01*
X189589850Y-75037401D01*
X189617303Y-75092246D01*
X189615114Y-75153538D01*
X189583819Y-75206285D01*
X189461505Y-75328599D01*
X189458402Y-75333029D01*
X189458399Y-75333034D01*
X189329073Y-75517731D01*
X189329068Y-75517738D01*
X189325965Y-75522171D01*
X189323677Y-75527077D01*
X189323675Y-75527081D01*
X189228386Y-75731427D01*
X189228383Y-75731432D01*
X189226097Y-75736337D01*
X189224698Y-75741557D01*
X189224694Y-75741569D01*
X189166337Y-75959365D01*
X189166335Y-75959371D01*
X189164937Y-75964592D01*
X189144341Y-76200000D01*
X189164937Y-76435408D01*
X189166336Y-76440630D01*
X189166337Y-76440634D01*
X189224694Y-76658430D01*
X189224697Y-76658438D01*
X189226097Y-76663663D01*
X189228385Y-76668570D01*
X189228386Y-76668572D01*
X189323678Y-76872927D01*
X189323681Y-76872933D01*
X189325965Y-76877830D01*
X189329064Y-76882257D01*
X189329066Y-76882259D01*
X189458399Y-77066966D01*
X189458402Y-77066970D01*
X189461505Y-77071401D01*
X189628599Y-77238495D01*
X189633032Y-77241599D01*
X189633038Y-77241604D01*
X189814158Y-77368425D01*
X189853024Y-77412743D01*
X189867035Y-77470000D01*
X189853024Y-77527257D01*
X189814159Y-77571575D01*
X189633041Y-77698395D01*
X189628599Y-77701505D01*
X189624775Y-77705328D01*
X189624769Y-77705334D01*
X189465334Y-77864769D01*
X189465328Y-77864775D01*
X189461505Y-77868599D01*
X189458402Y-77873029D01*
X189458399Y-77873034D01*
X189329073Y-78057731D01*
X189329068Y-78057738D01*
X189325965Y-78062171D01*
X189323677Y-78067077D01*
X189323675Y-78067081D01*
X189228386Y-78271427D01*
X189228383Y-78271432D01*
X189226097Y-78276337D01*
X189224698Y-78281557D01*
X189224694Y-78281569D01*
X189166337Y-78499365D01*
X189166335Y-78499371D01*
X189164937Y-78504592D01*
X189144341Y-78740000D01*
X162695300Y-78740000D01*
X162676134Y-78508695D01*
X162619157Y-78283700D01*
X162525924Y-78071151D01*
X162398979Y-77876847D01*
X162241784Y-77706087D01*
X162231901Y-77698395D01*
X162064181Y-77567854D01*
X162028943Y-77524461D01*
X162016343Y-77470000D01*
X162028943Y-77415539D01*
X162064181Y-77372146D01*
X162068962Y-77368425D01*
X162241784Y-77233913D01*
X162398979Y-77063153D01*
X162525924Y-76868849D01*
X162619157Y-76656300D01*
X162676134Y-76431305D01*
X162695300Y-76200000D01*
X162676134Y-75968695D01*
X162619157Y-75743700D01*
X162525924Y-75531151D01*
X162398979Y-75336847D01*
X162241784Y-75166087D01*
X162225662Y-75153539D01*
X162146913Y-75092246D01*
X162064180Y-75027852D01*
X162028943Y-74984461D01*
X162016343Y-74930000D01*
X162028943Y-74875539D01*
X162064181Y-74832146D01*
X162241784Y-74693913D01*
X162398979Y-74523153D01*
X162525924Y-74328849D01*
X162619157Y-74116300D01*
X162676134Y-73891305D01*
X162695300Y-73660000D01*
X162676134Y-73428695D01*
X162667265Y-73393674D01*
X189150000Y-73393674D01*
X189153450Y-73406549D01*
X189166326Y-73410000D01*
X190233674Y-73410000D01*
X190246549Y-73406549D01*
X190250000Y-73393674D01*
X190750000Y-73393674D01*
X190753450Y-73406549D01*
X190766326Y-73410000D01*
X191833674Y-73410000D01*
X191846549Y-73406549D01*
X191850000Y-73393674D01*
X191850000Y-72765482D01*
X191849646Y-72758885D01*
X191844426Y-72710332D01*
X191840888Y-72695358D01*
X191796452Y-72576222D01*
X191788037Y-72560810D01*
X191712501Y-72459907D01*
X191700092Y-72447498D01*
X191599189Y-72371962D01*
X191583777Y-72363547D01*
X191464641Y-72319111D01*
X191449667Y-72315573D01*
X191401114Y-72310353D01*
X191394518Y-72310000D01*
X190766326Y-72310000D01*
X190753450Y-72313450D01*
X190750000Y-72326326D01*
X190750000Y-73393674D01*
X190250000Y-73393674D01*
X190250000Y-72326326D01*
X190246549Y-72313450D01*
X190233674Y-72310000D01*
X189605482Y-72310000D01*
X189598885Y-72310353D01*
X189550332Y-72315573D01*
X189535358Y-72319111D01*
X189416222Y-72363547D01*
X189400810Y-72371962D01*
X189299907Y-72447498D01*
X189287498Y-72459907D01*
X189211962Y-72560810D01*
X189203547Y-72576222D01*
X189159111Y-72695358D01*
X189155573Y-72710332D01*
X189150353Y-72758885D01*
X189150000Y-72765482D01*
X189150000Y-73393674D01*
X162667265Y-73393674D01*
X162619157Y-73203700D01*
X162525924Y-72991151D01*
X162398979Y-72796847D01*
X162241784Y-72626087D01*
X162188653Y-72584734D01*
X162062672Y-72486679D01*
X162062671Y-72486678D01*
X162058626Y-72483530D01*
X161936933Y-72417673D01*
X161859007Y-72375501D01*
X161859002Y-72375499D01*
X161854503Y-72373064D01*
X161849657Y-72371400D01*
X161849654Y-72371399D01*
X161639834Y-72299368D01*
X161639833Y-72299367D01*
X161634981Y-72297702D01*
X161629931Y-72296859D01*
X161629922Y-72296857D01*
X161411111Y-72260344D01*
X161411102Y-72260343D01*
X161406049Y-72259500D01*
X161173951Y-72259500D01*
X161168898Y-72260343D01*
X161168888Y-72260344D01*
X160950077Y-72296857D01*
X160950065Y-72296859D01*
X160945019Y-72297702D01*
X160940169Y-72299366D01*
X160940165Y-72299368D01*
X160730345Y-72371399D01*
X160730337Y-72371402D01*
X160725497Y-72373064D01*
X160721001Y-72375496D01*
X160720992Y-72375501D01*
X160525882Y-72481090D01*
X160525878Y-72481092D01*
X160521374Y-72483530D01*
X160517334Y-72486674D01*
X160517327Y-72486679D01*
X160342263Y-72622936D01*
X160342255Y-72622943D01*
X160338216Y-72626087D01*
X160334746Y-72629855D01*
X160334742Y-72629860D01*
X160184491Y-72793077D01*
X160184488Y-72793080D01*
X160181021Y-72796847D01*
X160178226Y-72801124D01*
X160178219Y-72801134D01*
X160064066Y-72975860D01*
X160054076Y-72991151D01*
X160052021Y-72995835D01*
X160052016Y-72995845D01*
X159964930Y-73194383D01*
X159960843Y-73203700D01*
X159959585Y-73208665D01*
X159959584Y-73208670D01*
X159905125Y-73423720D01*
X159905123Y-73423729D01*
X159903866Y-73428695D01*
X159903442Y-73433802D01*
X159903441Y-73433813D01*
X159888243Y-73617241D01*
X159884700Y-73660000D01*
X159885124Y-73665117D01*
X159903441Y-73886186D01*
X159903442Y-73886195D01*
X159903866Y-73891305D01*
X159905123Y-73896272D01*
X159905125Y-73896279D01*
X159959584Y-74111329D01*
X159960843Y-74116300D01*
X159962903Y-74120996D01*
X160052016Y-74324154D01*
X160052019Y-74324159D01*
X160054076Y-74328849D01*
X160117548Y-74426000D01*
X160178219Y-74518865D01*
X160178222Y-74518869D01*
X160181021Y-74523153D01*
X160338216Y-74693913D01*
X160515819Y-74832146D01*
X160551056Y-74875538D01*
X160563656Y-74929999D01*
X160551057Y-74984459D01*
X160515819Y-75027852D01*
X160342265Y-75162934D01*
X160342254Y-75162944D01*
X160338216Y-75166087D01*
X160334746Y-75169855D01*
X160334742Y-75169860D01*
X160184491Y-75333077D01*
X160184488Y-75333080D01*
X160181021Y-75336847D01*
X160178226Y-75341124D01*
X160178219Y-75341134D01*
X160062844Y-75517731D01*
X160054076Y-75531151D01*
X160052021Y-75535835D01*
X160052016Y-75535845D01*
X159962903Y-75739003D01*
X159960843Y-75743700D01*
X159959585Y-75748665D01*
X159959584Y-75748670D01*
X159905125Y-75963720D01*
X159905123Y-75963729D01*
X159903866Y-75968695D01*
X159903442Y-75973802D01*
X159903441Y-75973813D01*
X159885200Y-76193955D01*
X159884700Y-76200000D01*
X159885124Y-76205117D01*
X159903441Y-76426186D01*
X159903442Y-76426195D01*
X159903866Y-76431305D01*
X159905123Y-76436272D01*
X159905125Y-76436279D01*
X159906228Y-76440634D01*
X159960843Y-76656300D01*
X159962903Y-76660996D01*
X160052016Y-76864154D01*
X160052019Y-76864159D01*
X160054076Y-76868849D01*
X160117548Y-76966001D01*
X160178219Y-77058865D01*
X160178222Y-77058869D01*
X160181021Y-77063153D01*
X160338216Y-77233913D01*
X160342263Y-77237063D01*
X160342270Y-77237069D01*
X160515818Y-77372147D01*
X160551056Y-77415540D01*
X160563656Y-77470000D01*
X160551056Y-77524460D01*
X160515818Y-77567853D01*
X160342270Y-77702930D01*
X160342258Y-77702940D01*
X160338216Y-77706087D01*
X160334746Y-77709855D01*
X160334742Y-77709860D01*
X160184491Y-77873077D01*
X160184488Y-77873080D01*
X160181021Y-77876847D01*
X160178226Y-77881124D01*
X160178219Y-77881134D01*
X160062844Y-78057731D01*
X160054076Y-78071151D01*
X160052021Y-78075835D01*
X160052016Y-78075845D01*
X159962903Y-78279003D01*
X159960843Y-78283700D01*
X159959585Y-78288665D01*
X159959584Y-78288670D01*
X159905125Y-78503720D01*
X159905123Y-78503729D01*
X159903866Y-78508695D01*
X159903442Y-78513802D01*
X159903441Y-78513813D01*
X159885200Y-78733955D01*
X159884700Y-78740000D01*
X159885124Y-78745117D01*
X159903441Y-78966186D01*
X159903442Y-78966195D01*
X159903866Y-78971305D01*
X159905123Y-78976272D01*
X159905125Y-78976279D01*
X159906228Y-78980634D01*
X159960843Y-79196300D01*
X159962903Y-79200996D01*
X160052016Y-79404154D01*
X160052019Y-79404159D01*
X160054076Y-79408849D01*
X160117548Y-79506000D01*
X160178219Y-79598865D01*
X160178222Y-79598869D01*
X160181021Y-79603153D01*
X160338216Y-79773913D01*
X160342263Y-79777063D01*
X160342270Y-79777069D01*
X160515818Y-79912147D01*
X160551056Y-79955540D01*
X160563656Y-80010000D01*
X160551056Y-80064460D01*
X160515818Y-80107853D01*
X160342270Y-80242930D01*
X160342258Y-80242940D01*
X160338216Y-80246087D01*
X160334746Y-80249855D01*
X160334742Y-80249860D01*
X160184491Y-80413077D01*
X160184488Y-80413080D01*
X160181021Y-80416847D01*
X160178226Y-80421124D01*
X160178219Y-80421134D01*
X160056878Y-80606862D01*
X160054076Y-80611151D01*
X160052021Y-80615835D01*
X160052016Y-80615845D01*
X159962903Y-80819003D01*
X159960843Y-80823700D01*
X159959585Y-80828665D01*
X159959584Y-80828670D01*
X159905125Y-81043720D01*
X159905123Y-81043729D01*
X159903866Y-81048695D01*
X159903442Y-81053802D01*
X159903441Y-81053813D01*
X159890609Y-81208683D01*
X159884700Y-81280000D01*
X159885124Y-81285117D01*
X159903441Y-81506186D01*
X159903442Y-81506195D01*
X159903866Y-81511305D01*
X159905123Y-81516272D01*
X159905125Y-81516279D01*
X159955157Y-81713847D01*
X159960843Y-81736300D01*
X159962903Y-81740996D01*
X160052016Y-81944154D01*
X160052019Y-81944159D01*
X160054076Y-81948849D01*
X160084461Y-81995356D01*
X160178219Y-82138865D01*
X160178222Y-82138869D01*
X160181021Y-82143153D01*
X160338216Y-82313913D01*
X160515819Y-82452146D01*
X160551056Y-82495538D01*
X160563656Y-82549999D01*
X160551057Y-82604459D01*
X160515819Y-82647852D01*
X160342265Y-82782934D01*
X160342254Y-82782944D01*
X160338216Y-82786087D01*
X160334746Y-82789855D01*
X160334742Y-82789860D01*
X160184491Y-82953077D01*
X160184488Y-82953080D01*
X160181021Y-82956847D01*
X160178226Y-82961124D01*
X160178219Y-82961134D01*
X160056878Y-83146862D01*
X160054076Y-83151151D01*
X160052021Y-83155835D01*
X160052016Y-83155845D01*
X159962903Y-83359003D01*
X159960843Y-83363700D01*
X159959585Y-83368665D01*
X159959584Y-83368670D01*
X159905125Y-83583720D01*
X159905123Y-83583729D01*
X159903866Y-83588695D01*
X159903442Y-83593802D01*
X159903441Y-83593813D01*
X159885200Y-83813955D01*
X159884700Y-83820000D01*
X159885124Y-83825117D01*
X159903441Y-84046186D01*
X159903442Y-84046195D01*
X159903866Y-84051305D01*
X159905123Y-84056272D01*
X159905125Y-84056279D01*
X159959584Y-84271329D01*
X159960843Y-84276300D01*
X159962903Y-84280996D01*
X160052016Y-84484154D01*
X160052019Y-84484159D01*
X160054076Y-84488849D01*
X160117548Y-84586001D01*
X160178219Y-84678865D01*
X160178222Y-84678869D01*
X160181021Y-84683153D01*
X160338216Y-84853913D01*
X160342263Y-84857063D01*
X160342270Y-84857069D01*
X160515818Y-84992147D01*
X160551056Y-85035540D01*
X160563656Y-85090000D01*
X160551056Y-85144460D01*
X160515818Y-85187853D01*
X160342270Y-85322930D01*
X160342258Y-85322940D01*
X160338216Y-85326087D01*
X160334746Y-85329855D01*
X160334742Y-85329860D01*
X160184491Y-85493077D01*
X160184488Y-85493080D01*
X160181021Y-85496847D01*
X160178226Y-85501124D01*
X160178219Y-85501134D01*
X160062844Y-85677731D01*
X160054076Y-85691151D01*
X160052021Y-85695835D01*
X160052016Y-85695845D01*
X159962903Y-85899003D01*
X159960843Y-85903700D01*
X159959585Y-85908665D01*
X159959584Y-85908670D01*
X159905125Y-86123720D01*
X159905123Y-86123729D01*
X159903866Y-86128695D01*
X159903442Y-86133802D01*
X159903441Y-86133813D01*
X159885200Y-86353955D01*
X159884700Y-86360000D01*
X159885124Y-86365117D01*
X159903441Y-86586186D01*
X159903442Y-86586195D01*
X159903866Y-86591305D01*
X159905123Y-86596272D01*
X159905125Y-86596279D01*
X159906228Y-86600634D01*
X159960843Y-86816300D01*
X159962903Y-86820996D01*
X160052016Y-87024154D01*
X160052019Y-87024159D01*
X160054076Y-87028849D01*
X160117548Y-87126000D01*
X160178219Y-87218865D01*
X160178222Y-87218869D01*
X160181021Y-87223153D01*
X160338216Y-87393913D01*
X160342263Y-87397063D01*
X160342270Y-87397069D01*
X160515818Y-87532147D01*
X160551056Y-87575540D01*
X160563656Y-87630000D01*
X160551056Y-87684460D01*
X160515818Y-87727853D01*
X160342270Y-87862930D01*
X160342258Y-87862940D01*
X160338216Y-87866087D01*
X160334746Y-87869855D01*
X160334742Y-87869860D01*
X160184491Y-88033077D01*
X160184488Y-88033080D01*
X160181021Y-88036847D01*
X160178226Y-88041124D01*
X160178219Y-88041134D01*
X160062844Y-88217731D01*
X160054076Y-88231151D01*
X160052021Y-88235835D01*
X160052016Y-88235845D01*
X159962903Y-88439003D01*
X159960843Y-88443700D01*
X159959585Y-88448665D01*
X159959584Y-88448670D01*
X159905125Y-88663720D01*
X159905123Y-88663729D01*
X159903866Y-88668695D01*
X159903442Y-88673802D01*
X159903441Y-88673813D01*
X159885200Y-88893955D01*
X159884700Y-88900000D01*
X159885124Y-88905117D01*
X159903441Y-89126186D01*
X159903442Y-89126195D01*
X159903866Y-89131305D01*
X159905123Y-89136272D01*
X159905125Y-89136279D01*
X159906228Y-89140634D01*
X159960843Y-89356300D01*
X159962903Y-89360996D01*
X160052016Y-89564154D01*
X160052019Y-89564159D01*
X160054076Y-89568849D01*
X160099055Y-89637695D01*
X160178219Y-89758865D01*
X160178222Y-89758869D01*
X160181021Y-89763153D01*
X160338216Y-89933913D01*
X160342263Y-89937063D01*
X160342270Y-89937069D01*
X160515818Y-90072147D01*
X160551056Y-90115540D01*
X160563656Y-90170000D01*
X160551056Y-90224460D01*
X160515818Y-90267853D01*
X160342270Y-90402930D01*
X160342258Y-90402940D01*
X160338216Y-90406087D01*
X160334746Y-90409855D01*
X160334742Y-90409860D01*
X160184491Y-90573077D01*
X160184488Y-90573080D01*
X160181021Y-90576847D01*
X160178226Y-90581124D01*
X160178219Y-90581134D01*
X160056878Y-90766862D01*
X160054076Y-90771151D01*
X160052021Y-90775835D01*
X160052016Y-90775845D01*
X159962903Y-90979003D01*
X159960843Y-90983700D01*
X159959585Y-90988665D01*
X159959584Y-90988670D01*
X159905125Y-91203720D01*
X159905123Y-91203729D01*
X159903866Y-91208695D01*
X159903442Y-91213802D01*
X159903441Y-91213813D01*
X159885200Y-91433955D01*
X159884700Y-91440000D01*
X159885124Y-91445117D01*
X159903441Y-91666186D01*
X159903442Y-91666195D01*
X159903866Y-91671305D01*
X159905123Y-91676272D01*
X159905125Y-91676279D01*
X159959584Y-91891329D01*
X159960843Y-91896300D01*
X159962903Y-91900996D01*
X160052016Y-92104154D01*
X160052019Y-92104159D01*
X160054076Y-92108849D01*
X160117548Y-92206000D01*
X160178219Y-92298865D01*
X160178222Y-92298869D01*
X160181021Y-92303153D01*
X160338216Y-92473913D01*
X160342263Y-92477063D01*
X160342270Y-92477069D01*
X160515818Y-92612147D01*
X160551056Y-92655540D01*
X160563656Y-92710000D01*
X160551056Y-92764460D01*
X160515818Y-92807853D01*
X160342270Y-92942930D01*
X160342258Y-92942940D01*
X160338216Y-92946087D01*
X160334746Y-92949855D01*
X160334742Y-92949860D01*
X160184491Y-93113077D01*
X160184488Y-93113080D01*
X160181021Y-93116847D01*
X160178226Y-93121124D01*
X160178219Y-93121134D01*
X160072442Y-93283040D01*
X160054076Y-93311151D01*
X160052021Y-93315835D01*
X160052016Y-93315845D01*
X159962903Y-93519003D01*
X159960843Y-93523700D01*
X159959585Y-93528665D01*
X159959584Y-93528670D01*
X159905125Y-93743720D01*
X159905123Y-93743729D01*
X159903866Y-93748695D01*
X159903442Y-93753802D01*
X159903441Y-93753813D01*
X159885200Y-93973955D01*
X159884700Y-93980000D01*
X159885124Y-93985117D01*
X159903441Y-94206186D01*
X159903442Y-94206195D01*
X159903866Y-94211305D01*
X159905123Y-94216272D01*
X159905125Y-94216279D01*
X159906228Y-94220634D01*
X159960843Y-94436300D01*
X159962903Y-94440996D01*
X160052016Y-94644154D01*
X160052019Y-94644159D01*
X160054076Y-94648849D01*
X160117548Y-94746000D01*
X160178219Y-94838865D01*
X160178222Y-94838869D01*
X160181021Y-94843153D01*
X160338216Y-95013913D01*
X160342263Y-95017063D01*
X160342270Y-95017069D01*
X160515818Y-95152147D01*
X160551056Y-95195540D01*
X160563656Y-95250000D01*
X160551056Y-95304460D01*
X160515818Y-95347853D01*
X160342270Y-95482930D01*
X160342258Y-95482940D01*
X160338216Y-95486087D01*
X160334746Y-95489855D01*
X160334742Y-95489860D01*
X160184491Y-95653077D01*
X160184488Y-95653080D01*
X160181021Y-95656847D01*
X160178226Y-95661124D01*
X160178219Y-95661134D01*
X160072442Y-95823040D01*
X160054076Y-95851151D01*
X160052021Y-95855835D01*
X160052016Y-95855845D01*
X159962903Y-96059003D01*
X159960843Y-96063700D01*
X159959585Y-96068665D01*
X159959584Y-96068670D01*
X159905125Y-96283720D01*
X159905123Y-96283729D01*
X159903866Y-96288695D01*
X159903442Y-96293802D01*
X159903441Y-96293813D01*
X159886674Y-96496172D01*
X159884700Y-96520000D01*
X159885124Y-96525117D01*
X159903441Y-96746186D01*
X159903442Y-96746195D01*
X159903866Y-96751305D01*
X159905123Y-96756272D01*
X159905125Y-96756279D01*
X159935513Y-96876276D01*
X159960843Y-96976300D01*
X159962903Y-96980996D01*
X160052016Y-97184154D01*
X160052019Y-97184159D01*
X160054076Y-97188849D01*
X160102065Y-97262302D01*
X160178219Y-97378865D01*
X160178222Y-97378869D01*
X160181021Y-97383153D01*
X160338216Y-97553913D01*
X160342263Y-97557063D01*
X160342270Y-97557069D01*
X160515818Y-97692147D01*
X160551056Y-97735540D01*
X160563656Y-97790000D01*
X160551056Y-97844460D01*
X160515818Y-97887853D01*
X160342270Y-98022930D01*
X160342258Y-98022940D01*
X160338216Y-98026087D01*
X160334746Y-98029855D01*
X160334742Y-98029860D01*
X160184491Y-98193077D01*
X160184488Y-98193080D01*
X160181021Y-98196847D01*
X160178226Y-98201124D01*
X160178219Y-98201134D01*
X160056878Y-98386862D01*
X160054076Y-98391151D01*
X160052021Y-98395835D01*
X160052016Y-98395845D01*
X159965002Y-98594218D01*
X159960843Y-98603700D01*
X159959585Y-98608665D01*
X159959584Y-98608670D01*
X159905125Y-98823720D01*
X159905123Y-98823729D01*
X159903866Y-98828695D01*
X159903442Y-98833802D01*
X159903441Y-98833813D01*
X159894059Y-98947048D01*
X159884700Y-99060000D01*
X159885124Y-99065117D01*
X159903441Y-99286186D01*
X159903442Y-99286195D01*
X159903866Y-99291305D01*
X159905123Y-99296272D01*
X159905125Y-99296279D01*
X159947113Y-99462083D01*
X159960843Y-99516300D01*
X159979907Y-99559763D01*
X160052016Y-99724154D01*
X160052019Y-99724159D01*
X160054076Y-99728849D01*
X160112249Y-99817889D01*
X160178219Y-99918865D01*
X160178222Y-99918869D01*
X160181021Y-99923153D01*
X160338216Y-100093913D01*
X160342263Y-100097063D01*
X160342270Y-100097069D01*
X160515818Y-100232147D01*
X160551056Y-100275540D01*
X160563656Y-100330000D01*
X160551056Y-100384460D01*
X160515818Y-100427853D01*
X160342270Y-100562930D01*
X160342258Y-100562940D01*
X160338216Y-100566087D01*
X160334746Y-100569855D01*
X160334742Y-100569860D01*
X160184491Y-100733077D01*
X160184488Y-100733080D01*
X160181021Y-100736847D01*
X160178226Y-100741124D01*
X160178219Y-100741134D01*
X160056878Y-100926862D01*
X160054076Y-100931151D01*
X160052021Y-100935835D01*
X160052016Y-100935845D01*
X159962903Y-101139003D01*
X159960843Y-101143700D01*
X159959585Y-101148665D01*
X159959584Y-101148670D01*
X159905125Y-101363720D01*
X159905123Y-101363729D01*
X159903866Y-101368695D01*
X159903442Y-101373802D01*
X159903441Y-101373813D01*
X159885200Y-101593955D01*
X159884700Y-101600000D01*
X159885124Y-101605117D01*
X159903441Y-101826186D01*
X159903442Y-101826195D01*
X159903866Y-101831305D01*
X159905123Y-101836272D01*
X159905125Y-101836279D01*
X159959584Y-102051329D01*
X159960843Y-102056300D01*
X159962903Y-102060996D01*
X160052016Y-102264154D01*
X160052019Y-102264159D01*
X160054076Y-102268849D01*
X160117548Y-102366001D01*
X160178219Y-102458865D01*
X160178222Y-102458869D01*
X160181021Y-102463153D01*
X160338216Y-102633913D01*
X160342263Y-102637063D01*
X160342270Y-102637069D01*
X160515818Y-102772147D01*
X160551056Y-102815540D01*
X160563656Y-102870000D01*
X160551056Y-102924460D01*
X160515818Y-102967853D01*
X160342270Y-103102930D01*
X160342258Y-103102940D01*
X160338216Y-103106087D01*
X160334746Y-103109855D01*
X160334742Y-103109860D01*
X160184491Y-103273077D01*
X160184488Y-103273080D01*
X160181021Y-103276847D01*
X160178226Y-103281124D01*
X160178219Y-103281134D01*
X160056878Y-103466862D01*
X160054076Y-103471151D01*
X160052021Y-103475835D01*
X160052016Y-103475845D01*
X159962903Y-103679003D01*
X159960843Y-103683700D01*
X159959585Y-103688665D01*
X159959584Y-103688670D01*
X159905125Y-103903720D01*
X159905123Y-103903729D01*
X159903866Y-103908695D01*
X159903442Y-103913802D01*
X159903441Y-103913813D01*
X159886674Y-104116172D01*
X159884700Y-104140000D01*
X159885124Y-104145117D01*
X159903441Y-104366186D01*
X159903442Y-104366195D01*
X159903866Y-104371305D01*
X159905123Y-104376272D01*
X159905125Y-104376279D01*
X159942718Y-104524727D01*
X159960843Y-104596300D01*
X159962903Y-104600996D01*
X160052016Y-104804154D01*
X160052019Y-104804159D01*
X160054076Y-104808849D01*
X160075890Y-104842238D01*
X160178219Y-104998865D01*
X160178222Y-104998869D01*
X160181021Y-105003153D01*
X160338216Y-105173913D01*
X160515819Y-105312146D01*
X160551056Y-105355538D01*
X160563656Y-105409999D01*
X160551057Y-105464459D01*
X160515819Y-105507852D01*
X160342258Y-105642940D01*
X160342250Y-105642946D01*
X160338216Y-105646087D01*
X160336925Y-105647489D01*
X160299235Y-105671017D01*
X160254160Y-105679500D01*
X150325783Y-105679500D01*
X150278330Y-105670061D01*
X150238102Y-105643181D01*
X143276819Y-98681899D01*
X143249939Y-98641671D01*
X143240500Y-98594218D01*
X143240500Y-73674278D01*
X143240540Y-73671137D01*
X143242757Y-73583637D01*
X143232349Y-73525573D01*
X143231041Y-73516242D01*
X143230704Y-73512929D01*
X143225074Y-73457562D01*
X143215964Y-73428528D01*
X143212227Y-73413305D01*
X143206858Y-73383347D01*
X143199572Y-73365107D01*
X143184976Y-73328565D01*
X143181816Y-73319689D01*
X143173441Y-73292997D01*
X143164159Y-73263412D01*
X143149396Y-73236814D01*
X143142660Y-73222631D01*
X143131377Y-73194383D01*
X143098917Y-73145131D01*
X143094036Y-73137073D01*
X143068463Y-73091000D01*
X143068462Y-73090999D01*
X143065409Y-73085498D01*
X143045591Y-73062413D01*
X143036140Y-73049879D01*
X143019402Y-73024481D01*
X142977692Y-72982771D01*
X142971287Y-72975860D01*
X142936960Y-72935874D01*
X142932866Y-72931105D01*
X142927896Y-72927258D01*
X142927891Y-72927253D01*
X142908805Y-72912479D01*
X142897026Y-72902105D01*
X141114921Y-71120000D01*
X173954532Y-71120000D01*
X173974365Y-71346692D01*
X173975762Y-71351907D01*
X173975764Y-71351916D01*
X174031858Y-71561263D01*
X174031861Y-71561271D01*
X174033261Y-71566496D01*
X174129432Y-71772734D01*
X174259953Y-71959139D01*
X174420861Y-72120047D01*
X174607266Y-72250568D01*
X174813504Y-72346739D01*
X174818734Y-72348140D01*
X174818736Y-72348141D01*
X174920846Y-72375501D01*
X175033308Y-72405635D01*
X175260000Y-72425468D01*
X175486692Y-72405635D01*
X175706496Y-72346739D01*
X175912734Y-72250568D01*
X176099139Y-72120047D01*
X176260047Y-71959139D01*
X176390568Y-71772734D01*
X176486739Y-71566496D01*
X176545635Y-71346692D01*
X176565468Y-71120000D01*
X176545635Y-70893308D01*
X176486739Y-70673504D01*
X176390568Y-70467266D01*
X176260047Y-70280861D01*
X176099139Y-70119953D01*
X175912734Y-69989432D01*
X175706496Y-69893261D01*
X175701271Y-69891861D01*
X175701263Y-69891858D01*
X175491916Y-69835764D01*
X175491907Y-69835762D01*
X175486692Y-69834365D01*
X175481304Y-69833893D01*
X175481301Y-69833893D01*
X175265395Y-69815004D01*
X175260000Y-69814532D01*
X175254605Y-69815004D01*
X175038698Y-69833893D01*
X175038693Y-69833893D01*
X175033308Y-69834365D01*
X175028094Y-69835762D01*
X175028083Y-69835764D01*
X174818736Y-69891858D01*
X174818724Y-69891862D01*
X174813504Y-69893261D01*
X174808599Y-69895547D01*
X174808594Y-69895550D01*
X174612176Y-69987142D01*
X174612172Y-69987144D01*
X174607266Y-69989432D01*
X174602833Y-69992535D01*
X174602826Y-69992540D01*
X174425296Y-70116847D01*
X174425291Y-70116850D01*
X174420861Y-70119953D01*
X174417037Y-70123776D01*
X174417031Y-70123782D01*
X174263782Y-70277031D01*
X174263776Y-70277037D01*
X174259953Y-70280861D01*
X174256850Y-70285291D01*
X174256847Y-70285296D01*
X174132540Y-70462826D01*
X174132535Y-70462833D01*
X174129432Y-70467266D01*
X174127144Y-70472172D01*
X174127142Y-70472176D01*
X174035550Y-70668594D01*
X174035547Y-70668599D01*
X174033261Y-70673504D01*
X174031862Y-70678724D01*
X174031858Y-70678736D01*
X173975764Y-70888083D01*
X173975762Y-70888094D01*
X173974365Y-70893308D01*
X173954532Y-71120000D01*
X141114921Y-71120000D01*
X137877567Y-67882647D01*
X137875374Y-67880398D01*
X137819390Y-67821503D01*
X137819389Y-67821502D01*
X137815059Y-67816947D01*
X137809897Y-67813354D01*
X137766642Y-67783247D01*
X137759119Y-67777575D01*
X137718280Y-67744275D01*
X137718277Y-67744273D01*
X137713407Y-67740302D01*
X137686437Y-67726213D01*
X137673024Y-67718087D01*
X137648049Y-67700705D01*
X137593817Y-67677432D01*
X137585351Y-67673411D01*
X137533049Y-67646091D01*
X137503802Y-67637722D01*
X137489021Y-67632459D01*
X137466841Y-67622941D01*
X137466835Y-67622939D01*
X137461058Y-67620460D01*
X137454905Y-67619195D01*
X137454891Y-67619191D01*
X137403273Y-67608583D01*
X137394126Y-67606338D01*
X137343465Y-67591842D01*
X137343453Y-67591839D01*
X137337418Y-67590113D01*
X137331154Y-67589635D01*
X137331149Y-67589635D01*
X137307075Y-67587802D01*
X137291533Y-67585622D01*
X137267902Y-67580766D01*
X137267901Y-67580765D01*
X137261741Y-67579500D01*
X137255452Y-67579500D01*
X137202759Y-67579500D01*
X137193344Y-67579142D01*
X137140794Y-67575140D01*
X137140789Y-67575140D01*
X137134524Y-67574663D01*
X137128290Y-67575456D01*
X137128284Y-67575457D01*
X137104349Y-67578506D01*
X137088683Y-67579500D01*
X124474278Y-67579500D01*
X124471137Y-67579460D01*
X124389924Y-67577402D01*
X124389921Y-67577402D01*
X124383637Y-67577243D01*
X124371267Y-67579460D01*
X124325578Y-67587648D01*
X124316254Y-67588955D01*
X124263821Y-67594288D01*
X124263807Y-67594290D01*
X124257562Y-67594926D01*
X124251568Y-67596806D01*
X124251565Y-67596807D01*
X124228526Y-67604035D01*
X124213292Y-67607774D01*
X124189539Y-67612032D01*
X124183347Y-67613142D01*
X124177514Y-67615471D01*
X124177496Y-67615477D01*
X124128567Y-67635021D01*
X124119697Y-67638179D01*
X124069411Y-67653957D01*
X124069396Y-67653963D01*
X124063412Y-67655841D01*
X124057922Y-67658887D01*
X124057915Y-67658891D01*
X124036809Y-67670605D01*
X124022640Y-67677334D01*
X124000223Y-67686289D01*
X124000213Y-67686293D01*
X123994383Y-67688623D01*
X123989140Y-67692078D01*
X123989131Y-67692083D01*
X123945123Y-67721086D01*
X123937073Y-67725963D01*
X123885498Y-67754591D01*
X123880729Y-67758684D01*
X123880726Y-67758687D01*
X123862414Y-67774407D01*
X123849887Y-67783852D01*
X123829731Y-67797136D01*
X123829719Y-67797145D01*
X123824481Y-67800598D01*
X123820039Y-67805039D01*
X123820035Y-67805043D01*
X123782774Y-67842303D01*
X123775868Y-67848704D01*
X123735873Y-67883040D01*
X123735869Y-67883043D01*
X123731105Y-67887134D01*
X123727260Y-67892100D01*
X123727260Y-67892101D01*
X123712480Y-67911194D01*
X123702108Y-67922969D01*
X118682646Y-72942432D01*
X118680398Y-72944624D01*
X118616947Y-73004941D01*
X118613359Y-73010095D01*
X118613352Y-73010104D01*
X118583244Y-73053361D01*
X118577574Y-73060881D01*
X118544274Y-73101721D01*
X118544271Y-73101724D01*
X118540302Y-73106593D01*
X118537396Y-73112155D01*
X118537388Y-73112168D01*
X118526210Y-73133566D01*
X118518082Y-73146982D01*
X118504300Y-73166784D01*
X118504295Y-73166792D01*
X118500705Y-73171951D01*
X118498228Y-73177721D01*
X118498225Y-73177728D01*
X118477439Y-73226165D01*
X118473399Y-73234671D01*
X118446091Y-73286951D01*
X118444363Y-73292989D01*
X118444360Y-73292997D01*
X118437720Y-73316201D01*
X118432459Y-73330978D01*
X118422942Y-73353157D01*
X118420460Y-73358942D01*
X118419194Y-73365097D01*
X118419192Y-73365107D01*
X118408587Y-73416712D01*
X118406342Y-73425859D01*
X118391842Y-73476534D01*
X118391839Y-73476547D01*
X118390113Y-73482582D01*
X118389636Y-73488842D01*
X118389635Y-73488849D01*
X118387801Y-73512929D01*
X118385622Y-73528463D01*
X118385079Y-73531108D01*
X118379500Y-73558259D01*
X118379500Y-73564550D01*
X118379500Y-73617241D01*
X118379142Y-73626656D01*
X118375140Y-73679205D01*
X118375140Y-73679210D01*
X118374663Y-73685476D01*
X118375456Y-73691709D01*
X118375457Y-73691715D01*
X118378506Y-73715651D01*
X118379500Y-73731317D01*
X118379500Y-80814217D01*
X118370061Y-80861670D01*
X118343181Y-80901898D01*
X111381899Y-87863181D01*
X111341671Y-87890061D01*
X111294218Y-87899500D01*
X108910758Y-87899500D01*
X108863305Y-87890061D01*
X108830138Y-87867899D01*
X108829373Y-87868811D01*
X108825230Y-87865334D01*
X108821401Y-87861505D01*
X108816970Y-87858402D01*
X108816966Y-87858399D01*
X108635841Y-87731574D01*
X108596976Y-87687256D01*
X108582965Y-87629999D01*
X108596976Y-87572742D01*
X108635839Y-87528426D01*
X108821401Y-87398495D01*
X108988495Y-87231401D01*
X109124035Y-87037830D01*
X109223903Y-86823663D01*
X109285063Y-86595408D01*
X109305659Y-86360000D01*
X109285063Y-86124592D01*
X109223903Y-85896337D01*
X109124035Y-85682171D01*
X108988495Y-85488599D01*
X108866181Y-85366285D01*
X108834885Y-85313539D01*
X108832696Y-85252246D01*
X108860149Y-85197401D01*
X108910529Y-85162422D01*
X109033777Y-85116452D01*
X109049189Y-85108037D01*
X109150092Y-85032501D01*
X109162501Y-85020092D01*
X109238037Y-84919189D01*
X109246452Y-84903777D01*
X109290888Y-84784641D01*
X109294426Y-84769667D01*
X109299646Y-84721114D01*
X109300000Y-84714518D01*
X109300000Y-84086326D01*
X109296549Y-84073450D01*
X109283674Y-84070000D01*
X106616326Y-84070000D01*
X106603450Y-84073450D01*
X106600000Y-84086326D01*
X106600000Y-84714518D01*
X106600353Y-84721114D01*
X106605573Y-84769667D01*
X106609111Y-84784641D01*
X106653547Y-84903777D01*
X106661962Y-84919189D01*
X106737498Y-85020092D01*
X106749907Y-85032501D01*
X106850810Y-85108037D01*
X106866220Y-85116451D01*
X106989471Y-85162422D01*
X107039850Y-85197401D01*
X107067303Y-85252246D01*
X107065114Y-85313538D01*
X107033818Y-85366285D01*
X106911505Y-85488599D01*
X106908402Y-85493029D01*
X106908399Y-85493034D01*
X106779073Y-85677731D01*
X106779068Y-85677738D01*
X106775965Y-85682171D01*
X106773677Y-85687077D01*
X106773675Y-85687081D01*
X106678386Y-85891427D01*
X106678383Y-85891432D01*
X106676097Y-85896337D01*
X106674698Y-85901557D01*
X106674694Y-85901569D01*
X106616337Y-86119365D01*
X106616335Y-86119371D01*
X106614937Y-86124592D01*
X106594341Y-86360000D01*
X106614937Y-86595408D01*
X106616336Y-86600630D01*
X106616337Y-86600634D01*
X106674694Y-86818430D01*
X106674697Y-86818438D01*
X106676097Y-86823663D01*
X106678385Y-86828570D01*
X106678386Y-86828572D01*
X106773678Y-87032927D01*
X106773681Y-87032933D01*
X106775965Y-87037830D01*
X106779064Y-87042257D01*
X106779066Y-87042259D01*
X106908399Y-87226966D01*
X106908402Y-87226970D01*
X106911505Y-87231401D01*
X107078599Y-87398495D01*
X107083032Y-87401599D01*
X107083038Y-87401604D01*
X107264158Y-87528425D01*
X107303024Y-87572743D01*
X107317035Y-87630000D01*
X107303024Y-87687257D01*
X107264160Y-87731574D01*
X107078599Y-87861505D01*
X107074775Y-87865328D01*
X107074769Y-87865334D01*
X106915334Y-88024769D01*
X106915328Y-88024775D01*
X106911505Y-88028599D01*
X106908402Y-88033029D01*
X106908399Y-88033034D01*
X106779073Y-88217731D01*
X106779068Y-88217738D01*
X106775965Y-88222171D01*
X106773677Y-88227077D01*
X106773675Y-88227081D01*
X106678386Y-88431427D01*
X106678383Y-88431432D01*
X106676097Y-88436337D01*
X106674698Y-88441557D01*
X106674694Y-88441569D01*
X106616337Y-88659365D01*
X106616335Y-88659371D01*
X106614937Y-88664592D01*
X106594341Y-88900000D01*
X106614937Y-89135408D01*
X106616336Y-89140630D01*
X106616337Y-89140634D01*
X106674694Y-89358430D01*
X106674697Y-89358438D01*
X106676097Y-89363663D01*
X106678385Y-89368570D01*
X106678386Y-89368572D01*
X106773678Y-89572927D01*
X106773681Y-89572933D01*
X106775965Y-89577830D01*
X106779064Y-89582257D01*
X106779066Y-89582259D01*
X106908399Y-89766966D01*
X106908402Y-89766970D01*
X106911505Y-89771401D01*
X107078599Y-89938495D01*
X107272170Y-90074035D01*
X107277070Y-90076320D01*
X107277072Y-90076321D01*
X107331443Y-90101674D01*
X107486337Y-90173903D01*
X107714592Y-90235063D01*
X107950000Y-90255659D01*
X108185408Y-90235063D01*
X108413663Y-90173903D01*
X108627830Y-90074035D01*
X108821401Y-89938495D01*
X108825233Y-89934662D01*
X108829373Y-89931189D01*
X108830138Y-89932100D01*
X108863305Y-89909939D01*
X108910758Y-89900500D01*
X111745722Y-89900500D01*
X111748862Y-89900539D01*
X111836363Y-89902757D01*
X111894458Y-89892344D01*
X111903739Y-89891042D01*
X111962438Y-89885074D01*
X111991464Y-89875966D01*
X112006713Y-89872224D01*
X112036653Y-89866858D01*
X112091423Y-89844980D01*
X112100303Y-89841818D01*
X112156588Y-89824159D01*
X112183194Y-89809390D01*
X112197362Y-89802662D01*
X112225617Y-89791377D01*
X112274891Y-89758902D01*
X112282910Y-89754043D01*
X112334502Y-89725409D01*
X112345961Y-89715570D01*
X112357583Y-89705594D01*
X112370125Y-89696137D01*
X112395519Y-89679402D01*
X112437238Y-89637681D01*
X112444122Y-89631301D01*
X112488895Y-89592866D01*
X112507520Y-89568802D01*
X112517879Y-89557040D01*
X120077409Y-81997510D01*
X120079579Y-81995394D01*
X120143053Y-81935059D01*
X120176750Y-81886644D01*
X120182426Y-81879116D01*
X120219698Y-81833407D01*
X120233782Y-81806444D01*
X120241919Y-81793013D01*
X120255704Y-81773208D01*
X120255703Y-81773208D01*
X120259295Y-81768049D01*
X120282568Y-81713815D01*
X120286598Y-81705331D01*
X120310997Y-81658624D01*
X120310997Y-81658622D01*
X120313909Y-81653049D01*
X120322275Y-81623808D01*
X120327539Y-81609019D01*
X120339540Y-81581058D01*
X120351421Y-81523238D01*
X120353650Y-81514155D01*
X120369886Y-81457418D01*
X120372195Y-81427082D01*
X120374376Y-81411539D01*
X120379234Y-81387901D01*
X120379233Y-81387901D01*
X120380500Y-81381741D01*
X120380500Y-81322756D01*
X120380858Y-81313340D01*
X120383397Y-81280000D01*
X120385337Y-81254524D01*
X120381493Y-81224348D01*
X120380500Y-81208683D01*
X120380500Y-74125783D01*
X120389939Y-74078330D01*
X120416819Y-74038102D01*
X124838101Y-69616819D01*
X124878329Y-69589939D01*
X124925782Y-69580500D01*
X136694217Y-69580500D01*
X136741670Y-69589939D01*
X136781898Y-69616819D01*
X141203181Y-74038101D01*
X141230061Y-74078329D01*
X141239500Y-74125782D01*
X141239500Y-99045722D01*
X141239460Y-99048862D01*
X141237243Y-99136363D01*
X141238351Y-99142548D01*
X141238352Y-99142554D01*
X141247648Y-99194420D01*
X141248957Y-99203748D01*
X141254289Y-99256180D01*
X141254290Y-99256185D01*
X141254926Y-99262438D01*
X141256807Y-99268435D01*
X141256810Y-99268447D01*
X141264032Y-99291466D01*
X141267772Y-99306702D01*
X141272031Y-99330464D01*
X141272035Y-99330478D01*
X141273142Y-99336653D01*
X141275471Y-99342483D01*
X141295020Y-99391425D01*
X141298179Y-99400298D01*
X141315841Y-99456588D01*
X141318891Y-99462083D01*
X141330603Y-99483184D01*
X141337337Y-99497363D01*
X141346290Y-99519778D01*
X141346292Y-99519783D01*
X141348623Y-99525617D01*
X141352082Y-99530866D01*
X141352085Y-99530871D01*
X141381080Y-99574867D01*
X141385961Y-99582923D01*
X141411536Y-99628999D01*
X141411538Y-99629002D01*
X141414591Y-99634502D01*
X141434404Y-99657581D01*
X141443855Y-99670116D01*
X141457133Y-99690263D01*
X141457138Y-99690269D01*
X141460598Y-99695519D01*
X141465044Y-99699965D01*
X141465045Y-99699966D01*
X141502300Y-99737221D01*
X141508705Y-99744131D01*
X141547134Y-99788895D01*
X141571198Y-99807522D01*
X141582968Y-99817889D01*
X144692898Y-102927819D01*
X144723148Y-102977182D01*
X144727690Y-103034898D01*
X144705535Y-103088385D01*
X144661512Y-103125985D01*
X144605217Y-103139500D01*
X135655840Y-103139500D01*
X135610765Y-103131017D01*
X135573074Y-103107489D01*
X135571784Y-103106087D01*
X135567748Y-103102946D01*
X135567743Y-103102941D01*
X135394181Y-102967854D01*
X135358943Y-102924461D01*
X135346343Y-102870000D01*
X135358943Y-102815539D01*
X135394181Y-102772146D01*
X135571784Y-102633913D01*
X135728979Y-102463153D01*
X135855924Y-102268849D01*
X135949157Y-102056300D01*
X136006134Y-101831305D01*
X136025300Y-101600000D01*
X136006134Y-101368695D01*
X135949157Y-101143700D01*
X135855924Y-100931151D01*
X135728979Y-100736847D01*
X135571784Y-100566087D01*
X135394180Y-100427852D01*
X135358943Y-100384461D01*
X135346343Y-100330000D01*
X135358943Y-100275539D01*
X135394181Y-100232146D01*
X135571784Y-100093913D01*
X135728979Y-99923153D01*
X135855924Y-99728849D01*
X135949157Y-99516300D01*
X136006134Y-99291305D01*
X136025300Y-99060000D01*
X136006134Y-98828695D01*
X135949157Y-98603700D01*
X135855924Y-98391151D01*
X135728979Y-98196847D01*
X135571784Y-98026087D01*
X135394180Y-97887852D01*
X135358943Y-97844461D01*
X135346343Y-97790000D01*
X135358943Y-97735539D01*
X135394181Y-97692146D01*
X135571784Y-97553913D01*
X135728979Y-97383153D01*
X135855924Y-97188849D01*
X135949157Y-96976300D01*
X136006134Y-96751305D01*
X136025300Y-96520000D01*
X136006134Y-96288695D01*
X135949157Y-96063700D01*
X135855924Y-95851151D01*
X135728979Y-95656847D01*
X135571784Y-95486087D01*
X135561901Y-95478395D01*
X135394181Y-95347854D01*
X135358943Y-95304461D01*
X135346343Y-95250000D01*
X135358943Y-95195539D01*
X135394181Y-95152146D01*
X135571784Y-95013913D01*
X135728979Y-94843153D01*
X135855924Y-94648849D01*
X135949157Y-94436300D01*
X136006134Y-94211305D01*
X136025300Y-93980000D01*
X136006134Y-93748695D01*
X135949157Y-93523700D01*
X135855924Y-93311151D01*
X135728979Y-93116847D01*
X135571784Y-92946087D01*
X135555662Y-92933539D01*
X135439498Y-92843125D01*
X135394180Y-92807852D01*
X135358943Y-92764461D01*
X135346343Y-92710000D01*
X135358943Y-92655539D01*
X135394181Y-92612146D01*
X135571784Y-92473913D01*
X135728979Y-92303153D01*
X135855924Y-92108849D01*
X135949157Y-91896300D01*
X136006134Y-91671305D01*
X136025300Y-91440000D01*
X136006134Y-91208695D01*
X135949157Y-90983700D01*
X135855924Y-90771151D01*
X135728979Y-90576847D01*
X135571784Y-90406087D01*
X135394180Y-90267852D01*
X135358943Y-90224461D01*
X135346343Y-90170000D01*
X135358943Y-90115539D01*
X135394181Y-90072146D01*
X135571784Y-89933913D01*
X135728979Y-89763153D01*
X135855924Y-89568849D01*
X135949157Y-89356300D01*
X136006134Y-89131305D01*
X136025300Y-88900000D01*
X136006134Y-88668695D01*
X135949157Y-88443700D01*
X135855924Y-88231151D01*
X135728979Y-88036847D01*
X135571784Y-87866087D01*
X135561906Y-87858399D01*
X135394181Y-87727854D01*
X135358943Y-87684461D01*
X135346343Y-87630000D01*
X135358943Y-87575539D01*
X135394181Y-87532146D01*
X135398962Y-87528425D01*
X135571784Y-87393913D01*
X135728979Y-87223153D01*
X135855924Y-87028849D01*
X135949157Y-86816300D01*
X136006134Y-86591305D01*
X136025300Y-86360000D01*
X136006134Y-86128695D01*
X135949157Y-85903700D01*
X135855924Y-85691151D01*
X135728979Y-85496847D01*
X135571784Y-85326087D01*
X135555662Y-85313539D01*
X135476913Y-85252246D01*
X135394180Y-85187852D01*
X135358943Y-85144461D01*
X135346343Y-85090000D01*
X135358943Y-85035539D01*
X135394181Y-84992146D01*
X135571784Y-84853913D01*
X135728979Y-84683153D01*
X135855924Y-84488849D01*
X135949157Y-84276300D01*
X136006134Y-84051305D01*
X136025300Y-83820000D01*
X136006134Y-83588695D01*
X135949157Y-83363700D01*
X135855924Y-83151151D01*
X135728979Y-82956847D01*
X135571784Y-82786087D01*
X135394180Y-82647852D01*
X135358943Y-82604461D01*
X135346343Y-82550000D01*
X135358943Y-82495539D01*
X135394181Y-82452146D01*
X135571784Y-82313913D01*
X135728979Y-82143153D01*
X135855924Y-81948849D01*
X135949157Y-81736300D01*
X136006134Y-81511305D01*
X136025300Y-81280000D01*
X136006134Y-81048695D01*
X135949157Y-80823700D01*
X135855924Y-80611151D01*
X135728979Y-80416847D01*
X135571784Y-80246087D01*
X135394180Y-80107852D01*
X135358943Y-80064461D01*
X135346343Y-80010000D01*
X135358943Y-79955539D01*
X135394181Y-79912146D01*
X135571784Y-79773913D01*
X135728979Y-79603153D01*
X135855924Y-79408849D01*
X135949157Y-79196300D01*
X136006134Y-78971305D01*
X136025300Y-78740000D01*
X136006134Y-78508695D01*
X135949157Y-78283700D01*
X135855924Y-78071151D01*
X135728979Y-77876847D01*
X135571784Y-77706087D01*
X135561901Y-77698395D01*
X135394181Y-77567854D01*
X135358943Y-77524461D01*
X135346343Y-77470000D01*
X135358943Y-77415539D01*
X135394181Y-77372146D01*
X135398962Y-77368425D01*
X135571784Y-77233913D01*
X135728979Y-77063153D01*
X135855924Y-76868849D01*
X135949157Y-76656300D01*
X136006134Y-76431305D01*
X136025300Y-76200000D01*
X136006134Y-75968695D01*
X135949157Y-75743700D01*
X135855924Y-75531151D01*
X135728979Y-75336847D01*
X135571784Y-75166087D01*
X135555662Y-75153539D01*
X135476913Y-75092246D01*
X135394180Y-75027852D01*
X135358943Y-74984461D01*
X135346343Y-74930000D01*
X135358943Y-74875539D01*
X135394181Y-74832146D01*
X135571784Y-74693913D01*
X135728979Y-74523153D01*
X135855924Y-74328849D01*
X135949157Y-74116300D01*
X136006134Y-73891305D01*
X136025300Y-73660000D01*
X136006134Y-73428695D01*
X135949157Y-73203700D01*
X135855924Y-72991151D01*
X135728979Y-72796847D01*
X135571784Y-72626087D01*
X135518653Y-72584734D01*
X135392672Y-72486679D01*
X135392671Y-72486678D01*
X135388626Y-72483530D01*
X135266933Y-72417673D01*
X135189007Y-72375501D01*
X135189002Y-72375499D01*
X135184503Y-72373064D01*
X135179657Y-72371400D01*
X135179654Y-72371399D01*
X134969834Y-72299368D01*
X134969833Y-72299367D01*
X134964981Y-72297702D01*
X134959931Y-72296859D01*
X134959922Y-72296857D01*
X134741111Y-72260344D01*
X134741102Y-72260343D01*
X134736049Y-72259500D01*
X134503951Y-72259500D01*
X134498898Y-72260343D01*
X134498888Y-72260344D01*
X134280077Y-72296857D01*
X134280065Y-72296859D01*
X134275019Y-72297702D01*
X134270169Y-72299366D01*
X134270165Y-72299368D01*
X134060345Y-72371399D01*
X134060337Y-72371402D01*
X134055497Y-72373064D01*
X134051001Y-72375496D01*
X134050992Y-72375501D01*
X133855882Y-72481090D01*
X133855878Y-72481092D01*
X133851374Y-72483530D01*
X133847334Y-72486674D01*
X133847327Y-72486679D01*
X133672263Y-72622936D01*
X133672255Y-72622943D01*
X133668216Y-72626087D01*
X133664746Y-72629855D01*
X133664742Y-72629860D01*
X133514491Y-72793077D01*
X133514488Y-72793080D01*
X133511021Y-72796847D01*
X133508226Y-72801124D01*
X133508219Y-72801134D01*
X133394066Y-72975860D01*
X133384076Y-72991151D01*
X133382021Y-72995835D01*
X133382016Y-72995845D01*
X133294930Y-73194383D01*
X133290843Y-73203700D01*
X133289585Y-73208665D01*
X133289584Y-73208670D01*
X133235125Y-73423720D01*
X133235123Y-73423729D01*
X133233866Y-73428695D01*
X133233442Y-73433802D01*
X133233441Y-73433813D01*
X133218243Y-73617241D01*
X133214700Y-73660000D01*
X133215124Y-73665117D01*
X133233441Y-73886186D01*
X133233442Y-73886195D01*
X133233866Y-73891305D01*
X133235123Y-73896272D01*
X133235125Y-73896279D01*
X133289584Y-74111329D01*
X133290843Y-74116300D01*
X133292903Y-74120996D01*
X133382016Y-74324154D01*
X133382019Y-74324159D01*
X133384076Y-74328849D01*
X133447548Y-74426000D01*
X133508219Y-74518865D01*
X133508222Y-74518869D01*
X133511021Y-74523153D01*
X133668216Y-74693913D01*
X133845819Y-74832146D01*
X133881056Y-74875538D01*
X133893656Y-74929999D01*
X133881057Y-74984459D01*
X133845819Y-75027852D01*
X133672265Y-75162934D01*
X133672254Y-75162944D01*
X133668216Y-75166087D01*
X133664746Y-75169855D01*
X133664742Y-75169860D01*
X133514491Y-75333077D01*
X133514488Y-75333080D01*
X133511021Y-75336847D01*
X133508226Y-75341124D01*
X133508219Y-75341134D01*
X133392844Y-75517731D01*
X133384076Y-75531151D01*
X133382021Y-75535835D01*
X133382016Y-75535845D01*
X133292903Y-75739003D01*
X133290843Y-75743700D01*
X133289585Y-75748665D01*
X133289584Y-75748670D01*
X133235125Y-75963720D01*
X133235123Y-75963729D01*
X133233866Y-75968695D01*
X133233442Y-75973802D01*
X133233441Y-75973813D01*
X133215200Y-76193955D01*
X133214700Y-76200000D01*
X133215124Y-76205117D01*
X133233441Y-76426186D01*
X133233442Y-76426195D01*
X133233866Y-76431305D01*
X133235123Y-76436272D01*
X133235125Y-76436279D01*
X133236228Y-76440634D01*
X133290843Y-76656300D01*
X133292903Y-76660996D01*
X133382016Y-76864154D01*
X133382019Y-76864159D01*
X133384076Y-76868849D01*
X133447548Y-76966001D01*
X133508219Y-77058865D01*
X133508222Y-77058869D01*
X133511021Y-77063153D01*
X133668216Y-77233913D01*
X133672263Y-77237063D01*
X133672270Y-77237069D01*
X133845818Y-77372147D01*
X133881056Y-77415540D01*
X133893656Y-77470000D01*
X133881056Y-77524460D01*
X133845818Y-77567853D01*
X133672270Y-77702930D01*
X133672258Y-77702940D01*
X133668216Y-77706087D01*
X133664746Y-77709855D01*
X133664742Y-77709860D01*
X133514491Y-77873077D01*
X133514488Y-77873080D01*
X133511021Y-77876847D01*
X133508226Y-77881124D01*
X133508219Y-77881134D01*
X133392844Y-78057731D01*
X133384076Y-78071151D01*
X133382021Y-78075835D01*
X133382016Y-78075845D01*
X133292903Y-78279003D01*
X133290843Y-78283700D01*
X133289585Y-78288665D01*
X133289584Y-78288670D01*
X133235125Y-78503720D01*
X133235123Y-78503729D01*
X133233866Y-78508695D01*
X133233442Y-78513802D01*
X133233441Y-78513813D01*
X133215200Y-78733955D01*
X133214700Y-78740000D01*
X133215124Y-78745117D01*
X133233441Y-78966186D01*
X133233442Y-78966195D01*
X133233866Y-78971305D01*
X133235123Y-78976272D01*
X133235125Y-78976279D01*
X133236228Y-78980634D01*
X133290843Y-79196300D01*
X133292903Y-79200996D01*
X133382016Y-79404154D01*
X133382019Y-79404159D01*
X133384076Y-79408849D01*
X133447548Y-79506000D01*
X133508219Y-79598865D01*
X133508222Y-79598869D01*
X133511021Y-79603153D01*
X133668216Y-79773913D01*
X133672263Y-79777063D01*
X133672270Y-79777069D01*
X133845818Y-79912147D01*
X133881056Y-79955540D01*
X133893656Y-80010000D01*
X133881056Y-80064460D01*
X133845818Y-80107853D01*
X133672270Y-80242930D01*
X133672258Y-80242940D01*
X133668216Y-80246087D01*
X133664746Y-80249855D01*
X133664742Y-80249860D01*
X133514491Y-80413077D01*
X133514488Y-80413080D01*
X133511021Y-80416847D01*
X133508226Y-80421124D01*
X133508219Y-80421134D01*
X133386878Y-80606862D01*
X133384076Y-80611151D01*
X133382021Y-80615835D01*
X133382016Y-80615845D01*
X133292903Y-80819003D01*
X133290843Y-80823700D01*
X133289585Y-80828665D01*
X133289584Y-80828670D01*
X133235125Y-81043720D01*
X133235123Y-81043729D01*
X133233866Y-81048695D01*
X133233442Y-81053802D01*
X133233441Y-81053813D01*
X133220609Y-81208683D01*
X133214700Y-81280000D01*
X133215124Y-81285117D01*
X133233441Y-81506186D01*
X133233442Y-81506195D01*
X133233866Y-81511305D01*
X133235123Y-81516272D01*
X133235125Y-81516279D01*
X133285157Y-81713847D01*
X133290843Y-81736300D01*
X133292903Y-81740996D01*
X133382016Y-81944154D01*
X133382019Y-81944159D01*
X133384076Y-81948849D01*
X133414461Y-81995356D01*
X133508219Y-82138865D01*
X133508222Y-82138869D01*
X133511021Y-82143153D01*
X133668216Y-82313913D01*
X133845819Y-82452146D01*
X133881056Y-82495538D01*
X133893656Y-82549999D01*
X133881057Y-82604459D01*
X133845819Y-82647852D01*
X133672265Y-82782934D01*
X133672254Y-82782944D01*
X133668216Y-82786087D01*
X133664746Y-82789855D01*
X133664742Y-82789860D01*
X133514491Y-82953077D01*
X133514488Y-82953080D01*
X133511021Y-82956847D01*
X133508226Y-82961124D01*
X133508219Y-82961134D01*
X133386878Y-83146862D01*
X133384076Y-83151151D01*
X133382021Y-83155835D01*
X133382016Y-83155845D01*
X133292903Y-83359003D01*
X133290843Y-83363700D01*
X133289585Y-83368665D01*
X133289584Y-83368670D01*
X133235125Y-83583720D01*
X133235123Y-83583729D01*
X133233866Y-83588695D01*
X133233442Y-83593802D01*
X133233441Y-83593813D01*
X133215200Y-83813955D01*
X133214700Y-83820000D01*
X133215124Y-83825117D01*
X133233441Y-84046186D01*
X133233442Y-84046195D01*
X133233866Y-84051305D01*
X133235123Y-84056272D01*
X133235125Y-84056279D01*
X133289584Y-84271329D01*
X133290843Y-84276300D01*
X133292903Y-84280996D01*
X133382016Y-84484154D01*
X133382019Y-84484159D01*
X133384076Y-84488849D01*
X133447548Y-84586001D01*
X133508219Y-84678865D01*
X133508222Y-84678869D01*
X133511021Y-84683153D01*
X133668216Y-84853913D01*
X133672263Y-84857063D01*
X133672270Y-84857069D01*
X133845818Y-84992147D01*
X133881056Y-85035540D01*
X133893656Y-85090000D01*
X133881056Y-85144460D01*
X133845818Y-85187853D01*
X133672270Y-85322930D01*
X133672258Y-85322940D01*
X133668216Y-85326087D01*
X133664746Y-85329855D01*
X133664742Y-85329860D01*
X133514491Y-85493077D01*
X133514488Y-85493080D01*
X133511021Y-85496847D01*
X133508226Y-85501124D01*
X133508219Y-85501134D01*
X133392844Y-85677731D01*
X133384076Y-85691151D01*
X133382021Y-85695835D01*
X133382016Y-85695845D01*
X133292903Y-85899003D01*
X133290843Y-85903700D01*
X133289585Y-85908665D01*
X133289584Y-85908670D01*
X133235125Y-86123720D01*
X133235123Y-86123729D01*
X133233866Y-86128695D01*
X133233442Y-86133802D01*
X133233441Y-86133813D01*
X133215200Y-86353955D01*
X133214700Y-86360000D01*
X133215124Y-86365117D01*
X133233441Y-86586186D01*
X133233442Y-86586195D01*
X133233866Y-86591305D01*
X133235123Y-86596272D01*
X133235125Y-86596279D01*
X133236228Y-86600634D01*
X133290843Y-86816300D01*
X133292903Y-86820996D01*
X133382016Y-87024154D01*
X133382019Y-87024159D01*
X133384076Y-87028849D01*
X133447548Y-87126000D01*
X133508219Y-87218865D01*
X133508222Y-87218869D01*
X133511021Y-87223153D01*
X133668216Y-87393913D01*
X133672263Y-87397063D01*
X133672270Y-87397069D01*
X133845818Y-87532147D01*
X133881056Y-87575540D01*
X133893656Y-87630000D01*
X133881056Y-87684460D01*
X133845818Y-87727853D01*
X133672270Y-87862930D01*
X133672258Y-87862940D01*
X133668216Y-87866087D01*
X133664746Y-87869855D01*
X133664742Y-87869860D01*
X133514491Y-88033077D01*
X133514488Y-88033080D01*
X133511021Y-88036847D01*
X133508226Y-88041124D01*
X133508219Y-88041134D01*
X133392844Y-88217731D01*
X133384076Y-88231151D01*
X133382021Y-88235835D01*
X133382016Y-88235845D01*
X133292903Y-88439003D01*
X133290843Y-88443700D01*
X133289585Y-88448665D01*
X133289584Y-88448670D01*
X133235125Y-88663720D01*
X133235123Y-88663729D01*
X133233866Y-88668695D01*
X133233442Y-88673802D01*
X133233441Y-88673813D01*
X133215200Y-88893955D01*
X133214700Y-88900000D01*
X133215124Y-88905117D01*
X133233441Y-89126186D01*
X133233442Y-89126195D01*
X133233866Y-89131305D01*
X133235123Y-89136272D01*
X133235125Y-89136279D01*
X133236228Y-89140634D01*
X133290843Y-89356300D01*
X133292903Y-89360996D01*
X133382016Y-89564154D01*
X133382019Y-89564159D01*
X133384076Y-89568849D01*
X133429055Y-89637695D01*
X133508219Y-89758865D01*
X133508222Y-89758869D01*
X133511021Y-89763153D01*
X133668216Y-89933913D01*
X133672263Y-89937063D01*
X133672270Y-89937069D01*
X133845818Y-90072147D01*
X133881056Y-90115540D01*
X133893656Y-90170000D01*
X133881056Y-90224460D01*
X133845818Y-90267853D01*
X133672270Y-90402930D01*
X133672258Y-90402940D01*
X133668216Y-90406087D01*
X133664746Y-90409855D01*
X133664742Y-90409860D01*
X133514491Y-90573077D01*
X133514488Y-90573080D01*
X133511021Y-90576847D01*
X133508226Y-90581124D01*
X133508219Y-90581134D01*
X133386878Y-90766862D01*
X133384076Y-90771151D01*
X133382021Y-90775835D01*
X133382016Y-90775845D01*
X133292903Y-90979003D01*
X133290843Y-90983700D01*
X133289585Y-90988665D01*
X133289584Y-90988670D01*
X133235125Y-91203720D01*
X133235123Y-91203729D01*
X133233866Y-91208695D01*
X133233442Y-91213802D01*
X133233441Y-91213813D01*
X133215200Y-91433955D01*
X133214700Y-91440000D01*
X133215124Y-91445117D01*
X133233441Y-91666186D01*
X133233442Y-91666195D01*
X133233866Y-91671305D01*
X133235123Y-91676272D01*
X133235125Y-91676279D01*
X133289584Y-91891329D01*
X133290843Y-91896300D01*
X133292903Y-91900996D01*
X133382016Y-92104154D01*
X133382019Y-92104159D01*
X133384076Y-92108849D01*
X133447548Y-92206000D01*
X133508219Y-92298865D01*
X133508222Y-92298869D01*
X133511021Y-92303153D01*
X133668216Y-92473913D01*
X133672263Y-92477063D01*
X133672270Y-92477069D01*
X133845818Y-92612147D01*
X133881056Y-92655540D01*
X133893656Y-92710000D01*
X133881056Y-92764460D01*
X133845818Y-92807853D01*
X133672270Y-92942930D01*
X133672258Y-92942940D01*
X133668216Y-92946087D01*
X133664746Y-92949855D01*
X133664742Y-92949860D01*
X133514491Y-93113077D01*
X133514488Y-93113080D01*
X133511021Y-93116847D01*
X133508226Y-93121124D01*
X133508219Y-93121134D01*
X133402442Y-93283040D01*
X133384076Y-93311151D01*
X133382021Y-93315835D01*
X133382016Y-93315845D01*
X133292903Y-93519003D01*
X133290843Y-93523700D01*
X133289585Y-93528665D01*
X133289584Y-93528670D01*
X133235125Y-93743720D01*
X133235123Y-93743729D01*
X133233866Y-93748695D01*
X133233442Y-93753802D01*
X133233441Y-93753813D01*
X133215200Y-93973955D01*
X133214700Y-93980000D01*
X133215124Y-93985117D01*
X133233441Y-94206186D01*
X133233442Y-94206195D01*
X133233866Y-94211305D01*
X133235123Y-94216272D01*
X133235125Y-94216279D01*
X133236228Y-94220634D01*
X133290843Y-94436300D01*
X133292903Y-94440996D01*
X133382016Y-94644154D01*
X133382019Y-94644159D01*
X133384076Y-94648849D01*
X133447548Y-94746000D01*
X133508219Y-94838865D01*
X133508222Y-94838869D01*
X133511021Y-94843153D01*
X133668216Y-95013913D01*
X133845819Y-95152146D01*
X133881056Y-95195538D01*
X133893656Y-95249999D01*
X133881057Y-95304459D01*
X133845819Y-95347852D01*
X133672265Y-95482934D01*
X133672254Y-95482944D01*
X133668216Y-95486087D01*
X133664746Y-95489855D01*
X133664742Y-95489860D01*
X133514491Y-95653077D01*
X133514488Y-95653080D01*
X133511021Y-95656847D01*
X133508226Y-95661124D01*
X133508219Y-95661134D01*
X133402442Y-95823040D01*
X133384076Y-95851151D01*
X133382021Y-95855835D01*
X133382016Y-95855845D01*
X133292903Y-96059003D01*
X133290843Y-96063700D01*
X133289585Y-96068665D01*
X133289584Y-96068670D01*
X133235125Y-96283720D01*
X133235123Y-96283729D01*
X133233866Y-96288695D01*
X133233442Y-96293802D01*
X133233441Y-96293813D01*
X133216674Y-96496172D01*
X133214700Y-96520000D01*
X133215124Y-96525117D01*
X133233441Y-96746186D01*
X133233442Y-96746195D01*
X133233866Y-96751305D01*
X133235123Y-96756272D01*
X133235125Y-96756279D01*
X133265513Y-96876276D01*
X133290843Y-96976300D01*
X133292903Y-96980996D01*
X133382016Y-97184154D01*
X133382019Y-97184159D01*
X133384076Y-97188849D01*
X133432065Y-97262302D01*
X133508219Y-97378865D01*
X133508222Y-97378869D01*
X133511021Y-97383153D01*
X133668216Y-97553913D01*
X133672263Y-97557063D01*
X133672270Y-97557069D01*
X133845818Y-97692147D01*
X133881056Y-97735540D01*
X133893656Y-97790000D01*
X133881056Y-97844460D01*
X133845818Y-97887853D01*
X133672270Y-98022930D01*
X133672258Y-98022940D01*
X133668216Y-98026087D01*
X133664746Y-98029855D01*
X133664742Y-98029860D01*
X133514491Y-98193077D01*
X133514488Y-98193080D01*
X133511021Y-98196847D01*
X133508226Y-98201124D01*
X133508219Y-98201134D01*
X133386878Y-98386862D01*
X133384076Y-98391151D01*
X133382021Y-98395835D01*
X133382016Y-98395845D01*
X133295002Y-98594218D01*
X133290843Y-98603700D01*
X133289585Y-98608665D01*
X133289584Y-98608670D01*
X133235125Y-98823720D01*
X133235123Y-98823729D01*
X133233866Y-98828695D01*
X133233442Y-98833802D01*
X133233441Y-98833813D01*
X133224059Y-98947048D01*
X133214700Y-99060000D01*
X133215124Y-99065117D01*
X133233441Y-99286186D01*
X133233442Y-99286195D01*
X133233866Y-99291305D01*
X133235123Y-99296272D01*
X133235125Y-99296279D01*
X133277113Y-99462083D01*
X133290843Y-99516300D01*
X133309907Y-99559763D01*
X133382016Y-99724154D01*
X133382019Y-99724159D01*
X133384076Y-99728849D01*
X133442249Y-99817889D01*
X133508219Y-99918865D01*
X133508222Y-99918869D01*
X133511021Y-99923153D01*
X133668216Y-100093913D01*
X133672263Y-100097063D01*
X133672270Y-100097069D01*
X133845818Y-100232147D01*
X133881056Y-100275540D01*
X133893656Y-100330000D01*
X133881056Y-100384460D01*
X133845818Y-100427853D01*
X133672270Y-100562930D01*
X133672258Y-100562940D01*
X133668216Y-100566087D01*
X133664746Y-100569855D01*
X133664742Y-100569860D01*
X133514491Y-100733077D01*
X133514488Y-100733080D01*
X133511021Y-100736847D01*
X133508226Y-100741124D01*
X133508219Y-100741134D01*
X133386878Y-100926862D01*
X133384076Y-100931151D01*
X133382021Y-100935835D01*
X133382016Y-100935845D01*
X133292903Y-101139003D01*
X133290843Y-101143700D01*
X133289585Y-101148665D01*
X133289584Y-101148670D01*
X133235125Y-101363720D01*
X133235123Y-101363729D01*
X133233866Y-101368695D01*
X133233442Y-101373802D01*
X133233441Y-101373813D01*
X133215200Y-101593955D01*
X133214700Y-101600000D01*
X133215124Y-101605117D01*
X133233441Y-101826186D01*
X133233442Y-101826195D01*
X133233866Y-101831305D01*
X133235123Y-101836272D01*
X133235125Y-101836279D01*
X133289584Y-102051329D01*
X133290843Y-102056300D01*
X133292903Y-102060996D01*
X133382016Y-102264154D01*
X133382019Y-102264159D01*
X133384076Y-102268849D01*
X133447548Y-102366001D01*
X133508219Y-102458865D01*
X133508222Y-102458869D01*
X133511021Y-102463153D01*
X133668216Y-102633913D01*
X133672263Y-102637063D01*
X133672270Y-102637069D01*
X133845818Y-102772147D01*
X133881056Y-102815540D01*
X133893656Y-102870000D01*
X133881056Y-102924460D01*
X133845818Y-102967853D01*
X133672270Y-103102930D01*
X133672258Y-103102940D01*
X133668216Y-103106087D01*
X133664746Y-103109855D01*
X133664742Y-103109860D01*
X133514491Y-103273077D01*
X133514488Y-103273080D01*
X133511021Y-103276847D01*
X133508226Y-103281124D01*
X133508219Y-103281134D01*
X133386878Y-103466862D01*
X133384076Y-103471151D01*
X133382021Y-103475835D01*
X133382016Y-103475845D01*
X133292903Y-103679003D01*
X133290843Y-103683700D01*
X133289585Y-103688665D01*
X133289584Y-103688670D01*
X133235125Y-103903720D01*
X133235123Y-103903729D01*
X133233866Y-103908695D01*
X133233442Y-103913802D01*
X133233441Y-103913813D01*
X133216674Y-104116172D01*
X133214700Y-104140000D01*
X133215124Y-104145117D01*
X133233441Y-104366186D01*
X133233442Y-104366195D01*
X133233866Y-104371305D01*
X133235123Y-104376272D01*
X133235125Y-104376279D01*
X133272718Y-104524727D01*
X133290843Y-104596300D01*
X133292903Y-104600996D01*
X133382016Y-104804154D01*
X133382019Y-104804159D01*
X133384076Y-104808849D01*
X133405890Y-104842238D01*
X133508219Y-104998865D01*
X133508222Y-104998869D01*
X133511021Y-105003153D01*
X133668216Y-105173913D01*
X133845819Y-105312146D01*
X133881056Y-105355538D01*
X133893656Y-105409999D01*
X133881057Y-105464459D01*
X133845819Y-105507852D01*
X133672265Y-105642934D01*
X133672254Y-105642944D01*
X133668216Y-105646087D01*
X133664746Y-105649855D01*
X133664742Y-105649860D01*
X133514491Y-105813077D01*
X133514488Y-105813080D01*
X133511021Y-105816847D01*
X133508226Y-105821124D01*
X133508219Y-105821134D01*
X133386878Y-106006862D01*
X133384076Y-106011151D01*
X133382021Y-106015835D01*
X133382016Y-106015845D01*
X133292903Y-106219003D01*
X133290843Y-106223700D01*
X133289585Y-106228665D01*
X133289584Y-106228670D01*
X133235125Y-106443720D01*
X133235123Y-106443729D01*
X133233866Y-106448695D01*
X133233442Y-106453802D01*
X133233441Y-106453813D01*
X133215200Y-106673955D01*
X133214700Y-106680000D01*
X133215124Y-106685117D01*
X133233441Y-106906186D01*
X133233442Y-106906195D01*
X133233866Y-106911305D01*
X133235123Y-106916272D01*
X133235125Y-106916279D01*
X133289584Y-107131329D01*
X133290843Y-107136300D01*
X133292903Y-107140996D01*
X133382016Y-107344154D01*
X133382019Y-107344159D01*
X133384076Y-107348849D01*
X133447548Y-107446001D01*
X133508219Y-107538865D01*
X133508222Y-107538869D01*
X133511021Y-107543153D01*
X133668216Y-107713913D01*
X133845819Y-107852146D01*
X133881056Y-107895538D01*
X133893656Y-107949999D01*
X133881057Y-108004459D01*
X133845819Y-108047852D01*
X133672265Y-108182934D01*
X133672254Y-108182944D01*
X133668216Y-108186087D01*
X133664746Y-108189855D01*
X133664742Y-108189860D01*
X133514491Y-108353077D01*
X133514488Y-108353080D01*
X133511021Y-108356847D01*
X133508226Y-108361124D01*
X133508219Y-108361134D01*
X133389674Y-108542582D01*
X133384076Y-108551151D01*
X133382021Y-108555835D01*
X133382016Y-108555845D01*
X133294930Y-108754383D01*
X133290843Y-108763700D01*
X133289585Y-108768665D01*
X133289584Y-108768670D01*
X133235125Y-108983720D01*
X133235123Y-108983729D01*
X133233866Y-108988695D01*
X133233442Y-108993802D01*
X133233441Y-108993813D01*
X133217092Y-109191129D01*
X133214700Y-109220000D01*
X133215124Y-109225117D01*
X133233441Y-109446186D01*
X133233442Y-109446195D01*
X133233866Y-109451305D01*
X133235123Y-109456272D01*
X133235125Y-109456279D01*
X133289584Y-109671329D01*
X133290843Y-109676300D01*
X133292903Y-109680996D01*
X133382016Y-109884154D01*
X133382019Y-109884159D01*
X133384076Y-109888849D01*
X133432005Y-109962210D01*
X133508219Y-110078865D01*
X133508222Y-110078869D01*
X133511021Y-110083153D01*
X133668216Y-110253913D01*
X133672263Y-110257063D01*
X133672270Y-110257069D01*
X133845818Y-110392147D01*
X133881056Y-110435540D01*
X133893656Y-110490000D01*
X133881056Y-110544460D01*
X133845818Y-110587853D01*
X133672270Y-110722930D01*
X133672258Y-110722940D01*
X133668216Y-110726087D01*
X133664746Y-110729855D01*
X133664742Y-110729860D01*
X133514491Y-110893077D01*
X133514488Y-110893080D01*
X133511021Y-110896847D01*
X133508226Y-110901124D01*
X133508219Y-110901134D01*
X133386878Y-111086862D01*
X133384076Y-111091151D01*
X133382021Y-111095835D01*
X133382016Y-111095845D01*
X133292903Y-111299003D01*
X133290843Y-111303700D01*
X133289585Y-111308665D01*
X133289584Y-111308670D01*
X133235125Y-111523720D01*
X133235123Y-111523729D01*
X133233866Y-111528695D01*
X133233442Y-111533802D01*
X133233441Y-111533813D01*
X133215200Y-111753955D01*
X133214700Y-111760000D01*
X133215124Y-111765117D01*
X133233441Y-111986186D01*
X133233442Y-111986195D01*
X133233866Y-111991305D01*
X133235123Y-111996272D01*
X133235125Y-111996279D01*
X133289584Y-112211329D01*
X133290843Y-112216300D01*
X133292903Y-112220996D01*
X133382016Y-112424154D01*
X133382019Y-112424159D01*
X133384076Y-112428849D01*
X133447548Y-112526001D01*
X133508219Y-112618865D01*
X133508222Y-112618869D01*
X133511021Y-112623153D01*
X133668216Y-112793913D01*
X133672263Y-112797063D01*
X133672270Y-112797069D01*
X133845818Y-112932147D01*
X133881056Y-112975540D01*
X133893656Y-113030000D01*
X133881056Y-113084460D01*
X133845818Y-113127853D01*
X133672270Y-113262930D01*
X133672258Y-113262940D01*
X133668216Y-113266087D01*
X133664746Y-113269855D01*
X133664742Y-113269860D01*
X133514491Y-113433077D01*
X133514488Y-113433080D01*
X133511021Y-113436847D01*
X133508226Y-113441124D01*
X133508219Y-113441134D01*
X133392844Y-113617731D01*
X133384076Y-113631151D01*
X133382021Y-113635835D01*
X133382016Y-113635845D01*
X133292903Y-113839003D01*
X133290843Y-113843700D01*
X133289585Y-113848665D01*
X133289584Y-113848670D01*
X133235125Y-114063720D01*
X133235123Y-114063729D01*
X133233866Y-114068695D01*
X133233442Y-114073802D01*
X133233441Y-114073813D01*
X133215200Y-114293955D01*
X133214700Y-114300000D01*
X133215124Y-114305117D01*
X133233441Y-114526186D01*
X133233442Y-114526195D01*
X133233866Y-114531305D01*
X133235123Y-114536272D01*
X133235125Y-114536279D01*
X133270173Y-114674677D01*
X133290843Y-114756300D01*
X133292903Y-114760996D01*
X133382016Y-114964154D01*
X133382019Y-114964159D01*
X133384076Y-114968849D01*
X133447548Y-115066001D01*
X133508219Y-115158865D01*
X133508222Y-115158869D01*
X133511021Y-115163153D01*
X133668216Y-115333913D01*
X133672263Y-115337063D01*
X133672270Y-115337069D01*
X133845818Y-115472147D01*
X133881056Y-115515540D01*
X133893656Y-115570000D01*
X133881056Y-115624460D01*
X133845818Y-115667853D01*
X133672270Y-115802930D01*
X133672258Y-115802940D01*
X133668216Y-115806087D01*
X133664746Y-115809855D01*
X133664742Y-115809860D01*
X133514491Y-115973077D01*
X133514488Y-115973080D01*
X133511021Y-115976847D01*
X133508226Y-115981124D01*
X133508219Y-115981134D01*
X133386878Y-116166862D01*
X133384076Y-116171151D01*
X133382021Y-116175835D01*
X133382016Y-116175845D01*
X133307036Y-116346784D01*
X133290843Y-116383700D01*
X133289585Y-116388665D01*
X133289584Y-116388670D01*
X133235125Y-116603720D01*
X133235123Y-116603729D01*
X133233866Y-116608695D01*
X133233442Y-116613802D01*
X133233441Y-116613813D01*
X133218243Y-116797241D01*
X133214700Y-116840000D01*
X133215124Y-116845117D01*
X133233441Y-117066186D01*
X133233442Y-117066195D01*
X133233866Y-117071305D01*
X133235123Y-117076272D01*
X133235125Y-117076279D01*
X133289584Y-117291329D01*
X133290843Y-117296300D01*
X133292903Y-117300996D01*
X133382016Y-117504154D01*
X133382019Y-117504159D01*
X133384076Y-117508849D01*
X133447548Y-117606000D01*
X133508219Y-117698865D01*
X133508222Y-117698869D01*
X133511021Y-117703153D01*
X133668216Y-117873913D01*
X133845819Y-118012146D01*
X133881056Y-118055538D01*
X133893656Y-118109999D01*
X133881057Y-118164459D01*
X133845819Y-118207852D01*
X133672265Y-118342934D01*
X133672254Y-118342944D01*
X133668216Y-118346087D01*
X133664746Y-118349855D01*
X133664742Y-118349860D01*
X133514491Y-118513077D01*
X133514488Y-118513080D01*
X133511021Y-118516847D01*
X133508226Y-118521124D01*
X133508219Y-118521134D01*
X133386878Y-118706862D01*
X133384076Y-118711151D01*
X133382021Y-118715835D01*
X133382016Y-118715845D01*
X133292903Y-118919003D01*
X133290843Y-118923700D01*
X133289585Y-118928665D01*
X133289584Y-118928670D01*
X133235125Y-119143720D01*
X133235123Y-119143729D01*
X133233866Y-119148695D01*
X133233442Y-119153802D01*
X133233441Y-119153813D01*
X133216241Y-119361403D01*
X133214700Y-119380000D01*
X133215124Y-119385117D01*
X133233441Y-119606186D01*
X133233442Y-119606195D01*
X133233866Y-119611305D01*
X133235123Y-119616272D01*
X133235125Y-119616279D01*
X133289584Y-119831329D01*
X133290843Y-119836300D01*
X133292903Y-119840996D01*
X133382016Y-120044154D01*
X133382019Y-120044159D01*
X133384076Y-120048849D01*
X133422870Y-120108228D01*
X133508219Y-120238865D01*
X133508222Y-120238869D01*
X133511021Y-120243153D01*
X133668216Y-120413913D01*
X133672263Y-120417063D01*
X133672270Y-120417069D01*
X133845818Y-120552147D01*
X133881056Y-120595540D01*
X133893656Y-120650000D01*
X133881056Y-120704460D01*
X133845818Y-120747853D01*
X133672270Y-120882930D01*
X133672258Y-120882940D01*
X133668216Y-120886087D01*
X133664746Y-120889855D01*
X133664742Y-120889860D01*
X133514491Y-121053077D01*
X133514488Y-121053080D01*
X133511021Y-121056847D01*
X133508226Y-121061124D01*
X133508219Y-121061134D01*
X133386878Y-121246862D01*
X133384076Y-121251151D01*
X133382021Y-121255835D01*
X133382016Y-121255845D01*
X133292903Y-121459003D01*
X133290843Y-121463700D01*
X133289585Y-121468665D01*
X133289584Y-121468670D01*
X133235125Y-121683720D01*
X133235123Y-121683729D01*
X133233866Y-121688695D01*
X133233442Y-121693802D01*
X133233441Y-121693813D01*
X133220609Y-121848683D01*
X133214700Y-121920000D01*
X133215124Y-121925117D01*
X133233441Y-122146186D01*
X133233442Y-122146195D01*
X133233866Y-122151305D01*
X133235123Y-122156272D01*
X133235125Y-122156279D01*
X133289584Y-122371329D01*
X133290843Y-122376300D01*
X133292903Y-122380996D01*
X133382016Y-122584154D01*
X133382019Y-122584159D01*
X133384076Y-122588849D01*
X133414461Y-122635356D01*
X133508219Y-122778865D01*
X133508222Y-122778869D01*
X133511021Y-122783153D01*
X133668216Y-122953913D01*
X133845817Y-123092145D01*
X133846225Y-123092462D01*
X133881463Y-123135856D01*
X133894063Y-123190316D01*
X133881463Y-123244777D01*
X133846224Y-123288170D01*
X133835114Y-123296816D01*
X133827007Y-123308006D01*
X133833667Y-123320114D01*
X134608457Y-124094904D01*
X134620000Y-124101568D01*
X134631542Y-124094904D01*
X135406332Y-123320113D01*
X135412992Y-123308007D01*
X135404885Y-123296817D01*
X135393776Y-123288171D01*
X135358536Y-123244778D01*
X135345936Y-123190317D01*
X135358535Y-123135856D01*
X135393771Y-123092465D01*
X135571784Y-122953913D01*
X135728979Y-122783153D01*
X135855924Y-122588849D01*
X135949157Y-122376300D01*
X136006134Y-122151305D01*
X136025300Y-121920000D01*
X136006134Y-121688695D01*
X135949157Y-121463700D01*
X135855924Y-121251151D01*
X135728979Y-121056847D01*
X135571784Y-120886087D01*
X135394180Y-120747852D01*
X135358943Y-120704461D01*
X135346343Y-120650000D01*
X135358943Y-120595539D01*
X135394181Y-120552146D01*
X135571784Y-120413913D01*
X135728979Y-120243153D01*
X135855924Y-120048849D01*
X135949157Y-119836300D01*
X136006134Y-119611305D01*
X136025300Y-119380000D01*
X136006134Y-119148695D01*
X135949157Y-118923700D01*
X135855924Y-118711151D01*
X135728979Y-118516847D01*
X135571784Y-118346087D01*
X135567733Y-118342934D01*
X135567729Y-118342930D01*
X135394181Y-118207852D01*
X135358942Y-118164459D01*
X135346343Y-118109999D01*
X135358943Y-118055538D01*
X135394177Y-118012148D01*
X135571784Y-117873913D01*
X135728979Y-117703153D01*
X135855924Y-117508849D01*
X135949157Y-117296300D01*
X136006134Y-117071305D01*
X136025300Y-116840000D01*
X136006134Y-116608695D01*
X135949157Y-116383700D01*
X135855924Y-116171151D01*
X135728979Y-115976847D01*
X135571784Y-115806087D01*
X135394180Y-115667852D01*
X135358943Y-115624461D01*
X135346343Y-115570000D01*
X135358943Y-115515539D01*
X135394181Y-115472146D01*
X135571784Y-115333913D01*
X135728979Y-115163153D01*
X135855924Y-114968849D01*
X135949157Y-114756300D01*
X136006134Y-114531305D01*
X136025300Y-114300000D01*
X136006134Y-114068695D01*
X135949157Y-113843700D01*
X135855924Y-113631151D01*
X135728979Y-113436847D01*
X135571784Y-113266087D01*
X135556159Y-113253926D01*
X135394181Y-113127854D01*
X135358943Y-113084461D01*
X135346343Y-113030000D01*
X135358943Y-112975539D01*
X135394181Y-112932146D01*
X135571784Y-112793913D01*
X135728979Y-112623153D01*
X135855924Y-112428849D01*
X135949157Y-112216300D01*
X136006134Y-111991305D01*
X136025300Y-111760000D01*
X136006134Y-111528695D01*
X135949157Y-111303700D01*
X135855924Y-111091151D01*
X135728979Y-110896847D01*
X135571784Y-110726087D01*
X135394180Y-110587852D01*
X135358943Y-110544461D01*
X135346343Y-110490000D01*
X135358943Y-110435539D01*
X135394181Y-110392146D01*
X135571784Y-110253913D01*
X135728979Y-110083153D01*
X135855924Y-109888849D01*
X135949157Y-109676300D01*
X136006134Y-109451305D01*
X136025300Y-109220000D01*
X136006134Y-108988695D01*
X135949157Y-108763700D01*
X135855924Y-108551151D01*
X135728979Y-108356847D01*
X135571784Y-108186087D01*
X135394180Y-108047852D01*
X135358943Y-108004461D01*
X135346343Y-107950000D01*
X135358943Y-107895539D01*
X135394181Y-107852146D01*
X135394183Y-107852145D01*
X135571784Y-107713913D01*
X135573074Y-107712510D01*
X135610765Y-107688983D01*
X135655840Y-107680500D01*
X146854217Y-107680500D01*
X146901670Y-107689939D01*
X146941898Y-107716819D01*
X149113479Y-109888400D01*
X149121651Y-109897416D01*
X149130252Y-109907896D01*
X149149117Y-109930883D01*
X149153823Y-109934745D01*
X149186282Y-109961384D01*
X149187585Y-109962506D01*
X149188419Y-109963340D01*
X149190843Y-109965316D01*
X149190848Y-109965321D01*
X149206782Y-109978313D01*
X149226670Y-109994529D01*
X149301462Y-110055910D01*
X149302871Y-110056663D01*
X149306592Y-110059697D01*
X149392128Y-110104377D01*
X149392994Y-110104834D01*
X149475273Y-110148814D01*
X149478645Y-110149837D01*
X149479675Y-110150318D01*
X149481380Y-110150999D01*
X149486951Y-110153909D01*
X149492994Y-110155638D01*
X149576226Y-110179453D01*
X149578105Y-110180007D01*
X149663868Y-110206024D01*
X149669645Y-110206592D01*
X149674853Y-110207853D01*
X149676525Y-110208152D01*
X149682582Y-110209886D01*
X149771613Y-110216665D01*
X149774278Y-110216897D01*
X149860000Y-110225341D01*
X149866068Y-110224743D01*
X149872157Y-110224743D01*
X149872157Y-110225188D01*
X149872917Y-110225179D01*
X149872913Y-110225019D01*
X149879206Y-110224859D01*
X149885476Y-110225337D01*
X149970541Y-110214502D01*
X149973971Y-110214115D01*
X150056132Y-110206024D01*
X150061969Y-110204252D01*
X150067941Y-110203065D01*
X150067959Y-110203158D01*
X150080249Y-110200530D01*
X150087327Y-110199630D01*
X150165085Y-110173050D01*
X150169153Y-110171738D01*
X150244727Y-110148814D01*
X150251358Y-110145269D01*
X150269707Y-110137290D01*
X150279872Y-110133816D01*
X150347619Y-110093934D01*
X150352046Y-110091450D01*
X150418538Y-110055910D01*
X150423246Y-110052046D01*
X150427129Y-110048860D01*
X150442895Y-110037849D01*
X150455227Y-110030590D01*
X150459895Y-110026372D01*
X150459901Y-110026368D01*
X150510904Y-109980286D01*
X150515356Y-109976451D01*
X150570883Y-109930883D01*
X150580205Y-109919523D01*
X150592923Y-109906185D01*
X150606213Y-109894179D01*
X150648518Y-109836565D01*
X150652600Y-109831310D01*
X150692042Y-109783252D01*
X150692045Y-109783247D01*
X150695910Y-109778538D01*
X150704527Y-109762415D01*
X150713941Y-109747472D01*
X150726649Y-109730167D01*
X150755008Y-109668444D01*
X150758298Y-109661816D01*
X150788814Y-109604727D01*
X150795160Y-109583805D01*
X150801143Y-109568036D01*
X150811605Y-109545268D01*
X150826148Y-109482589D01*
X150828277Y-109474631D01*
X150844254Y-109421968D01*
X150844254Y-109421963D01*
X150846024Y-109416132D01*
X150848515Y-109390829D01*
X150851129Y-109374947D01*
X150856178Y-109353189D01*
X150856178Y-109353188D01*
X150857602Y-109347053D01*
X150859140Y-109286298D01*
X150859696Y-109277308D01*
X150865341Y-109220000D01*
X150864744Y-109213940D01*
X150864744Y-109213933D01*
X150862497Y-109191129D01*
X150861939Y-109175834D01*
X150862756Y-109143636D01*
X150852663Y-109087327D01*
X150851316Y-109077608D01*
X150846024Y-109023868D01*
X150836561Y-108992675D01*
X150833172Y-108978578D01*
X150826858Y-108943347D01*
X150806963Y-108893541D01*
X150803454Y-108883536D01*
X150790582Y-108841102D01*
X150788814Y-108835273D01*
X150771764Y-108803375D01*
X150765980Y-108790941D01*
X150751377Y-108754383D01*
X150723823Y-108712575D01*
X150718000Y-108702791D01*
X150695910Y-108661462D01*
X150670711Y-108630757D01*
X150663027Y-108620328D01*
X150642861Y-108589730D01*
X150639402Y-108584481D01*
X150606518Y-108551597D01*
X150598347Y-108542582D01*
X150574745Y-108513823D01*
X150570883Y-108509117D01*
X150537416Y-108481651D01*
X150528400Y-108473479D01*
X149947102Y-107892181D01*
X149916852Y-107842818D01*
X149912310Y-107785102D01*
X149934465Y-107731615D01*
X149978488Y-107694015D01*
X150034783Y-107680500D01*
X160254160Y-107680500D01*
X160299235Y-107688983D01*
X160336925Y-107712510D01*
X160338216Y-107713913D01*
X160342252Y-107717054D01*
X160342256Y-107717058D01*
X160424956Y-107781425D01*
X160515819Y-107852146D01*
X160551056Y-107895538D01*
X160563656Y-107949999D01*
X160551057Y-108004459D01*
X160515819Y-108047852D01*
X160342265Y-108182934D01*
X160342254Y-108182944D01*
X160338216Y-108186087D01*
X160334746Y-108189855D01*
X160334742Y-108189860D01*
X160184491Y-108353077D01*
X160184488Y-108353080D01*
X160181021Y-108356847D01*
X160178226Y-108361124D01*
X160178219Y-108361134D01*
X160059674Y-108542582D01*
X160054076Y-108551151D01*
X160052021Y-108555835D01*
X160052016Y-108555845D01*
X159964930Y-108754383D01*
X159960843Y-108763700D01*
X159959585Y-108768665D01*
X159959584Y-108768670D01*
X159905125Y-108983720D01*
X159905123Y-108983729D01*
X159903866Y-108988695D01*
X159903442Y-108993802D01*
X159903441Y-108993813D01*
X159887092Y-109191129D01*
X159884700Y-109220000D01*
X159885124Y-109225117D01*
X159903441Y-109446186D01*
X159903442Y-109446195D01*
X159903866Y-109451305D01*
X159905123Y-109456272D01*
X159905125Y-109456279D01*
X159959584Y-109671329D01*
X159960843Y-109676300D01*
X159962903Y-109680996D01*
X160052016Y-109884154D01*
X160052019Y-109884159D01*
X160054076Y-109888849D01*
X160102005Y-109962210D01*
X160178219Y-110078865D01*
X160178222Y-110078869D01*
X160181021Y-110083153D01*
X160338216Y-110253913D01*
X160342263Y-110257063D01*
X160342270Y-110257069D01*
X160515818Y-110392147D01*
X160551056Y-110435540D01*
X160563656Y-110490000D01*
X160551056Y-110544460D01*
X160515818Y-110587853D01*
X160342270Y-110722930D01*
X160342258Y-110722940D01*
X160338216Y-110726087D01*
X160334746Y-110729855D01*
X160334742Y-110729860D01*
X160184491Y-110893077D01*
X160184488Y-110893080D01*
X160181021Y-110896847D01*
X160178226Y-110901124D01*
X160178219Y-110901134D01*
X160056878Y-111086862D01*
X160054076Y-111091151D01*
X160052021Y-111095835D01*
X160052016Y-111095845D01*
X159962903Y-111299003D01*
X159960843Y-111303700D01*
X159959585Y-111308665D01*
X159959584Y-111308670D01*
X159905125Y-111523720D01*
X159905123Y-111523729D01*
X159903866Y-111528695D01*
X159903442Y-111533802D01*
X159903441Y-111533813D01*
X159885200Y-111753955D01*
X159884700Y-111760000D01*
X159885124Y-111765117D01*
X159903441Y-111986186D01*
X159903442Y-111986195D01*
X159903866Y-111991305D01*
X159905123Y-111996272D01*
X159905125Y-111996279D01*
X159959584Y-112211329D01*
X159960843Y-112216300D01*
X159962903Y-112220996D01*
X160052016Y-112424154D01*
X160052019Y-112424159D01*
X160054076Y-112428849D01*
X160117548Y-112526001D01*
X160178219Y-112618865D01*
X160178222Y-112618869D01*
X160181021Y-112623153D01*
X160338216Y-112793913D01*
X160342263Y-112797063D01*
X160342270Y-112797069D01*
X160515818Y-112932147D01*
X160551056Y-112975540D01*
X160563656Y-113030000D01*
X160551056Y-113084460D01*
X160515818Y-113127853D01*
X160342270Y-113262930D01*
X160342258Y-113262940D01*
X160338216Y-113266087D01*
X160334746Y-113269855D01*
X160334742Y-113269860D01*
X160184491Y-113433077D01*
X160184488Y-113433080D01*
X160181021Y-113436847D01*
X160178226Y-113441124D01*
X160178219Y-113441134D01*
X160062844Y-113617731D01*
X160054076Y-113631151D01*
X160052021Y-113635835D01*
X160052016Y-113635845D01*
X159962903Y-113839003D01*
X159960843Y-113843700D01*
X159959585Y-113848665D01*
X159959584Y-113848670D01*
X159905125Y-114063720D01*
X159905123Y-114063729D01*
X159903866Y-114068695D01*
X159903442Y-114073802D01*
X159903441Y-114073813D01*
X159885200Y-114293955D01*
X159884700Y-114300000D01*
X159885124Y-114305117D01*
X159903441Y-114526186D01*
X159903442Y-114526195D01*
X159903866Y-114531305D01*
X159905123Y-114536272D01*
X159905125Y-114536279D01*
X159940173Y-114674677D01*
X159960843Y-114756300D01*
X159962903Y-114760996D01*
X160052016Y-114964154D01*
X160052019Y-114964159D01*
X160054076Y-114968849D01*
X160117548Y-115066001D01*
X160178219Y-115158865D01*
X160178222Y-115158869D01*
X160181021Y-115163153D01*
X160338216Y-115333913D01*
X160342263Y-115337063D01*
X160342270Y-115337069D01*
X160515818Y-115472147D01*
X160551056Y-115515540D01*
X160563656Y-115570000D01*
X160551056Y-115624460D01*
X160515818Y-115667853D01*
X160342270Y-115802930D01*
X160342258Y-115802940D01*
X160338216Y-115806087D01*
X160334746Y-115809855D01*
X160334742Y-115809860D01*
X160184491Y-115973077D01*
X160184488Y-115973080D01*
X160181021Y-115976847D01*
X160178226Y-115981124D01*
X160178219Y-115981134D01*
X160056878Y-116166862D01*
X160054076Y-116171151D01*
X160052021Y-116175835D01*
X160052016Y-116175845D01*
X159977036Y-116346784D01*
X159960843Y-116383700D01*
X159959585Y-116388665D01*
X159959584Y-116388670D01*
X159905125Y-116603720D01*
X159905123Y-116603729D01*
X159903866Y-116608695D01*
X159903442Y-116613802D01*
X159903441Y-116613813D01*
X159888243Y-116797241D01*
X159884700Y-116840000D01*
X159885124Y-116845117D01*
X159903441Y-117066186D01*
X159903442Y-117066195D01*
X159903866Y-117071305D01*
X159905123Y-117076272D01*
X159905125Y-117076279D01*
X159959584Y-117291329D01*
X159960843Y-117296300D01*
X159962903Y-117300996D01*
X160052016Y-117504154D01*
X160052019Y-117504159D01*
X160054076Y-117508849D01*
X160117548Y-117606000D01*
X160178219Y-117698865D01*
X160178222Y-117698869D01*
X160181021Y-117703153D01*
X160338216Y-117873913D01*
X160515819Y-118012146D01*
X160551056Y-118055538D01*
X160563656Y-118109999D01*
X160551057Y-118164459D01*
X160515819Y-118207852D01*
X160342265Y-118342934D01*
X160342254Y-118342944D01*
X160338216Y-118346087D01*
X160334746Y-118349855D01*
X160334742Y-118349860D01*
X160184491Y-118513077D01*
X160184488Y-118513080D01*
X160181021Y-118516847D01*
X160178226Y-118521124D01*
X160178219Y-118521134D01*
X160056878Y-118706862D01*
X160054076Y-118711151D01*
X160052021Y-118715835D01*
X160052016Y-118715845D01*
X159962903Y-118919003D01*
X159960843Y-118923700D01*
X159959585Y-118928665D01*
X159959584Y-118928670D01*
X159905125Y-119143720D01*
X159905123Y-119143729D01*
X159903866Y-119148695D01*
X159903442Y-119153802D01*
X159903441Y-119153813D01*
X159886241Y-119361403D01*
X159884700Y-119380000D01*
X159885124Y-119385117D01*
X159903441Y-119606186D01*
X159903442Y-119606195D01*
X159903866Y-119611305D01*
X159905123Y-119616272D01*
X159905125Y-119616279D01*
X159959584Y-119831329D01*
X159960843Y-119836300D01*
X159962903Y-119840996D01*
X160052016Y-120044154D01*
X160052019Y-120044159D01*
X160054076Y-120048849D01*
X160092870Y-120108228D01*
X160178219Y-120238865D01*
X160178222Y-120238869D01*
X160181021Y-120243153D01*
X160338216Y-120413913D01*
X160342263Y-120417063D01*
X160342270Y-120417069D01*
X160515818Y-120552147D01*
X160551056Y-120595540D01*
X160563656Y-120650000D01*
X160551056Y-120704460D01*
X160515818Y-120747853D01*
X160342270Y-120882930D01*
X160342258Y-120882940D01*
X160338216Y-120886087D01*
X160334746Y-120889855D01*
X160334742Y-120889860D01*
X160184491Y-121053077D01*
X160184488Y-121053080D01*
X160181021Y-121056847D01*
X160178226Y-121061124D01*
X160178219Y-121061134D01*
X160056878Y-121246862D01*
X160054076Y-121251151D01*
X160052021Y-121255835D01*
X160052016Y-121255845D01*
X159962903Y-121459003D01*
X159960843Y-121463700D01*
X159959585Y-121468665D01*
X159959584Y-121468670D01*
X159905125Y-121683720D01*
X159905123Y-121683729D01*
X159903866Y-121688695D01*
X159903442Y-121693802D01*
X159903441Y-121693813D01*
X159890609Y-121848683D01*
X159884700Y-121920000D01*
X159885124Y-121925117D01*
X159903441Y-122146186D01*
X159903442Y-122146195D01*
X159903866Y-122151305D01*
X159905123Y-122156272D01*
X159905125Y-122156279D01*
X159959584Y-122371329D01*
X159960843Y-122376300D01*
X159962903Y-122380996D01*
X160052016Y-122584154D01*
X160052019Y-122584159D01*
X160054076Y-122588849D01*
X160084461Y-122635356D01*
X160178219Y-122778865D01*
X160178222Y-122778869D01*
X160181021Y-122783153D01*
X160338216Y-122953913D01*
X160342263Y-122957063D01*
X160342270Y-122957069D01*
X160515818Y-123092147D01*
X160551056Y-123135540D01*
X160563656Y-123190000D01*
X160551056Y-123244460D01*
X160515818Y-123287853D01*
X160342264Y-123422935D01*
X160342254Y-123422943D01*
X160338216Y-123426087D01*
X160336925Y-123427489D01*
X160299235Y-123451017D01*
X160254160Y-123459500D01*
X147334278Y-123459500D01*
X147331137Y-123459460D01*
X147249924Y-123457402D01*
X147249921Y-123457402D01*
X147243637Y-123457243D01*
X147231267Y-123459460D01*
X147185578Y-123467648D01*
X147176254Y-123468955D01*
X147123821Y-123474288D01*
X147123807Y-123474290D01*
X147117562Y-123474926D01*
X147111568Y-123476806D01*
X147111565Y-123476807D01*
X147088526Y-123484035D01*
X147073292Y-123487774D01*
X147049533Y-123492033D01*
X147049532Y-123492033D01*
X147043347Y-123493142D01*
X147037511Y-123495472D01*
X147037504Y-123495475D01*
X146988568Y-123515021D01*
X146979698Y-123518179D01*
X146929411Y-123533957D01*
X146929396Y-123533963D01*
X146923412Y-123535841D01*
X146917923Y-123538887D01*
X146917915Y-123538891D01*
X146896818Y-123550601D01*
X146882642Y-123557333D01*
X146860227Y-123566286D01*
X146860213Y-123566292D01*
X146854383Y-123568622D01*
X146849139Y-123572077D01*
X146849135Y-123572080D01*
X146805122Y-123601087D01*
X146797065Y-123605967D01*
X146745498Y-123634591D01*
X146740734Y-123638680D01*
X146740719Y-123638691D01*
X146722405Y-123654413D01*
X146709883Y-123663855D01*
X146689732Y-123677136D01*
X146689721Y-123677144D01*
X146684482Y-123680598D01*
X146680038Y-123685041D01*
X146680034Y-123685045D01*
X146642781Y-123722297D01*
X146635875Y-123728698D01*
X146595875Y-123763038D01*
X146595869Y-123763043D01*
X146591105Y-123767134D01*
X146587260Y-123772100D01*
X146587260Y-123772101D01*
X146572480Y-123791195D01*
X146562108Y-123802970D01*
X136781899Y-133583181D01*
X136741671Y-133610061D01*
X136694218Y-133619500D01*
X132094278Y-133619500D01*
X132091137Y-133619460D01*
X132009924Y-133617402D01*
X132009921Y-133617402D01*
X132003637Y-133617243D01*
X131991267Y-133619460D01*
X131945578Y-133627648D01*
X131936254Y-133628955D01*
X131883821Y-133634288D01*
X131883807Y-133634290D01*
X131877562Y-133634926D01*
X131871568Y-133636806D01*
X131871565Y-133636807D01*
X131848526Y-133644035D01*
X131833292Y-133647774D01*
X131809533Y-133652033D01*
X131809532Y-133652033D01*
X131803347Y-133653142D01*
X131797511Y-133655472D01*
X131797504Y-133655475D01*
X131748568Y-133675021D01*
X131739698Y-133678179D01*
X131689411Y-133693957D01*
X131689396Y-133693963D01*
X131683412Y-133695841D01*
X131677923Y-133698887D01*
X131677915Y-133698891D01*
X131656818Y-133710601D01*
X131642642Y-133717333D01*
X131620227Y-133726286D01*
X131620213Y-133726292D01*
X131614383Y-133728622D01*
X131609139Y-133732077D01*
X131609135Y-133732080D01*
X131565122Y-133761087D01*
X131557065Y-133765967D01*
X131505498Y-133794591D01*
X131500734Y-133798680D01*
X131500719Y-133798691D01*
X131482405Y-133814413D01*
X131469883Y-133823855D01*
X131449732Y-133837136D01*
X131449721Y-133837144D01*
X131444482Y-133840598D01*
X131440038Y-133845041D01*
X131440034Y-133845045D01*
X131402781Y-133882297D01*
X131395875Y-133888698D01*
X131355875Y-133923038D01*
X131355869Y-133923043D01*
X131351105Y-133927134D01*
X131347260Y-133932100D01*
X131347260Y-133932101D01*
X131332480Y-133951195D01*
X131322108Y-133962970D01*
X121541899Y-143743181D01*
X121501671Y-143770061D01*
X121454218Y-143779500D01*
X106383783Y-143779500D01*
X106336330Y-143770061D01*
X106296102Y-143743181D01*
X103906819Y-141353899D01*
X103879939Y-141313671D01*
X103870500Y-141266218D01*
X103870500Y-139577182D01*
X107723500Y-139577182D01*
X107724189Y-139581754D01*
X107724190Y-139581765D01*
X107761912Y-139832028D01*
X107761913Y-139832035D01*
X107762604Y-139836615D01*
X107763969Y-139841043D01*
X107763971Y-139841048D01*
X107838569Y-140082891D01*
X107838573Y-140082901D01*
X107839937Y-140087323D01*
X107953772Y-140323704D01*
X108101567Y-140540479D01*
X108280019Y-140732805D01*
X108485143Y-140896386D01*
X108712357Y-141027568D01*
X108956584Y-141123420D01*
X109212370Y-141181802D01*
X109408506Y-141196500D01*
X109537177Y-141196500D01*
X109539494Y-141196500D01*
X109735630Y-141181802D01*
X109991416Y-141123420D01*
X110235643Y-141027568D01*
X110462857Y-140896386D01*
X110667981Y-140732805D01*
X110846433Y-140540479D01*
X110994228Y-140323704D01*
X111108063Y-140087323D01*
X111185396Y-139836615D01*
X111224500Y-139577182D01*
X111224500Y-139314818D01*
X111185396Y-139055385D01*
X111108063Y-138804677D01*
X110994228Y-138568296D01*
X110846433Y-138351521D01*
X110667981Y-138159195D01*
X110462857Y-137995614D01*
X110368216Y-137940973D01*
X110239664Y-137866753D01*
X110239658Y-137866750D01*
X110235643Y-137864432D01*
X110231324Y-137862737D01*
X110231318Y-137862734D01*
X109995738Y-137770276D01*
X109995734Y-137770275D01*
X109991416Y-137768580D01*
X109986893Y-137767547D01*
X109986891Y-137767547D01*
X109740149Y-137711229D01*
X109740143Y-137711228D01*
X109735630Y-137710198D01*
X109731008Y-137709851D01*
X109731004Y-137709851D01*
X109541808Y-137695673D01*
X109541797Y-137695672D01*
X109539494Y-137695500D01*
X109408506Y-137695500D01*
X109406203Y-137695672D01*
X109406191Y-137695673D01*
X109216995Y-137709851D01*
X109216989Y-137709851D01*
X109212370Y-137710198D01*
X109207858Y-137711227D01*
X109207850Y-137711229D01*
X108961108Y-137767547D01*
X108961102Y-137767548D01*
X108956584Y-137768580D01*
X108952268Y-137770273D01*
X108952261Y-137770276D01*
X108716681Y-137862734D01*
X108716670Y-137862739D01*
X108712357Y-137864432D01*
X108708346Y-137866747D01*
X108708335Y-137866753D01*
X108489161Y-137993294D01*
X108485143Y-137995614D01*
X108481519Y-137998503D01*
X108481516Y-137998506D01*
X108283646Y-138156302D01*
X108283641Y-138156306D01*
X108280019Y-138159195D01*
X108276865Y-138162593D01*
X108276863Y-138162596D01*
X108104719Y-138348123D01*
X108104713Y-138348129D01*
X108101567Y-138351521D01*
X107953772Y-138568296D01*
X107951759Y-138572474D01*
X107951756Y-138572481D01*
X107841949Y-138800497D01*
X107841944Y-138800508D01*
X107839937Y-138804677D01*
X107838574Y-138809093D01*
X107838569Y-138809108D01*
X107763971Y-139050951D01*
X107763968Y-139050959D01*
X107762604Y-139055385D01*
X107761914Y-139059961D01*
X107761912Y-139059971D01*
X107724190Y-139310234D01*
X107724189Y-139310246D01*
X107723500Y-139314818D01*
X107723500Y-139577182D01*
X103870500Y-139577182D01*
X103870500Y-127465783D01*
X103879939Y-127418330D01*
X103906819Y-127378102D01*
X104221465Y-127063456D01*
X106458109Y-124826810D01*
X106513690Y-124794720D01*
X106577878Y-124794720D01*
X106633465Y-124826814D01*
X106665559Y-124882402D01*
X106675167Y-124918261D01*
X106678856Y-124928397D01*
X106774113Y-125132676D01*
X106779501Y-125142008D01*
X106908784Y-125326643D01*
X106915721Y-125334909D01*
X107075090Y-125494278D01*
X107083356Y-125501215D01*
X107264595Y-125628120D01*
X107303460Y-125672438D01*
X107317471Y-125729695D01*
X107303460Y-125786952D01*
X107264594Y-125831270D01*
X107083034Y-125958399D01*
X107083029Y-125958402D01*
X107078599Y-125961505D01*
X107074775Y-125965328D01*
X107074769Y-125965334D01*
X106915334Y-126124769D01*
X106915328Y-126124775D01*
X106911505Y-126128599D01*
X106908402Y-126133029D01*
X106908399Y-126133034D01*
X106779073Y-126317731D01*
X106779068Y-126317738D01*
X106775965Y-126322171D01*
X106773677Y-126327077D01*
X106773675Y-126327081D01*
X106678386Y-126531427D01*
X106678383Y-126531432D01*
X106676097Y-126536337D01*
X106674698Y-126541557D01*
X106674694Y-126541569D01*
X106616337Y-126759365D01*
X106616335Y-126759371D01*
X106614937Y-126764592D01*
X106614465Y-126769977D01*
X106614465Y-126769982D01*
X106603242Y-126898259D01*
X106594341Y-127000000D01*
X106594813Y-127005395D01*
X106600580Y-127071317D01*
X106614937Y-127235408D01*
X106616336Y-127240630D01*
X106616337Y-127240634D01*
X106674694Y-127458430D01*
X106674697Y-127458438D01*
X106676097Y-127463663D01*
X106678385Y-127468570D01*
X106678386Y-127468572D01*
X106773678Y-127672927D01*
X106773681Y-127672933D01*
X106775965Y-127677830D01*
X106779064Y-127682257D01*
X106779066Y-127682259D01*
X106908399Y-127866966D01*
X106908402Y-127866970D01*
X106911505Y-127871401D01*
X107078599Y-128038495D01*
X107083032Y-128041599D01*
X107083038Y-128041604D01*
X107264158Y-128168425D01*
X107303024Y-128212743D01*
X107317035Y-128270000D01*
X107303024Y-128327257D01*
X107264159Y-128371575D01*
X107083041Y-128498395D01*
X107078599Y-128501505D01*
X107074775Y-128505328D01*
X107074769Y-128505334D01*
X106915334Y-128664769D01*
X106915328Y-128664775D01*
X106911505Y-128668599D01*
X106908402Y-128673029D01*
X106908399Y-128673034D01*
X106779073Y-128857731D01*
X106779068Y-128857738D01*
X106775965Y-128862171D01*
X106773677Y-128867077D01*
X106773675Y-128867081D01*
X106678386Y-129071427D01*
X106678383Y-129071432D01*
X106676097Y-129076337D01*
X106674698Y-129081557D01*
X106674694Y-129081569D01*
X106616337Y-129299365D01*
X106616335Y-129299371D01*
X106614937Y-129304592D01*
X106594341Y-129540000D01*
X106614937Y-129775408D01*
X106616336Y-129780630D01*
X106616337Y-129780634D01*
X106674694Y-129998430D01*
X106674697Y-129998438D01*
X106676097Y-130003663D01*
X106678385Y-130008570D01*
X106678386Y-130008572D01*
X106773678Y-130212927D01*
X106773681Y-130212933D01*
X106775965Y-130217830D01*
X106779064Y-130222257D01*
X106779066Y-130222259D01*
X106908399Y-130406966D01*
X106908402Y-130406970D01*
X106911505Y-130411401D01*
X107078599Y-130578495D01*
X107083032Y-130581599D01*
X107083038Y-130581604D01*
X107264158Y-130708425D01*
X107303024Y-130752743D01*
X107317035Y-130810000D01*
X107303024Y-130867257D01*
X107264159Y-130911575D01*
X107083041Y-131038395D01*
X107078599Y-131041505D01*
X107074775Y-131045328D01*
X107074769Y-131045334D01*
X106915334Y-131204769D01*
X106915328Y-131204775D01*
X106911505Y-131208599D01*
X106908402Y-131213029D01*
X106908399Y-131213034D01*
X106779073Y-131397731D01*
X106779068Y-131397738D01*
X106775965Y-131402171D01*
X106773677Y-131407077D01*
X106773675Y-131407081D01*
X106678386Y-131611427D01*
X106678383Y-131611432D01*
X106676097Y-131616337D01*
X106674698Y-131621557D01*
X106674694Y-131621569D01*
X106616337Y-131839365D01*
X106616335Y-131839371D01*
X106614937Y-131844592D01*
X106594341Y-132080000D01*
X106614937Y-132315408D01*
X106616336Y-132320630D01*
X106616337Y-132320634D01*
X106674694Y-132538430D01*
X106674697Y-132538438D01*
X106676097Y-132543663D01*
X106678385Y-132548570D01*
X106678386Y-132548572D01*
X106773678Y-132752927D01*
X106773681Y-132752933D01*
X106775965Y-132757830D01*
X106779064Y-132762257D01*
X106779066Y-132762259D01*
X106908399Y-132946966D01*
X106908402Y-132946970D01*
X106911505Y-132951401D01*
X107078599Y-133118495D01*
X107272170Y-133254035D01*
X107486337Y-133353903D01*
X107714592Y-133415063D01*
X107950000Y-133435659D01*
X108185408Y-133415063D01*
X108413663Y-133353903D01*
X108627830Y-133254035D01*
X108821401Y-133118495D01*
X108988495Y-132951401D01*
X109124035Y-132757830D01*
X109223903Y-132543663D01*
X109285063Y-132315408D01*
X109305659Y-132080000D01*
X109285063Y-131844592D01*
X109223903Y-131616337D01*
X109124035Y-131402171D01*
X108988495Y-131208599D01*
X108821401Y-131041505D01*
X108816968Y-131038401D01*
X108816961Y-131038395D01*
X108635842Y-130911575D01*
X108596976Y-130867257D01*
X108582965Y-130810000D01*
X108596976Y-130752743D01*
X108635842Y-130708425D01*
X108816961Y-130581604D01*
X108816961Y-130581603D01*
X108821401Y-130578495D01*
X108988495Y-130411401D01*
X109124035Y-130217830D01*
X109223903Y-130003663D01*
X109285063Y-129775408D01*
X109305659Y-129540000D01*
X109285063Y-129304592D01*
X109223903Y-129076337D01*
X109124035Y-128862171D01*
X108988495Y-128668599D01*
X108821401Y-128501505D01*
X108816968Y-128498401D01*
X108816961Y-128498395D01*
X108635842Y-128371575D01*
X108596976Y-128327257D01*
X108582965Y-128270000D01*
X108596976Y-128212743D01*
X108635842Y-128168425D01*
X108816961Y-128041604D01*
X108816961Y-128041603D01*
X108821401Y-128038495D01*
X108988495Y-127871401D01*
X109124035Y-127677830D01*
X109223903Y-127463663D01*
X109285063Y-127235408D01*
X109305659Y-127000000D01*
X109285063Y-126764592D01*
X109223903Y-126536337D01*
X109124035Y-126322171D01*
X108988495Y-126128599D01*
X108821401Y-125961505D01*
X108816970Y-125958402D01*
X108816966Y-125958399D01*
X108635405Y-125831269D01*
X108596540Y-125786951D01*
X108582529Y-125729694D01*
X108596540Y-125672437D01*
X108635406Y-125628119D01*
X108658439Y-125611991D01*
X133827006Y-125611991D01*
X133835113Y-125623181D01*
X133847602Y-125632901D01*
X133856151Y-125638487D01*
X134051194Y-125744039D01*
X134060547Y-125748141D01*
X134270290Y-125820146D01*
X134280199Y-125822655D01*
X134498929Y-125859155D01*
X134509127Y-125860000D01*
X134730873Y-125860000D01*
X134741070Y-125859155D01*
X134959800Y-125822655D01*
X134969709Y-125820146D01*
X135179452Y-125748141D01*
X135188805Y-125744039D01*
X135383845Y-125638488D01*
X135392397Y-125632901D01*
X135404888Y-125623179D01*
X135412992Y-125611992D01*
X135406331Y-125599884D01*
X134631542Y-124825095D01*
X134620000Y-124818431D01*
X134608457Y-124825095D01*
X133833666Y-125599885D01*
X133827006Y-125611991D01*
X108658439Y-125611991D01*
X108816638Y-125501219D01*
X108824909Y-125494278D01*
X108984278Y-125334909D01*
X108991215Y-125326643D01*
X109120498Y-125142008D01*
X109125886Y-125132676D01*
X109221143Y-124928397D01*
X109224831Y-124918263D01*
X109276943Y-124723780D01*
X109277311Y-124712551D01*
X109266369Y-124710000D01*
X107824000Y-124710000D01*
X107762000Y-124693387D01*
X107716613Y-124648000D01*
X107700000Y-124586000D01*
X107700000Y-124465117D01*
X133215626Y-124465117D01*
X133233937Y-124686102D01*
X133235621Y-124696196D01*
X133290059Y-124911166D01*
X133293378Y-124920833D01*
X133382456Y-125123913D01*
X133387322Y-125132903D01*
X133461245Y-125246051D01*
X133469212Y-125253776D01*
X133478592Y-125247853D01*
X134254904Y-124471542D01*
X134261568Y-124460000D01*
X134978431Y-124460000D01*
X134985095Y-124471542D01*
X135761405Y-125247852D01*
X135770786Y-125253776D01*
X135778754Y-125246051D01*
X135852675Y-125132906D01*
X135857543Y-125123911D01*
X135946621Y-124920833D01*
X135949940Y-124911166D01*
X136004378Y-124696196D01*
X136006062Y-124686102D01*
X136024374Y-124465117D01*
X136024374Y-124454883D01*
X136006062Y-124233897D01*
X136004378Y-124223803D01*
X135949940Y-124008833D01*
X135946621Y-123999166D01*
X135857543Y-123796086D01*
X135852678Y-123787096D01*
X135778753Y-123673947D01*
X135770786Y-123666222D01*
X135761405Y-123672146D01*
X134985095Y-124448457D01*
X134978431Y-124460000D01*
X134261568Y-124460000D01*
X134254904Y-124448457D01*
X133478592Y-123672145D01*
X133469212Y-123666222D01*
X133461245Y-123673946D01*
X133387322Y-123787096D01*
X133382456Y-123796086D01*
X133293378Y-123999166D01*
X133290059Y-124008833D01*
X133235621Y-124223803D01*
X133233937Y-124233897D01*
X133215626Y-124454883D01*
X133215626Y-124465117D01*
X107700000Y-124465117D01*
X107700000Y-124334000D01*
X107716613Y-124272000D01*
X107762000Y-124226613D01*
X107824000Y-124210000D01*
X109266369Y-124210000D01*
X109277311Y-124207448D01*
X109276943Y-124196219D01*
X109224831Y-124001736D01*
X109221143Y-123991602D01*
X109125889Y-123787332D01*
X109120491Y-123777982D01*
X108991215Y-123593357D01*
X108984280Y-123585092D01*
X108866053Y-123466865D01*
X108834757Y-123414119D01*
X108832568Y-123352825D01*
X108860022Y-123297981D01*
X108910398Y-123263003D01*
X109042331Y-123213796D01*
X109157546Y-123127546D01*
X109243796Y-123012331D01*
X109294091Y-122877483D01*
X109300500Y-122817873D01*
X109300499Y-121022128D01*
X109294091Y-120962517D01*
X109243796Y-120827669D01*
X109157546Y-120712454D01*
X109146867Y-120704460D01*
X109049431Y-120631519D01*
X109049430Y-120631518D01*
X109042331Y-120626204D01*
X108971965Y-120599959D01*
X108914752Y-120578620D01*
X108914750Y-120578619D01*
X108907483Y-120575909D01*
X108899770Y-120575079D01*
X108899767Y-120575079D01*
X108851180Y-120569855D01*
X108851169Y-120569854D01*
X108847873Y-120569500D01*
X108844550Y-120569500D01*
X107055439Y-120569500D01*
X107055420Y-120569500D01*
X107052128Y-120569501D01*
X107048850Y-120569853D01*
X107048838Y-120569854D01*
X107000231Y-120575079D01*
X107000225Y-120575080D01*
X106992517Y-120575909D01*
X106985252Y-120578618D01*
X106985246Y-120578620D01*
X106865980Y-120623104D01*
X106865978Y-120623104D01*
X106857669Y-120626204D01*
X106850572Y-120631516D01*
X106850568Y-120631519D01*
X106749550Y-120707141D01*
X106749546Y-120707144D01*
X106742454Y-120712454D01*
X106737144Y-120719546D01*
X106737141Y-120719550D01*
X106661519Y-120820568D01*
X106661516Y-120820572D01*
X106656204Y-120827669D01*
X106653104Y-120835978D01*
X106653104Y-120835980D01*
X106608620Y-120955247D01*
X106608619Y-120955250D01*
X106605909Y-120962517D01*
X106605079Y-120970227D01*
X106605079Y-120970232D01*
X106599855Y-121018819D01*
X106599854Y-121018831D01*
X106599500Y-121022127D01*
X106599500Y-121025449D01*
X106599500Y-121804216D01*
X106590061Y-121851669D01*
X106563181Y-121891897D01*
X102172646Y-126282432D01*
X102170398Y-126284624D01*
X102106947Y-126344941D01*
X102103359Y-126350095D01*
X102103352Y-126350104D01*
X102073244Y-126393361D01*
X102067574Y-126400881D01*
X102034274Y-126441721D01*
X102034271Y-126441724D01*
X102030302Y-126446593D01*
X102027396Y-126452155D01*
X102027388Y-126452168D01*
X102016210Y-126473566D01*
X102008082Y-126486982D01*
X101994300Y-126506784D01*
X101994295Y-126506792D01*
X101990705Y-126511951D01*
X101988228Y-126517721D01*
X101988225Y-126517728D01*
X101967439Y-126566165D01*
X101963399Y-126574671D01*
X101936091Y-126626951D01*
X101934363Y-126632989D01*
X101934360Y-126632997D01*
X101927720Y-126656201D01*
X101922459Y-126670978D01*
X101912942Y-126693157D01*
X101910460Y-126698942D01*
X101909194Y-126705097D01*
X101909192Y-126705107D01*
X101898587Y-126756712D01*
X101896342Y-126765859D01*
X101881842Y-126816534D01*
X101881839Y-126816547D01*
X101880113Y-126822582D01*
X101879636Y-126828842D01*
X101879635Y-126828849D01*
X101877801Y-126852929D01*
X101875622Y-126868463D01*
X101870766Y-126892097D01*
X101869500Y-126898259D01*
X101869500Y-126904550D01*
X101869500Y-126957241D01*
X101869142Y-126966656D01*
X101865140Y-127019205D01*
X101865140Y-127019210D01*
X101864663Y-127025476D01*
X99060500Y-127025476D01*
X99060500Y-115447182D01*
X107723500Y-115447182D01*
X107724189Y-115451754D01*
X107724190Y-115451765D01*
X107761912Y-115702028D01*
X107761913Y-115702035D01*
X107762604Y-115706615D01*
X107763969Y-115711043D01*
X107763971Y-115711048D01*
X107838569Y-115952891D01*
X107838573Y-115952901D01*
X107839937Y-115957323D01*
X107841946Y-115961496D01*
X107841949Y-115961502D01*
X107947468Y-116180613D01*
X107953772Y-116193704D01*
X108101567Y-116410479D01*
X108280019Y-116602805D01*
X108485143Y-116766386D01*
X108712357Y-116897568D01*
X108956584Y-116993420D01*
X109212370Y-117051802D01*
X109408506Y-117066500D01*
X109537177Y-117066500D01*
X109539494Y-117066500D01*
X109735630Y-117051802D01*
X109991416Y-116993420D01*
X110235643Y-116897568D01*
X110462857Y-116766386D01*
X110667981Y-116602805D01*
X110846433Y-116410479D01*
X110994228Y-116193704D01*
X111108063Y-115957323D01*
X111185396Y-115706615D01*
X111224500Y-115447182D01*
X111224500Y-115184818D01*
X111185396Y-114925385D01*
X111137026Y-114768572D01*
X111109430Y-114679108D01*
X111109428Y-114679105D01*
X111108063Y-114674677D01*
X110994228Y-114438296D01*
X110846433Y-114221521D01*
X110667981Y-114029195D01*
X110462857Y-113865614D01*
X110368216Y-113810973D01*
X110239664Y-113736753D01*
X110239658Y-113736750D01*
X110235643Y-113734432D01*
X110231324Y-113732737D01*
X110231318Y-113732734D01*
X109995738Y-113640276D01*
X109995734Y-113640275D01*
X109991416Y-113638580D01*
X109986893Y-113637547D01*
X109986891Y-113637547D01*
X109740149Y-113581229D01*
X109740143Y-113581228D01*
X109735630Y-113580198D01*
X109731008Y-113579851D01*
X109731004Y-113579851D01*
X109541808Y-113565673D01*
X109541797Y-113565672D01*
X109539494Y-113565500D01*
X109408506Y-113565500D01*
X109406203Y-113565672D01*
X109406191Y-113565673D01*
X109216995Y-113579851D01*
X109216989Y-113579851D01*
X109212370Y-113580198D01*
X109207858Y-113581227D01*
X109207850Y-113581229D01*
X108961108Y-113637547D01*
X108961102Y-113637548D01*
X108956584Y-113638580D01*
X108952268Y-113640273D01*
X108952261Y-113640276D01*
X108716681Y-113732734D01*
X108716670Y-113732739D01*
X108712357Y-113734432D01*
X108708346Y-113736747D01*
X108708335Y-113736753D01*
X108489161Y-113863294D01*
X108485143Y-113865614D01*
X108481519Y-113868503D01*
X108481516Y-113868506D01*
X108283646Y-114026302D01*
X108283641Y-114026306D01*
X108280019Y-114029195D01*
X108276865Y-114032593D01*
X108276863Y-114032596D01*
X108104719Y-114218123D01*
X108104713Y-114218129D01*
X108101567Y-114221521D01*
X108098957Y-114225348D01*
X108098957Y-114225349D01*
X108044383Y-114305395D01*
X107953772Y-114438296D01*
X107951759Y-114442474D01*
X107951756Y-114442481D01*
X107841949Y-114670497D01*
X107841944Y-114670508D01*
X107839937Y-114674677D01*
X107838574Y-114679093D01*
X107838569Y-114679108D01*
X107763971Y-114920951D01*
X107763968Y-114920959D01*
X107762604Y-114925385D01*
X107761914Y-114929961D01*
X107761912Y-114929971D01*
X107724190Y-115180234D01*
X107724189Y-115180246D01*
X107723500Y-115184818D01*
X107723500Y-115447182D01*
X99060500Y-115447182D01*
X99060500Y-98683182D01*
X108485500Y-98683182D01*
X108486189Y-98687754D01*
X108486190Y-98687765D01*
X108523912Y-98938028D01*
X108523913Y-98938035D01*
X108524604Y-98942615D01*
X108525969Y-98947043D01*
X108525971Y-98947048D01*
X108600569Y-99188891D01*
X108600573Y-99188901D01*
X108601937Y-99193323D01*
X108603946Y-99197496D01*
X108603949Y-99197502D01*
X108701611Y-99400298D01*
X108715772Y-99429704D01*
X108863567Y-99646479D01*
X109042019Y-99838805D01*
X109247143Y-100002386D01*
X109474357Y-100133568D01*
X109718584Y-100229420D01*
X109974370Y-100287802D01*
X110170506Y-100302500D01*
X110299177Y-100302500D01*
X110301494Y-100302500D01*
X110497630Y-100287802D01*
X110753416Y-100229420D01*
X110997643Y-100133568D01*
X111224857Y-100002386D01*
X111429981Y-99838805D01*
X111608433Y-99646479D01*
X111756228Y-99429704D01*
X111870063Y-99193323D01*
X111947396Y-98942615D01*
X111986500Y-98683182D01*
X111986500Y-98420818D01*
X111947396Y-98161385D01*
X111870063Y-97910677D01*
X111756228Y-97674296D01*
X111608433Y-97457521D01*
X111429981Y-97265195D01*
X111224857Y-97101614D01*
X111130216Y-97046973D01*
X111001664Y-96972753D01*
X111001658Y-96972750D01*
X110997643Y-96970432D01*
X110993324Y-96968737D01*
X110993318Y-96968734D01*
X110757738Y-96876276D01*
X110757734Y-96876275D01*
X110753416Y-96874580D01*
X110748893Y-96873547D01*
X110748891Y-96873547D01*
X110502149Y-96817229D01*
X110502143Y-96817228D01*
X110497630Y-96816198D01*
X110493008Y-96815851D01*
X110493004Y-96815851D01*
X110303808Y-96801673D01*
X110303797Y-96801672D01*
X110301494Y-96801500D01*
X110170506Y-96801500D01*
X110168203Y-96801672D01*
X110168191Y-96801673D01*
X109978995Y-96815851D01*
X109978989Y-96815851D01*
X109974370Y-96816198D01*
X109969858Y-96817227D01*
X109969850Y-96817229D01*
X109723108Y-96873547D01*
X109723102Y-96873548D01*
X109718584Y-96874580D01*
X109714268Y-96876273D01*
X109714261Y-96876276D01*
X109478681Y-96968734D01*
X109478670Y-96968739D01*
X109474357Y-96970432D01*
X109470346Y-96972747D01*
X109470335Y-96972753D01*
X109251161Y-97099294D01*
X109247143Y-97101614D01*
X109243519Y-97104503D01*
X109243516Y-97104506D01*
X109045646Y-97262302D01*
X109045641Y-97262306D01*
X109042019Y-97265195D01*
X109038865Y-97268593D01*
X109038863Y-97268596D01*
X108866719Y-97454123D01*
X108866713Y-97454129D01*
X108863567Y-97457521D01*
X108860957Y-97461348D01*
X108860957Y-97461349D01*
X108795867Y-97556819D01*
X108715772Y-97674296D01*
X108713759Y-97678474D01*
X108713756Y-97678481D01*
X108603949Y-97906497D01*
X108603944Y-97906508D01*
X108601937Y-97910677D01*
X108600574Y-97915093D01*
X108600569Y-97915108D01*
X108525971Y-98156951D01*
X108525968Y-98156959D01*
X108524604Y-98161385D01*
X108523914Y-98165961D01*
X108523912Y-98165971D01*
X108486190Y-98416234D01*
X108486189Y-98416246D01*
X108485500Y-98420818D01*
X108485500Y-98683182D01*
X99060500Y-98683182D01*
X99060500Y-83553674D01*
X106600000Y-83553674D01*
X106603450Y-83566549D01*
X106616326Y-83570000D01*
X107683674Y-83570000D01*
X107696549Y-83566549D01*
X107700000Y-83553674D01*
X108200000Y-83553674D01*
X108203450Y-83566549D01*
X108216326Y-83570000D01*
X109283674Y-83570000D01*
X109296549Y-83566549D01*
X109300000Y-83553674D01*
X109300000Y-82925482D01*
X109299646Y-82918885D01*
X109294426Y-82870332D01*
X109290888Y-82855358D01*
X109246452Y-82736222D01*
X109238037Y-82720810D01*
X109162501Y-82619907D01*
X109150092Y-82607498D01*
X109049189Y-82531962D01*
X109033777Y-82523547D01*
X108914641Y-82479111D01*
X108899667Y-82475573D01*
X108851114Y-82470353D01*
X108844518Y-82470000D01*
X108216326Y-82470000D01*
X108203450Y-82473450D01*
X108200000Y-82486326D01*
X108200000Y-83553674D01*
X107700000Y-83553674D01*
X107700000Y-82486326D01*
X107696549Y-82473450D01*
X107683674Y-82470000D01*
X107055482Y-82470000D01*
X107048885Y-82470353D01*
X107000332Y-82475573D01*
X106985358Y-82479111D01*
X106866222Y-82523547D01*
X106850810Y-82531962D01*
X106749907Y-82607498D01*
X106737498Y-82619907D01*
X106661962Y-82720810D01*
X106653547Y-82736222D01*
X106609111Y-82855358D01*
X106605573Y-82870332D01*
X106600353Y-82918885D01*
X106600000Y-82925482D01*
X106600000Y-83553674D01*
X99060500Y-83553674D01*
X99060500Y-74299182D01*
X108231500Y-74299182D01*
X108232189Y-74303754D01*
X108232190Y-74303765D01*
X108269912Y-74554028D01*
X108269913Y-74554035D01*
X108270604Y-74558615D01*
X108271969Y-74563043D01*
X108271971Y-74563048D01*
X108346569Y-74804891D01*
X108346573Y-74804901D01*
X108347937Y-74809323D01*
X108349946Y-74813496D01*
X108349949Y-74813502D01*
X108452266Y-75025965D01*
X108461772Y-75045704D01*
X108609567Y-75262479D01*
X108788019Y-75454805D01*
X108993143Y-75618386D01*
X109220357Y-75749568D01*
X109464584Y-75845420D01*
X109720370Y-75903802D01*
X109916506Y-75918500D01*
X110045177Y-75918500D01*
X110047494Y-75918500D01*
X110243630Y-75903802D01*
X110499416Y-75845420D01*
X110743643Y-75749568D01*
X110970857Y-75618386D01*
X111175981Y-75454805D01*
X111354433Y-75262479D01*
X111502228Y-75045704D01*
X111616063Y-74809323D01*
X111693396Y-74558615D01*
X111732500Y-74299182D01*
X111732500Y-74036818D01*
X111693396Y-73777385D01*
X111633633Y-73583637D01*
X111617430Y-73531108D01*
X111617428Y-73531105D01*
X111616063Y-73526677D01*
X111502228Y-73290296D01*
X111354433Y-73073521D01*
X111175981Y-72881195D01*
X110970857Y-72717614D01*
X110806870Y-72622936D01*
X110747664Y-72588753D01*
X110747658Y-72588750D01*
X110743643Y-72586432D01*
X110739324Y-72584737D01*
X110739318Y-72584734D01*
X110503738Y-72492276D01*
X110503734Y-72492275D01*
X110499416Y-72490580D01*
X110494893Y-72489547D01*
X110494891Y-72489547D01*
X110248149Y-72433229D01*
X110248143Y-72433228D01*
X110243630Y-72432198D01*
X110239008Y-72431851D01*
X110239004Y-72431851D01*
X110049808Y-72417673D01*
X110049797Y-72417672D01*
X110047494Y-72417500D01*
X109916506Y-72417500D01*
X109914203Y-72417672D01*
X109914191Y-72417673D01*
X109724995Y-72431851D01*
X109724989Y-72431851D01*
X109720370Y-72432198D01*
X109715858Y-72433227D01*
X109715850Y-72433229D01*
X109469108Y-72489547D01*
X109469102Y-72489548D01*
X109464584Y-72490580D01*
X109460268Y-72492273D01*
X109460261Y-72492276D01*
X109224681Y-72584734D01*
X109224670Y-72584739D01*
X109220357Y-72586432D01*
X109216346Y-72588747D01*
X109216335Y-72588753D01*
X108997161Y-72715294D01*
X108993143Y-72717614D01*
X108989519Y-72720503D01*
X108989516Y-72720506D01*
X108791646Y-72878302D01*
X108791641Y-72878306D01*
X108788019Y-72881195D01*
X108784865Y-72884593D01*
X108784863Y-72884596D01*
X108612719Y-73070123D01*
X108612713Y-73070129D01*
X108609567Y-73073521D01*
X108606957Y-73077348D01*
X108606957Y-73077349D01*
X108467852Y-73281379D01*
X108461772Y-73290296D01*
X108459759Y-73294474D01*
X108459756Y-73294481D01*
X108349949Y-73522497D01*
X108349944Y-73522508D01*
X108347937Y-73526677D01*
X108346574Y-73531093D01*
X108346569Y-73531108D01*
X108271971Y-73772951D01*
X108271968Y-73772959D01*
X108270604Y-73777385D01*
X108269914Y-73781961D01*
X108269912Y-73781971D01*
X108232190Y-74032234D01*
X108232189Y-74032246D01*
X108231500Y-74036818D01*
X108231500Y-74299182D01*
X99060500Y-74299182D01*
X99060500Y-61091182D01*
X102389500Y-61091182D01*
X102390189Y-61095754D01*
X102390190Y-61095765D01*
X102427912Y-61346028D01*
X102427913Y-61346035D01*
X102428604Y-61350615D01*
X102429969Y-61355043D01*
X102429971Y-61355048D01*
X102504569Y-61596891D01*
X102504573Y-61596901D01*
X102505937Y-61601323D01*
X102619772Y-61837704D01*
X102767567Y-62054479D01*
X102946019Y-62246805D01*
X103151143Y-62410386D01*
X103378357Y-62541568D01*
X103622584Y-62637420D01*
X103878370Y-62695802D01*
X104074506Y-62710500D01*
X104203177Y-62710500D01*
X104205494Y-62710500D01*
X104401630Y-62695802D01*
X104657416Y-62637420D01*
X104901643Y-62541568D01*
X105128857Y-62410386D01*
X105333981Y-62246805D01*
X105512433Y-62054479D01*
X105660228Y-61837704D01*
X105774063Y-61601323D01*
X105851396Y-61350615D01*
X105890500Y-61091182D01*
X191289500Y-61091182D01*
X191290189Y-61095754D01*
X191290190Y-61095765D01*
X191327912Y-61346028D01*
X191327913Y-61346035D01*
X191328604Y-61350615D01*
X191329969Y-61355043D01*
X191329971Y-61355048D01*
X191404569Y-61596891D01*
X191404573Y-61596901D01*
X191405937Y-61601323D01*
X191519772Y-61837704D01*
X191667567Y-62054479D01*
X191846019Y-62246805D01*
X192051143Y-62410386D01*
X192278357Y-62541568D01*
X192522584Y-62637420D01*
X192778370Y-62695802D01*
X192974506Y-62710500D01*
X193103177Y-62710500D01*
X193105494Y-62710500D01*
X193301630Y-62695802D01*
X193557416Y-62637420D01*
X193801643Y-62541568D01*
X194028857Y-62410386D01*
X194233981Y-62246805D01*
X194412433Y-62054479D01*
X194560228Y-61837704D01*
X194674063Y-61601323D01*
X194751396Y-61350615D01*
X194790500Y-61091182D01*
X194790500Y-60828818D01*
X194751396Y-60569385D01*
X194674063Y-60318677D01*
X194560228Y-60082296D01*
X194412433Y-59865521D01*
X194233981Y-59673195D01*
X194028857Y-59509614D01*
X193934216Y-59454973D01*
X193805664Y-59380753D01*
X193805658Y-59380750D01*
X193801643Y-59378432D01*
X193797324Y-59376737D01*
X193797318Y-59376734D01*
X193561738Y-59284276D01*
X193561734Y-59284275D01*
X193557416Y-59282580D01*
X193552893Y-59281547D01*
X193552891Y-59281547D01*
X193306149Y-59225229D01*
X193306143Y-59225228D01*
X193301630Y-59224198D01*
X193297008Y-59223851D01*
X193297004Y-59223851D01*
X193107808Y-59209673D01*
X193107797Y-59209672D01*
X193105494Y-59209500D01*
X192974506Y-59209500D01*
X192972203Y-59209672D01*
X192972191Y-59209673D01*
X192782995Y-59223851D01*
X192782989Y-59223851D01*
X192778370Y-59224198D01*
X192773858Y-59225227D01*
X192773850Y-59225229D01*
X192527108Y-59281547D01*
X192527102Y-59281548D01*
X192522584Y-59282580D01*
X192518268Y-59284273D01*
X192518261Y-59284276D01*
X192282681Y-59376734D01*
X192282670Y-59376739D01*
X192278357Y-59378432D01*
X192274346Y-59380747D01*
X192274335Y-59380753D01*
X192055161Y-59507294D01*
X192051143Y-59509614D01*
X192047519Y-59512503D01*
X192047516Y-59512506D01*
X191849646Y-59670302D01*
X191849641Y-59670306D01*
X191846019Y-59673195D01*
X191842865Y-59676593D01*
X191842863Y-59676596D01*
X191670719Y-59862123D01*
X191670713Y-59862129D01*
X191667567Y-59865521D01*
X191664957Y-59869348D01*
X191664957Y-59869349D01*
X191651396Y-59889240D01*
X191519772Y-60082296D01*
X191517759Y-60086474D01*
X191517756Y-60086481D01*
X191407949Y-60314497D01*
X191407944Y-60314508D01*
X191405937Y-60318677D01*
X191404574Y-60323093D01*
X191404569Y-60323108D01*
X191329971Y-60564951D01*
X191329968Y-60564959D01*
X191328604Y-60569385D01*
X191327914Y-60573961D01*
X191327912Y-60573971D01*
X191290190Y-60824234D01*
X191290189Y-60824246D01*
X191289500Y-60828818D01*
X191289500Y-61091182D01*
X105890500Y-61091182D01*
X105890500Y-60828818D01*
X105851396Y-60569385D01*
X105774063Y-60318677D01*
X105660228Y-60082296D01*
X105512433Y-59865521D01*
X105333981Y-59673195D01*
X105128857Y-59509614D01*
X105034216Y-59454973D01*
X104905664Y-59380753D01*
X104905658Y-59380750D01*
X104901643Y-59378432D01*
X104897324Y-59376737D01*
X104897318Y-59376734D01*
X104661738Y-59284276D01*
X104661734Y-59284275D01*
X104657416Y-59282580D01*
X104652893Y-59281547D01*
X104652891Y-59281547D01*
X104406149Y-59225229D01*
X104406143Y-59225228D01*
X104401630Y-59224198D01*
X104397008Y-59223851D01*
X104397004Y-59223851D01*
X104207808Y-59209673D01*
X104207797Y-59209672D01*
X104205494Y-59209500D01*
X104074506Y-59209500D01*
X104072203Y-59209672D01*
X104072191Y-59209673D01*
X103882995Y-59223851D01*
X103882989Y-59223851D01*
X103878370Y-59224198D01*
X103873858Y-59225227D01*
X103873850Y-59225229D01*
X103627108Y-59281547D01*
X103627102Y-59281548D01*
X103622584Y-59282580D01*
X103618268Y-59284273D01*
X103618261Y-59284276D01*
X103382681Y-59376734D01*
X103382670Y-59376739D01*
X103378357Y-59378432D01*
X103374346Y-59380747D01*
X103374335Y-59380753D01*
X103155161Y-59507294D01*
X103151143Y-59509614D01*
X103147519Y-59512503D01*
X103147516Y-59512506D01*
X102949646Y-59670302D01*
X102949641Y-59670306D01*
X102946019Y-59673195D01*
X102942865Y-59676593D01*
X102942863Y-59676596D01*
X102770719Y-59862123D01*
X102770713Y-59862129D01*
X102767567Y-59865521D01*
X102764957Y-59869348D01*
X102764957Y-59869349D01*
X102751396Y-59889240D01*
X102619772Y-60082296D01*
X102617759Y-60086474D01*
X102617756Y-60086481D01*
X102507949Y-60314497D01*
X102507944Y-60314508D01*
X102505937Y-60318677D01*
X102504574Y-60323093D01*
X102504569Y-60323108D01*
X102429971Y-60564951D01*
X102429968Y-60564959D01*
X102428604Y-60569385D01*
X102427914Y-60573961D01*
X102427912Y-60573971D01*
X102390190Y-60824234D01*
X102390189Y-60824246D01*
X102389500Y-60828818D01*
X102389500Y-61091182D01*
X99060500Y-61091182D01*
X99060500Y-60962561D01*
X99060606Y-60957437D01*
X99065734Y-60833453D01*
X99069495Y-60742496D01*
X99078348Y-60539746D01*
X99079177Y-60529883D01*
X99106031Y-60314444D01*
X99106073Y-60314123D01*
X99132750Y-60111486D01*
X99134317Y-60102290D01*
X99178805Y-59890115D01*
X99178994Y-59889240D01*
X99223293Y-59689419D01*
X99225498Y-59680920D01*
X99287267Y-59473440D01*
X99287835Y-59471591D01*
X99349322Y-59276576D01*
X99352027Y-59268898D01*
X99430739Y-59067176D01*
X99431599Y-59065038D01*
X99509908Y-58875983D01*
X99513031Y-58869058D01*
X99608130Y-58674530D01*
X99609416Y-58671983D01*
X99703890Y-58490500D01*
X99707348Y-58484300D01*
X99818108Y-58298420D01*
X99819977Y-58295388D01*
X99929901Y-58122843D01*
X99933511Y-58117491D01*
X100059249Y-57941385D01*
X100061727Y-57938038D01*
X100186258Y-57775746D01*
X100189958Y-57771157D01*
X100329810Y-57606032D01*
X100332931Y-57602492D01*
X100471176Y-57451624D01*
X100474827Y-57447810D01*
X100627810Y-57294827D01*
X100631624Y-57291176D01*
X100782492Y-57152931D01*
X100786032Y-57149810D01*
X100951157Y-57009958D01*
X100955746Y-57006258D01*
X101118038Y-56881727D01*
X101121385Y-56879249D01*
X101297491Y-56753511D01*
X101302843Y-56749901D01*
X101475388Y-56639977D01*
X101478420Y-56638108D01*
X101664301Y-56527347D01*
X101670500Y-56523890D01*
X101851983Y-56429416D01*
X101854530Y-56428130D01*
X102049058Y-56333031D01*
X102055983Y-56329908D01*
X102245038Y-56251599D01*
X102247176Y-56250739D01*
X102448898Y-56172027D01*
X102456576Y-56169322D01*
X102651612Y-56107828D01*
X102653438Y-56107268D01*
X102860920Y-56045498D01*
X102869419Y-56043293D01*
X103069240Y-55998994D01*
X103070115Y-55998805D01*
X103282290Y-55954317D01*
X103291486Y-55952750D01*
X103494123Y-55926073D01*
X103494444Y-55926031D01*
X103709883Y-55899177D01*
X103719746Y-55898348D01*
X103922421Y-55889499D01*
X104137437Y-55880605D01*
X104142561Y-55880500D01*
X193037439Y-55880500D01*
X193042562Y-55880605D01*
G37*
%TD.AperFunction*%
%TD*%
M02*
